<?xml version="1.0" encoding="utf-8" standalone="no"?>
<!DOCTYPE svg PUBLIC "-//W3C//DTD SVG 1.1//EN"
  "http://www.w3.org/Graphics/SVG/1.1/DTD/svg11.dtd">
<svg xmlns:xlink="http://www.w3.org/1999/xlink" width="678.6175pt" height="408.059031pt" viewBox="0 0 678.6175 408.059031" xmlns="http://www.w3.org/2000/svg" version="1.1">
 <metadata>
  <rdf:RDF xmlns:dc="http://purl.org/dc/elements/1.1/" xmlns:cc="http://creativecommons.org/ns#" xmlns:rdf="http://www.w3.org/1999/02/22-rdf-syntax-ns#">
   <cc:Work>
    <dc:type rdf:resource="http://purl.org/dc/dcmitype/StillImage"/>
    <dc:date>2023-03-15T22:04:28.727163</dc:date>
    <dc:format>image/svg+xml</dc:format>
    <dc:creator>
     <cc:Agent>
      <dc:title>Matplotlib v3.6.2, https://matplotlib.org/</dc:title>
     </cc:Agent>
    </dc:creator>
   </cc:Work>
  </rdf:RDF>
 </metadata>
 <defs>
  <style type="text/css">*{stroke-linejoin: round; stroke-linecap: butt}</style>
 </defs>
 <g id="figure_1">
  <g id="patch_1">
   <path d="M 0 408.059031 
L 678.6175 408.059031 
L 678.6175 0 
L 0 0 
z
" style="fill: #ffffff"/>
  </g>
  <g id="axes_1">
   <g id="patch_2">
    <path d="M 74.30625 368.3955 
L 632.30625 368.3955 
L 632.30625 35.7555 
L 74.30625 35.7555 
z
" style="fill: #eaeaf2"/>
   </g>
   <g id="matplotlib.axis_1">
    <g id="xtick_1">
     <g id="line2d_1">
      <path d="M 74.30625 368.3955 
L 74.30625 35.7555 
" clip-path="url(#p1bae2107c6)" style="fill: none; stroke: #ffffff; stroke-linecap: round"/>
     </g>
    </g>
    <g id="xtick_2">
     <g id="line2d_2">
      <path d="M 90.519325 368.3955 
L 90.519325 35.7555 
" clip-path="url(#p1bae2107c6)" style="fill: none; stroke: #ffffff; stroke-linecap: round"/>
     </g>
     <g id="text_1">
      <!-- Feb -->
      <g style="fill: #262626" transform="translate(80.782606 386.253781) scale(0.11 -0.11)">
       <defs>
        <path id="DejaVuSans-46" d="M 628 4666 
L 3309 4666 
L 3309 4134 
L 1259 4134 
L 1259 2759 
L 3109 2759 
L 3109 2228 
L 1259 2228 
L 1259 0 
L 628 0 
L 628 4666 
z
" transform="scale(0.015625)"/>
        <path id="DejaVuSans-65" d="M 3597 1894 
L 3597 1613 
L 953 1613 
Q 991 1019 1311 708 
Q 1631 397 2203 397 
Q 2534 397 2845 478 
Q 3156 559 3463 722 
L 3463 178 
Q 3153 47 2828 -22 
Q 2503 -91 2169 -91 
Q 1331 -91 842 396 
Q 353 884 353 1716 
Q 353 2575 817 3079 
Q 1281 3584 2069 3584 
Q 2775 3584 3186 3129 
Q 3597 2675 3597 1894 
z
M 3022 2063 
Q 3016 2534 2758 2815 
Q 2500 3097 2075 3097 
Q 1594 3097 1305 2825 
Q 1016 2553 972 2059 
L 3022 2063 
z
" transform="scale(0.015625)"/>
        <path id="DejaVuSans-62" d="M 3116 1747 
Q 3116 2381 2855 2742 
Q 2594 3103 2138 3103 
Q 1681 3103 1420 2742 
Q 1159 2381 1159 1747 
Q 1159 1113 1420 752 
Q 1681 391 2138 391 
Q 2594 391 2855 752 
Q 3116 1113 3116 1747 
z
M 1159 2969 
Q 1341 3281 1617 3432 
Q 1894 3584 2278 3584 
Q 2916 3584 3314 3078 
Q 3713 2572 3713 1747 
Q 3713 922 3314 415 
Q 2916 -91 2278 -91 
Q 1894 -91 1617 61 
Q 1341 213 1159 525 
L 1159 0 
L 581 0 
L 581 4863 
L 1159 4863 
L 1159 2969 
z
" transform="scale(0.015625)"/>
       </defs>
       <use xlink:href="#DejaVuSans-46"/>
       <use xlink:href="#DejaVuSans-65" x="52.019531"/>
       <use xlink:href="#DejaVuSans-62" x="113.542969"/>
      </g>
     </g>
    </g>
    <g id="xtick_3">
     <g id="line2d_3">
      <path d="M 128.349834 368.3955 
L 128.349834 35.7555 
" clip-path="url(#p1bae2107c6)" style="fill: none; stroke: #ffffff; stroke-linecap: round"/>
     </g>
     <g id="text_2">
      <!-- Mar -->
      <g style="fill: #262626" transform="translate(117.97288 386.253781) scale(0.11 -0.11)">
       <defs>
        <path id="DejaVuSans-4d" d="M 628 4666 
L 1569 4666 
L 2759 1491 
L 3956 4666 
L 4897 4666 
L 4897 0 
L 4281 0 
L 4281 4097 
L 3078 897 
L 2444 897 
L 1241 4097 
L 1241 0 
L 628 0 
L 628 4666 
z
" transform="scale(0.015625)"/>
        <path id="DejaVuSans-61" d="M 2194 1759 
Q 1497 1759 1228 1600 
Q 959 1441 959 1056 
Q 959 750 1161 570 
Q 1363 391 1709 391 
Q 2188 391 2477 730 
Q 2766 1069 2766 1631 
L 2766 1759 
L 2194 1759 
z
M 3341 1997 
L 3341 0 
L 2766 0 
L 2766 531 
Q 2569 213 2275 61 
Q 1981 -91 1556 -91 
Q 1019 -91 701 211 
Q 384 513 384 1019 
Q 384 1609 779 1909 
Q 1175 2209 1959 2209 
L 2766 2209 
L 2766 2266 
Q 2766 2663 2505 2880 
Q 2244 3097 1772 3097 
Q 1472 3097 1187 3025 
Q 903 2953 641 2809 
L 641 3341 
Q 956 3463 1253 3523 
Q 1550 3584 1831 3584 
Q 2591 3584 2966 3190 
Q 3341 2797 3341 1997 
z
" transform="scale(0.015625)"/>
        <path id="DejaVuSans-72" d="M 2631 2963 
Q 2534 3019 2420 3045 
Q 2306 3072 2169 3072 
Q 1681 3072 1420 2755 
Q 1159 2438 1159 1844 
L 1159 0 
L 581 0 
L 581 3500 
L 1159 3500 
L 1159 2956 
Q 1341 3275 1631 3429 
Q 1922 3584 2338 3584 
Q 2397 3584 2469 3576 
Q 2541 3569 2628 3553 
L 2631 2963 
z
" transform="scale(0.015625)"/>
       </defs>
       <use xlink:href="#DejaVuSans-4d"/>
       <use xlink:href="#DejaVuSans-61" x="86.279297"/>
       <use xlink:href="#DejaVuSans-72" x="147.558594"/>
      </g>
     </g>
    </g>
    <g id="xtick_4">
     <g id="line2d_4">
      <path d="M 170.233611 368.3955 
L 170.233611 35.7555 
" clip-path="url(#p1bae2107c6)" style="fill: none; stroke: #ffffff; stroke-linecap: round"/>
     </g>
     <g id="text_3">
      <!-- Apr -->
      <g style="fill: #262626" transform="translate(160.718611 386.253781) scale(0.11 -0.11)">
       <defs>
        <path id="DejaVuSans-41" d="M 2188 4044 
L 1331 1722 
L 3047 1722 
L 2188 4044 
z
M 1831 4666 
L 2547 4666 
L 4325 0 
L 3669 0 
L 3244 1197 
L 1141 1197 
L 716 0 
L 50 0 
L 1831 4666 
z
" transform="scale(0.015625)"/>
        <path id="DejaVuSans-70" d="M 1159 525 
L 1159 -1331 
L 581 -1331 
L 581 3500 
L 1159 3500 
L 1159 2969 
Q 1341 3281 1617 3432 
Q 1894 3584 2278 3584 
Q 2916 3584 3314 3078 
Q 3713 2572 3713 1747 
Q 3713 922 3314 415 
Q 2916 -91 2278 -91 
Q 1894 -91 1617 61 
Q 1341 213 1159 525 
z
M 3116 1747 
Q 3116 2381 2855 2742 
Q 2594 3103 2138 3103 
Q 1681 3103 1420 2742 
Q 1159 2381 1159 1747 
Q 1159 1113 1420 752 
Q 1681 391 2138 391 
Q 2594 391 2855 752 
Q 3116 1113 3116 1747 
z
" transform="scale(0.015625)"/>
       </defs>
       <use xlink:href="#DejaVuSans-41"/>
       <use xlink:href="#DejaVuSans-70" x="68.408203"/>
       <use xlink:href="#DejaVuSans-72" x="131.884766"/>
      </g>
     </g>
    </g>
    <g id="xtick_5">
     <g id="line2d_5">
      <path d="M 210.766298 368.3955 
L 210.766298 35.7555 
" clip-path="url(#p1bae2107c6)" style="fill: none; stroke: #ffffff; stroke-linecap: round"/>
     </g>
     <g id="text_4">
      <!-- May -->
      <g style="fill: #262626" transform="translate(199.395048 386.253781) scale(0.11 -0.11)">
       <defs>
        <path id="DejaVuSans-79" d="M 2059 -325 
Q 1816 -950 1584 -1140 
Q 1353 -1331 966 -1331 
L 506 -1331 
L 506 -850 
L 844 -850 
Q 1081 -850 1212 -737 
Q 1344 -625 1503 -206 
L 1606 56 
L 191 3500 
L 800 3500 
L 1894 763 
L 2988 3500 
L 3597 3500 
L 2059 -325 
z
" transform="scale(0.015625)"/>
       </defs>
       <use xlink:href="#DejaVuSans-4d"/>
       <use xlink:href="#DejaVuSans-61" x="86.279297"/>
       <use xlink:href="#DejaVuSans-79" x="147.558594"/>
      </g>
     </g>
    </g>
    <g id="xtick_6">
     <g id="line2d_6">
      <path d="M 252.650076 368.3955 
L 252.650076 35.7555 
" clip-path="url(#p1bae2107c6)" style="fill: none; stroke: #ffffff; stroke-linecap: round"/>
     </g>
     <g id="text_5">
      <!-- Jun -->
      <g style="fill: #262626" transform="translate(244.056326 386.253781) scale(0.11 -0.11)">
       <defs>
        <path id="DejaVuSans-4a" d="M 628 4666 
L 1259 4666 
L 1259 325 
Q 1259 -519 939 -900 
Q 619 -1281 -91 -1281 
L -331 -1281 
L -331 -750 
L -134 -750 
Q 284 -750 456 -515 
Q 628 -281 628 325 
L 628 4666 
z
" transform="scale(0.015625)"/>
        <path id="DejaVuSans-75" d="M 544 1381 
L 544 3500 
L 1119 3500 
L 1119 1403 
Q 1119 906 1312 657 
Q 1506 409 1894 409 
Q 2359 409 2629 706 
Q 2900 1003 2900 1516 
L 2900 3500 
L 3475 3500 
L 3475 0 
L 2900 0 
L 2900 538 
Q 2691 219 2414 64 
Q 2138 -91 1772 -91 
Q 1169 -91 856 284 
Q 544 659 544 1381 
z
M 1991 3584 
L 1991 3584 
z
" transform="scale(0.015625)"/>
        <path id="DejaVuSans-6e" d="M 3513 2113 
L 3513 0 
L 2938 0 
L 2938 2094 
Q 2938 2591 2744 2837 
Q 2550 3084 2163 3084 
Q 1697 3084 1428 2787 
Q 1159 2491 1159 1978 
L 1159 0 
L 581 0 
L 581 3500 
L 1159 3500 
L 1159 2956 
Q 1366 3272 1645 3428 
Q 1925 3584 2291 3584 
Q 2894 3584 3203 3211 
Q 3513 2838 3513 2113 
z
" transform="scale(0.015625)"/>
       </defs>
       <use xlink:href="#DejaVuSans-4a"/>
       <use xlink:href="#DejaVuSans-75" x="29.492188"/>
       <use xlink:href="#DejaVuSans-6e" x="92.871094"/>
      </g>
     </g>
    </g>
    <g id="xtick_7">
     <g id="line2d_7">
      <path d="M 293.182763 368.3955 
L 293.182763 35.7555 
" clip-path="url(#p1bae2107c6)" style="fill: none; stroke: #ffffff; stroke-linecap: round"/>
     </g>
     <g id="text_6">
      <!-- Jul -->
      <g style="fill: #262626" transform="translate(286.54667 386.253781) scale(0.11 -0.11)">
       <defs>
        <path id="DejaVuSans-6c" d="M 603 4863 
L 1178 4863 
L 1178 0 
L 603 0 
L 603 4863 
z
" transform="scale(0.015625)"/>
       </defs>
       <use xlink:href="#DejaVuSans-4a"/>
       <use xlink:href="#DejaVuSans-75" x="29.492188"/>
       <use xlink:href="#DejaVuSans-6c" x="92.871094"/>
      </g>
     </g>
    </g>
    <g id="xtick_8">
     <g id="line2d_8">
      <path d="M 335.066541 368.3955 
L 335.066541 35.7555 
" clip-path="url(#p1bae2107c6)" style="fill: none; stroke: #ffffff; stroke-linecap: round"/>
     </g>
     <g id="text_7">
      <!-- Aug -->
      <g style="fill: #262626" transform="translate(324.326931 386.253781) scale(0.11 -0.11)">
       <defs>
        <path id="DejaVuSans-67" d="M 2906 1791 
Q 2906 2416 2648 2759 
Q 2391 3103 1925 3103 
Q 1463 3103 1205 2759 
Q 947 2416 947 1791 
Q 947 1169 1205 825 
Q 1463 481 1925 481 
Q 2391 481 2648 825 
Q 2906 1169 2906 1791 
z
M 3481 434 
Q 3481 -459 3084 -895 
Q 2688 -1331 1869 -1331 
Q 1566 -1331 1297 -1286 
Q 1028 -1241 775 -1147 
L 775 -588 
Q 1028 -725 1275 -790 
Q 1522 -856 1778 -856 
Q 2344 -856 2625 -561 
Q 2906 -266 2906 331 
L 2906 616 
Q 2728 306 2450 153 
Q 2172 0 1784 0 
Q 1141 0 747 490 
Q 353 981 353 1791 
Q 353 2603 747 3093 
Q 1141 3584 1784 3584 
Q 2172 3584 2450 3431 
Q 2728 3278 2906 2969 
L 2906 3500 
L 3481 3500 
L 3481 434 
z
" transform="scale(0.015625)"/>
       </defs>
       <use xlink:href="#DejaVuSans-41"/>
       <use xlink:href="#DejaVuSans-75" x="68.408203"/>
       <use xlink:href="#DejaVuSans-67" x="131.787109"/>
      </g>
     </g>
    </g>
    <g id="xtick_9">
     <g id="line2d_9">
      <path d="M 376.950318 368.3955 
L 376.950318 35.7555 
" clip-path="url(#p1bae2107c6)" style="fill: none; stroke: #ffffff; stroke-linecap: round"/>
     </g>
     <g id="text_8">
      <!-- Sep -->
      <g style="fill: #262626" transform="translate(366.582818 386.253781) scale(0.11 -0.11)">
       <defs>
        <path id="DejaVuSans-53" d="M 3425 4513 
L 3425 3897 
Q 3066 4069 2747 4153 
Q 2428 4238 2131 4238 
Q 1616 4238 1336 4038 
Q 1056 3838 1056 3469 
Q 1056 3159 1242 3001 
Q 1428 2844 1947 2747 
L 2328 2669 
Q 3034 2534 3370 2195 
Q 3706 1856 3706 1288 
Q 3706 609 3251 259 
Q 2797 -91 1919 -91 
Q 1588 -91 1214 -16 
Q 841 59 441 206 
L 441 856 
Q 825 641 1194 531 
Q 1563 422 1919 422 
Q 2459 422 2753 634 
Q 3047 847 3047 1241 
Q 3047 1584 2836 1778 
Q 2625 1972 2144 2069 
L 1759 2144 
Q 1053 2284 737 2584 
Q 422 2884 422 3419 
Q 422 4038 858 4394 
Q 1294 4750 2059 4750 
Q 2388 4750 2728 4690 
Q 3069 4631 3425 4513 
z
" transform="scale(0.015625)"/>
       </defs>
       <use xlink:href="#DejaVuSans-53"/>
       <use xlink:href="#DejaVuSans-65" x="63.476562"/>
       <use xlink:href="#DejaVuSans-70" x="125"/>
      </g>
     </g>
    </g>
    <g id="xtick_10">
     <g id="line2d_10">
      <path d="M 417.483005 368.3955 
L 417.483005 35.7555 
" clip-path="url(#p1bae2107c6)" style="fill: none; stroke: #ffffff; stroke-linecap: round"/>
     </g>
     <g id="text_9">
      <!-- Oct -->
      <g style="fill: #262626" transform="translate(407.973162 386.253781) scale(0.11 -0.11)">
       <defs>
        <path id="DejaVuSans-4f" d="M 2522 4238 
Q 1834 4238 1429 3725 
Q 1025 3213 1025 2328 
Q 1025 1447 1429 934 
Q 1834 422 2522 422 
Q 3209 422 3611 934 
Q 4013 1447 4013 2328 
Q 4013 3213 3611 3725 
Q 3209 4238 2522 4238 
z
M 2522 4750 
Q 3503 4750 4090 4092 
Q 4678 3434 4678 2328 
Q 4678 1225 4090 567 
Q 3503 -91 2522 -91 
Q 1538 -91 948 565 
Q 359 1222 359 2328 
Q 359 3434 948 4092 
Q 1538 4750 2522 4750 
z
" transform="scale(0.015625)"/>
        <path id="DejaVuSans-63" d="M 3122 3366 
L 3122 2828 
Q 2878 2963 2633 3030 
Q 2388 3097 2138 3097 
Q 1578 3097 1268 2742 
Q 959 2388 959 1747 
Q 959 1106 1268 751 
Q 1578 397 2138 397 
Q 2388 397 2633 464 
Q 2878 531 3122 666 
L 3122 134 
Q 2881 22 2623 -34 
Q 2366 -91 2075 -91 
Q 1284 -91 818 406 
Q 353 903 353 1747 
Q 353 2603 823 3093 
Q 1294 3584 2113 3584 
Q 2378 3584 2631 3529 
Q 2884 3475 3122 3366 
z
" transform="scale(0.015625)"/>
        <path id="DejaVuSans-74" d="M 1172 4494 
L 1172 3500 
L 2356 3500 
L 2356 3053 
L 1172 3053 
L 1172 1153 
Q 1172 725 1289 603 
Q 1406 481 1766 481 
L 2356 481 
L 2356 0 
L 1766 0 
Q 1100 0 847 248 
Q 594 497 594 1153 
L 594 3053 
L 172 3053 
L 172 3500 
L 594 3500 
L 594 4494 
L 1172 4494 
z
" transform="scale(0.015625)"/>
       </defs>
       <use xlink:href="#DejaVuSans-4f"/>
       <use xlink:href="#DejaVuSans-63" x="78.710938"/>
       <use xlink:href="#DejaVuSans-74" x="133.691406"/>
      </g>
     </g>
    </g>
    <g id="xtick_11">
     <g id="line2d_11">
      <path d="M 459.366783 368.3955 
L 459.366783 35.7555 
" clip-path="url(#p1bae2107c6)" style="fill: none; stroke: #ffffff; stroke-linecap: round"/>
     </g>
     <g id="text_10">
      <!-- Nov -->
      <g style="fill: #262626" transform="translate(448.63147 386.253781) scale(0.11 -0.11)">
       <defs>
        <path id="DejaVuSans-4e" d="M 628 4666 
L 1478 4666 
L 3547 763 
L 3547 4666 
L 4159 4666 
L 4159 0 
L 3309 0 
L 1241 3903 
L 1241 0 
L 628 0 
L 628 4666 
z
" transform="scale(0.015625)"/>
        <path id="DejaVuSans-6f" d="M 1959 3097 
Q 1497 3097 1228 2736 
Q 959 2375 959 1747 
Q 959 1119 1226 758 
Q 1494 397 1959 397 
Q 2419 397 2687 759 
Q 2956 1122 2956 1747 
Q 2956 2369 2687 2733 
Q 2419 3097 1959 3097 
z
M 1959 3584 
Q 2709 3584 3137 3096 
Q 3566 2609 3566 1747 
Q 3566 888 3137 398 
Q 2709 -91 1959 -91 
Q 1206 -91 779 398 
Q 353 888 353 1747 
Q 353 2609 779 3096 
Q 1206 3584 1959 3584 
z
" transform="scale(0.015625)"/>
        <path id="DejaVuSans-76" d="M 191 3500 
L 800 3500 
L 1894 563 
L 2988 3500 
L 3597 3500 
L 2284 0 
L 1503 0 
L 191 3500 
z
" transform="scale(0.015625)"/>
       </defs>
       <use xlink:href="#DejaVuSans-4e"/>
       <use xlink:href="#DejaVuSans-6f" x="74.804688"/>
       <use xlink:href="#DejaVuSans-76" x="135.986328"/>
      </g>
     </g>
    </g>
    <g id="xtick_12">
     <g id="line2d_12">
      <path d="M 499.89947 368.3955 
L 499.89947 35.7555 
" clip-path="url(#p1bae2107c6)" style="fill: none; stroke: #ffffff; stroke-linecap: round"/>
     </g>
     <g id="text_11">
      <!-- Dec -->
      <g style="fill: #262626" transform="translate(489.256111 386.253781) scale(0.11 -0.11)">
       <defs>
        <path id="DejaVuSans-44" d="M 1259 4147 
L 1259 519 
L 2022 519 
Q 2988 519 3436 956 
Q 3884 1394 3884 2338 
Q 3884 3275 3436 3711 
Q 2988 4147 2022 4147 
L 1259 4147 
z
M 628 4666 
L 1925 4666 
Q 3281 4666 3915 4102 
Q 4550 3538 4550 2338 
Q 4550 1131 3912 565 
Q 3275 0 1925 0 
L 628 0 
L 628 4666 
z
" transform="scale(0.015625)"/>
       </defs>
       <use xlink:href="#DejaVuSans-44"/>
       <use xlink:href="#DejaVuSans-65" x="77.001953"/>
       <use xlink:href="#DejaVuSans-63" x="138.525391"/>
      </g>
     </g>
    </g>
    <g id="xtick_13">
     <g id="line2d_13">
      <path d="M 541.783248 368.3955 
L 541.783248 35.7555 
" clip-path="url(#p1bae2107c6)" style="fill: none; stroke: #ffffff; stroke-linecap: round"/>
     </g>
     <g id="text_12">
      <!-- Jan -->
      <g style="fill: #262626" transform="translate(533.304654 386.253781) scale(0.11 -0.11)">
       <use xlink:href="#DejaVuSans-4a"/>
       <use xlink:href="#DejaVuSans-61" x="29.492188"/>
       <use xlink:href="#DejaVuSans-6e" x="90.771484"/>
      </g>
      <!-- 2023 -->
      <g style="fill: #262626" transform="translate(527.785748 398.571375) scale(0.11 -0.11)">
       <defs>
        <path id="DejaVuSans-32" d="M 1228 531 
L 3431 531 
L 3431 0 
L 469 0 
L 469 531 
Q 828 903 1448 1529 
Q 2069 2156 2228 2338 
Q 2531 2678 2651 2914 
Q 2772 3150 2772 3378 
Q 2772 3750 2511 3984 
Q 2250 4219 1831 4219 
Q 1534 4219 1204 4116 
Q 875 4013 500 3803 
L 500 4441 
Q 881 4594 1212 4672 
Q 1544 4750 1819 4750 
Q 2544 4750 2975 4387 
Q 3406 4025 3406 3419 
Q 3406 3131 3298 2873 
Q 3191 2616 2906 2266 
Q 2828 2175 2409 1742 
Q 1991 1309 1228 531 
z
" transform="scale(0.015625)"/>
        <path id="DejaVuSans-30" d="M 2034 4250 
Q 1547 4250 1301 3770 
Q 1056 3291 1056 2328 
Q 1056 1369 1301 889 
Q 1547 409 2034 409 
Q 2525 409 2770 889 
Q 3016 1369 3016 2328 
Q 3016 3291 2770 3770 
Q 2525 4250 2034 4250 
z
M 2034 4750 
Q 2819 4750 3233 4129 
Q 3647 3509 3647 2328 
Q 3647 1150 3233 529 
Q 2819 -91 2034 -91 
Q 1250 -91 836 529 
Q 422 1150 422 2328 
Q 422 3509 836 4129 
Q 1250 4750 2034 4750 
z
" transform="scale(0.015625)"/>
        <path id="DejaVuSans-33" d="M 2597 2516 
Q 3050 2419 3304 2112 
Q 3559 1806 3559 1356 
Q 3559 666 3084 287 
Q 2609 -91 1734 -91 
Q 1441 -91 1130 -33 
Q 819 25 488 141 
L 488 750 
Q 750 597 1062 519 
Q 1375 441 1716 441 
Q 2309 441 2620 675 
Q 2931 909 2931 1356 
Q 2931 1769 2642 2001 
Q 2353 2234 1838 2234 
L 1294 2234 
L 1294 2753 
L 1863 2753 
Q 2328 2753 2575 2939 
Q 2822 3125 2822 3475 
Q 2822 3834 2567 4026 
Q 2313 4219 1838 4219 
Q 1578 4219 1281 4162 
Q 984 4106 628 3988 
L 628 4550 
Q 988 4650 1302 4700 
Q 1616 4750 1894 4750 
Q 2613 4750 3031 4423 
Q 3450 4097 3450 3541 
Q 3450 3153 3228 2886 
Q 3006 2619 2597 2516 
z
" transform="scale(0.015625)"/>
       </defs>
       <use xlink:href="#DejaVuSans-32"/>
       <use xlink:href="#DejaVuSans-30" x="63.623047"/>
       <use xlink:href="#DejaVuSans-32" x="127.246094"/>
       <use xlink:href="#DejaVuSans-33" x="190.869141"/>
      </g>
     </g>
    </g>
    <g id="xtick_14">
     <g id="line2d_14">
      <path d="M 583.667025 368.3955 
L 583.667025 35.7555 
" clip-path="url(#p1bae2107c6)" style="fill: none; stroke: #ffffff; stroke-linecap: round"/>
     </g>
     <g id="text_13">
      <!-- Feb -->
      <g style="fill: #262626" transform="translate(573.930306 386.253781) scale(0.11 -0.11)">
       <use xlink:href="#DejaVuSans-46"/>
       <use xlink:href="#DejaVuSans-65" x="52.019531"/>
       <use xlink:href="#DejaVuSans-62" x="113.542969"/>
      </g>
     </g>
    </g>
    <g id="xtick_15">
     <g id="line2d_15">
      <path d="M 621.497533 368.3955 
L 621.497533 35.7555 
" clip-path="url(#p1bae2107c6)" style="fill: none; stroke: #ffffff; stroke-linecap: round"/>
     </g>
     <g id="text_14">
      <!-- Mar -->
      <g style="fill: #262626" transform="translate(611.12058 386.253781) scale(0.11 -0.11)">
       <use xlink:href="#DejaVuSans-4d"/>
       <use xlink:href="#DejaVuSans-61" x="86.279297"/>
       <use xlink:href="#DejaVuSans-72" x="147.558594"/>
      </g>
     </g>
    </g>
    <g id="xtick_16">
     <g id="line2d_16">
      <path d="M 632.30625 368.3955 
L 632.30625 35.7555 
" clip-path="url(#p1bae2107c6)" style="fill: none; stroke: #ffffff; stroke-linecap: round"/>
     </g>
    </g>
    <g id="xtick_17"/>
    <g id="xtick_18"/>
    <g id="xtick_19"/>
    <g id="xtick_20"/>
    <g id="xtick_21"/>
    <g id="xtick_22"/>
    <g id="xtick_23"/>
    <g id="xtick_24"/>
    <g id="xtick_25"/>
    <g id="xtick_26"/>
    <g id="xtick_27"/>
    <g id="xtick_28"/>
    <g id="xtick_29"/>
    <g id="xtick_30"/>
    <g id="xtick_31"/>
    <g id="xtick_32"/>
    <g id="xtick_33"/>
    <g id="xtick_34"/>
    <g id="xtick_35"/>
    <g id="xtick_36"/>
    <g id="xtick_37"/>
    <g id="xtick_38"/>
    <g id="xtick_39"/>
    <g id="xtick_40"/>
    <g id="xtick_41"/>
    <g id="xtick_42"/>
    <g id="xtick_43"/>
    <g id="xtick_44"/>
    <g id="xtick_45"/>
    <g id="xtick_46"/>
    <g id="xtick_47"/>
    <g id="xtick_48"/>
    <g id="xtick_49"/>
    <g id="xtick_50"/>
    <g id="xtick_51"/>
    <g id="xtick_52"/>
    <g id="xtick_53"/>
    <g id="xtick_54"/>
    <g id="xtick_55"/>
    <g id="xtick_56"/>
    <g id="xtick_57"/>
    <g id="xtick_58"/>
    <g id="xtick_59"/>
    <g id="xtick_60"/>
    <g id="xtick_61"/>
    <g id="xtick_62"/>
    <g id="xtick_63"/>
    <g id="xtick_64"/>
    <g id="xtick_65"/>
    <g id="xtick_66"/>
    <g id="xtick_67"/>
    <g id="xtick_68"/>
    <g id="xtick_69"/>
    <g id="xtick_70"/>
    <g id="xtick_71"/>
    <g id="xtick_72"/>
    <g id="xtick_73"/>
    <g id="xtick_74"/>
   </g>
   <g id="matplotlib.axis_2">
    <g id="ytick_1">
     <g id="line2d_17">
      <path d="M 74.30625 365.636094 
L 632.30625 365.636094 
" clip-path="url(#p1bae2107c6)" style="fill: none; stroke: #ffffff; stroke-linecap: round"/>
     </g>
     <g id="line2d_18">
      <defs>
       <path id="m5b61f5ead0" d="M 0 0 
L -6 0 
" style="stroke: #262626; stroke-width: 1.25"/>
      </defs>
      <g>
       <use xlink:href="#m5b61f5ead0" x="74.30625" y="365.636094" style="fill: #262626; stroke: #262626; stroke-width: 1.25"/>
      </g>
     </g>
     <g id="text_15">
      <!-- 60000 -->
      <g style="fill: #262626" transform="translate(29.8125 369.815234) scale(0.11 -0.11)">
       <defs>
        <path id="DejaVuSans-36" d="M 2113 2584 
Q 1688 2584 1439 2293 
Q 1191 2003 1191 1497 
Q 1191 994 1439 701 
Q 1688 409 2113 409 
Q 2538 409 2786 701 
Q 3034 994 3034 1497 
Q 3034 2003 2786 2293 
Q 2538 2584 2113 2584 
z
M 3366 4563 
L 3366 3988 
Q 3128 4100 2886 4159 
Q 2644 4219 2406 4219 
Q 1781 4219 1451 3797 
Q 1122 3375 1075 2522 
Q 1259 2794 1537 2939 
Q 1816 3084 2150 3084 
Q 2853 3084 3261 2657 
Q 3669 2231 3669 1497 
Q 3669 778 3244 343 
Q 2819 -91 2113 -91 
Q 1303 -91 875 529 
Q 447 1150 447 2328 
Q 447 3434 972 4092 
Q 1497 4750 2381 4750 
Q 2619 4750 2861 4703 
Q 3103 4656 3366 4563 
z
" transform="scale(0.015625)"/>
       </defs>
       <use xlink:href="#DejaVuSans-36"/>
       <use xlink:href="#DejaVuSans-30" x="63.623047"/>
       <use xlink:href="#DejaVuSans-30" x="127.246094"/>
       <use xlink:href="#DejaVuSans-30" x="190.869141"/>
       <use xlink:href="#DejaVuSans-30" x="254.492188"/>
      </g>
     </g>
    </g>
    <g id="ytick_2">
     <g id="line2d_19">
      <path d="M 74.30625 299.767042 
L 632.30625 299.767042 
" clip-path="url(#p1bae2107c6)" style="fill: none; stroke: #ffffff; stroke-linecap: round"/>
     </g>
     <g id="line2d_20">
      <g>
       <use xlink:href="#m5b61f5ead0" x="74.30625" y="299.767042" style="fill: #262626; stroke: #262626; stroke-width: 1.25"/>
      </g>
     </g>
     <g id="text_16">
      <!-- 80000 -->
      <g style="fill: #262626" transform="translate(29.8125 303.946183) scale(0.11 -0.11)">
       <defs>
        <path id="DejaVuSans-38" d="M 2034 2216 
Q 1584 2216 1326 1975 
Q 1069 1734 1069 1313 
Q 1069 891 1326 650 
Q 1584 409 2034 409 
Q 2484 409 2743 651 
Q 3003 894 3003 1313 
Q 3003 1734 2745 1975 
Q 2488 2216 2034 2216 
z
M 1403 2484 
Q 997 2584 770 2862 
Q 544 3141 544 3541 
Q 544 4100 942 4425 
Q 1341 4750 2034 4750 
Q 2731 4750 3128 4425 
Q 3525 4100 3525 3541 
Q 3525 3141 3298 2862 
Q 3072 2584 2669 2484 
Q 3125 2378 3379 2068 
Q 3634 1759 3634 1313 
Q 3634 634 3220 271 
Q 2806 -91 2034 -91 
Q 1263 -91 848 271 
Q 434 634 434 1313 
Q 434 1759 690 2068 
Q 947 2378 1403 2484 
z
M 1172 3481 
Q 1172 3119 1398 2916 
Q 1625 2713 2034 2713 
Q 2441 2713 2670 2916 
Q 2900 3119 2900 3481 
Q 2900 3844 2670 4047 
Q 2441 4250 2034 4250 
Q 1625 4250 1398 4047 
Q 1172 3844 1172 3481 
z
" transform="scale(0.015625)"/>
       </defs>
       <use xlink:href="#DejaVuSans-38"/>
       <use xlink:href="#DejaVuSans-30" x="63.623047"/>
       <use xlink:href="#DejaVuSans-30" x="127.246094"/>
       <use xlink:href="#DejaVuSans-30" x="190.869141"/>
       <use xlink:href="#DejaVuSans-30" x="254.492188"/>
      </g>
     </g>
    </g>
    <g id="ytick_3">
     <g id="line2d_21">
      <path d="M 74.30625 233.897991 
L 632.30625 233.897991 
" clip-path="url(#p1bae2107c6)" style="fill: none; stroke: #ffffff; stroke-linecap: round"/>
     </g>
     <g id="line2d_22">
      <g>
       <use xlink:href="#m5b61f5ead0" x="74.30625" y="233.897991" style="fill: #262626; stroke: #262626; stroke-width: 1.25"/>
      </g>
     </g>
     <g id="text_17">
      <!-- 100000 -->
      <g style="fill: #262626" transform="translate(22.81375 238.077131) scale(0.11 -0.11)">
       <defs>
        <path id="DejaVuSans-31" d="M 794 531 
L 1825 531 
L 1825 4091 
L 703 3866 
L 703 4441 
L 1819 4666 
L 2450 4666 
L 2450 531 
L 3481 531 
L 3481 0 
L 794 0 
L 794 531 
z
" transform="scale(0.015625)"/>
       </defs>
       <use xlink:href="#DejaVuSans-31"/>
       <use xlink:href="#DejaVuSans-30" x="63.623047"/>
       <use xlink:href="#DejaVuSans-30" x="127.246094"/>
       <use xlink:href="#DejaVuSans-30" x="190.869141"/>
       <use xlink:href="#DejaVuSans-30" x="254.492188"/>
       <use xlink:href="#DejaVuSans-30" x="318.115234"/>
      </g>
     </g>
    </g>
    <g id="ytick_4">
     <g id="line2d_23">
      <path d="M 74.30625 168.028939 
L 632.30625 168.028939 
" clip-path="url(#p1bae2107c6)" style="fill: none; stroke: #ffffff; stroke-linecap: round"/>
     </g>
     <g id="line2d_24">
      <g>
       <use xlink:href="#m5b61f5ead0" x="74.30625" y="168.028939" style="fill: #262626; stroke: #262626; stroke-width: 1.25"/>
      </g>
     </g>
     <g id="text_18">
      <!-- 120000 -->
      <g style="fill: #262626" transform="translate(22.81375 172.20808) scale(0.11 -0.11)">
       <use xlink:href="#DejaVuSans-31"/>
       <use xlink:href="#DejaVuSans-32" x="63.623047"/>
       <use xlink:href="#DejaVuSans-30" x="127.246094"/>
       <use xlink:href="#DejaVuSans-30" x="190.869141"/>
       <use xlink:href="#DejaVuSans-30" x="254.492188"/>
       <use xlink:href="#DejaVuSans-30" x="318.115234"/>
      </g>
     </g>
    </g>
    <g id="ytick_5">
     <g id="line2d_25">
      <path d="M 74.30625 102.159888 
L 632.30625 102.159888 
" clip-path="url(#p1bae2107c6)" style="fill: none; stroke: #ffffff; stroke-linecap: round"/>
     </g>
     <g id="line2d_26">
      <g>
       <use xlink:href="#m5b61f5ead0" x="74.30625" y="102.159888" style="fill: #262626; stroke: #262626; stroke-width: 1.25"/>
      </g>
     </g>
     <g id="text_19">
      <!-- 140000 -->
      <g style="fill: #262626" transform="translate(22.81375 106.339028) scale(0.11 -0.11)">
       <defs>
        <path id="DejaVuSans-34" d="M 2419 4116 
L 825 1625 
L 2419 1625 
L 2419 4116 
z
M 2253 4666 
L 3047 4666 
L 3047 1625 
L 3713 1625 
L 3713 1100 
L 3047 1100 
L 3047 0 
L 2419 0 
L 2419 1100 
L 313 1100 
L 313 1709 
L 2253 4666 
z
" transform="scale(0.015625)"/>
       </defs>
       <use xlink:href="#DejaVuSans-31"/>
       <use xlink:href="#DejaVuSans-34" x="63.623047"/>
       <use xlink:href="#DejaVuSans-30" x="127.246094"/>
       <use xlink:href="#DejaVuSans-30" x="190.869141"/>
       <use xlink:href="#DejaVuSans-30" x="254.492188"/>
       <use xlink:href="#DejaVuSans-30" x="318.115234"/>
      </g>
     </g>
    </g>
    <g id="ytick_6">
     <g id="line2d_27">
      <path d="M 74.30625 36.290836 
L 632.30625 36.290836 
" clip-path="url(#p1bae2107c6)" style="fill: none; stroke: #ffffff; stroke-linecap: round"/>
     </g>
     <g id="line2d_28">
      <g>
       <use xlink:href="#m5b61f5ead0" x="74.30625" y="36.290836" style="fill: #262626; stroke: #262626; stroke-width: 1.25"/>
      </g>
     </g>
     <g id="text_20">
      <!-- 160000 -->
      <g style="fill: #262626" transform="translate(22.81375 40.469977) scale(0.11 -0.11)">
       <use xlink:href="#DejaVuSans-31"/>
       <use xlink:href="#DejaVuSans-36" x="63.623047"/>
       <use xlink:href="#DejaVuSans-30" x="127.246094"/>
       <use xlink:href="#DejaVuSans-30" x="190.869141"/>
       <use xlink:href="#DejaVuSans-30" x="254.492188"/>
       <use xlink:href="#DejaVuSans-30" x="318.115234"/>
      </g>
     </g>
    </g>
    <g id="text_21">
     <!-- Territory in km² -->
     <g style="fill: #262626" transform="translate(16.318125 247.955812) rotate(-90) scale(0.12 -0.12)">
      <defs>
       <path id="DejaVuSans-54" d="M -19 4666 
L 3928 4666 
L 3928 4134 
L 2272 4134 
L 2272 0 
L 1638 0 
L 1638 4134 
L -19 4134 
L -19 4666 
z
" transform="scale(0.015625)"/>
       <path id="DejaVuSans-69" d="M 603 3500 
L 1178 3500 
L 1178 0 
L 603 0 
L 603 3500 
z
M 603 4863 
L 1178 4863 
L 1178 4134 
L 603 4134 
L 603 4863 
z
" transform="scale(0.015625)"/>
       <path id="DejaVuSans-20" transform="scale(0.015625)"/>
       <path id="DejaVuSans-6b" d="M 581 4863 
L 1159 4863 
L 1159 1991 
L 2875 3500 
L 3609 3500 
L 1753 1863 
L 3688 0 
L 2938 0 
L 1159 1709 
L 1159 0 
L 581 0 
L 581 4863 
z
" transform="scale(0.015625)"/>
       <path id="DejaVuSans-6d" d="M 3328 2828 
Q 3544 3216 3844 3400 
Q 4144 3584 4550 3584 
Q 5097 3584 5394 3201 
Q 5691 2819 5691 2113 
L 5691 0 
L 5113 0 
L 5113 2094 
Q 5113 2597 4934 2840 
Q 4756 3084 4391 3084 
Q 3944 3084 3684 2787 
Q 3425 2491 3425 1978 
L 3425 0 
L 2847 0 
L 2847 2094 
Q 2847 2600 2669 2842 
Q 2491 3084 2119 3084 
Q 1678 3084 1418 2786 
Q 1159 2488 1159 1978 
L 1159 0 
L 581 0 
L 581 3500 
L 1159 3500 
L 1159 2956 
Q 1356 3278 1631 3431 
Q 1906 3584 2284 3584 
Q 2666 3584 2933 3390 
Q 3200 3197 3328 2828 
z
" transform="scale(0.015625)"/>
       <path id="DejaVuSans-b2" d="M 838 2444 
L 2163 2444 
L 2163 2088 
L 294 2088 
L 294 2431 
Q 400 2528 597 2703 
Q 1672 3656 1672 3950 
Q 1672 4156 1509 4282 
Q 1347 4409 1081 4409 
Q 919 4409 728 4354 
Q 538 4300 313 4191 
L 313 4575 
Q 553 4663 761 4706 
Q 969 4750 1147 4750 
Q 1600 4750 1872 4544 
Q 2144 4338 2144 4000 
Q 2144 3566 1109 2678 
Q 934 2528 838 2444 
z
" transform="scale(0.015625)"/>
      </defs>
      <use xlink:href="#DejaVuSans-54"/>
      <use xlink:href="#DejaVuSans-65" x="44.083984"/>
      <use xlink:href="#DejaVuSans-72" x="105.607422"/>
      <use xlink:href="#DejaVuSans-72" x="144.970703"/>
      <use xlink:href="#DejaVuSans-69" x="186.083984"/>
      <use xlink:href="#DejaVuSans-74" x="213.867188"/>
      <use xlink:href="#DejaVuSans-6f" x="253.076172"/>
      <use xlink:href="#DejaVuSans-72" x="314.257812"/>
      <use xlink:href="#DejaVuSans-79" x="355.371094"/>
      <use xlink:href="#DejaVuSans-20" x="414.550781"/>
      <use xlink:href="#DejaVuSans-69" x="446.337891"/>
      <use xlink:href="#DejaVuSans-6e" x="474.121094"/>
      <use xlink:href="#DejaVuSans-20" x="537.5"/>
      <use xlink:href="#DejaVuSans-6b" x="569.287109"/>
      <use xlink:href="#DejaVuSans-6d" x="627.197266"/>
      <use xlink:href="#DejaVuSans-b2" x="724.609375"/>
     </g>
    </g>
   </g>
   <g id="line2d_29">
    <path d="M 121.594386 353.2755 
L 122.945475 323.320554 
L 124.296565 295.897496 
L 125.647654 282.76651 
L 126.998744 282.012891 
L 128.349834 279.848232 
L 129.700923 275.687752 
L 131.052013 259.653117 
L 132.403102 259.676078 
L 133.754192 244.365585 
L 135.105281 238.563308 
L 136.456371 237.544061 
L 137.807461 236.02001 
L 139.15855 223.485255 
L 140.50964 219.737724 
L 141.860729 219.457955 
L 143.211819 218.937754 
L 144.562909 219.119961 
L 145.913998 207.310657 
L 147.265088 190.992248 
L 148.616177 193.286419 
L 149.967267 182.517031 
L 151.318357 145.621134 
L 152.669446 145.621134 
L 154.020536 146.371524 
L 155.371625 146.521572 
L 156.722715 146.521572 
L 158.073804 96.175756 
L 159.424894 98.490268 
L 160.775984 82.567161 
L 162.127073 56.532658 
L 163.478163 58.290843 
L 164.829252 54.075559 
L 166.180342 54.075559 
L 167.531432 50.8755 
L 168.882521 51.195787 
L 171.5847 56.125711 
L 172.93579 79.321297 
L 174.28688 94.155267 
L 175.637969 101.598282 
L 176.989059 152.606228 
L 179.691238 152.622581 
L 181.042327 152.293437 
L 182.393417 151.582578 
L 185.095596 151.578873 
L 186.446686 152.206336 
L 187.797775 153.994555 
L 190.499955 153.994498 
L 191.851044 155.100055 
L 193.202134 154.900977 
L 194.553223 155.085723 
L 195.904313 154.704009 
L 197.255403 154.704009 
L 198.606492 154.079671 
L 199.957582 154.079671 
L 201.308671 152.722177 
L 202.659761 153.318187 
L 206.71303 152.693068 
L 208.064119 152.753711 
L 209.415209 153.361572 
L 210.766298 153.361572 
L 212.117388 153.918939 
L 213.468478 154.154764 
L 216.170657 154.157692 
L 218.872836 154.572122 
L 220.223926 154.279784 
L 221.575015 154.465131 
L 224.277194 154.493846 
L 225.628284 154.47209 
L 226.979373 154.206643 
L 228.330463 154.213959 
L 229.681553 153.89372 
L 235.085911 153.853966 
L 236.437001 153.622372 
L 237.78809 153.273163 
L 239.13918 153.218919 
L 240.490269 153.01661 
L 241.841359 152.687637 
L 243.192449 152.63173 
L 244.543538 152.270423 
L 245.894628 152.194246 
L 247.245717 151.32419 
L 252.650076 151.484007 
L 255.352255 151.248716 
L 258.054434 151.26104 
L 259.405524 151.485739 
L 260.756613 151.485739 
L 262.107703 151.683982 
L 266.160972 151.577176 
L 267.512061 151.321327 
L 268.863151 151.269831 
L 270.21424 151.104824 
L 272.916419 151.186606 
L 278.320778 151.285296 
L 279.671867 151.14196 
L 281.022957 151.14196 
L 282.374047 150.573469 
L 283.725136 150.844247 
L 285.076226 150.844247 
L 286.427315 150.659227 
L 287.778405 150.337803 
L 289.129495 150.320368 
L 290.480584 150.571015 
L 293.182763 150.49193 
L 294.533853 150.255574 
L 295.884942 150.140712 
L 298.587122 150.170185 
L 299.938211 149.781353 
L 301.289301 149.781353 
L 302.64039 149.929592 
L 318.853465 149.838468 
L 328.311093 149.710584 
L 336.41763 149.705328 
L 339.119809 149.515451 
L 341.821988 149.614794 
L 343.173078 149.203362 
L 347.226347 149.209335 
L 348.577436 149.384822 
L 362.088332 149.467837 
L 363.439422 148.52701 
L 364.790512 148.52701 
L 366.141601 147.214484 
L 368.84378 147.214484 
L 370.19487 147.041925 
L 374.248139 146.99011 
L 376.950318 146.967105 
L 378.301407 147.273723 
L 381.003587 147.299736 
L 382.354676 147.468614 
L 385.056855 148.291057 
L 386.407945 150.450319 
L 387.759035 150.450319 
L 390.461214 162.584026 
L 398.567751 162.658385 
L 399.918841 162.699329 
L 401.26993 163.02344 
L 402.62102 176.886877 
L 403.97211 176.886877 
L 406.674289 177.09473 
L 408.025378 177.09473 
L 409.376468 177.671548 
L 413.429737 178.025262 
L 414.780826 178.057178 
L 416.131916 179.02045 
L 417.483005 179.02045 
L 418.834095 180.41643 
L 420.185185 183.922619 
L 421.536274 185.522661 
L 422.887364 185.792102 
L 424.238453 185.792102 
L 425.589543 189.63837 
L 426.940633 189.63837 
L 428.291722 191.791675 
L 429.642812 191.791675 
L 430.993901 192.097762 
L 433.696081 192.161604 
L 437.749349 192.224895 
L 439.100439 191.69738 
L 440.451528 191.657357 
L 441.802618 191.41468 
L 449.909156 191.493534 
L 453.962424 191.544039 
L 460.717872 191.574123 
L 462.068962 191.713298 
L 470.175499 191.694984 
L 471.526589 193.69709 
L 472.877679 198.756714 
L 474.228768 198.062881 
L 475.579858 198.011042 
L 476.930947 197.019472 
L 478.282037 197.019472 
L 479.633127 204.24151 
L 503.952739 204.246534 
L 505.303829 204.436796 
L 532.32562 204.514527 
L 535.0278 204.592975 
L 540.432158 204.655405 
L 541.783248 204.809798 
L 547.187606 204.915893 
L 548.538696 205.046182 
L 578.262666 204.649041 
L 593.124652 204.62129 
L 594.475742 204.044802 
L 597.177921 204.044802 
L 599.8801 203.401023 
L 625.550802 203.295643 
L 629.604071 203.239391 
L 633.65734 203.207218 
L 635.008429 199.284337 
L 639.061698 199.284807 
L 639.061698 199.284807 
" clip-path="url(#p1bae2107c6)" style="fill: none; stroke: #4c72b0; stroke-width: 1.5; stroke-linecap: round"/>
   </g>
   <g id="patch_3">
    <path d="M 74.30625 368.3955 
L 74.30625 35.7555 
" style="fill: none; stroke: #ffffff; stroke-width: 1.25; stroke-linejoin: miter; stroke-linecap: square"/>
   </g>
   <g id="patch_4">
    <path d="M 632.30625 368.3955 
L 632.30625 35.7555 
" style="fill: none; stroke: #ffffff; stroke-width: 1.25; stroke-linejoin: miter; stroke-linecap: square"/>
   </g>
   <g id="patch_5">
    <path d="M 74.30625 368.3955 
L 632.30625 368.3955 
" style="fill: none; stroke: #ffffff; stroke-width: 1.25; stroke-linejoin: miter; stroke-linecap: square"/>
   </g>
   <g id="patch_6">
    <path d="M 74.30625 35.7555 
L 632.30625 35.7555 
" style="fill: none; stroke: #ffffff; stroke-width: 1.25; stroke-linejoin: miter; stroke-linecap: square"/>
   </g>
   <g id="legend_1">
    <g id="patch_7">
     <path d="M 226.466797 60.701437 
L 480.145703 60.701437 
Q 482.345703 60.701437 482.345703 58.501437 
L 482.345703 43.4555 
Q 482.345703 41.2555 480.145703 41.2555 
L 226.466797 41.2555 
Q 224.266797 41.2555 224.266797 43.4555 
L 224.266797 58.501437 
Q 224.266797 60.701437 226.466797 60.701437 
z
" style="fill: #eaeaf2; opacity: 0.8; stroke: #cccccc; stroke-linejoin: miter"/>
    </g>
    <g id="line2d_30">
     <path d="M 228.666797 50.163781 
L 239.666797 50.163781 
L 250.666797 50.163781 
" style="fill: none; stroke: #4c72b0; stroke-width: 1.5; stroke-linecap: round"/>
    </g>
    <g id="text_22">
     <!-- Total territory control (averaged) in km² -->
     <g style="fill: #262626" transform="translate(259.466797 54.013781) scale(0.11 -0.11)">
      <defs>
       <path id="DejaVuSans-28" d="M 1984 4856 
Q 1566 4138 1362 3434 
Q 1159 2731 1159 2009 
Q 1159 1288 1364 580 
Q 1569 -128 1984 -844 
L 1484 -844 
Q 1016 -109 783 600 
Q 550 1309 550 2009 
Q 550 2706 781 3412 
Q 1013 4119 1484 4856 
L 1984 4856 
z
" transform="scale(0.015625)"/>
       <path id="DejaVuSans-64" d="M 2906 2969 
L 2906 4863 
L 3481 4863 
L 3481 0 
L 2906 0 
L 2906 525 
Q 2725 213 2448 61 
Q 2172 -91 1784 -91 
Q 1150 -91 751 415 
Q 353 922 353 1747 
Q 353 2572 751 3078 
Q 1150 3584 1784 3584 
Q 2172 3584 2448 3432 
Q 2725 3281 2906 2969 
z
M 947 1747 
Q 947 1113 1208 752 
Q 1469 391 1925 391 
Q 2381 391 2643 752 
Q 2906 1113 2906 1747 
Q 2906 2381 2643 2742 
Q 2381 3103 1925 3103 
Q 1469 3103 1208 2742 
Q 947 2381 947 1747 
z
" transform="scale(0.015625)"/>
       <path id="DejaVuSans-29" d="M 513 4856 
L 1013 4856 
Q 1481 4119 1714 3412 
Q 1947 2706 1947 2009 
Q 1947 1309 1714 600 
Q 1481 -109 1013 -844 
L 513 -844 
Q 928 -128 1133 580 
Q 1338 1288 1338 2009 
Q 1338 2731 1133 3434 
Q 928 4138 513 4856 
z
" transform="scale(0.015625)"/>
      </defs>
      <use xlink:href="#DejaVuSans-54"/>
      <use xlink:href="#DejaVuSans-6f" x="44.083984"/>
      <use xlink:href="#DejaVuSans-74" x="105.265625"/>
      <use xlink:href="#DejaVuSans-61" x="144.474609"/>
      <use xlink:href="#DejaVuSans-6c" x="205.753906"/>
      <use xlink:href="#DejaVuSans-20" x="233.537109"/>
      <use xlink:href="#DejaVuSans-74" x="265.324219"/>
      <use xlink:href="#DejaVuSans-65" x="304.533203"/>
      <use xlink:href="#DejaVuSans-72" x="366.056641"/>
      <use xlink:href="#DejaVuSans-72" x="405.419922"/>
      <use xlink:href="#DejaVuSans-69" x="446.533203"/>
      <use xlink:href="#DejaVuSans-74" x="474.316406"/>
      <use xlink:href="#DejaVuSans-6f" x="513.525391"/>
      <use xlink:href="#DejaVuSans-72" x="574.707031"/>
      <use xlink:href="#DejaVuSans-79" x="615.820312"/>
      <use xlink:href="#DejaVuSans-20" x="675"/>
      <use xlink:href="#DejaVuSans-63" x="706.787109"/>
      <use xlink:href="#DejaVuSans-6f" x="761.767578"/>
      <use xlink:href="#DejaVuSans-6e" x="822.949219"/>
      <use xlink:href="#DejaVuSans-74" x="886.328125"/>
      <use xlink:href="#DejaVuSans-72" x="925.537109"/>
      <use xlink:href="#DejaVuSans-6f" x="964.400391"/>
      <use xlink:href="#DejaVuSans-6c" x="1025.582031"/>
      <use xlink:href="#DejaVuSans-20" x="1053.365234"/>
      <use xlink:href="#DejaVuSans-28" x="1085.152344"/>
      <use xlink:href="#DejaVuSans-61" x="1124.166016"/>
      <use xlink:href="#DejaVuSans-76" x="1185.445312"/>
      <use xlink:href="#DejaVuSans-65" x="1244.625"/>
      <use xlink:href="#DejaVuSans-72" x="1306.148438"/>
      <use xlink:href="#DejaVuSans-61" x="1347.261719"/>
      <use xlink:href="#DejaVuSans-67" x="1408.541016"/>
      <use xlink:href="#DejaVuSans-65" x="1472.017578"/>
      <use xlink:href="#DejaVuSans-64" x="1533.541016"/>
      <use xlink:href="#DejaVuSans-29" x="1597.017578"/>
      <use xlink:href="#DejaVuSans-20" x="1636.03125"/>
      <use xlink:href="#DejaVuSans-69" x="1667.818359"/>
      <use xlink:href="#DejaVuSans-6e" x="1695.601562"/>
      <use xlink:href="#DejaVuSans-20" x="1758.980469"/>
      <use xlink:href="#DejaVuSans-6b" x="1790.767578"/>
      <use xlink:href="#DejaVuSans-6d" x="1848.677734"/>
      <use xlink:href="#DejaVuSans-b2" x="1946.089844"/>
     </g>
    </g>
   </g>
  </g>
  <g id="axes_2">
   <g id="matplotlib.axis_3">
    <g id="ytick_7">
     <g id="line2d_31">
      <path d="M 74.30625 363.3555 
L 632.30625 363.3555 
" clip-path="url(#p1bae2107c6)" style="fill: none; stroke: #ffffff; stroke-linecap: round"/>
     </g>
     <g id="line2d_32">
      <defs>
       <path id="mb428271649" d="M 0 0 
L 6 0 
" style="stroke: #262626; stroke-width: 1.25"/>
      </defs>
      <g>
       <use xlink:href="#mb428271649" x="632.30625" y="363.3555" style="fill: #262626; stroke: #262626; stroke-width: 1.25"/>
      </g>
     </g>
     <g id="text_23">
      <!-- 0 -->
      <g style="fill: #262626" transform="translate(641.80625 367.534641) scale(0.11 -0.11)">
       <use xlink:href="#DejaVuSans-30"/>
      </g>
     </g>
    </g>
    <g id="ytick_8">
     <g id="line2d_33">
      <path d="M 74.30625 312.9555 
L 632.30625 312.9555 
" clip-path="url(#p1bae2107c6)" style="fill: none; stroke: #ffffff; stroke-linecap: round"/>
     </g>
     <g id="line2d_34">
      <g>
       <use xlink:href="#mb428271649" x="632.30625" y="312.9555" style="fill: #262626; stroke: #262626; stroke-width: 1.25"/>
      </g>
     </g>
     <g id="text_24">
      <!-- 5 -->
      <g style="fill: #262626" transform="translate(641.80625 317.134641) scale(0.11 -0.11)">
       <defs>
        <path id="DejaVuSans-35" d="M 691 4666 
L 3169 4666 
L 3169 4134 
L 1269 4134 
L 1269 2991 
Q 1406 3038 1543 3061 
Q 1681 3084 1819 3084 
Q 2600 3084 3056 2656 
Q 3513 2228 3513 1497 
Q 3513 744 3044 326 
Q 2575 -91 1722 -91 
Q 1428 -91 1123 -41 
Q 819 9 494 109 
L 494 744 
Q 775 591 1075 516 
Q 1375 441 1709 441 
Q 2250 441 2565 725 
Q 2881 1009 2881 1497 
Q 2881 1984 2565 2268 
Q 2250 2553 1709 2553 
Q 1456 2553 1204 2497 
Q 953 2441 691 2322 
L 691 4666 
z
" transform="scale(0.015625)"/>
       </defs>
       <use xlink:href="#DejaVuSans-35"/>
      </g>
     </g>
    </g>
    <g id="ytick_9">
     <g id="line2d_35">
      <path d="M 74.30625 262.5555 
L 632.30625 262.5555 
" clip-path="url(#p1bae2107c6)" style="fill: none; stroke: #ffffff; stroke-linecap: round"/>
     </g>
     <g id="line2d_36">
      <g>
       <use xlink:href="#mb428271649" x="632.30625" y="262.5555" style="fill: #262626; stroke: #262626; stroke-width: 1.25"/>
      </g>
     </g>
     <g id="text_25">
      <!-- 10 -->
      <g style="fill: #262626" transform="translate(641.80625 266.734641) scale(0.11 -0.11)">
       <use xlink:href="#DejaVuSans-31"/>
       <use xlink:href="#DejaVuSans-30" x="63.623047"/>
      </g>
     </g>
    </g>
    <g id="ytick_10">
     <g id="line2d_37">
      <path d="M 74.30625 212.1555 
L 632.30625 212.1555 
" clip-path="url(#p1bae2107c6)" style="fill: none; stroke: #ffffff; stroke-linecap: round"/>
     </g>
     <g id="line2d_38">
      <g>
       <use xlink:href="#mb428271649" x="632.30625" y="212.1555" style="fill: #262626; stroke: #262626; stroke-width: 1.25"/>
      </g>
     </g>
     <g id="text_26">
      <!-- 15 -->
      <g style="fill: #262626" transform="translate(641.80625 216.334641) scale(0.11 -0.11)">
       <use xlink:href="#DejaVuSans-31"/>
       <use xlink:href="#DejaVuSans-35" x="63.623047"/>
      </g>
     </g>
    </g>
    <g id="ytick_11">
     <g id="line2d_39">
      <path d="M 74.30625 161.7555 
L 632.30625 161.7555 
" clip-path="url(#p1bae2107c6)" style="fill: none; stroke: #ffffff; stroke-linecap: round"/>
     </g>
     <g id="line2d_40">
      <g>
       <use xlink:href="#mb428271649" x="632.30625" y="161.7555" style="fill: #262626; stroke: #262626; stroke-width: 1.25"/>
      </g>
     </g>
     <g id="text_27">
      <!-- 20 -->
      <g style="fill: #262626" transform="translate(641.80625 165.934641) scale(0.11 -0.11)">
       <use xlink:href="#DejaVuSans-32"/>
       <use xlink:href="#DejaVuSans-30" x="63.623047"/>
      </g>
     </g>
    </g>
    <g id="ytick_12">
     <g id="line2d_41">
      <path d="M 74.30625 111.3555 
L 632.30625 111.3555 
" clip-path="url(#p1bae2107c6)" style="fill: none; stroke: #ffffff; stroke-linecap: round"/>
     </g>
     <g id="line2d_42">
      <g>
       <use xlink:href="#mb428271649" x="632.30625" y="111.3555" style="fill: #262626; stroke: #262626; stroke-width: 1.25"/>
      </g>
     </g>
     <g id="text_28">
      <!-- 25 -->
      <g style="fill: #262626" transform="translate(641.80625 115.534641) scale(0.11 -0.11)">
       <use xlink:href="#DejaVuSans-32"/>
       <use xlink:href="#DejaVuSans-35" x="63.623047"/>
      </g>
     </g>
    </g>
    <g id="ytick_13">
     <g id="line2d_43">
      <path d="M 74.30625 60.9555 
L 632.30625 60.9555 
" clip-path="url(#p1bae2107c6)" style="fill: none; stroke: #ffffff; stroke-linecap: round"/>
     </g>
     <g id="line2d_44">
      <g>
       <use xlink:href="#mb428271649" x="632.30625" y="60.9555" style="fill: #262626; stroke: #262626; stroke-width: 1.25"/>
      </g>
     </g>
     <g id="text_29">
      <!-- 30 -->
      <g style="fill: #262626" transform="translate(641.80625 65.134641) scale(0.11 -0.11)">
       <use xlink:href="#DejaVuSans-33"/>
       <use xlink:href="#DejaVuSans-30" x="63.623047"/>
      </g>
     </g>
    </g>
    <g id="text_30">
     <!-- mentions of "missile" -->
     <g style="fill: #2ca02c" transform="translate(668.921875 265.938) rotate(-90) scale(0.12 -0.12)">
      <defs>
       <path id="DejaVuSans-73" d="M 2834 3397 
L 2834 2853 
Q 2591 2978 2328 3040 
Q 2066 3103 1784 3103 
Q 1356 3103 1142 2972 
Q 928 2841 928 2578 
Q 928 2378 1081 2264 
Q 1234 2150 1697 2047 
L 1894 2003 
Q 2506 1872 2764 1633 
Q 3022 1394 3022 966 
Q 3022 478 2636 193 
Q 2250 -91 1575 -91 
Q 1294 -91 989 -36 
Q 684 19 347 128 
L 347 722 
Q 666 556 975 473 
Q 1284 391 1588 391 
Q 1994 391 2212 530 
Q 2431 669 2431 922 
Q 2431 1156 2273 1281 
Q 2116 1406 1581 1522 
L 1381 1569 
Q 847 1681 609 1914 
Q 372 2147 372 2553 
Q 372 3047 722 3315 
Q 1072 3584 1716 3584 
Q 2034 3584 2315 3537 
Q 2597 3491 2834 3397 
z
" transform="scale(0.015625)"/>
       <path id="DejaVuSans-66" d="M 2375 4863 
L 2375 4384 
L 1825 4384 
Q 1516 4384 1395 4259 
Q 1275 4134 1275 3809 
L 1275 3500 
L 2222 3500 
L 2222 3053 
L 1275 3053 
L 1275 0 
L 697 0 
L 697 3053 
L 147 3053 
L 147 3500 
L 697 3500 
L 697 3744 
Q 697 4328 969 4595 
Q 1241 4863 1831 4863 
L 2375 4863 
z
" transform="scale(0.015625)"/>
       <path id="DejaVuSans-22" d="M 1147 4666 
L 1147 2931 
L 616 2931 
L 616 4666 
L 1147 4666 
z
M 2328 4666 
L 2328 2931 
L 1797 2931 
L 1797 4666 
L 2328 4666 
z
" transform="scale(0.015625)"/>
      </defs>
      <use xlink:href="#DejaVuSans-6d"/>
      <use xlink:href="#DejaVuSans-65" x="97.412109"/>
      <use xlink:href="#DejaVuSans-6e" x="158.935547"/>
      <use xlink:href="#DejaVuSans-74" x="222.314453"/>
      <use xlink:href="#DejaVuSans-69" x="261.523438"/>
      <use xlink:href="#DejaVuSans-6f" x="289.306641"/>
      <use xlink:href="#DejaVuSans-6e" x="350.488281"/>
      <use xlink:href="#DejaVuSans-73" x="413.867188"/>
      <use xlink:href="#DejaVuSans-20" x="465.966797"/>
      <use xlink:href="#DejaVuSans-6f" x="497.753906"/>
      <use xlink:href="#DejaVuSans-66" x="558.935547"/>
      <use xlink:href="#DejaVuSans-20" x="594.140625"/>
      <use xlink:href="#DejaVuSans-22" x="625.927734"/>
      <use xlink:href="#DejaVuSans-6d" x="671.923828"/>
      <use xlink:href="#DejaVuSans-69" x="769.335938"/>
      <use xlink:href="#DejaVuSans-73" x="797.119141"/>
      <use xlink:href="#DejaVuSans-73" x="849.21875"/>
      <use xlink:href="#DejaVuSans-69" x="901.318359"/>
      <use xlink:href="#DejaVuSans-6c" x="929.101562"/>
      <use xlink:href="#DejaVuSans-65" x="956.884766"/>
      <use xlink:href="#DejaVuSans-22" x="1018.408203"/>
     </g>
    </g>
   </g>
   <g id="line2d_45">
    <path d="M 74.30625 353.2755 
L 83.763877 353.2755 
L 108.08349 353.2755 
L 121.594386 242.3955 
L 122.945475 323.0355 
L 124.296565 212.1555 
L 125.647654 343.1955 
L 126.998744 343.1955 
L 128.349834 312.9555 
L 129.700923 292.7955 
L 131.052013 292.7955 
L 135.105281 353.2755 
L 136.456371 343.1955 
L 137.807461 353.2755 
L 139.15855 353.2755 
L 140.50964 353.2755 
L 141.860729 353.2755 
L 143.211819 333.1155 
L 145.913998 50.8755 
L 148.616177 333.1155 
L 152.669446 353.2755 
L 154.020536 353.2755 
L 155.371625 343.1955 
L 156.722715 353.2755 
L 158.073804 353.2755 
L 159.424894 353.2755 
L 166.180342 353.2755 
L 168.882521 353.2755 
L 170.233611 353.2755 
L 179.691238 323.0355 
L 189.148865 353.2755 
L 193.202134 353.2755 
L 195.904313 353.2755 
L 199.957582 333.1155 
L 204.01085 343.1955 
L 205.36194 353.2755 
L 206.71303 353.2755 
L 212.117388 353.2755 
L 216.170657 353.2755 
L 217.521746 343.1955 
L 218.872836 343.1955 
L 220.223926 343.1955 
L 222.926105 353.2755 
L 232.383732 353.2755 
L 254.001165 353.2755 
L 256.703344 353.2755 
L 264.809882 353.2755 
L 270.21424 353.2755 
L 272.916419 343.1955 
L 274.267509 353.2755 
L 283.725136 343.1955 
L 285.076226 353.2755 
L 286.427315 292.7955 
L 287.778405 262.5555 
L 289.129495 343.1955 
L 293.182763 302.8755 
L 295.884942 353.2755 
L 310.746928 302.8755 
L 312.098018 323.0355 
L 313.449107 343.1955 
L 317.502376 353.2755 
L 318.853465 353.2755 
L 322.906734 343.1955 
L 326.960003 312.9555 
L 329.662182 353.2755 
L 341.821988 353.2755 
L 364.790512 353.2755 
L 366.141601 343.1955 
L 394.514482 353.2755 
L 399.918841 353.2755 
L 413.429737 353.2755 
L 414.780826 333.1155 
L 424.238453 353.2755 
L 428.291722 353.2755 
L 429.642812 323.0355 
L 440.451528 353.2755 
L 445.855887 353.2755 
L 460.717872 353.2755 
L 478.282037 333.1155 
L 479.633127 343.1955 
L 480.984216 353.2755 
L 489.090754 302.8755 
L 513.410366 343.1955 
L 540.432158 312.9555 
L 544.485427 353.2755 
L 553.943054 353.2755 
L 560.698502 343.1955 
L 576.911577 353.2755 
L 583.667025 343.1955 
L 587.720294 353.2755 
L 590.422473 333.1155 
L 606.635548 353.2755 
L 632.30625 343.1955 
" clip-path="url(#p1bae2107c6)" style="fill: none; stroke: #2ca02c; stroke-width: 1.5; stroke-linecap: round"/>
   </g>
   <g id="patch_8">
    <path d="M 74.30625 368.3955 
L 74.30625 35.7555 
" style="fill: none; stroke: #ffffff; stroke-width: 1.25; stroke-linejoin: miter; stroke-linecap: square"/>
   </g>
   <g id="patch_9">
    <path d="M 632.30625 368.3955 
L 632.30625 35.7555 
" style="fill: none; stroke: #ffffff; stroke-width: 1.25; stroke-linejoin: miter; stroke-linecap: square"/>
   </g>
   <g id="patch_10">
    <path d="M 74.30625 368.3955 
L 632.30625 368.3955 
" style="fill: none; stroke: #ffffff; stroke-width: 1.25; stroke-linejoin: miter; stroke-linecap: square"/>
   </g>
   <g id="patch_11">
    <path d="M 74.30625 35.7555 
L 632.30625 35.7555 
" style="fill: none; stroke: #ffffff; stroke-width: 1.25; stroke-linejoin: miter; stroke-linecap: square"/>
   </g>
   <g id="text_31">
    <!-- Russian control of Ukrainian territory (averaged)  -->
    <g style="fill: #262626" transform="translate(205.9275 16.318125) scale(0.12 -0.12)">
     <defs>
      <path id="DejaVuSans-52" d="M 2841 2188 
Q 3044 2119 3236 1894 
Q 3428 1669 3622 1275 
L 4263 0 
L 3584 0 
L 2988 1197 
Q 2756 1666 2539 1819 
Q 2322 1972 1947 1972 
L 1259 1972 
L 1259 0 
L 628 0 
L 628 4666 
L 2053 4666 
Q 2853 4666 3247 4331 
Q 3641 3997 3641 3322 
Q 3641 2881 3436 2590 
Q 3231 2300 2841 2188 
z
M 1259 4147 
L 1259 2491 
L 2053 2491 
Q 2509 2491 2742 2702 
Q 2975 2913 2975 3322 
Q 2975 3731 2742 3939 
Q 2509 4147 2053 4147 
L 1259 4147 
z
" transform="scale(0.015625)"/>
      <path id="DejaVuSans-55" d="M 556 4666 
L 1191 4666 
L 1191 1831 
Q 1191 1081 1462 751 
Q 1734 422 2344 422 
Q 2950 422 3222 751 
Q 3494 1081 3494 1831 
L 3494 4666 
L 4128 4666 
L 4128 1753 
Q 4128 841 3676 375 
Q 3225 -91 2344 -91 
Q 1459 -91 1007 375 
Q 556 841 556 1753 
L 556 4666 
z
" transform="scale(0.015625)"/>
     </defs>
     <use xlink:href="#DejaVuSans-52"/>
     <use xlink:href="#DejaVuSans-75" x="64.982422"/>
     <use xlink:href="#DejaVuSans-73" x="128.361328"/>
     <use xlink:href="#DejaVuSans-73" x="180.460938"/>
     <use xlink:href="#DejaVuSans-69" x="232.560547"/>
     <use xlink:href="#DejaVuSans-61" x="260.34375"/>
     <use xlink:href="#DejaVuSans-6e" x="321.623047"/>
     <use xlink:href="#DejaVuSans-20" x="385.001953"/>
     <use xlink:href="#DejaVuSans-63" x="416.789062"/>
     <use xlink:href="#DejaVuSans-6f" x="471.769531"/>
     <use xlink:href="#DejaVuSans-6e" x="532.951172"/>
     <use xlink:href="#DejaVuSans-74" x="596.330078"/>
     <use xlink:href="#DejaVuSans-72" x="635.539062"/>
     <use xlink:href="#DejaVuSans-6f" x="674.402344"/>
     <use xlink:href="#DejaVuSans-6c" x="735.583984"/>
     <use xlink:href="#DejaVuSans-20" x="763.367188"/>
     <use xlink:href="#DejaVuSans-6f" x="795.154297"/>
     <use xlink:href="#DejaVuSans-66" x="856.335938"/>
     <use xlink:href="#DejaVuSans-20" x="891.541016"/>
     <use xlink:href="#DejaVuSans-55" x="923.328125"/>
     <use xlink:href="#DejaVuSans-6b" x="996.521484"/>
     <use xlink:href="#DejaVuSans-72" x="1054.431641"/>
     <use xlink:href="#DejaVuSans-61" x="1095.544922"/>
     <use xlink:href="#DejaVuSans-69" x="1156.824219"/>
     <use xlink:href="#DejaVuSans-6e" x="1184.607422"/>
     <use xlink:href="#DejaVuSans-69" x="1247.986328"/>
     <use xlink:href="#DejaVuSans-61" x="1275.769531"/>
     <use xlink:href="#DejaVuSans-6e" x="1337.048828"/>
     <use xlink:href="#DejaVuSans-20" x="1400.427734"/>
     <use xlink:href="#DejaVuSans-74" x="1432.214844"/>
     <use xlink:href="#DejaVuSans-65" x="1471.423828"/>
     <use xlink:href="#DejaVuSans-72" x="1532.947266"/>
     <use xlink:href="#DejaVuSans-72" x="1572.310547"/>
     <use xlink:href="#DejaVuSans-69" x="1613.423828"/>
     <use xlink:href="#DejaVuSans-74" x="1641.207031"/>
     <use xlink:href="#DejaVuSans-6f" x="1680.416016"/>
     <use xlink:href="#DejaVuSans-72" x="1741.597656"/>
     <use xlink:href="#DejaVuSans-79" x="1782.710938"/>
     <use xlink:href="#DejaVuSans-20" x="1841.890625"/>
     <use xlink:href="#DejaVuSans-28" x="1873.677734"/>
     <use xlink:href="#DejaVuSans-61" x="1912.691406"/>
     <use xlink:href="#DejaVuSans-76" x="1973.970703"/>
     <use xlink:href="#DejaVuSans-65" x="2033.150391"/>
     <use xlink:href="#DejaVuSans-72" x="2094.673828"/>
     <use xlink:href="#DejaVuSans-61" x="2135.787109"/>
     <use xlink:href="#DejaVuSans-67" x="2197.066406"/>
     <use xlink:href="#DejaVuSans-65" x="2260.542969"/>
     <use xlink:href="#DejaVuSans-64" x="2322.066406"/>
     <use xlink:href="#DejaVuSans-29" x="2385.542969"/>
     <use xlink:href="#DejaVuSans-20" x="2424.556641"/>
    </g>
    <!-- vs mentions of the term "missiles" in Cen4Infores dataset -->
    <g style="fill: #262626" transform="translate(179.942812 29.7555) scale(0.12 -0.12)">
     <defs>
      <path id="DejaVuSans-68" d="M 3513 2113 
L 3513 0 
L 2938 0 
L 2938 2094 
Q 2938 2591 2744 2837 
Q 2550 3084 2163 3084 
Q 1697 3084 1428 2787 
Q 1159 2491 1159 1978 
L 1159 0 
L 581 0 
L 581 4863 
L 1159 4863 
L 1159 2956 
Q 1366 3272 1645 3428 
Q 1925 3584 2291 3584 
Q 2894 3584 3203 3211 
Q 3513 2838 3513 2113 
z
" transform="scale(0.015625)"/>
      <path id="DejaVuSans-43" d="M 4122 4306 
L 4122 3641 
Q 3803 3938 3442 4084 
Q 3081 4231 2675 4231 
Q 1875 4231 1450 3742 
Q 1025 3253 1025 2328 
Q 1025 1406 1450 917 
Q 1875 428 2675 428 
Q 3081 428 3442 575 
Q 3803 722 4122 1019 
L 4122 359 
Q 3791 134 3420 21 
Q 3050 -91 2638 -91 
Q 1578 -91 968 557 
Q 359 1206 359 2328 
Q 359 3453 968 4101 
Q 1578 4750 2638 4750 
Q 3056 4750 3426 4639 
Q 3797 4528 4122 4306 
z
" transform="scale(0.015625)"/>
      <path id="DejaVuSans-49" d="M 628 4666 
L 1259 4666 
L 1259 0 
L 628 0 
L 628 4666 
z
" transform="scale(0.015625)"/>
     </defs>
     <use xlink:href="#DejaVuSans-76"/>
     <use xlink:href="#DejaVuSans-73" x="59.179688"/>
     <use xlink:href="#DejaVuSans-20" x="111.279297"/>
     <use xlink:href="#DejaVuSans-6d" x="143.066406"/>
     <use xlink:href="#DejaVuSans-65" x="240.478516"/>
     <use xlink:href="#DejaVuSans-6e" x="302.001953"/>
     <use xlink:href="#DejaVuSans-74" x="365.380859"/>
     <use xlink:href="#DejaVuSans-69" x="404.589844"/>
     <use xlink:href="#DejaVuSans-6f" x="432.373047"/>
     <use xlink:href="#DejaVuSans-6e" x="493.554688"/>
     <use xlink:href="#DejaVuSans-73" x="556.933594"/>
     <use xlink:href="#DejaVuSans-20" x="609.033203"/>
     <use xlink:href="#DejaVuSans-6f" x="640.820312"/>
     <use xlink:href="#DejaVuSans-66" x="702.001953"/>
     <use xlink:href="#DejaVuSans-20" x="737.207031"/>
     <use xlink:href="#DejaVuSans-74" x="768.994141"/>
     <use xlink:href="#DejaVuSans-68" x="808.203125"/>
     <use xlink:href="#DejaVuSans-65" x="871.582031"/>
     <use xlink:href="#DejaVuSans-20" x="933.105469"/>
     <use xlink:href="#DejaVuSans-74" x="964.892578"/>
     <use xlink:href="#DejaVuSans-65" x="1004.101562"/>
     <use xlink:href="#DejaVuSans-72" x="1065.625"/>
     <use xlink:href="#DejaVuSans-6d" x="1104.988281"/>
     <use xlink:href="#DejaVuSans-20" x="1202.400391"/>
     <use xlink:href="#DejaVuSans-22" x="1234.1875"/>
     <use xlink:href="#DejaVuSans-6d" x="1280.183594"/>
     <use xlink:href="#DejaVuSans-69" x="1377.595703"/>
     <use xlink:href="#DejaVuSans-73" x="1405.378906"/>
     <use xlink:href="#DejaVuSans-73" x="1457.478516"/>
     <use xlink:href="#DejaVuSans-69" x="1509.578125"/>
     <use xlink:href="#DejaVuSans-6c" x="1537.361328"/>
     <use xlink:href="#DejaVuSans-65" x="1565.144531"/>
     <use xlink:href="#DejaVuSans-73" x="1626.667969"/>
     <use xlink:href="#DejaVuSans-22" x="1678.767578"/>
     <use xlink:href="#DejaVuSans-20" x="1724.763672"/>
     <use xlink:href="#DejaVuSans-69" x="1756.550781"/>
     <use xlink:href="#DejaVuSans-6e" x="1784.333984"/>
     <use xlink:href="#DejaVuSans-20" x="1847.712891"/>
     <use xlink:href="#DejaVuSans-43" x="1879.5"/>
     <use xlink:href="#DejaVuSans-65" x="1949.324219"/>
     <use xlink:href="#DejaVuSans-6e" x="2010.847656"/>
     <use xlink:href="#DejaVuSans-34" x="2074.226562"/>
     <use xlink:href="#DejaVuSans-49" x="2137.849609"/>
     <use xlink:href="#DejaVuSans-6e" x="2167.341797"/>
     <use xlink:href="#DejaVuSans-66" x="2230.720703"/>
     <use xlink:href="#DejaVuSans-6f" x="2265.925781"/>
     <use xlink:href="#DejaVuSans-72" x="2327.107422"/>
     <use xlink:href="#DejaVuSans-65" x="2365.970703"/>
     <use xlink:href="#DejaVuSans-73" x="2427.494141"/>
     <use xlink:href="#DejaVuSans-20" x="2479.59375"/>
     <use xlink:href="#DejaVuSans-64" x="2511.380859"/>
     <use xlink:href="#DejaVuSans-61" x="2574.857422"/>
     <use xlink:href="#DejaVuSans-74" x="2636.136719"/>
     <use xlink:href="#DejaVuSans-61" x="2675.345703"/>
     <use xlink:href="#DejaVuSans-73" x="2736.625"/>
     <use xlink:href="#DejaVuSans-65" x="2788.724609"/>
     <use xlink:href="#DejaVuSans-74" x="2850.248047"/>
    </g>
   </g>
   <g id="legend_2">
    <g id="patch_12">
     <path d="M 472.325 60.701437 
L 624.60625 60.701437 
Q 626.80625 60.701437 626.80625 58.501437 
L 626.80625 43.4555 
Q 626.80625 41.2555 624.60625 41.2555 
L 472.325 41.2555 
Q 470.125 41.2555 470.125 43.4555 
L 470.125 58.501437 
Q 470.125 60.701437 472.325 60.701437 
z
" style="fill: #eaeaf2; opacity: 0.8; stroke: #cccccc; stroke-linejoin: miter"/>
    </g>
    <g id="line2d_46">
     <path d="M 474.525 50.163781 
L 485.525 50.163781 
L 496.525 50.163781 
" style="fill: none; stroke: #2ca02c; stroke-width: 1.5; stroke-linecap: round"/>
    </g>
    <g id="text_32">
     <!-- mentions of "missile" -->
     <g style="fill: #262626" transform="translate(505.325 54.013781) scale(0.11 -0.11)">
      <use xlink:href="#DejaVuSans-6d"/>
      <use xlink:href="#DejaVuSans-65" x="97.412109"/>
      <use xlink:href="#DejaVuSans-6e" x="158.935547"/>
      <use xlink:href="#DejaVuSans-74" x="222.314453"/>
      <use xlink:href="#DejaVuSans-69" x="261.523438"/>
      <use xlink:href="#DejaVuSans-6f" x="289.306641"/>
      <use xlink:href="#DejaVuSans-6e" x="350.488281"/>
      <use xlink:href="#DejaVuSans-73" x="413.867188"/>
      <use xlink:href="#DejaVuSans-20" x="465.966797"/>
      <use xlink:href="#DejaVuSans-6f" x="497.753906"/>
      <use xlink:href="#DejaVuSans-66" x="558.935547"/>
      <use xlink:href="#DejaVuSans-20" x="594.140625"/>
      <use xlink:href="#DejaVuSans-22" x="625.927734"/>
      <use xlink:href="#DejaVuSans-6d" x="671.923828"/>
      <use xlink:href="#DejaVuSans-69" x="769.335938"/>
      <use xlink:href="#DejaVuSans-73" x="797.119141"/>
      <use xlink:href="#DejaVuSans-73" x="849.21875"/>
      <use xlink:href="#DejaVuSans-69" x="901.318359"/>
      <use xlink:href="#DejaVuSans-6c" x="929.101562"/>
      <use xlink:href="#DejaVuSans-65" x="956.884766"/>
      <use xlink:href="#DejaVuSans-22" x="1018.408203"/>
     </g>
    </g>
   </g>
  </g>
 </g>
 <defs>
  <clipPath id="p1bae2107c6">
   <rect x="74.30625" y="35.7555" width="558" height="332.64"/>
  </clipPath>
 </defs>
</svg>
