<?xml version="1.0" encoding="utf-8" standalone="no"?>
<!DOCTYPE svg PUBLIC "-//W3C//DTD SVG 1.1//EN"
  "http://www.w3.org/Graphics/SVG/1.1/DTD/svg11.dtd">
<svg xmlns:xlink="http://www.w3.org/1999/xlink" width="664.65625pt" height="403.471437pt" viewBox="0 0 664.65625 403.471437" xmlns="http://www.w3.org/2000/svg" version="1.1">
 <metadata>
  <rdf:RDF xmlns:dc="http://purl.org/dc/elements/1.1/" xmlns:cc="http://creativecommons.org/ns#" xmlns:rdf="http://www.w3.org/1999/02/22-rdf-syntax-ns#">
   <cc:Work>
    <dc:type rdf:resource="http://purl.org/dc/dcmitype/StillImage"/>
    <dc:date>2023-03-15T00:11:31.777591</dc:date>
    <dc:format>image/svg+xml</dc:format>
    <dc:creator>
     <cc:Agent>
      <dc:title>Matplotlib v3.6.2, https://matplotlib.org/</dc:title>
     </cc:Agent>
    </dc:creator>
   </cc:Work>
  </rdf:RDF>
 </metadata>
 <defs>
  <style type="text/css">*{stroke-linejoin: round; stroke-linecap: butt}</style>
 </defs>
 <g id="figure_1">
  <g id="patch_1">
   <path d="M 0 403.471437 
L 664.65625 403.471437 
L 664.65625 0 
L 0 0 
z
" style="fill: #ffffff"/>
  </g>
  <g id="axes_1">
   <g id="patch_2">
    <path d="M 66.053125 368.3955 
L 624.053125 368.3955 
L 624.053125 35.7555 
L 66.053125 35.7555 
z
" style="fill: #ffffff"/>
   </g>
   <g id="matplotlib.axis_1">
    <g id="xtick_1">
     <g id="line2d_1">
      <defs>
       <path id="m351853596a" d="M 0 0 
L 0 3.5 
" style="stroke: #000000; stroke-width: 0.8"/>
      </defs>
      <g>
       <use xlink:href="#m351853596a" x="66.053125" y="368.3955" style="stroke: #000000; stroke-width: 0.8"/>
      </g>
     </g>
    </g>
    <g id="xtick_2">
     <g id="line2d_2">
      <g>
       <use xlink:href="#m351853596a" x="82.2662" y="368.3955" style="stroke: #000000; stroke-width: 0.8"/>
      </g>
     </g>
     <g id="text_1">
      <!-- Feb -->
      <g transform="translate(73.414638 382.993937) scale(0.1 -0.1)">
       <defs>
        <path id="DejaVuSans-46" d="M 628 4666 
L 3309 4666 
L 3309 4134 
L 1259 4134 
L 1259 2759 
L 3109 2759 
L 3109 2228 
L 1259 2228 
L 1259 0 
L 628 0 
L 628 4666 
z
" transform="scale(0.015625)"/>
        <path id="DejaVuSans-65" d="M 3597 1894 
L 3597 1613 
L 953 1613 
Q 991 1019 1311 708 
Q 1631 397 2203 397 
Q 2534 397 2845 478 
Q 3156 559 3463 722 
L 3463 178 
Q 3153 47 2828 -22 
Q 2503 -91 2169 -91 
Q 1331 -91 842 396 
Q 353 884 353 1716 
Q 353 2575 817 3079 
Q 1281 3584 2069 3584 
Q 2775 3584 3186 3129 
Q 3597 2675 3597 1894 
z
M 3022 2063 
Q 3016 2534 2758 2815 
Q 2500 3097 2075 3097 
Q 1594 3097 1305 2825 
Q 1016 2553 972 2059 
L 3022 2063 
z
" transform="scale(0.015625)"/>
        <path id="DejaVuSans-62" d="M 3116 1747 
Q 3116 2381 2855 2742 
Q 2594 3103 2138 3103 
Q 1681 3103 1420 2742 
Q 1159 2381 1159 1747 
Q 1159 1113 1420 752 
Q 1681 391 2138 391 
Q 2594 391 2855 752 
Q 3116 1113 3116 1747 
z
M 1159 2969 
Q 1341 3281 1617 3432 
Q 1894 3584 2278 3584 
Q 2916 3584 3314 3078 
Q 3713 2572 3713 1747 
Q 3713 922 3314 415 
Q 2916 -91 2278 -91 
Q 1894 -91 1617 61 
Q 1341 213 1159 525 
L 1159 0 
L 581 0 
L 581 4863 
L 1159 4863 
L 1159 2969 
z
" transform="scale(0.015625)"/>
       </defs>
       <use xlink:href="#DejaVuSans-46"/>
       <use xlink:href="#DejaVuSans-65" x="52.019531"/>
       <use xlink:href="#DejaVuSans-62" x="113.542969"/>
      </g>
     </g>
    </g>
    <g id="xtick_3">
     <g id="line2d_3">
      <g>
       <use xlink:href="#m351853596a" x="120.096709" y="368.3955" style="stroke: #000000; stroke-width: 0.8"/>
      </g>
     </g>
     <g id="text_2">
      <!-- Mar -->
      <g transform="translate(110.663115 382.993937) scale(0.1 -0.1)">
       <defs>
        <path id="DejaVuSans-4d" d="M 628 4666 
L 1569 4666 
L 2759 1491 
L 3956 4666 
L 4897 4666 
L 4897 0 
L 4281 0 
L 4281 4097 
L 3078 897 
L 2444 897 
L 1241 4097 
L 1241 0 
L 628 0 
L 628 4666 
z
" transform="scale(0.015625)"/>
        <path id="DejaVuSans-61" d="M 2194 1759 
Q 1497 1759 1228 1600 
Q 959 1441 959 1056 
Q 959 750 1161 570 
Q 1363 391 1709 391 
Q 2188 391 2477 730 
Q 2766 1069 2766 1631 
L 2766 1759 
L 2194 1759 
z
M 3341 1997 
L 3341 0 
L 2766 0 
L 2766 531 
Q 2569 213 2275 61 
Q 1981 -91 1556 -91 
Q 1019 -91 701 211 
Q 384 513 384 1019 
Q 384 1609 779 1909 
Q 1175 2209 1959 2209 
L 2766 2209 
L 2766 2266 
Q 2766 2663 2505 2880 
Q 2244 3097 1772 3097 
Q 1472 3097 1187 3025 
Q 903 2953 641 2809 
L 641 3341 
Q 956 3463 1253 3523 
Q 1550 3584 1831 3584 
Q 2591 3584 2966 3190 
Q 3341 2797 3341 1997 
z
" transform="scale(0.015625)"/>
        <path id="DejaVuSans-72" d="M 2631 2963 
Q 2534 3019 2420 3045 
Q 2306 3072 2169 3072 
Q 1681 3072 1420 2755 
Q 1159 2438 1159 1844 
L 1159 0 
L 581 0 
L 581 3500 
L 1159 3500 
L 1159 2956 
Q 1341 3275 1631 3429 
Q 1922 3584 2338 3584 
Q 2397 3584 2469 3576 
Q 2541 3569 2628 3553 
L 2631 2963 
z
" transform="scale(0.015625)"/>
       </defs>
       <use xlink:href="#DejaVuSans-4d"/>
       <use xlink:href="#DejaVuSans-61" x="86.279297"/>
       <use xlink:href="#DejaVuSans-72" x="147.558594"/>
      </g>
     </g>
    </g>
    <g id="xtick_4">
     <g id="line2d_4">
      <g>
       <use xlink:href="#m351853596a" x="161.980486" y="368.3955" style="stroke: #000000; stroke-width: 0.8"/>
      </g>
     </g>
     <g id="text_3">
      <!-- Apr -->
      <g transform="translate(153.330486 382.993937) scale(0.1 -0.1)">
       <defs>
        <path id="DejaVuSans-41" d="M 2188 4044 
L 1331 1722 
L 3047 1722 
L 2188 4044 
z
M 1831 4666 
L 2547 4666 
L 4325 0 
L 3669 0 
L 3244 1197 
L 1141 1197 
L 716 0 
L 50 0 
L 1831 4666 
z
" transform="scale(0.015625)"/>
        <path id="DejaVuSans-70" d="M 1159 525 
L 1159 -1331 
L 581 -1331 
L 581 3500 
L 1159 3500 
L 1159 2969 
Q 1341 3281 1617 3432 
Q 1894 3584 2278 3584 
Q 2916 3584 3314 3078 
Q 3713 2572 3713 1747 
Q 3713 922 3314 415 
Q 2916 -91 2278 -91 
Q 1894 -91 1617 61 
Q 1341 213 1159 525 
z
M 3116 1747 
Q 3116 2381 2855 2742 
Q 2594 3103 2138 3103 
Q 1681 3103 1420 2742 
Q 1159 2381 1159 1747 
Q 1159 1113 1420 752 
Q 1681 391 2138 391 
Q 2594 391 2855 752 
Q 3116 1113 3116 1747 
z
" transform="scale(0.015625)"/>
       </defs>
       <use xlink:href="#DejaVuSans-41"/>
       <use xlink:href="#DejaVuSans-70" x="68.408203"/>
       <use xlink:href="#DejaVuSans-72" x="131.884766"/>
      </g>
     </g>
    </g>
    <g id="xtick_5">
     <g id="line2d_5">
      <g>
       <use xlink:href="#m351853596a" x="202.513173" y="368.3955" style="stroke: #000000; stroke-width: 0.8"/>
      </g>
     </g>
     <g id="text_4">
      <!-- May -->
      <g transform="translate(192.175673 382.993937) scale(0.1 -0.1)">
       <defs>
        <path id="DejaVuSans-79" d="M 2059 -325 
Q 1816 -950 1584 -1140 
Q 1353 -1331 966 -1331 
L 506 -1331 
L 506 -850 
L 844 -850 
Q 1081 -850 1212 -737 
Q 1344 -625 1503 -206 
L 1606 56 
L 191 3500 
L 800 3500 
L 1894 763 
L 2988 3500 
L 3597 3500 
L 2059 -325 
z
" transform="scale(0.015625)"/>
       </defs>
       <use xlink:href="#DejaVuSans-4d"/>
       <use xlink:href="#DejaVuSans-61" x="86.279297"/>
       <use xlink:href="#DejaVuSans-79" x="147.558594"/>
      </g>
     </g>
    </g>
    <g id="xtick_6">
     <g id="line2d_6">
      <g>
       <use xlink:href="#m351853596a" x="244.396951" y="368.3955" style="stroke: #000000; stroke-width: 0.8"/>
      </g>
     </g>
     <g id="text_5">
      <!-- Jun -->
      <g transform="translate(236.584451 382.993937) scale(0.1 -0.1)">
       <defs>
        <path id="DejaVuSans-4a" d="M 628 4666 
L 1259 4666 
L 1259 325 
Q 1259 -519 939 -900 
Q 619 -1281 -91 -1281 
L -331 -1281 
L -331 -750 
L -134 -750 
Q 284 -750 456 -515 
Q 628 -281 628 325 
L 628 4666 
z
" transform="scale(0.015625)"/>
        <path id="DejaVuSans-75" d="M 544 1381 
L 544 3500 
L 1119 3500 
L 1119 1403 
Q 1119 906 1312 657 
Q 1506 409 1894 409 
Q 2359 409 2629 706 
Q 2900 1003 2900 1516 
L 2900 3500 
L 3475 3500 
L 3475 0 
L 2900 0 
L 2900 538 
Q 2691 219 2414 64 
Q 2138 -91 1772 -91 
Q 1169 -91 856 284 
Q 544 659 544 1381 
z
M 1991 3584 
L 1991 3584 
z
" transform="scale(0.015625)"/>
        <path id="DejaVuSans-6e" d="M 3513 2113 
L 3513 0 
L 2938 0 
L 2938 2094 
Q 2938 2591 2744 2837 
Q 2550 3084 2163 3084 
Q 1697 3084 1428 2787 
Q 1159 2491 1159 1978 
L 1159 0 
L 581 0 
L 581 3500 
L 1159 3500 
L 1159 2956 
Q 1366 3272 1645 3428 
Q 1925 3584 2291 3584 
Q 2894 3584 3203 3211 
Q 3513 2838 3513 2113 
z
" transform="scale(0.015625)"/>
       </defs>
       <use xlink:href="#DejaVuSans-4a"/>
       <use xlink:href="#DejaVuSans-75" x="29.492188"/>
       <use xlink:href="#DejaVuSans-6e" x="92.871094"/>
      </g>
     </g>
    </g>
    <g id="xtick_7">
     <g id="line2d_7">
      <g>
       <use xlink:href="#m351853596a" x="284.929638" y="368.3955" style="stroke: #000000; stroke-width: 0.8"/>
      </g>
     </g>
     <g id="text_6">
      <!-- Jul -->
      <g transform="translate(278.896826 382.993937) scale(0.1 -0.1)">
       <defs>
        <path id="DejaVuSans-6c" d="M 603 4863 
L 1178 4863 
L 1178 0 
L 603 0 
L 603 4863 
z
" transform="scale(0.015625)"/>
       </defs>
       <use xlink:href="#DejaVuSans-4a"/>
       <use xlink:href="#DejaVuSans-75" x="29.492188"/>
       <use xlink:href="#DejaVuSans-6c" x="92.871094"/>
      </g>
     </g>
    </g>
    <g id="xtick_8">
     <g id="line2d_8">
      <g>
       <use xlink:href="#m351853596a" x="326.813416" y="368.3955" style="stroke: #000000; stroke-width: 0.8"/>
      </g>
     </g>
     <g id="text_7">
      <!-- Aug -->
      <g transform="translate(317.050134 382.993937) scale(0.1 -0.1)">
       <defs>
        <path id="DejaVuSans-67" d="M 2906 1791 
Q 2906 2416 2648 2759 
Q 2391 3103 1925 3103 
Q 1463 3103 1205 2759 
Q 947 2416 947 1791 
Q 947 1169 1205 825 
Q 1463 481 1925 481 
Q 2391 481 2648 825 
Q 2906 1169 2906 1791 
z
M 3481 434 
Q 3481 -459 3084 -895 
Q 2688 -1331 1869 -1331 
Q 1566 -1331 1297 -1286 
Q 1028 -1241 775 -1147 
L 775 -588 
Q 1028 -725 1275 -790 
Q 1522 -856 1778 -856 
Q 2344 -856 2625 -561 
Q 2906 -266 2906 331 
L 2906 616 
Q 2728 306 2450 153 
Q 2172 0 1784 0 
Q 1141 0 747 490 
Q 353 981 353 1791 
Q 353 2603 747 3093 
Q 1141 3584 1784 3584 
Q 2172 3584 2450 3431 
Q 2728 3278 2906 2969 
L 2906 3500 
L 3481 3500 
L 3481 434 
z
" transform="scale(0.015625)"/>
       </defs>
       <use xlink:href="#DejaVuSans-41"/>
       <use xlink:href="#DejaVuSans-75" x="68.408203"/>
       <use xlink:href="#DejaVuSans-67" x="131.787109"/>
      </g>
     </g>
    </g>
    <g id="xtick_9">
     <g id="line2d_9">
      <g>
       <use xlink:href="#m351853596a" x="368.697193" y="368.3955" style="stroke: #000000; stroke-width: 0.8"/>
      </g>
     </g>
     <g id="text_8">
      <!-- Sep -->
      <g transform="translate(359.272193 382.993937) scale(0.1 -0.1)">
       <defs>
        <path id="DejaVuSans-53" d="M 3425 4513 
L 3425 3897 
Q 3066 4069 2747 4153 
Q 2428 4238 2131 4238 
Q 1616 4238 1336 4038 
Q 1056 3838 1056 3469 
Q 1056 3159 1242 3001 
Q 1428 2844 1947 2747 
L 2328 2669 
Q 3034 2534 3370 2195 
Q 3706 1856 3706 1288 
Q 3706 609 3251 259 
Q 2797 -91 1919 -91 
Q 1588 -91 1214 -16 
Q 841 59 441 206 
L 441 856 
Q 825 641 1194 531 
Q 1563 422 1919 422 
Q 2459 422 2753 634 
Q 3047 847 3047 1241 
Q 3047 1584 2836 1778 
Q 2625 1972 2144 2069 
L 1759 2144 
Q 1053 2284 737 2584 
Q 422 2884 422 3419 
Q 422 4038 858 4394 
Q 1294 4750 2059 4750 
Q 2388 4750 2728 4690 
Q 3069 4631 3425 4513 
z
" transform="scale(0.015625)"/>
       </defs>
       <use xlink:href="#DejaVuSans-53"/>
       <use xlink:href="#DejaVuSans-65" x="63.476562"/>
       <use xlink:href="#DejaVuSans-70" x="125"/>
      </g>
     </g>
    </g>
    <g id="xtick_10">
     <g id="line2d_10">
      <g>
       <use xlink:href="#m351853596a" x="409.22988" y="368.3955" style="stroke: #000000; stroke-width: 0.8"/>
      </g>
     </g>
     <g id="text_9">
      <!-- Oct -->
      <g transform="translate(400.584568 382.993937) scale(0.1 -0.1)">
       <defs>
        <path id="DejaVuSans-4f" d="M 2522 4238 
Q 1834 4238 1429 3725 
Q 1025 3213 1025 2328 
Q 1025 1447 1429 934 
Q 1834 422 2522 422 
Q 3209 422 3611 934 
Q 4013 1447 4013 2328 
Q 4013 3213 3611 3725 
Q 3209 4238 2522 4238 
z
M 2522 4750 
Q 3503 4750 4090 4092 
Q 4678 3434 4678 2328 
Q 4678 1225 4090 567 
Q 3503 -91 2522 -91 
Q 1538 -91 948 565 
Q 359 1222 359 2328 
Q 359 3434 948 4092 
Q 1538 4750 2522 4750 
z
" transform="scale(0.015625)"/>
        <path id="DejaVuSans-63" d="M 3122 3366 
L 3122 2828 
Q 2878 2963 2633 3030 
Q 2388 3097 2138 3097 
Q 1578 3097 1268 2742 
Q 959 2388 959 1747 
Q 959 1106 1268 751 
Q 1578 397 2138 397 
Q 2388 397 2633 464 
Q 2878 531 3122 666 
L 3122 134 
Q 2881 22 2623 -34 
Q 2366 -91 2075 -91 
Q 1284 -91 818 406 
Q 353 903 353 1747 
Q 353 2603 823 3093 
Q 1294 3584 2113 3584 
Q 2378 3584 2631 3529 
Q 2884 3475 3122 3366 
z
" transform="scale(0.015625)"/>
        <path id="DejaVuSans-74" d="M 1172 4494 
L 1172 3500 
L 2356 3500 
L 2356 3053 
L 1172 3053 
L 1172 1153 
Q 1172 725 1289 603 
Q 1406 481 1766 481 
L 2356 481 
L 2356 0 
L 1766 0 
Q 1100 0 847 248 
Q 594 497 594 1153 
L 594 3053 
L 172 3053 
L 172 3500 
L 594 3500 
L 594 4494 
L 1172 4494 
z
" transform="scale(0.015625)"/>
       </defs>
       <use xlink:href="#DejaVuSans-4f"/>
       <use xlink:href="#DejaVuSans-63" x="78.710938"/>
       <use xlink:href="#DejaVuSans-74" x="133.691406"/>
      </g>
     </g>
    </g>
    <g id="xtick_11">
     <g id="line2d_11">
      <g>
       <use xlink:href="#m351853596a" x="451.113658" y="368.3955" style="stroke: #000000; stroke-width: 0.8"/>
      </g>
     </g>
     <g id="text_10">
      <!-- Nov -->
      <g transform="translate(441.354283 382.993937) scale(0.1 -0.1)">
       <defs>
        <path id="DejaVuSans-4e" d="M 628 4666 
L 1478 4666 
L 3547 763 
L 3547 4666 
L 4159 4666 
L 4159 0 
L 3309 0 
L 1241 3903 
L 1241 0 
L 628 0 
L 628 4666 
z
" transform="scale(0.015625)"/>
        <path id="DejaVuSans-6f" d="M 1959 3097 
Q 1497 3097 1228 2736 
Q 959 2375 959 1747 
Q 959 1119 1226 758 
Q 1494 397 1959 397 
Q 2419 397 2687 759 
Q 2956 1122 2956 1747 
Q 2956 2369 2687 2733 
Q 2419 3097 1959 3097 
z
M 1959 3584 
Q 2709 3584 3137 3096 
Q 3566 2609 3566 1747 
Q 3566 888 3137 398 
Q 2709 -91 1959 -91 
Q 1206 -91 779 398 
Q 353 888 353 1747 
Q 353 2609 779 3096 
Q 1206 3584 1959 3584 
z
" transform="scale(0.015625)"/>
        <path id="DejaVuSans-76" d="M 191 3500 
L 800 3500 
L 1894 563 
L 2988 3500 
L 3597 3500 
L 2284 0 
L 1503 0 
L 191 3500 
z
" transform="scale(0.015625)"/>
       </defs>
       <use xlink:href="#DejaVuSans-4e"/>
       <use xlink:href="#DejaVuSans-6f" x="74.804688"/>
       <use xlink:href="#DejaVuSans-76" x="135.986328"/>
      </g>
     </g>
    </g>
    <g id="xtick_12">
     <g id="line2d_12">
      <g>
       <use xlink:href="#m351853596a" x="491.646345" y="368.3955" style="stroke: #000000; stroke-width: 0.8"/>
      </g>
     </g>
     <g id="text_11">
      <!-- Dec -->
      <g transform="translate(481.970564 382.993937) scale(0.1 -0.1)">
       <defs>
        <path id="DejaVuSans-44" d="M 1259 4147 
L 1259 519 
L 2022 519 
Q 2988 519 3436 956 
Q 3884 1394 3884 2338 
Q 3884 3275 3436 3711 
Q 2988 4147 2022 4147 
L 1259 4147 
z
M 628 4666 
L 1925 4666 
Q 3281 4666 3915 4102 
Q 4550 3538 4550 2338 
Q 4550 1131 3912 565 
Q 3275 0 1925 0 
L 628 0 
L 628 4666 
z
" transform="scale(0.015625)"/>
       </defs>
       <use xlink:href="#DejaVuSans-44"/>
       <use xlink:href="#DejaVuSans-65" x="77.001953"/>
       <use xlink:href="#DejaVuSans-63" x="138.525391"/>
      </g>
     </g>
    </g>
    <g id="xtick_13">
     <g id="line2d_13">
      <g>
       <use xlink:href="#m351853596a" x="533.530123" y="368.3955" style="stroke: #000000; stroke-width: 0.8"/>
      </g>
     </g>
     <g id="text_12">
      <!-- Jan -->
      <g transform="translate(525.82231 382.993937) scale(0.1 -0.1)">
       <use xlink:href="#DejaVuSans-4a"/>
       <use xlink:href="#DejaVuSans-61" x="29.492188"/>
       <use xlink:href="#DejaVuSans-6e" x="90.771484"/>
      </g>
      <!-- 2023 -->
      <g transform="translate(520.805123 394.19175) scale(0.1 -0.1)">
       <defs>
        <path id="DejaVuSans-32" d="M 1228 531 
L 3431 531 
L 3431 0 
L 469 0 
L 469 531 
Q 828 903 1448 1529 
Q 2069 2156 2228 2338 
Q 2531 2678 2651 2914 
Q 2772 3150 2772 3378 
Q 2772 3750 2511 3984 
Q 2250 4219 1831 4219 
Q 1534 4219 1204 4116 
Q 875 4013 500 3803 
L 500 4441 
Q 881 4594 1212 4672 
Q 1544 4750 1819 4750 
Q 2544 4750 2975 4387 
Q 3406 4025 3406 3419 
Q 3406 3131 3298 2873 
Q 3191 2616 2906 2266 
Q 2828 2175 2409 1742 
Q 1991 1309 1228 531 
z
" transform="scale(0.015625)"/>
        <path id="DejaVuSans-30" d="M 2034 4250 
Q 1547 4250 1301 3770 
Q 1056 3291 1056 2328 
Q 1056 1369 1301 889 
Q 1547 409 2034 409 
Q 2525 409 2770 889 
Q 3016 1369 3016 2328 
Q 3016 3291 2770 3770 
Q 2525 4250 2034 4250 
z
M 2034 4750 
Q 2819 4750 3233 4129 
Q 3647 3509 3647 2328 
Q 3647 1150 3233 529 
Q 2819 -91 2034 -91 
Q 1250 -91 836 529 
Q 422 1150 422 2328 
Q 422 3509 836 4129 
Q 1250 4750 2034 4750 
z
" transform="scale(0.015625)"/>
        <path id="DejaVuSans-33" d="M 2597 2516 
Q 3050 2419 3304 2112 
Q 3559 1806 3559 1356 
Q 3559 666 3084 287 
Q 2609 -91 1734 -91 
Q 1441 -91 1130 -33 
Q 819 25 488 141 
L 488 750 
Q 750 597 1062 519 
Q 1375 441 1716 441 
Q 2309 441 2620 675 
Q 2931 909 2931 1356 
Q 2931 1769 2642 2001 
Q 2353 2234 1838 2234 
L 1294 2234 
L 1294 2753 
L 1863 2753 
Q 2328 2753 2575 2939 
Q 2822 3125 2822 3475 
Q 2822 3834 2567 4026 
Q 2313 4219 1838 4219 
Q 1578 4219 1281 4162 
Q 984 4106 628 3988 
L 628 4550 
Q 988 4650 1302 4700 
Q 1616 4750 1894 4750 
Q 2613 4750 3031 4423 
Q 3450 4097 3450 3541 
Q 3450 3153 3228 2886 
Q 3006 2619 2597 2516 
z
" transform="scale(0.015625)"/>
       </defs>
       <use xlink:href="#DejaVuSans-32"/>
       <use xlink:href="#DejaVuSans-30" x="63.623047"/>
       <use xlink:href="#DejaVuSans-32" x="127.246094"/>
       <use xlink:href="#DejaVuSans-33" x="190.869141"/>
      </g>
     </g>
    </g>
    <g id="xtick_14">
     <g id="line2d_14">
      <g>
       <use xlink:href="#m351853596a" x="575.4139" y="368.3955" style="stroke: #000000; stroke-width: 0.8"/>
      </g>
     </g>
     <g id="text_13">
      <!-- Feb -->
      <g transform="translate(566.562337 382.993937) scale(0.1 -0.1)">
       <use xlink:href="#DejaVuSans-46"/>
       <use xlink:href="#DejaVuSans-65" x="52.019531"/>
       <use xlink:href="#DejaVuSans-62" x="113.542969"/>
      </g>
     </g>
    </g>
    <g id="xtick_15">
     <g id="line2d_15">
      <g>
       <use xlink:href="#m351853596a" x="613.244408" y="368.3955" style="stroke: #000000; stroke-width: 0.8"/>
      </g>
     </g>
     <g id="text_14">
      <!-- Mar -->
      <g transform="translate(603.810815 382.993937) scale(0.1 -0.1)">
       <use xlink:href="#DejaVuSans-4d"/>
       <use xlink:href="#DejaVuSans-61" x="86.279297"/>
       <use xlink:href="#DejaVuSans-72" x="147.558594"/>
      </g>
     </g>
    </g>
    <g id="xtick_16">
     <g id="line2d_16">
      <g>
       <use xlink:href="#m351853596a" x="624.053125" y="368.3955" style="stroke: #000000; stroke-width: 0.8"/>
      </g>
     </g>
    </g>
    <g id="xtick_17">
     <g id="line2d_17">
      <defs>
       <path id="md043553250" d="M 0 0 
L 0 2 
" style="stroke: #000000; stroke-width: 0.6"/>
      </defs>
      <g>
       <use xlink:href="#md043553250" x="71.457483" y="368.3955" style="stroke: #000000; stroke-width: 0.6"/>
      </g>
     </g>
    </g>
    <g id="xtick_18">
     <g id="line2d_18">
      <g>
       <use xlink:href="#md043553250" x="80.91511" y="368.3955" style="stroke: #000000; stroke-width: 0.6"/>
      </g>
     </g>
    </g>
    <g id="xtick_19">
     <g id="line2d_19">
      <g>
       <use xlink:href="#md043553250" x="90.372738" y="368.3955" style="stroke: #000000; stroke-width: 0.6"/>
      </g>
     </g>
    </g>
    <g id="xtick_20">
     <g id="line2d_20">
      <g>
       <use xlink:href="#md043553250" x="99.830365" y="368.3955" style="stroke: #000000; stroke-width: 0.6"/>
      </g>
     </g>
    </g>
    <g id="xtick_21">
     <g id="line2d_21">
      <g>
       <use xlink:href="#md043553250" x="109.287992" y="368.3955" style="stroke: #000000; stroke-width: 0.6"/>
      </g>
     </g>
    </g>
    <g id="xtick_22">
     <g id="line2d_22">
      <g>
       <use xlink:href="#md043553250" x="118.745619" y="368.3955" style="stroke: #000000; stroke-width: 0.6"/>
      </g>
     </g>
    </g>
    <g id="xtick_23">
     <g id="line2d_23">
      <g>
       <use xlink:href="#md043553250" x="128.203246" y="368.3955" style="stroke: #000000; stroke-width: 0.6"/>
      </g>
     </g>
    </g>
    <g id="xtick_24">
     <g id="line2d_24">
      <g>
       <use xlink:href="#md043553250" x="137.660873" y="368.3955" style="stroke: #000000; stroke-width: 0.6"/>
      </g>
     </g>
    </g>
    <g id="xtick_25">
     <g id="line2d_25">
      <g>
       <use xlink:href="#md043553250" x="147.1185" y="368.3955" style="stroke: #000000; stroke-width: 0.6"/>
      </g>
     </g>
    </g>
    <g id="xtick_26">
     <g id="line2d_26">
      <g>
       <use xlink:href="#md043553250" x="156.576127" y="368.3955" style="stroke: #000000; stroke-width: 0.6"/>
      </g>
     </g>
    </g>
    <g id="xtick_27">
     <g id="line2d_27">
      <g>
       <use xlink:href="#md043553250" x="166.033755" y="368.3955" style="stroke: #000000; stroke-width: 0.6"/>
      </g>
     </g>
    </g>
    <g id="xtick_28">
     <g id="line2d_28">
      <g>
       <use xlink:href="#md043553250" x="175.491382" y="368.3955" style="stroke: #000000; stroke-width: 0.6"/>
      </g>
     </g>
    </g>
    <g id="xtick_29">
     <g id="line2d_29">
      <g>
       <use xlink:href="#md043553250" x="184.949009" y="368.3955" style="stroke: #000000; stroke-width: 0.6"/>
      </g>
     </g>
    </g>
    <g id="xtick_30">
     <g id="line2d_30">
      <g>
       <use xlink:href="#md043553250" x="194.406636" y="368.3955" style="stroke: #000000; stroke-width: 0.6"/>
      </g>
     </g>
    </g>
    <g id="xtick_31">
     <g id="line2d_31">
      <g>
       <use xlink:href="#md043553250" x="203.864263" y="368.3955" style="stroke: #000000; stroke-width: 0.6"/>
      </g>
     </g>
    </g>
    <g id="xtick_32">
     <g id="line2d_32">
      <g>
       <use xlink:href="#md043553250" x="213.32189" y="368.3955" style="stroke: #000000; stroke-width: 0.6"/>
      </g>
     </g>
    </g>
    <g id="xtick_33">
     <g id="line2d_33">
      <g>
       <use xlink:href="#md043553250" x="222.779517" y="368.3955" style="stroke: #000000; stroke-width: 0.6"/>
      </g>
     </g>
    </g>
    <g id="xtick_34">
     <g id="line2d_34">
      <g>
       <use xlink:href="#md043553250" x="232.237144" y="368.3955" style="stroke: #000000; stroke-width: 0.6"/>
      </g>
     </g>
    </g>
    <g id="xtick_35">
     <g id="line2d_35">
      <g>
       <use xlink:href="#md043553250" x="241.694771" y="368.3955" style="stroke: #000000; stroke-width: 0.6"/>
      </g>
     </g>
    </g>
    <g id="xtick_36">
     <g id="line2d_36">
      <g>
       <use xlink:href="#md043553250" x="251.152399" y="368.3955" style="stroke: #000000; stroke-width: 0.6"/>
      </g>
     </g>
    </g>
    <g id="xtick_37">
     <g id="line2d_37">
      <g>
       <use xlink:href="#md043553250" x="260.610026" y="368.3955" style="stroke: #000000; stroke-width: 0.6"/>
      </g>
     </g>
    </g>
    <g id="xtick_38">
     <g id="line2d_38">
      <g>
       <use xlink:href="#md043553250" x="270.067653" y="368.3955" style="stroke: #000000; stroke-width: 0.6"/>
      </g>
     </g>
    </g>
    <g id="xtick_39">
     <g id="line2d_39">
      <g>
       <use xlink:href="#md043553250" x="279.52528" y="368.3955" style="stroke: #000000; stroke-width: 0.6"/>
      </g>
     </g>
    </g>
    <g id="xtick_40">
     <g id="line2d_40">
      <g>
       <use xlink:href="#md043553250" x="288.982907" y="368.3955" style="stroke: #000000; stroke-width: 0.6"/>
      </g>
     </g>
    </g>
    <g id="xtick_41">
     <g id="line2d_41">
      <g>
       <use xlink:href="#md043553250" x="298.440534" y="368.3955" style="stroke: #000000; stroke-width: 0.6"/>
      </g>
     </g>
    </g>
    <g id="xtick_42">
     <g id="line2d_42">
      <g>
       <use xlink:href="#md043553250" x="307.898161" y="368.3955" style="stroke: #000000; stroke-width: 0.6"/>
      </g>
     </g>
    </g>
    <g id="xtick_43">
     <g id="line2d_43">
      <g>
       <use xlink:href="#md043553250" x="317.355788" y="368.3955" style="stroke: #000000; stroke-width: 0.6"/>
      </g>
     </g>
    </g>
    <g id="xtick_44">
     <g id="line2d_44">
      <g>
       <use xlink:href="#md043553250" x="336.271043" y="368.3955" style="stroke: #000000; stroke-width: 0.6"/>
      </g>
     </g>
    </g>
    <g id="xtick_45">
     <g id="line2d_45">
      <g>
       <use xlink:href="#md043553250" x="345.72867" y="368.3955" style="stroke: #000000; stroke-width: 0.6"/>
      </g>
     </g>
    </g>
    <g id="xtick_46">
     <g id="line2d_46">
      <g>
       <use xlink:href="#md043553250" x="355.186297" y="368.3955" style="stroke: #000000; stroke-width: 0.6"/>
      </g>
     </g>
    </g>
    <g id="xtick_47">
     <g id="line2d_47">
      <g>
       <use xlink:href="#md043553250" x="364.643924" y="368.3955" style="stroke: #000000; stroke-width: 0.6"/>
      </g>
     </g>
    </g>
    <g id="xtick_48">
     <g id="line2d_48">
      <g>
       <use xlink:href="#md043553250" x="374.101551" y="368.3955" style="stroke: #000000; stroke-width: 0.6"/>
      </g>
     </g>
    </g>
    <g id="xtick_49">
     <g id="line2d_49">
      <g>
       <use xlink:href="#md043553250" x="383.559178" y="368.3955" style="stroke: #000000; stroke-width: 0.6"/>
      </g>
     </g>
    </g>
    <g id="xtick_50">
     <g id="line2d_50">
      <g>
       <use xlink:href="#md043553250" x="393.016805" y="368.3955" style="stroke: #000000; stroke-width: 0.6"/>
      </g>
     </g>
    </g>
    <g id="xtick_51">
     <g id="line2d_51">
      <g>
       <use xlink:href="#md043553250" x="402.474433" y="368.3955" style="stroke: #000000; stroke-width: 0.6"/>
      </g>
     </g>
    </g>
    <g id="xtick_52">
     <g id="line2d_52">
      <g>
       <use xlink:href="#md043553250" x="411.93206" y="368.3955" style="stroke: #000000; stroke-width: 0.6"/>
      </g>
     </g>
    </g>
    <g id="xtick_53">
     <g id="line2d_53">
      <g>
       <use xlink:href="#md043553250" x="421.389687" y="368.3955" style="stroke: #000000; stroke-width: 0.6"/>
      </g>
     </g>
    </g>
    <g id="xtick_54">
     <g id="line2d_54">
      <g>
       <use xlink:href="#md043553250" x="430.847314" y="368.3955" style="stroke: #000000; stroke-width: 0.6"/>
      </g>
     </g>
    </g>
    <g id="xtick_55">
     <g id="line2d_55">
      <g>
       <use xlink:href="#md043553250" x="440.304941" y="368.3955" style="stroke: #000000; stroke-width: 0.6"/>
      </g>
     </g>
    </g>
    <g id="xtick_56">
     <g id="line2d_56">
      <g>
       <use xlink:href="#md043553250" x="449.762568" y="368.3955" style="stroke: #000000; stroke-width: 0.6"/>
      </g>
     </g>
    </g>
    <g id="xtick_57">
     <g id="line2d_57">
      <g>
       <use xlink:href="#md043553250" x="459.220195" y="368.3955" style="stroke: #000000; stroke-width: 0.6"/>
      </g>
     </g>
    </g>
    <g id="xtick_58">
     <g id="line2d_58">
      <g>
       <use xlink:href="#md043553250" x="468.677822" y="368.3955" style="stroke: #000000; stroke-width: 0.6"/>
      </g>
     </g>
    </g>
    <g id="xtick_59">
     <g id="line2d_59">
      <g>
       <use xlink:href="#md043553250" x="478.135449" y="368.3955" style="stroke: #000000; stroke-width: 0.6"/>
      </g>
     </g>
    </g>
    <g id="xtick_60">
     <g id="line2d_60">
      <g>
       <use xlink:href="#md043553250" x="487.593077" y="368.3955" style="stroke: #000000; stroke-width: 0.6"/>
      </g>
     </g>
    </g>
    <g id="xtick_61">
     <g id="line2d_61">
      <g>
       <use xlink:href="#md043553250" x="497.050704" y="368.3955" style="stroke: #000000; stroke-width: 0.6"/>
      </g>
     </g>
    </g>
    <g id="xtick_62">
     <g id="line2d_62">
      <g>
       <use xlink:href="#md043553250" x="506.508331" y="368.3955" style="stroke: #000000; stroke-width: 0.6"/>
      </g>
     </g>
    </g>
    <g id="xtick_63">
     <g id="line2d_63">
      <g>
       <use xlink:href="#md043553250" x="515.965958" y="368.3955" style="stroke: #000000; stroke-width: 0.6"/>
      </g>
     </g>
    </g>
    <g id="xtick_64">
     <g id="line2d_64">
      <g>
       <use xlink:href="#md043553250" x="525.423585" y="368.3955" style="stroke: #000000; stroke-width: 0.6"/>
      </g>
     </g>
    </g>
    <g id="xtick_65">
     <g id="line2d_65">
      <g>
       <use xlink:href="#md043553250" x="534.881212" y="368.3955" style="stroke: #000000; stroke-width: 0.6"/>
      </g>
     </g>
    </g>
    <g id="xtick_66">
     <g id="line2d_66">
      <g>
       <use xlink:href="#md043553250" x="544.338839" y="368.3955" style="stroke: #000000; stroke-width: 0.6"/>
      </g>
     </g>
    </g>
    <g id="xtick_67">
     <g id="line2d_67">
      <g>
       <use xlink:href="#md043553250" x="553.796466" y="368.3955" style="stroke: #000000; stroke-width: 0.6"/>
      </g>
     </g>
    </g>
    <g id="xtick_68">
     <g id="line2d_68">
      <g>
       <use xlink:href="#md043553250" x="563.254094" y="368.3955" style="stroke: #000000; stroke-width: 0.6"/>
      </g>
     </g>
    </g>
    <g id="xtick_69">
     <g id="line2d_69">
      <g>
       <use xlink:href="#md043553250" x="572.711721" y="368.3955" style="stroke: #000000; stroke-width: 0.6"/>
      </g>
     </g>
    </g>
    <g id="xtick_70">
     <g id="line2d_70">
      <g>
       <use xlink:href="#md043553250" x="582.169348" y="368.3955" style="stroke: #000000; stroke-width: 0.6"/>
      </g>
     </g>
    </g>
    <g id="xtick_71">
     <g id="line2d_71">
      <g>
       <use xlink:href="#md043553250" x="591.626975" y="368.3955" style="stroke: #000000; stroke-width: 0.6"/>
      </g>
     </g>
    </g>
    <g id="xtick_72">
     <g id="line2d_72">
      <g>
       <use xlink:href="#md043553250" x="601.084602" y="368.3955" style="stroke: #000000; stroke-width: 0.6"/>
      </g>
     </g>
    </g>
    <g id="xtick_73">
     <g id="line2d_73">
      <g>
       <use xlink:href="#md043553250" x="610.542229" y="368.3955" style="stroke: #000000; stroke-width: 0.6"/>
      </g>
     </g>
    </g>
    <g id="xtick_74">
     <g id="line2d_74">
      <g>
       <use xlink:href="#md043553250" x="619.999856" y="368.3955" style="stroke: #000000; stroke-width: 0.6"/>
      </g>
     </g>
    </g>
   </g>
   <g id="matplotlib.axis_2">
    <g id="ytick_1">
     <g id="line2d_75">
      <defs>
       <path id="m22d849e46c" d="M 0 0 
L -3.5 0 
" style="stroke: #000000; stroke-width: 0.8"/>
      </defs>
      <g>
       <use xlink:href="#m22d849e46c" x="66.053125" y="365.636094" style="stroke: #000000; stroke-width: 0.8"/>
      </g>
     </g>
     <g id="text_15">
      <!-- 60000 -->
      <g transform="translate(27.240625 369.435313) scale(0.1 -0.1)">
       <defs>
        <path id="DejaVuSans-36" d="M 2113 2584 
Q 1688 2584 1439 2293 
Q 1191 2003 1191 1497 
Q 1191 994 1439 701 
Q 1688 409 2113 409 
Q 2538 409 2786 701 
Q 3034 994 3034 1497 
Q 3034 2003 2786 2293 
Q 2538 2584 2113 2584 
z
M 3366 4563 
L 3366 3988 
Q 3128 4100 2886 4159 
Q 2644 4219 2406 4219 
Q 1781 4219 1451 3797 
Q 1122 3375 1075 2522 
Q 1259 2794 1537 2939 
Q 1816 3084 2150 3084 
Q 2853 3084 3261 2657 
Q 3669 2231 3669 1497 
Q 3669 778 3244 343 
Q 2819 -91 2113 -91 
Q 1303 -91 875 529 
Q 447 1150 447 2328 
Q 447 3434 972 4092 
Q 1497 4750 2381 4750 
Q 2619 4750 2861 4703 
Q 3103 4656 3366 4563 
z
" transform="scale(0.015625)"/>
       </defs>
       <use xlink:href="#DejaVuSans-36"/>
       <use xlink:href="#DejaVuSans-30" x="63.623047"/>
       <use xlink:href="#DejaVuSans-30" x="127.246094"/>
       <use xlink:href="#DejaVuSans-30" x="190.869141"/>
       <use xlink:href="#DejaVuSans-30" x="254.492188"/>
      </g>
     </g>
    </g>
    <g id="ytick_2">
     <g id="line2d_76">
      <g>
       <use xlink:href="#m22d849e46c" x="66.053125" y="299.767042" style="stroke: #000000; stroke-width: 0.8"/>
      </g>
     </g>
     <g id="text_16">
      <!-- 80000 -->
      <g transform="translate(27.240625 303.566261) scale(0.1 -0.1)">
       <defs>
        <path id="DejaVuSans-38" d="M 2034 2216 
Q 1584 2216 1326 1975 
Q 1069 1734 1069 1313 
Q 1069 891 1326 650 
Q 1584 409 2034 409 
Q 2484 409 2743 651 
Q 3003 894 3003 1313 
Q 3003 1734 2745 1975 
Q 2488 2216 2034 2216 
z
M 1403 2484 
Q 997 2584 770 2862 
Q 544 3141 544 3541 
Q 544 4100 942 4425 
Q 1341 4750 2034 4750 
Q 2731 4750 3128 4425 
Q 3525 4100 3525 3541 
Q 3525 3141 3298 2862 
Q 3072 2584 2669 2484 
Q 3125 2378 3379 2068 
Q 3634 1759 3634 1313 
Q 3634 634 3220 271 
Q 2806 -91 2034 -91 
Q 1263 -91 848 271 
Q 434 634 434 1313 
Q 434 1759 690 2068 
Q 947 2378 1403 2484 
z
M 1172 3481 
Q 1172 3119 1398 2916 
Q 1625 2713 2034 2713 
Q 2441 2713 2670 2916 
Q 2900 3119 2900 3481 
Q 2900 3844 2670 4047 
Q 2441 4250 2034 4250 
Q 1625 4250 1398 4047 
Q 1172 3844 1172 3481 
z
" transform="scale(0.015625)"/>
       </defs>
       <use xlink:href="#DejaVuSans-38"/>
       <use xlink:href="#DejaVuSans-30" x="63.623047"/>
       <use xlink:href="#DejaVuSans-30" x="127.246094"/>
       <use xlink:href="#DejaVuSans-30" x="190.869141"/>
       <use xlink:href="#DejaVuSans-30" x="254.492188"/>
      </g>
     </g>
    </g>
    <g id="ytick_3">
     <g id="line2d_77">
      <g>
       <use xlink:href="#m22d849e46c" x="66.053125" y="233.897991" style="stroke: #000000; stroke-width: 0.8"/>
      </g>
     </g>
     <g id="text_17">
      <!-- 100000 -->
      <g transform="translate(20.878125 237.697209) scale(0.1 -0.1)">
       <defs>
        <path id="DejaVuSans-31" d="M 794 531 
L 1825 531 
L 1825 4091 
L 703 3866 
L 703 4441 
L 1819 4666 
L 2450 4666 
L 2450 531 
L 3481 531 
L 3481 0 
L 794 0 
L 794 531 
z
" transform="scale(0.015625)"/>
       </defs>
       <use xlink:href="#DejaVuSans-31"/>
       <use xlink:href="#DejaVuSans-30" x="63.623047"/>
       <use xlink:href="#DejaVuSans-30" x="127.246094"/>
       <use xlink:href="#DejaVuSans-30" x="190.869141"/>
       <use xlink:href="#DejaVuSans-30" x="254.492188"/>
       <use xlink:href="#DejaVuSans-30" x="318.115234"/>
      </g>
     </g>
    </g>
    <g id="ytick_4">
     <g id="line2d_78">
      <g>
       <use xlink:href="#m22d849e46c" x="66.053125" y="168.028939" style="stroke: #000000; stroke-width: 0.8"/>
      </g>
     </g>
     <g id="text_18">
      <!-- 120000 -->
      <g transform="translate(20.878125 171.828158) scale(0.1 -0.1)">
       <use xlink:href="#DejaVuSans-31"/>
       <use xlink:href="#DejaVuSans-32" x="63.623047"/>
       <use xlink:href="#DejaVuSans-30" x="127.246094"/>
       <use xlink:href="#DejaVuSans-30" x="190.869141"/>
       <use xlink:href="#DejaVuSans-30" x="254.492188"/>
       <use xlink:href="#DejaVuSans-30" x="318.115234"/>
      </g>
     </g>
    </g>
    <g id="ytick_5">
     <g id="line2d_79">
      <g>
       <use xlink:href="#m22d849e46c" x="66.053125" y="102.159888" style="stroke: #000000; stroke-width: 0.8"/>
      </g>
     </g>
     <g id="text_19">
      <!-- 140000 -->
      <g transform="translate(20.878125 105.959106) scale(0.1 -0.1)">
       <defs>
        <path id="DejaVuSans-34" d="M 2419 4116 
L 825 1625 
L 2419 1625 
L 2419 4116 
z
M 2253 4666 
L 3047 4666 
L 3047 1625 
L 3713 1625 
L 3713 1100 
L 3047 1100 
L 3047 0 
L 2419 0 
L 2419 1100 
L 313 1100 
L 313 1709 
L 2253 4666 
z
" transform="scale(0.015625)"/>
       </defs>
       <use xlink:href="#DejaVuSans-31"/>
       <use xlink:href="#DejaVuSans-34" x="63.623047"/>
       <use xlink:href="#DejaVuSans-30" x="127.246094"/>
       <use xlink:href="#DejaVuSans-30" x="190.869141"/>
       <use xlink:href="#DejaVuSans-30" x="254.492188"/>
       <use xlink:href="#DejaVuSans-30" x="318.115234"/>
      </g>
     </g>
    </g>
    <g id="ytick_6">
     <g id="line2d_80">
      <g>
       <use xlink:href="#m22d849e46c" x="66.053125" y="36.290836" style="stroke: #000000; stroke-width: 0.8"/>
      </g>
     </g>
     <g id="text_20">
      <!-- 160000 -->
      <g transform="translate(20.878125 40.090055) scale(0.1 -0.1)">
       <use xlink:href="#DejaVuSans-31"/>
       <use xlink:href="#DejaVuSans-36" x="63.623047"/>
       <use xlink:href="#DejaVuSans-30" x="127.246094"/>
       <use xlink:href="#DejaVuSans-30" x="190.869141"/>
       <use xlink:href="#DejaVuSans-30" x="254.492188"/>
       <use xlink:href="#DejaVuSans-30" x="318.115234"/>
      </g>
     </g>
    </g>
    <g id="text_21">
     <!-- Territory in km² -->
     <g transform="translate(14.798438 240.309094) rotate(-90) scale(0.1 -0.1)">
      <defs>
       <path id="DejaVuSans-54" d="M -19 4666 
L 3928 4666 
L 3928 4134 
L 2272 4134 
L 2272 0 
L 1638 0 
L 1638 4134 
L -19 4134 
L -19 4666 
z
" transform="scale(0.015625)"/>
       <path id="DejaVuSans-69" d="M 603 3500 
L 1178 3500 
L 1178 0 
L 603 0 
L 603 3500 
z
M 603 4863 
L 1178 4863 
L 1178 4134 
L 603 4134 
L 603 4863 
z
" transform="scale(0.015625)"/>
       <path id="DejaVuSans-20" transform="scale(0.015625)"/>
       <path id="DejaVuSans-6b" d="M 581 4863 
L 1159 4863 
L 1159 1991 
L 2875 3500 
L 3609 3500 
L 1753 1863 
L 3688 0 
L 2938 0 
L 1159 1709 
L 1159 0 
L 581 0 
L 581 4863 
z
" transform="scale(0.015625)"/>
       <path id="DejaVuSans-6d" d="M 3328 2828 
Q 3544 3216 3844 3400 
Q 4144 3584 4550 3584 
Q 5097 3584 5394 3201 
Q 5691 2819 5691 2113 
L 5691 0 
L 5113 0 
L 5113 2094 
Q 5113 2597 4934 2840 
Q 4756 3084 4391 3084 
Q 3944 3084 3684 2787 
Q 3425 2491 3425 1978 
L 3425 0 
L 2847 0 
L 2847 2094 
Q 2847 2600 2669 2842 
Q 2491 3084 2119 3084 
Q 1678 3084 1418 2786 
Q 1159 2488 1159 1978 
L 1159 0 
L 581 0 
L 581 3500 
L 1159 3500 
L 1159 2956 
Q 1356 3278 1631 3431 
Q 1906 3584 2284 3584 
Q 2666 3584 2933 3390 
Q 3200 3197 3328 2828 
z
" transform="scale(0.015625)"/>
       <path id="DejaVuSans-b2" d="M 838 2444 
L 2163 2444 
L 2163 2088 
L 294 2088 
L 294 2431 
Q 400 2528 597 2703 
Q 1672 3656 1672 3950 
Q 1672 4156 1509 4282 
Q 1347 4409 1081 4409 
Q 919 4409 728 4354 
Q 538 4300 313 4191 
L 313 4575 
Q 553 4663 761 4706 
Q 969 4750 1147 4750 
Q 1600 4750 1872 4544 
Q 2144 4338 2144 4000 
Q 2144 3566 1109 2678 
Q 934 2528 838 2444 
z
" transform="scale(0.015625)"/>
      </defs>
      <use xlink:href="#DejaVuSans-54"/>
      <use xlink:href="#DejaVuSans-65" x="44.083984"/>
      <use xlink:href="#DejaVuSans-72" x="105.607422"/>
      <use xlink:href="#DejaVuSans-72" x="144.970703"/>
      <use xlink:href="#DejaVuSans-69" x="186.083984"/>
      <use xlink:href="#DejaVuSans-74" x="213.867188"/>
      <use xlink:href="#DejaVuSans-6f" x="253.076172"/>
      <use xlink:href="#DejaVuSans-72" x="314.257812"/>
      <use xlink:href="#DejaVuSans-79" x="355.371094"/>
      <use xlink:href="#DejaVuSans-20" x="414.550781"/>
      <use xlink:href="#DejaVuSans-69" x="446.337891"/>
      <use xlink:href="#DejaVuSans-6e" x="474.121094"/>
      <use xlink:href="#DejaVuSans-20" x="537.5"/>
      <use xlink:href="#DejaVuSans-6b" x="569.287109"/>
      <use xlink:href="#DejaVuSans-6d" x="627.197266"/>
      <use xlink:href="#DejaVuSans-b2" x="724.609375"/>
     </g>
    </g>
   </g>
   <g id="line2d_81">
    <path d="M 113.341261 353.2755 
L 114.69235 323.320554 
L 116.04344 295.897496 
L 117.394529 282.76651 
L 118.745619 282.012891 
L 120.096709 279.848232 
L 121.447798 275.687752 
L 122.798888 259.653117 
L 124.149977 259.676078 
L 125.501067 244.365585 
L 126.852156 238.563308 
L 128.203246 237.544061 
L 129.554336 236.02001 
L 130.905425 223.485255 
L 132.256515 219.737724 
L 133.607604 219.457955 
L 134.958694 218.937754 
L 136.309784 219.119961 
L 137.660873 207.310657 
L 139.011963 190.992248 
L 140.363052 193.286419 
L 141.714142 182.517031 
L 143.065232 145.621134 
L 144.416321 145.621134 
L 145.767411 146.371524 
L 147.1185 146.521572 
L 148.46959 146.521572 
L 149.820679 96.175756 
L 151.171769 98.490268 
L 152.522859 82.567161 
L 153.873948 56.532658 
L 155.225038 58.290843 
L 156.576127 54.075559 
L 157.927217 54.075559 
L 159.278307 50.8755 
L 160.629396 51.195787 
L 163.331575 56.125711 
L 164.682665 79.321297 
L 166.033755 94.155267 
L 167.384844 101.598282 
L 168.735934 152.606228 
L 171.438113 152.622581 
L 172.789202 152.293437 
L 174.140292 151.582578 
L 176.842471 151.578873 
L 178.193561 152.206336 
L 179.54465 153.994555 
L 182.24683 153.994498 
L 183.597919 155.100055 
L 184.949009 154.900977 
L 186.300098 155.085723 
L 187.651188 154.704009 
L 189.002278 154.704009 
L 190.353367 154.079671 
L 191.704457 154.079671 
L 193.055546 152.722177 
L 194.406636 153.318187 
L 198.459905 152.693068 
L 199.810994 152.753711 
L 201.162084 153.361572 
L 202.513173 153.361572 
L 203.864263 153.918939 
L 205.215353 154.154764 
L 207.917532 154.157692 
L 210.619711 154.572122 
L 211.970801 154.279784 
L 213.32189 154.465131 
L 216.024069 154.493846 
L 217.375159 154.47209 
L 218.726248 154.206643 
L 220.077338 154.213959 
L 221.428428 153.89372 
L 226.832786 153.853966 
L 228.183876 153.622372 
L 229.534965 153.273163 
L 230.886055 153.218919 
L 232.237144 153.01661 
L 233.588234 152.687637 
L 234.939324 152.63173 
L 236.290413 152.270423 
L 237.641503 152.194246 
L 238.992592 151.32419 
L 244.396951 151.484007 
L 247.09913 151.248716 
L 249.801309 151.26104 
L 251.152399 151.485739 
L 252.503488 151.485739 
L 253.854578 151.683982 
L 257.907847 151.577176 
L 259.258936 151.321327 
L 260.610026 151.269831 
L 261.961115 151.104824 
L 264.663294 151.186606 
L 270.067653 151.285296 
L 271.418742 151.14196 
L 272.769832 151.14196 
L 274.120922 150.573469 
L 275.472011 150.844247 
L 276.823101 150.844247 
L 278.17419 150.659227 
L 279.52528 150.337803 
L 280.87637 150.320368 
L 282.227459 150.571015 
L 284.929638 150.49193 
L 286.280728 150.255574 
L 287.631817 150.140712 
L 290.333997 150.170185 
L 291.685086 149.781353 
L 293.036176 149.781353 
L 294.387265 149.929592 
L 310.60034 149.838468 
L 320.057968 149.710584 
L 328.164505 149.705328 
L 330.866684 149.515451 
L 333.568863 149.614794 
L 334.919953 149.203362 
L 338.973222 149.209335 
L 340.324311 149.384822 
L 353.835207 149.467837 
L 355.186297 148.52701 
L 356.537387 148.52701 
L 357.888476 147.214484 
L 360.590655 147.214484 
L 361.941745 147.041925 
L 365.995014 146.99011 
L 368.697193 146.967105 
L 370.048282 147.273723 
L 372.750462 147.299736 
L 374.101551 147.468614 
L 376.80373 148.291057 
L 378.15482 150.450319 
L 379.50591 150.450319 
L 382.208089 162.584026 
L 390.314626 162.658385 
L 391.665716 162.699329 
L 393.016805 163.02344 
L 394.367895 176.886877 
L 395.718985 176.886877 
L 398.421164 177.09473 
L 399.772253 177.09473 
L 401.123343 177.671548 
L 405.176612 178.025262 
L 406.527701 178.057178 
L 407.878791 179.02045 
L 409.22988 179.02045 
L 410.58097 180.41643 
L 411.93206 183.922619 
L 413.283149 185.522661 
L 414.634239 185.792102 
L 415.985328 185.792102 
L 417.336418 189.63837 
L 418.687508 189.63837 
L 420.038597 191.791675 
L 421.389687 191.791675 
L 422.740776 192.097762 
L 425.442956 192.161604 
L 429.496224 192.224895 
L 430.847314 191.69738 
L 432.198403 191.657357 
L 433.549493 191.41468 
L 441.656031 191.493534 
L 445.709299 191.544039 
L 452.464747 191.574123 
L 453.815837 191.713298 
L 461.922374 191.694984 
L 463.273464 193.69709 
L 464.624554 198.756714 
L 465.975643 198.062881 
L 467.326733 198.011042 
L 468.677822 197.019472 
L 470.028912 197.019472 
L 471.380002 204.24151 
L 495.699614 204.246534 
L 497.050704 204.436796 
L 524.072495 204.514527 
L 526.774675 204.592975 
L 532.179033 204.655405 
L 533.530123 204.809798 
L 538.934481 204.915893 
L 540.285571 205.046182 
L 570.009541 204.649041 
L 584.871527 204.62129 
L 586.222617 204.044802 
L 588.924796 204.044802 
L 591.626975 203.401023 
L 617.297677 203.295643 
L 621.350946 203.239391 
L 625.404215 203.207218 
L 626.755304 199.284337 
L 630.808573 199.284807 
L 630.808573 199.284807 
" clip-path="url(#pa508056a87)" style="fill: none; stroke: #1f77b4; stroke-width: 1.5; stroke-linecap: square"/>
   </g>
   <g id="patch_3">
    <path d="M 66.053125 368.3955 
L 66.053125 35.7555 
" style="fill: none; stroke: #000000; stroke-width: 0.8; stroke-linejoin: miter; stroke-linecap: square"/>
   </g>
   <g id="patch_4">
    <path d="M 624.053125 368.3955 
L 624.053125 35.7555 
" style="fill: none; stroke: #000000; stroke-width: 0.8; stroke-linejoin: miter; stroke-linecap: square"/>
   </g>
   <g id="patch_5">
    <path d="M 66.053125 368.3955 
L 624.053125 368.3955 
" style="fill: none; stroke: #000000; stroke-width: 0.8; stroke-linejoin: miter; stroke-linecap: square"/>
   </g>
   <g id="patch_6">
    <path d="M 66.053125 35.7555 
L 624.053125 35.7555 
" style="fill: none; stroke: #000000; stroke-width: 0.8; stroke-linejoin: miter; stroke-linecap: square"/>
   </g>
   <g id="legend_1">
    <g id="patch_7">
     <path d="M 229.744531 58.433625 
L 460.361719 58.433625 
Q 462.361719 58.433625 462.361719 56.433625 
L 462.361719 42.7555 
Q 462.361719 40.7555 460.361719 40.7555 
L 229.744531 40.7555 
Q 227.744531 40.7555 227.744531 42.7555 
L 227.744531 56.433625 
Q 227.744531 58.433625 229.744531 58.433625 
z
" style="fill: #ffffff; opacity: 0.8; stroke: #cccccc; stroke-linejoin: miter"/>
    </g>
    <g id="line2d_82">
     <path d="M 231.744531 48.853937 
L 241.744531 48.853937 
L 251.744531 48.853937 
" style="fill: none; stroke: #1f77b4; stroke-width: 1.5; stroke-linecap: square"/>
    </g>
    <g id="text_22">
     <!-- Total territory control (averaged) in km² -->
     <g transform="translate(259.744531 52.353937) scale(0.1 -0.1)">
      <defs>
       <path id="DejaVuSans-28" d="M 1984 4856 
Q 1566 4138 1362 3434 
Q 1159 2731 1159 2009 
Q 1159 1288 1364 580 
Q 1569 -128 1984 -844 
L 1484 -844 
Q 1016 -109 783 600 
Q 550 1309 550 2009 
Q 550 2706 781 3412 
Q 1013 4119 1484 4856 
L 1984 4856 
z
" transform="scale(0.015625)"/>
       <path id="DejaVuSans-64" d="M 2906 2969 
L 2906 4863 
L 3481 4863 
L 3481 0 
L 2906 0 
L 2906 525 
Q 2725 213 2448 61 
Q 2172 -91 1784 -91 
Q 1150 -91 751 415 
Q 353 922 353 1747 
Q 353 2572 751 3078 
Q 1150 3584 1784 3584 
Q 2172 3584 2448 3432 
Q 2725 3281 2906 2969 
z
M 947 1747 
Q 947 1113 1208 752 
Q 1469 391 1925 391 
Q 2381 391 2643 752 
Q 2906 1113 2906 1747 
Q 2906 2381 2643 2742 
Q 2381 3103 1925 3103 
Q 1469 3103 1208 2742 
Q 947 2381 947 1747 
z
" transform="scale(0.015625)"/>
       <path id="DejaVuSans-29" d="M 513 4856 
L 1013 4856 
Q 1481 4119 1714 3412 
Q 1947 2706 1947 2009 
Q 1947 1309 1714 600 
Q 1481 -109 1013 -844 
L 513 -844 
Q 928 -128 1133 580 
Q 1338 1288 1338 2009 
Q 1338 2731 1133 3434 
Q 928 4138 513 4856 
z
" transform="scale(0.015625)"/>
      </defs>
      <use xlink:href="#DejaVuSans-54"/>
      <use xlink:href="#DejaVuSans-6f" x="44.083984"/>
      <use xlink:href="#DejaVuSans-74" x="105.265625"/>
      <use xlink:href="#DejaVuSans-61" x="144.474609"/>
      <use xlink:href="#DejaVuSans-6c" x="205.753906"/>
      <use xlink:href="#DejaVuSans-20" x="233.537109"/>
      <use xlink:href="#DejaVuSans-74" x="265.324219"/>
      <use xlink:href="#DejaVuSans-65" x="304.533203"/>
      <use xlink:href="#DejaVuSans-72" x="366.056641"/>
      <use xlink:href="#DejaVuSans-72" x="405.419922"/>
      <use xlink:href="#DejaVuSans-69" x="446.533203"/>
      <use xlink:href="#DejaVuSans-74" x="474.316406"/>
      <use xlink:href="#DejaVuSans-6f" x="513.525391"/>
      <use xlink:href="#DejaVuSans-72" x="574.707031"/>
      <use xlink:href="#DejaVuSans-79" x="615.820312"/>
      <use xlink:href="#DejaVuSans-20" x="675"/>
      <use xlink:href="#DejaVuSans-63" x="706.787109"/>
      <use xlink:href="#DejaVuSans-6f" x="761.767578"/>
      <use xlink:href="#DejaVuSans-6e" x="822.949219"/>
      <use xlink:href="#DejaVuSans-74" x="886.328125"/>
      <use xlink:href="#DejaVuSans-72" x="925.537109"/>
      <use xlink:href="#DejaVuSans-6f" x="964.400391"/>
      <use xlink:href="#DejaVuSans-6c" x="1025.582031"/>
      <use xlink:href="#DejaVuSans-20" x="1053.365234"/>
      <use xlink:href="#DejaVuSans-28" x="1085.152344"/>
      <use xlink:href="#DejaVuSans-61" x="1124.166016"/>
      <use xlink:href="#DejaVuSans-76" x="1185.445312"/>
      <use xlink:href="#DejaVuSans-65" x="1244.625"/>
      <use xlink:href="#DejaVuSans-72" x="1306.148438"/>
      <use xlink:href="#DejaVuSans-61" x="1347.261719"/>
      <use xlink:href="#DejaVuSans-67" x="1408.541016"/>
      <use xlink:href="#DejaVuSans-65" x="1472.017578"/>
      <use xlink:href="#DejaVuSans-64" x="1533.541016"/>
      <use xlink:href="#DejaVuSans-29" x="1597.017578"/>
      <use xlink:href="#DejaVuSans-20" x="1636.03125"/>
      <use xlink:href="#DejaVuSans-69" x="1667.818359"/>
      <use xlink:href="#DejaVuSans-6e" x="1695.601562"/>
      <use xlink:href="#DejaVuSans-20" x="1758.980469"/>
      <use xlink:href="#DejaVuSans-6b" x="1790.767578"/>
      <use xlink:href="#DejaVuSans-6d" x="1848.677734"/>
      <use xlink:href="#DejaVuSans-b2" x="1946.089844"/>
     </g>
    </g>
   </g>
  </g>
  <g id="axes_2">
   <g id="matplotlib.axis_3">
    <g id="ytick_7">
     <g id="line2d_83">
      <defs>
       <path id="m3c238a099f" d="M 0 0 
L 3.5 0 
" style="stroke: #000000; stroke-width: 0.8"/>
      </defs>
      <g>
       <use xlink:href="#m3c238a099f" x="624.053125" y="363.3555" style="stroke: #000000; stroke-width: 0.8"/>
      </g>
     </g>
     <g id="text_23">
      <!-- 0 -->
      <g transform="translate(631.053125 367.154719) scale(0.1 -0.1)">
       <use xlink:href="#DejaVuSans-30"/>
      </g>
     </g>
    </g>
    <g id="ytick_8">
     <g id="line2d_84">
      <g>
       <use xlink:href="#m3c238a099f" x="624.053125" y="312.9555" style="stroke: #000000; stroke-width: 0.8"/>
      </g>
     </g>
     <g id="text_24">
      <!-- 5 -->
      <g transform="translate(631.053125 316.754719) scale(0.1 -0.1)">
       <defs>
        <path id="DejaVuSans-35" d="M 691 4666 
L 3169 4666 
L 3169 4134 
L 1269 4134 
L 1269 2991 
Q 1406 3038 1543 3061 
Q 1681 3084 1819 3084 
Q 2600 3084 3056 2656 
Q 3513 2228 3513 1497 
Q 3513 744 3044 326 
Q 2575 -91 1722 -91 
Q 1428 -91 1123 -41 
Q 819 9 494 109 
L 494 744 
Q 775 591 1075 516 
Q 1375 441 1709 441 
Q 2250 441 2565 725 
Q 2881 1009 2881 1497 
Q 2881 1984 2565 2268 
Q 2250 2553 1709 2553 
Q 1456 2553 1204 2497 
Q 953 2441 691 2322 
L 691 4666 
z
" transform="scale(0.015625)"/>
       </defs>
       <use xlink:href="#DejaVuSans-35"/>
      </g>
     </g>
    </g>
    <g id="ytick_9">
     <g id="line2d_85">
      <g>
       <use xlink:href="#m3c238a099f" x="624.053125" y="262.5555" style="stroke: #000000; stroke-width: 0.8"/>
      </g>
     </g>
     <g id="text_25">
      <!-- 10 -->
      <g transform="translate(631.053125 266.354719) scale(0.1 -0.1)">
       <use xlink:href="#DejaVuSans-31"/>
       <use xlink:href="#DejaVuSans-30" x="63.623047"/>
      </g>
     </g>
    </g>
    <g id="ytick_10">
     <g id="line2d_86">
      <g>
       <use xlink:href="#m3c238a099f" x="624.053125" y="212.1555" style="stroke: #000000; stroke-width: 0.8"/>
      </g>
     </g>
     <g id="text_26">
      <!-- 15 -->
      <g transform="translate(631.053125 215.954719) scale(0.1 -0.1)">
       <use xlink:href="#DejaVuSans-31"/>
       <use xlink:href="#DejaVuSans-35" x="63.623047"/>
      </g>
     </g>
    </g>
    <g id="ytick_11">
     <g id="line2d_87">
      <g>
       <use xlink:href="#m3c238a099f" x="624.053125" y="161.7555" style="stroke: #000000; stroke-width: 0.8"/>
      </g>
     </g>
     <g id="text_27">
      <!-- 20 -->
      <g transform="translate(631.053125 165.554719) scale(0.1 -0.1)">
       <use xlink:href="#DejaVuSans-32"/>
       <use xlink:href="#DejaVuSans-30" x="63.623047"/>
      </g>
     </g>
    </g>
    <g id="ytick_12">
     <g id="line2d_88">
      <g>
       <use xlink:href="#m3c238a099f" x="624.053125" y="111.3555" style="stroke: #000000; stroke-width: 0.8"/>
      </g>
     </g>
     <g id="text_28">
      <!-- 25 -->
      <g transform="translate(631.053125 115.154719) scale(0.1 -0.1)">
       <use xlink:href="#DejaVuSans-32"/>
       <use xlink:href="#DejaVuSans-35" x="63.623047"/>
      </g>
     </g>
    </g>
    <g id="ytick_13">
     <g id="line2d_89">
      <g>
       <use xlink:href="#m3c238a099f" x="624.053125" y="60.9555" style="stroke: #000000; stroke-width: 0.8"/>
      </g>
     </g>
     <g id="text_29">
      <!-- 30 -->
      <g transform="translate(631.053125 64.754719) scale(0.1 -0.1)">
       <use xlink:href="#DejaVuSans-33"/>
       <use xlink:href="#DejaVuSans-30" x="63.623047"/>
      </g>
     </g>
    </g>
    <g id="text_30">
     <!-- mentions of "missile" -->
     <g style="fill: #2ca02c" transform="translate(655.376563 255.29425) rotate(-90) scale(0.1 -0.1)">
      <defs>
       <path id="DejaVuSans-73" d="M 2834 3397 
L 2834 2853 
Q 2591 2978 2328 3040 
Q 2066 3103 1784 3103 
Q 1356 3103 1142 2972 
Q 928 2841 928 2578 
Q 928 2378 1081 2264 
Q 1234 2150 1697 2047 
L 1894 2003 
Q 2506 1872 2764 1633 
Q 3022 1394 3022 966 
Q 3022 478 2636 193 
Q 2250 -91 1575 -91 
Q 1294 -91 989 -36 
Q 684 19 347 128 
L 347 722 
Q 666 556 975 473 
Q 1284 391 1588 391 
Q 1994 391 2212 530 
Q 2431 669 2431 922 
Q 2431 1156 2273 1281 
Q 2116 1406 1581 1522 
L 1381 1569 
Q 847 1681 609 1914 
Q 372 2147 372 2553 
Q 372 3047 722 3315 
Q 1072 3584 1716 3584 
Q 2034 3584 2315 3537 
Q 2597 3491 2834 3397 
z
" transform="scale(0.015625)"/>
       <path id="DejaVuSans-66" d="M 2375 4863 
L 2375 4384 
L 1825 4384 
Q 1516 4384 1395 4259 
Q 1275 4134 1275 3809 
L 1275 3500 
L 2222 3500 
L 2222 3053 
L 1275 3053 
L 1275 0 
L 697 0 
L 697 3053 
L 147 3053 
L 147 3500 
L 697 3500 
L 697 3744 
Q 697 4328 969 4595 
Q 1241 4863 1831 4863 
L 2375 4863 
z
" transform="scale(0.015625)"/>
       <path id="DejaVuSans-22" d="M 1147 4666 
L 1147 2931 
L 616 2931 
L 616 4666 
L 1147 4666 
z
M 2328 4666 
L 2328 2931 
L 1797 2931 
L 1797 4666 
L 2328 4666 
z
" transform="scale(0.015625)"/>
      </defs>
      <use xlink:href="#DejaVuSans-6d"/>
      <use xlink:href="#DejaVuSans-65" x="97.412109"/>
      <use xlink:href="#DejaVuSans-6e" x="158.935547"/>
      <use xlink:href="#DejaVuSans-74" x="222.314453"/>
      <use xlink:href="#DejaVuSans-69" x="261.523438"/>
      <use xlink:href="#DejaVuSans-6f" x="289.306641"/>
      <use xlink:href="#DejaVuSans-6e" x="350.488281"/>
      <use xlink:href="#DejaVuSans-73" x="413.867188"/>
      <use xlink:href="#DejaVuSans-20" x="465.966797"/>
      <use xlink:href="#DejaVuSans-6f" x="497.753906"/>
      <use xlink:href="#DejaVuSans-66" x="558.935547"/>
      <use xlink:href="#DejaVuSans-20" x="594.140625"/>
      <use xlink:href="#DejaVuSans-22" x="625.927734"/>
      <use xlink:href="#DejaVuSans-6d" x="671.923828"/>
      <use xlink:href="#DejaVuSans-69" x="769.335938"/>
      <use xlink:href="#DejaVuSans-73" x="797.119141"/>
      <use xlink:href="#DejaVuSans-73" x="849.21875"/>
      <use xlink:href="#DejaVuSans-69" x="901.318359"/>
      <use xlink:href="#DejaVuSans-6c" x="929.101562"/>
      <use xlink:href="#DejaVuSans-65" x="956.884766"/>
      <use xlink:href="#DejaVuSans-22" x="1018.408203"/>
     </g>
    </g>
   </g>
   <g id="line2d_90">
    <path d="M 66.053125 353.2755 
L 75.510752 353.2755 
L 99.830365 353.2755 
L 113.341261 242.3955 
L 114.69235 323.0355 
L 116.04344 212.1555 
L 117.394529 343.1955 
L 118.745619 343.1955 
L 120.096709 312.9555 
L 121.447798 292.7955 
L 122.798888 292.7955 
L 126.852156 353.2755 
L 128.203246 343.1955 
L 129.554336 353.2755 
L 130.905425 353.2755 
L 132.256515 353.2755 
L 133.607604 353.2755 
L 134.958694 333.1155 
L 137.660873 50.8755 
L 140.363052 333.1155 
L 144.416321 353.2755 
L 145.767411 353.2755 
L 147.1185 343.1955 
L 148.46959 353.2755 
L 149.820679 353.2755 
L 151.171769 353.2755 
L 157.927217 353.2755 
L 160.629396 353.2755 
L 161.980486 353.2755 
L 171.438113 323.0355 
L 180.89574 353.2755 
L 184.949009 353.2755 
L 187.651188 353.2755 
L 191.704457 333.1155 
L 195.757725 343.1955 
L 197.108815 353.2755 
L 198.459905 353.2755 
L 203.864263 353.2755 
L 207.917532 353.2755 
L 209.268621 343.1955 
L 210.619711 343.1955 
L 211.970801 343.1955 
L 214.67298 353.2755 
L 224.130607 353.2755 
L 245.74804 353.2755 
L 248.450219 353.2755 
L 256.556757 353.2755 
L 261.961115 353.2755 
L 264.663294 343.1955 
L 266.014384 353.2755 
L 275.472011 343.1955 
L 276.823101 353.2755 
L 278.17419 292.7955 
L 279.52528 262.5555 
L 280.87637 343.1955 
L 284.929638 302.8755 
L 287.631817 353.2755 
L 302.493803 302.8755 
L 303.844893 323.0355 
L 305.195982 343.1955 
L 309.249251 353.2755 
L 310.60034 353.2755 
L 314.653609 343.1955 
L 318.706878 312.9555 
L 321.409057 353.2755 
L 333.568863 353.2755 
L 356.537387 353.2755 
L 357.888476 343.1955 
L 386.261357 353.2755 
L 391.665716 353.2755 
L 405.176612 353.2755 
L 406.527701 333.1155 
L 415.985328 353.2755 
L 420.038597 353.2755 
L 421.389687 323.0355 
L 432.198403 353.2755 
L 437.602762 353.2755 
L 452.464747 353.2755 
L 470.028912 333.1155 
L 471.380002 343.1955 
L 472.731091 353.2755 
L 480.837629 302.8755 
L 505.157241 343.1955 
L 532.179033 312.9555 
L 536.232302 353.2755 
L 545.689929 353.2755 
L 552.445377 343.1955 
L 568.658452 353.2755 
L 575.4139 343.1955 
L 579.467169 353.2755 
L 582.169348 333.1155 
L 598.382423 353.2755 
L 624.053125 343.1955 
" clip-path="url(#pa508056a87)" style="fill: none; stroke: #2ca02c; stroke-width: 1.5; stroke-linecap: square"/>
   </g>
   <g id="patch_8">
    <path d="M 66.053125 368.3955 
L 66.053125 35.7555 
" style="fill: none; stroke: #000000; stroke-width: 0.8; stroke-linejoin: miter; stroke-linecap: square"/>
   </g>
   <g id="patch_9">
    <path d="M 624.053125 368.3955 
L 624.053125 35.7555 
" style="fill: none; stroke: #000000; stroke-width: 0.8; stroke-linejoin: miter; stroke-linecap: square"/>
   </g>
   <g id="patch_10">
    <path d="M 66.053125 368.3955 
L 624.053125 368.3955 
" style="fill: none; stroke: #000000; stroke-width: 0.8; stroke-linejoin: miter; stroke-linecap: square"/>
   </g>
   <g id="patch_11">
    <path d="M 66.053125 35.7555 
L 624.053125 35.7555 
" style="fill: none; stroke: #000000; stroke-width: 0.8; stroke-linejoin: miter; stroke-linecap: square"/>
   </g>
   <g id="text_31">
    <!-- Russian control of Ukrainian territory (averaged)  -->
    <g transform="translate(197.674375 16.318125) scale(0.12 -0.12)">
     <defs>
      <path id="DejaVuSans-52" d="M 2841 2188 
Q 3044 2119 3236 1894 
Q 3428 1669 3622 1275 
L 4263 0 
L 3584 0 
L 2988 1197 
Q 2756 1666 2539 1819 
Q 2322 1972 1947 1972 
L 1259 1972 
L 1259 0 
L 628 0 
L 628 4666 
L 2053 4666 
Q 2853 4666 3247 4331 
Q 3641 3997 3641 3322 
Q 3641 2881 3436 2590 
Q 3231 2300 2841 2188 
z
M 1259 4147 
L 1259 2491 
L 2053 2491 
Q 2509 2491 2742 2702 
Q 2975 2913 2975 3322 
Q 2975 3731 2742 3939 
Q 2509 4147 2053 4147 
L 1259 4147 
z
" transform="scale(0.015625)"/>
      <path id="DejaVuSans-55" d="M 556 4666 
L 1191 4666 
L 1191 1831 
Q 1191 1081 1462 751 
Q 1734 422 2344 422 
Q 2950 422 3222 751 
Q 3494 1081 3494 1831 
L 3494 4666 
L 4128 4666 
L 4128 1753 
Q 4128 841 3676 375 
Q 3225 -91 2344 -91 
Q 1459 -91 1007 375 
Q 556 841 556 1753 
L 556 4666 
z
" transform="scale(0.015625)"/>
     </defs>
     <use xlink:href="#DejaVuSans-52"/>
     <use xlink:href="#DejaVuSans-75" x="64.982422"/>
     <use xlink:href="#DejaVuSans-73" x="128.361328"/>
     <use xlink:href="#DejaVuSans-73" x="180.460938"/>
     <use xlink:href="#DejaVuSans-69" x="232.560547"/>
     <use xlink:href="#DejaVuSans-61" x="260.34375"/>
     <use xlink:href="#DejaVuSans-6e" x="321.623047"/>
     <use xlink:href="#DejaVuSans-20" x="385.001953"/>
     <use xlink:href="#DejaVuSans-63" x="416.789062"/>
     <use xlink:href="#DejaVuSans-6f" x="471.769531"/>
     <use xlink:href="#DejaVuSans-6e" x="532.951172"/>
     <use xlink:href="#DejaVuSans-74" x="596.330078"/>
     <use xlink:href="#DejaVuSans-72" x="635.539062"/>
     <use xlink:href="#DejaVuSans-6f" x="674.402344"/>
     <use xlink:href="#DejaVuSans-6c" x="735.583984"/>
     <use xlink:href="#DejaVuSans-20" x="763.367188"/>
     <use xlink:href="#DejaVuSans-6f" x="795.154297"/>
     <use xlink:href="#DejaVuSans-66" x="856.335938"/>
     <use xlink:href="#DejaVuSans-20" x="891.541016"/>
     <use xlink:href="#DejaVuSans-55" x="923.328125"/>
     <use xlink:href="#DejaVuSans-6b" x="996.521484"/>
     <use xlink:href="#DejaVuSans-72" x="1054.431641"/>
     <use xlink:href="#DejaVuSans-61" x="1095.544922"/>
     <use xlink:href="#DejaVuSans-69" x="1156.824219"/>
     <use xlink:href="#DejaVuSans-6e" x="1184.607422"/>
     <use xlink:href="#DejaVuSans-69" x="1247.986328"/>
     <use xlink:href="#DejaVuSans-61" x="1275.769531"/>
     <use xlink:href="#DejaVuSans-6e" x="1337.048828"/>
     <use xlink:href="#DejaVuSans-20" x="1400.427734"/>
     <use xlink:href="#DejaVuSans-74" x="1432.214844"/>
     <use xlink:href="#DejaVuSans-65" x="1471.423828"/>
     <use xlink:href="#DejaVuSans-72" x="1532.947266"/>
     <use xlink:href="#DejaVuSans-72" x="1572.310547"/>
     <use xlink:href="#DejaVuSans-69" x="1613.423828"/>
     <use xlink:href="#DejaVuSans-74" x="1641.207031"/>
     <use xlink:href="#DejaVuSans-6f" x="1680.416016"/>
     <use xlink:href="#DejaVuSans-72" x="1741.597656"/>
     <use xlink:href="#DejaVuSans-79" x="1782.710938"/>
     <use xlink:href="#DejaVuSans-20" x="1841.890625"/>
     <use xlink:href="#DejaVuSans-28" x="1873.677734"/>
     <use xlink:href="#DejaVuSans-61" x="1912.691406"/>
     <use xlink:href="#DejaVuSans-76" x="1973.970703"/>
     <use xlink:href="#DejaVuSans-65" x="2033.150391"/>
     <use xlink:href="#DejaVuSans-72" x="2094.673828"/>
     <use xlink:href="#DejaVuSans-61" x="2135.787109"/>
     <use xlink:href="#DejaVuSans-67" x="2197.066406"/>
     <use xlink:href="#DejaVuSans-65" x="2260.542969"/>
     <use xlink:href="#DejaVuSans-64" x="2322.066406"/>
     <use xlink:href="#DejaVuSans-29" x="2385.542969"/>
     <use xlink:href="#DejaVuSans-20" x="2424.556641"/>
    </g>
    <!-- vs mentions of the term "missiles" in Cen4Infores dataset -->
    <g transform="translate(171.689688 29.7555) scale(0.12 -0.12)">
     <defs>
      <path id="DejaVuSans-68" d="M 3513 2113 
L 3513 0 
L 2938 0 
L 2938 2094 
Q 2938 2591 2744 2837 
Q 2550 3084 2163 3084 
Q 1697 3084 1428 2787 
Q 1159 2491 1159 1978 
L 1159 0 
L 581 0 
L 581 4863 
L 1159 4863 
L 1159 2956 
Q 1366 3272 1645 3428 
Q 1925 3584 2291 3584 
Q 2894 3584 3203 3211 
Q 3513 2838 3513 2113 
z
" transform="scale(0.015625)"/>
      <path id="DejaVuSans-43" d="M 4122 4306 
L 4122 3641 
Q 3803 3938 3442 4084 
Q 3081 4231 2675 4231 
Q 1875 4231 1450 3742 
Q 1025 3253 1025 2328 
Q 1025 1406 1450 917 
Q 1875 428 2675 428 
Q 3081 428 3442 575 
Q 3803 722 4122 1019 
L 4122 359 
Q 3791 134 3420 21 
Q 3050 -91 2638 -91 
Q 1578 -91 968 557 
Q 359 1206 359 2328 
Q 359 3453 968 4101 
Q 1578 4750 2638 4750 
Q 3056 4750 3426 4639 
Q 3797 4528 4122 4306 
z
" transform="scale(0.015625)"/>
      <path id="DejaVuSans-49" d="M 628 4666 
L 1259 4666 
L 1259 0 
L 628 0 
L 628 4666 
z
" transform="scale(0.015625)"/>
     </defs>
     <use xlink:href="#DejaVuSans-76"/>
     <use xlink:href="#DejaVuSans-73" x="59.179688"/>
     <use xlink:href="#DejaVuSans-20" x="111.279297"/>
     <use xlink:href="#DejaVuSans-6d" x="143.066406"/>
     <use xlink:href="#DejaVuSans-65" x="240.478516"/>
     <use xlink:href="#DejaVuSans-6e" x="302.001953"/>
     <use xlink:href="#DejaVuSans-74" x="365.380859"/>
     <use xlink:href="#DejaVuSans-69" x="404.589844"/>
     <use xlink:href="#DejaVuSans-6f" x="432.373047"/>
     <use xlink:href="#DejaVuSans-6e" x="493.554688"/>
     <use xlink:href="#DejaVuSans-73" x="556.933594"/>
     <use xlink:href="#DejaVuSans-20" x="609.033203"/>
     <use xlink:href="#DejaVuSans-6f" x="640.820312"/>
     <use xlink:href="#DejaVuSans-66" x="702.001953"/>
     <use xlink:href="#DejaVuSans-20" x="737.207031"/>
     <use xlink:href="#DejaVuSans-74" x="768.994141"/>
     <use xlink:href="#DejaVuSans-68" x="808.203125"/>
     <use xlink:href="#DejaVuSans-65" x="871.582031"/>
     <use xlink:href="#DejaVuSans-20" x="933.105469"/>
     <use xlink:href="#DejaVuSans-74" x="964.892578"/>
     <use xlink:href="#DejaVuSans-65" x="1004.101562"/>
     <use xlink:href="#DejaVuSans-72" x="1065.625"/>
     <use xlink:href="#DejaVuSans-6d" x="1104.988281"/>
     <use xlink:href="#DejaVuSans-20" x="1202.400391"/>
     <use xlink:href="#DejaVuSans-22" x="1234.1875"/>
     <use xlink:href="#DejaVuSans-6d" x="1280.183594"/>
     <use xlink:href="#DejaVuSans-69" x="1377.595703"/>
     <use xlink:href="#DejaVuSans-73" x="1405.378906"/>
     <use xlink:href="#DejaVuSans-73" x="1457.478516"/>
     <use xlink:href="#DejaVuSans-69" x="1509.578125"/>
     <use xlink:href="#DejaVuSans-6c" x="1537.361328"/>
     <use xlink:href="#DejaVuSans-65" x="1565.144531"/>
     <use xlink:href="#DejaVuSans-73" x="1626.667969"/>
     <use xlink:href="#DejaVuSans-22" x="1678.767578"/>
     <use xlink:href="#DejaVuSans-20" x="1724.763672"/>
     <use xlink:href="#DejaVuSans-69" x="1756.550781"/>
     <use xlink:href="#DejaVuSans-6e" x="1784.333984"/>
     <use xlink:href="#DejaVuSans-20" x="1847.712891"/>
     <use xlink:href="#DejaVuSans-43" x="1879.5"/>
     <use xlink:href="#DejaVuSans-65" x="1949.324219"/>
     <use xlink:href="#DejaVuSans-6e" x="2010.847656"/>
     <use xlink:href="#DejaVuSans-34" x="2074.226562"/>
     <use xlink:href="#DejaVuSans-49" x="2137.849609"/>
     <use xlink:href="#DejaVuSans-6e" x="2167.341797"/>
     <use xlink:href="#DejaVuSans-66" x="2230.720703"/>
     <use xlink:href="#DejaVuSans-6f" x="2265.925781"/>
     <use xlink:href="#DejaVuSans-72" x="2327.107422"/>
     <use xlink:href="#DejaVuSans-65" x="2365.970703"/>
     <use xlink:href="#DejaVuSans-73" x="2427.494141"/>
     <use xlink:href="#DejaVuSans-20" x="2479.59375"/>
     <use xlink:href="#DejaVuSans-64" x="2511.380859"/>
     <use xlink:href="#DejaVuSans-61" x="2574.857422"/>
     <use xlink:href="#DejaVuSans-74" x="2636.136719"/>
     <use xlink:href="#DejaVuSans-61" x="2675.345703"/>
     <use xlink:href="#DejaVuSans-73" x="2736.625"/>
     <use xlink:href="#DejaVuSans-65" x="2788.724609"/>
     <use xlink:href="#DejaVuSans-74" x="2850.248047"/>
    </g>
   </g>
   <g id="legend_2">
    <g id="patch_12">
     <path d="M 478.615625 58.433625 
L 617.053125 58.433625 
Q 619.053125 58.433625 619.053125 56.433625 
L 619.053125 42.7555 
Q 619.053125 40.7555 617.053125 40.7555 
L 478.615625 40.7555 
Q 476.615625 40.7555 476.615625 42.7555 
L 476.615625 56.433625 
Q 476.615625 58.433625 478.615625 58.433625 
z
" style="fill: #ffffff; opacity: 0.8; stroke: #cccccc; stroke-linejoin: miter"/>
    </g>
    <g id="line2d_91">
     <path d="M 480.615625 48.853937 
L 490.615625 48.853937 
L 500.615625 48.853937 
" style="fill: none; stroke: #2ca02c; stroke-width: 1.5; stroke-linecap: square"/>
    </g>
    <g id="text_32">
     <!-- mentions of "missile" -->
     <g transform="translate(508.615625 52.353937) scale(0.1 -0.1)">
      <use xlink:href="#DejaVuSans-6d"/>
      <use xlink:href="#DejaVuSans-65" x="97.412109"/>
      <use xlink:href="#DejaVuSans-6e" x="158.935547"/>
      <use xlink:href="#DejaVuSans-74" x="222.314453"/>
      <use xlink:href="#DejaVuSans-69" x="261.523438"/>
      <use xlink:href="#DejaVuSans-6f" x="289.306641"/>
      <use xlink:href="#DejaVuSans-6e" x="350.488281"/>
      <use xlink:href="#DejaVuSans-73" x="413.867188"/>
      <use xlink:href="#DejaVuSans-20" x="465.966797"/>
      <use xlink:href="#DejaVuSans-6f" x="497.753906"/>
      <use xlink:href="#DejaVuSans-66" x="558.935547"/>
      <use xlink:href="#DejaVuSans-20" x="594.140625"/>
      <use xlink:href="#DejaVuSans-22" x="625.927734"/>
      <use xlink:href="#DejaVuSans-6d" x="671.923828"/>
      <use xlink:href="#DejaVuSans-69" x="769.335938"/>
      <use xlink:href="#DejaVuSans-73" x="797.119141"/>
      <use xlink:href="#DejaVuSans-73" x="849.21875"/>
      <use xlink:href="#DejaVuSans-69" x="901.318359"/>
      <use xlink:href="#DejaVuSans-6c" x="929.101562"/>
      <use xlink:href="#DejaVuSans-65" x="956.884766"/>
      <use xlink:href="#DejaVuSans-22" x="1018.408203"/>
     </g>
    </g>
   </g>
  </g>
 </g>
 <defs>
  <clipPath id="pa508056a87">
   <rect x="66.053125" y="35.7555" width="558" height="332.64"/>
  </clipPath>
 </defs>
</svg>
