<?xml version="1.0" encoding="utf-8" standalone="no"?>
<!DOCTYPE svg PUBLIC "-//W3C//DTD SVG 1.1//EN"
  "http://www.w3.org/Graphics/SVG/1.1/DTD/svg11.dtd">
<svg xmlns:xlink="http://www.w3.org/1999/xlink" width="680.836406pt" height="408.059031pt" viewBox="0 0 680.836406 408.059031" xmlns="http://www.w3.org/2000/svg" version="1.1">
 <metadata>
  <rdf:RDF xmlns:dc="http://purl.org/dc/elements/1.1/" xmlns:cc="http://creativecommons.org/ns#" xmlns:rdf="http://www.w3.org/1999/02/22-rdf-syntax-ns#">
   <cc:Work>
    <dc:type rdf:resource="http://purl.org/dc/dcmitype/StillImage"/>
    <dc:date>2023-03-15T22:05:00.391121</dc:date>
    <dc:format>image/svg+xml</dc:format>
    <dc:creator>
     <cc:Agent>
      <dc:title>Matplotlib v3.6.2, https://matplotlib.org/</dc:title>
     </cc:Agent>
    </dc:creator>
   </cc:Work>
  </rdf:RDF>
 </metadata>
 <defs>
  <style type="text/css">*{stroke-linejoin: round; stroke-linecap: butt}</style>
 </defs>
 <g id="figure_1">
  <g id="patch_1">
   <path d="M 0 408.059031 
L 680.836406 408.059031 
L 680.836406 0 
L 0 0 
z
" style="fill: #ffffff"/>
  </g>
  <g id="axes_1">
   <g id="patch_2">
    <path d="M 76.525156 368.3955 
L 634.525156 368.3955 
L 634.525156 35.7555 
L 76.525156 35.7555 
z
" style="fill: #eaeaf2"/>
   </g>
   <g id="matplotlib.axis_1">
    <g id="xtick_1">
     <g id="line2d_1">
      <path d="M 76.525156 368.3955 
L 76.525156 35.7555 
" clip-path="url(#p27c2005922)" style="fill: none; stroke: #ffffff; stroke-linecap: round"/>
     </g>
    </g>
    <g id="xtick_2">
     <g id="line2d_2">
      <path d="M 92.738231 368.3955 
L 92.738231 35.7555 
" clip-path="url(#p27c2005922)" style="fill: none; stroke: #ffffff; stroke-linecap: round"/>
     </g>
     <g id="text_1">
      <!-- Feb -->
      <g style="fill: #262626" transform="translate(83.001513 386.253781) scale(0.11 -0.11)">
       <defs>
        <path id="DejaVuSans-46" d="M 628 4666 
L 3309 4666 
L 3309 4134 
L 1259 4134 
L 1259 2759 
L 3109 2759 
L 3109 2228 
L 1259 2228 
L 1259 0 
L 628 0 
L 628 4666 
z
" transform="scale(0.015625)"/>
        <path id="DejaVuSans-65" d="M 3597 1894 
L 3597 1613 
L 953 1613 
Q 991 1019 1311 708 
Q 1631 397 2203 397 
Q 2534 397 2845 478 
Q 3156 559 3463 722 
L 3463 178 
Q 3153 47 2828 -22 
Q 2503 -91 2169 -91 
Q 1331 -91 842 396 
Q 353 884 353 1716 
Q 353 2575 817 3079 
Q 1281 3584 2069 3584 
Q 2775 3584 3186 3129 
Q 3597 2675 3597 1894 
z
M 3022 2063 
Q 3016 2534 2758 2815 
Q 2500 3097 2075 3097 
Q 1594 3097 1305 2825 
Q 1016 2553 972 2059 
L 3022 2063 
z
" transform="scale(0.015625)"/>
        <path id="DejaVuSans-62" d="M 3116 1747 
Q 3116 2381 2855 2742 
Q 2594 3103 2138 3103 
Q 1681 3103 1420 2742 
Q 1159 2381 1159 1747 
Q 1159 1113 1420 752 
Q 1681 391 2138 391 
Q 2594 391 2855 752 
Q 3116 1113 3116 1747 
z
M 1159 2969 
Q 1341 3281 1617 3432 
Q 1894 3584 2278 3584 
Q 2916 3584 3314 3078 
Q 3713 2572 3713 1747 
Q 3713 922 3314 415 
Q 2916 -91 2278 -91 
Q 1894 -91 1617 61 
Q 1341 213 1159 525 
L 1159 0 
L 581 0 
L 581 4863 
L 1159 4863 
L 1159 2969 
z
" transform="scale(0.015625)"/>
       </defs>
       <use xlink:href="#DejaVuSans-46"/>
       <use xlink:href="#DejaVuSans-65" x="52.019531"/>
       <use xlink:href="#DejaVuSans-62" x="113.542969"/>
      </g>
     </g>
    </g>
    <g id="xtick_3">
     <g id="line2d_3">
      <path d="M 130.56874 368.3955 
L 130.56874 35.7555 
" clip-path="url(#p27c2005922)" style="fill: none; stroke: #ffffff; stroke-linecap: round"/>
     </g>
     <g id="text_2">
      <!-- Mar -->
      <g style="fill: #262626" transform="translate(120.191787 386.253781) scale(0.11 -0.11)">
       <defs>
        <path id="DejaVuSans-4d" d="M 628 4666 
L 1569 4666 
L 2759 1491 
L 3956 4666 
L 4897 4666 
L 4897 0 
L 4281 0 
L 4281 4097 
L 3078 897 
L 2444 897 
L 1241 4097 
L 1241 0 
L 628 0 
L 628 4666 
z
" transform="scale(0.015625)"/>
        <path id="DejaVuSans-61" d="M 2194 1759 
Q 1497 1759 1228 1600 
Q 959 1441 959 1056 
Q 959 750 1161 570 
Q 1363 391 1709 391 
Q 2188 391 2477 730 
Q 2766 1069 2766 1631 
L 2766 1759 
L 2194 1759 
z
M 3341 1997 
L 3341 0 
L 2766 0 
L 2766 531 
Q 2569 213 2275 61 
Q 1981 -91 1556 -91 
Q 1019 -91 701 211 
Q 384 513 384 1019 
Q 384 1609 779 1909 
Q 1175 2209 1959 2209 
L 2766 2209 
L 2766 2266 
Q 2766 2663 2505 2880 
Q 2244 3097 1772 3097 
Q 1472 3097 1187 3025 
Q 903 2953 641 2809 
L 641 3341 
Q 956 3463 1253 3523 
Q 1550 3584 1831 3584 
Q 2591 3584 2966 3190 
Q 3341 2797 3341 1997 
z
" transform="scale(0.015625)"/>
        <path id="DejaVuSans-72" d="M 2631 2963 
Q 2534 3019 2420 3045 
Q 2306 3072 2169 3072 
Q 1681 3072 1420 2755 
Q 1159 2438 1159 1844 
L 1159 0 
L 581 0 
L 581 3500 
L 1159 3500 
L 1159 2956 
Q 1341 3275 1631 3429 
Q 1922 3584 2338 3584 
Q 2397 3584 2469 3576 
Q 2541 3569 2628 3553 
L 2631 2963 
z
" transform="scale(0.015625)"/>
       </defs>
       <use xlink:href="#DejaVuSans-4d"/>
       <use xlink:href="#DejaVuSans-61" x="86.279297"/>
       <use xlink:href="#DejaVuSans-72" x="147.558594"/>
      </g>
     </g>
    </g>
    <g id="xtick_4">
     <g id="line2d_4">
      <path d="M 172.452517 368.3955 
L 172.452517 35.7555 
" clip-path="url(#p27c2005922)" style="fill: none; stroke: #ffffff; stroke-linecap: round"/>
     </g>
     <g id="text_3">
      <!-- Apr -->
      <g style="fill: #262626" transform="translate(162.937517 386.253781) scale(0.11 -0.11)">
       <defs>
        <path id="DejaVuSans-41" d="M 2188 4044 
L 1331 1722 
L 3047 1722 
L 2188 4044 
z
M 1831 4666 
L 2547 4666 
L 4325 0 
L 3669 0 
L 3244 1197 
L 1141 1197 
L 716 0 
L 50 0 
L 1831 4666 
z
" transform="scale(0.015625)"/>
        <path id="DejaVuSans-70" d="M 1159 525 
L 1159 -1331 
L 581 -1331 
L 581 3500 
L 1159 3500 
L 1159 2969 
Q 1341 3281 1617 3432 
Q 1894 3584 2278 3584 
Q 2916 3584 3314 3078 
Q 3713 2572 3713 1747 
Q 3713 922 3314 415 
Q 2916 -91 2278 -91 
Q 1894 -91 1617 61 
Q 1341 213 1159 525 
z
M 3116 1747 
Q 3116 2381 2855 2742 
Q 2594 3103 2138 3103 
Q 1681 3103 1420 2742 
Q 1159 2381 1159 1747 
Q 1159 1113 1420 752 
Q 1681 391 2138 391 
Q 2594 391 2855 752 
Q 3116 1113 3116 1747 
z
" transform="scale(0.015625)"/>
       </defs>
       <use xlink:href="#DejaVuSans-41"/>
       <use xlink:href="#DejaVuSans-70" x="68.408203"/>
       <use xlink:href="#DejaVuSans-72" x="131.884766"/>
      </g>
     </g>
    </g>
    <g id="xtick_5">
     <g id="line2d_5">
      <path d="M 212.985205 368.3955 
L 212.985205 35.7555 
" clip-path="url(#p27c2005922)" style="fill: none; stroke: #ffffff; stroke-linecap: round"/>
     </g>
     <g id="text_4">
      <!-- May -->
      <g style="fill: #262626" transform="translate(201.613955 386.253781) scale(0.11 -0.11)">
       <defs>
        <path id="DejaVuSans-79" d="M 2059 -325 
Q 1816 -950 1584 -1140 
Q 1353 -1331 966 -1331 
L 506 -1331 
L 506 -850 
L 844 -850 
Q 1081 -850 1212 -737 
Q 1344 -625 1503 -206 
L 1606 56 
L 191 3500 
L 800 3500 
L 1894 763 
L 2988 3500 
L 3597 3500 
L 2059 -325 
z
" transform="scale(0.015625)"/>
       </defs>
       <use xlink:href="#DejaVuSans-4d"/>
       <use xlink:href="#DejaVuSans-61" x="86.279297"/>
       <use xlink:href="#DejaVuSans-79" x="147.558594"/>
      </g>
     </g>
    </g>
    <g id="xtick_6">
     <g id="line2d_6">
      <path d="M 254.868982 368.3955 
L 254.868982 35.7555 
" clip-path="url(#p27c2005922)" style="fill: none; stroke: #ffffff; stroke-linecap: round"/>
     </g>
     <g id="text_5">
      <!-- Jun -->
      <g style="fill: #262626" transform="translate(246.275232 386.253781) scale(0.11 -0.11)">
       <defs>
        <path id="DejaVuSans-4a" d="M 628 4666 
L 1259 4666 
L 1259 325 
Q 1259 -519 939 -900 
Q 619 -1281 -91 -1281 
L -331 -1281 
L -331 -750 
L -134 -750 
Q 284 -750 456 -515 
Q 628 -281 628 325 
L 628 4666 
z
" transform="scale(0.015625)"/>
        <path id="DejaVuSans-75" d="M 544 1381 
L 544 3500 
L 1119 3500 
L 1119 1403 
Q 1119 906 1312 657 
Q 1506 409 1894 409 
Q 2359 409 2629 706 
Q 2900 1003 2900 1516 
L 2900 3500 
L 3475 3500 
L 3475 0 
L 2900 0 
L 2900 538 
Q 2691 219 2414 64 
Q 2138 -91 1772 -91 
Q 1169 -91 856 284 
Q 544 659 544 1381 
z
M 1991 3584 
L 1991 3584 
z
" transform="scale(0.015625)"/>
        <path id="DejaVuSans-6e" d="M 3513 2113 
L 3513 0 
L 2938 0 
L 2938 2094 
Q 2938 2591 2744 2837 
Q 2550 3084 2163 3084 
Q 1697 3084 1428 2787 
Q 1159 2491 1159 1978 
L 1159 0 
L 581 0 
L 581 3500 
L 1159 3500 
L 1159 2956 
Q 1366 3272 1645 3428 
Q 1925 3584 2291 3584 
Q 2894 3584 3203 3211 
Q 3513 2838 3513 2113 
z
" transform="scale(0.015625)"/>
       </defs>
       <use xlink:href="#DejaVuSans-4a"/>
       <use xlink:href="#DejaVuSans-75" x="29.492188"/>
       <use xlink:href="#DejaVuSans-6e" x="92.871094"/>
      </g>
     </g>
    </g>
    <g id="xtick_7">
     <g id="line2d_7">
      <path d="M 295.40167 368.3955 
L 295.40167 35.7555 
" clip-path="url(#p27c2005922)" style="fill: none; stroke: #ffffff; stroke-linecap: round"/>
     </g>
     <g id="text_6">
      <!-- Jul -->
      <g style="fill: #262626" transform="translate(288.765576 386.253781) scale(0.11 -0.11)">
       <defs>
        <path id="DejaVuSans-6c" d="M 603 4863 
L 1178 4863 
L 1178 0 
L 603 0 
L 603 4863 
z
" transform="scale(0.015625)"/>
       </defs>
       <use xlink:href="#DejaVuSans-4a"/>
       <use xlink:href="#DejaVuSans-75" x="29.492188"/>
       <use xlink:href="#DejaVuSans-6c" x="92.871094"/>
      </g>
     </g>
    </g>
    <g id="xtick_8">
     <g id="line2d_8">
      <path d="M 337.285447 368.3955 
L 337.285447 35.7555 
" clip-path="url(#p27c2005922)" style="fill: none; stroke: #ffffff; stroke-linecap: round"/>
     </g>
     <g id="text_7">
      <!-- Aug -->
      <g style="fill: #262626" transform="translate(326.545837 386.253781) scale(0.11 -0.11)">
       <defs>
        <path id="DejaVuSans-67" d="M 2906 1791 
Q 2906 2416 2648 2759 
Q 2391 3103 1925 3103 
Q 1463 3103 1205 2759 
Q 947 2416 947 1791 
Q 947 1169 1205 825 
Q 1463 481 1925 481 
Q 2391 481 2648 825 
Q 2906 1169 2906 1791 
z
M 3481 434 
Q 3481 -459 3084 -895 
Q 2688 -1331 1869 -1331 
Q 1566 -1331 1297 -1286 
Q 1028 -1241 775 -1147 
L 775 -588 
Q 1028 -725 1275 -790 
Q 1522 -856 1778 -856 
Q 2344 -856 2625 -561 
Q 2906 -266 2906 331 
L 2906 616 
Q 2728 306 2450 153 
Q 2172 0 1784 0 
Q 1141 0 747 490 
Q 353 981 353 1791 
Q 353 2603 747 3093 
Q 1141 3584 1784 3584 
Q 2172 3584 2450 3431 
Q 2728 3278 2906 2969 
L 2906 3500 
L 3481 3500 
L 3481 434 
z
" transform="scale(0.015625)"/>
       </defs>
       <use xlink:href="#DejaVuSans-41"/>
       <use xlink:href="#DejaVuSans-75" x="68.408203"/>
       <use xlink:href="#DejaVuSans-67" x="131.787109"/>
      </g>
     </g>
    </g>
    <g id="xtick_9">
     <g id="line2d_9">
      <path d="M 379.169224 368.3955 
L 379.169224 35.7555 
" clip-path="url(#p27c2005922)" style="fill: none; stroke: #ffffff; stroke-linecap: round"/>
     </g>
     <g id="text_8">
      <!-- Sep -->
      <g style="fill: #262626" transform="translate(368.801724 386.253781) scale(0.11 -0.11)">
       <defs>
        <path id="DejaVuSans-53" d="M 3425 4513 
L 3425 3897 
Q 3066 4069 2747 4153 
Q 2428 4238 2131 4238 
Q 1616 4238 1336 4038 
Q 1056 3838 1056 3469 
Q 1056 3159 1242 3001 
Q 1428 2844 1947 2747 
L 2328 2669 
Q 3034 2534 3370 2195 
Q 3706 1856 3706 1288 
Q 3706 609 3251 259 
Q 2797 -91 1919 -91 
Q 1588 -91 1214 -16 
Q 841 59 441 206 
L 441 856 
Q 825 641 1194 531 
Q 1563 422 1919 422 
Q 2459 422 2753 634 
Q 3047 847 3047 1241 
Q 3047 1584 2836 1778 
Q 2625 1972 2144 2069 
L 1759 2144 
Q 1053 2284 737 2584 
Q 422 2884 422 3419 
Q 422 4038 858 4394 
Q 1294 4750 2059 4750 
Q 2388 4750 2728 4690 
Q 3069 4631 3425 4513 
z
" transform="scale(0.015625)"/>
       </defs>
       <use xlink:href="#DejaVuSans-53"/>
       <use xlink:href="#DejaVuSans-65" x="63.476562"/>
       <use xlink:href="#DejaVuSans-70" x="125"/>
      </g>
     </g>
    </g>
    <g id="xtick_10">
     <g id="line2d_10">
      <path d="M 419.701912 368.3955 
L 419.701912 35.7555 
" clip-path="url(#p27c2005922)" style="fill: none; stroke: #ffffff; stroke-linecap: round"/>
     </g>
     <g id="text_9">
      <!-- Oct -->
      <g style="fill: #262626" transform="translate(410.192068 386.253781) scale(0.11 -0.11)">
       <defs>
        <path id="DejaVuSans-4f" d="M 2522 4238 
Q 1834 4238 1429 3725 
Q 1025 3213 1025 2328 
Q 1025 1447 1429 934 
Q 1834 422 2522 422 
Q 3209 422 3611 934 
Q 4013 1447 4013 2328 
Q 4013 3213 3611 3725 
Q 3209 4238 2522 4238 
z
M 2522 4750 
Q 3503 4750 4090 4092 
Q 4678 3434 4678 2328 
Q 4678 1225 4090 567 
Q 3503 -91 2522 -91 
Q 1538 -91 948 565 
Q 359 1222 359 2328 
Q 359 3434 948 4092 
Q 1538 4750 2522 4750 
z
" transform="scale(0.015625)"/>
        <path id="DejaVuSans-63" d="M 3122 3366 
L 3122 2828 
Q 2878 2963 2633 3030 
Q 2388 3097 2138 3097 
Q 1578 3097 1268 2742 
Q 959 2388 959 1747 
Q 959 1106 1268 751 
Q 1578 397 2138 397 
Q 2388 397 2633 464 
Q 2878 531 3122 666 
L 3122 134 
Q 2881 22 2623 -34 
Q 2366 -91 2075 -91 
Q 1284 -91 818 406 
Q 353 903 353 1747 
Q 353 2603 823 3093 
Q 1294 3584 2113 3584 
Q 2378 3584 2631 3529 
Q 2884 3475 3122 3366 
z
" transform="scale(0.015625)"/>
        <path id="DejaVuSans-74" d="M 1172 4494 
L 1172 3500 
L 2356 3500 
L 2356 3053 
L 1172 3053 
L 1172 1153 
Q 1172 725 1289 603 
Q 1406 481 1766 481 
L 2356 481 
L 2356 0 
L 1766 0 
Q 1100 0 847 248 
Q 594 497 594 1153 
L 594 3053 
L 172 3053 
L 172 3500 
L 594 3500 
L 594 4494 
L 1172 4494 
z
" transform="scale(0.015625)"/>
       </defs>
       <use xlink:href="#DejaVuSans-4f"/>
       <use xlink:href="#DejaVuSans-63" x="78.710938"/>
       <use xlink:href="#DejaVuSans-74" x="133.691406"/>
      </g>
     </g>
    </g>
    <g id="xtick_11">
     <g id="line2d_11">
      <path d="M 461.585689 368.3955 
L 461.585689 35.7555 
" clip-path="url(#p27c2005922)" style="fill: none; stroke: #ffffff; stroke-linecap: round"/>
     </g>
     <g id="text_10">
      <!-- Nov -->
      <g style="fill: #262626" transform="translate(450.850376 386.253781) scale(0.11 -0.11)">
       <defs>
        <path id="DejaVuSans-4e" d="M 628 4666 
L 1478 4666 
L 3547 763 
L 3547 4666 
L 4159 4666 
L 4159 0 
L 3309 0 
L 1241 3903 
L 1241 0 
L 628 0 
L 628 4666 
z
" transform="scale(0.015625)"/>
        <path id="DejaVuSans-6f" d="M 1959 3097 
Q 1497 3097 1228 2736 
Q 959 2375 959 1747 
Q 959 1119 1226 758 
Q 1494 397 1959 397 
Q 2419 397 2687 759 
Q 2956 1122 2956 1747 
Q 2956 2369 2687 2733 
Q 2419 3097 1959 3097 
z
M 1959 3584 
Q 2709 3584 3137 3096 
Q 3566 2609 3566 1747 
Q 3566 888 3137 398 
Q 2709 -91 1959 -91 
Q 1206 -91 779 398 
Q 353 888 353 1747 
Q 353 2609 779 3096 
Q 1206 3584 1959 3584 
z
" transform="scale(0.015625)"/>
        <path id="DejaVuSans-76" d="M 191 3500 
L 800 3500 
L 1894 563 
L 2988 3500 
L 3597 3500 
L 2284 0 
L 1503 0 
L 191 3500 
z
" transform="scale(0.015625)"/>
       </defs>
       <use xlink:href="#DejaVuSans-4e"/>
       <use xlink:href="#DejaVuSans-6f" x="74.804688"/>
       <use xlink:href="#DejaVuSans-76" x="135.986328"/>
      </g>
     </g>
    </g>
    <g id="xtick_12">
     <g id="line2d_12">
      <path d="M 502.118377 368.3955 
L 502.118377 35.7555 
" clip-path="url(#p27c2005922)" style="fill: none; stroke: #ffffff; stroke-linecap: round"/>
     </g>
     <g id="text_11">
      <!-- Dec -->
      <g style="fill: #262626" transform="translate(491.475017 386.253781) scale(0.11 -0.11)">
       <defs>
        <path id="DejaVuSans-44" d="M 1259 4147 
L 1259 519 
L 2022 519 
Q 2988 519 3436 956 
Q 3884 1394 3884 2338 
Q 3884 3275 3436 3711 
Q 2988 4147 2022 4147 
L 1259 4147 
z
M 628 4666 
L 1925 4666 
Q 3281 4666 3915 4102 
Q 4550 3538 4550 2338 
Q 4550 1131 3912 565 
Q 3275 0 1925 0 
L 628 0 
L 628 4666 
z
" transform="scale(0.015625)"/>
       </defs>
       <use xlink:href="#DejaVuSans-44"/>
       <use xlink:href="#DejaVuSans-65" x="77.001953"/>
       <use xlink:href="#DejaVuSans-63" x="138.525391"/>
      </g>
     </g>
    </g>
    <g id="xtick_13">
     <g id="line2d_13">
      <path d="M 544.002154 368.3955 
L 544.002154 35.7555 
" clip-path="url(#p27c2005922)" style="fill: none; stroke: #ffffff; stroke-linecap: round"/>
     </g>
     <g id="text_12">
      <!-- Jan -->
      <g style="fill: #262626" transform="translate(535.52356 386.253781) scale(0.11 -0.11)">
       <use xlink:href="#DejaVuSans-4a"/>
       <use xlink:href="#DejaVuSans-61" x="29.492188"/>
       <use xlink:href="#DejaVuSans-6e" x="90.771484"/>
      </g>
      <!-- 2023 -->
      <g style="fill: #262626" transform="translate(530.004654 398.571375) scale(0.11 -0.11)">
       <defs>
        <path id="DejaVuSans-32" d="M 1228 531 
L 3431 531 
L 3431 0 
L 469 0 
L 469 531 
Q 828 903 1448 1529 
Q 2069 2156 2228 2338 
Q 2531 2678 2651 2914 
Q 2772 3150 2772 3378 
Q 2772 3750 2511 3984 
Q 2250 4219 1831 4219 
Q 1534 4219 1204 4116 
Q 875 4013 500 3803 
L 500 4441 
Q 881 4594 1212 4672 
Q 1544 4750 1819 4750 
Q 2544 4750 2975 4387 
Q 3406 4025 3406 3419 
Q 3406 3131 3298 2873 
Q 3191 2616 2906 2266 
Q 2828 2175 2409 1742 
Q 1991 1309 1228 531 
z
" transform="scale(0.015625)"/>
        <path id="DejaVuSans-30" d="M 2034 4250 
Q 1547 4250 1301 3770 
Q 1056 3291 1056 2328 
Q 1056 1369 1301 889 
Q 1547 409 2034 409 
Q 2525 409 2770 889 
Q 3016 1369 3016 2328 
Q 3016 3291 2770 3770 
Q 2525 4250 2034 4250 
z
M 2034 4750 
Q 2819 4750 3233 4129 
Q 3647 3509 3647 2328 
Q 3647 1150 3233 529 
Q 2819 -91 2034 -91 
Q 1250 -91 836 529 
Q 422 1150 422 2328 
Q 422 3509 836 4129 
Q 1250 4750 2034 4750 
z
" transform="scale(0.015625)"/>
        <path id="DejaVuSans-33" d="M 2597 2516 
Q 3050 2419 3304 2112 
Q 3559 1806 3559 1356 
Q 3559 666 3084 287 
Q 2609 -91 1734 -91 
Q 1441 -91 1130 -33 
Q 819 25 488 141 
L 488 750 
Q 750 597 1062 519 
Q 1375 441 1716 441 
Q 2309 441 2620 675 
Q 2931 909 2931 1356 
Q 2931 1769 2642 2001 
Q 2353 2234 1838 2234 
L 1294 2234 
L 1294 2753 
L 1863 2753 
Q 2328 2753 2575 2939 
Q 2822 3125 2822 3475 
Q 2822 3834 2567 4026 
Q 2313 4219 1838 4219 
Q 1578 4219 1281 4162 
Q 984 4106 628 3988 
L 628 4550 
Q 988 4650 1302 4700 
Q 1616 4750 1894 4750 
Q 2613 4750 3031 4423 
Q 3450 4097 3450 3541 
Q 3450 3153 3228 2886 
Q 3006 2619 2597 2516 
z
" transform="scale(0.015625)"/>
       </defs>
       <use xlink:href="#DejaVuSans-32"/>
       <use xlink:href="#DejaVuSans-30" x="63.623047"/>
       <use xlink:href="#DejaVuSans-32" x="127.246094"/>
       <use xlink:href="#DejaVuSans-33" x="190.869141"/>
      </g>
     </g>
    </g>
    <g id="xtick_14">
     <g id="line2d_14">
      <path d="M 585.885931 368.3955 
L 585.885931 35.7555 
" clip-path="url(#p27c2005922)" style="fill: none; stroke: #ffffff; stroke-linecap: round"/>
     </g>
     <g id="text_13">
      <!-- Feb -->
      <g style="fill: #262626" transform="translate(576.149212 386.253781) scale(0.11 -0.11)">
       <use xlink:href="#DejaVuSans-46"/>
       <use xlink:href="#DejaVuSans-65" x="52.019531"/>
       <use xlink:href="#DejaVuSans-62" x="113.542969"/>
      </g>
     </g>
    </g>
    <g id="xtick_15">
     <g id="line2d_15">
      <path d="M 623.71644 368.3955 
L 623.71644 35.7555 
" clip-path="url(#p27c2005922)" style="fill: none; stroke: #ffffff; stroke-linecap: round"/>
     </g>
     <g id="text_14">
      <!-- Mar -->
      <g style="fill: #262626" transform="translate(613.339486 386.253781) scale(0.11 -0.11)">
       <use xlink:href="#DejaVuSans-4d"/>
       <use xlink:href="#DejaVuSans-61" x="86.279297"/>
       <use xlink:href="#DejaVuSans-72" x="147.558594"/>
      </g>
     </g>
    </g>
    <g id="xtick_16">
     <g id="line2d_16">
      <path d="M 634.525156 368.3955 
L 634.525156 35.7555 
" clip-path="url(#p27c2005922)" style="fill: none; stroke: #ffffff; stroke-linecap: round"/>
     </g>
    </g>
    <g id="xtick_17"/>
    <g id="xtick_18"/>
    <g id="xtick_19"/>
    <g id="xtick_20"/>
    <g id="xtick_21"/>
    <g id="xtick_22"/>
    <g id="xtick_23"/>
    <g id="xtick_24"/>
    <g id="xtick_25"/>
    <g id="xtick_26"/>
    <g id="xtick_27"/>
    <g id="xtick_28"/>
    <g id="xtick_29"/>
    <g id="xtick_30"/>
    <g id="xtick_31"/>
    <g id="xtick_32"/>
    <g id="xtick_33"/>
    <g id="xtick_34"/>
    <g id="xtick_35"/>
    <g id="xtick_36"/>
    <g id="xtick_37"/>
    <g id="xtick_38"/>
    <g id="xtick_39"/>
    <g id="xtick_40"/>
    <g id="xtick_41"/>
    <g id="xtick_42"/>
    <g id="xtick_43"/>
    <g id="xtick_44"/>
    <g id="xtick_45"/>
    <g id="xtick_46"/>
    <g id="xtick_47"/>
    <g id="xtick_48"/>
    <g id="xtick_49"/>
    <g id="xtick_50"/>
    <g id="xtick_51"/>
    <g id="xtick_52"/>
    <g id="xtick_53"/>
    <g id="xtick_54"/>
    <g id="xtick_55"/>
    <g id="xtick_56"/>
    <g id="xtick_57"/>
    <g id="xtick_58"/>
    <g id="xtick_59"/>
    <g id="xtick_60"/>
    <g id="xtick_61"/>
    <g id="xtick_62"/>
    <g id="xtick_63"/>
    <g id="xtick_64"/>
    <g id="xtick_65"/>
    <g id="xtick_66"/>
    <g id="xtick_67"/>
    <g id="xtick_68"/>
    <g id="xtick_69"/>
    <g id="xtick_70"/>
    <g id="xtick_71"/>
    <g id="xtick_72"/>
    <g id="xtick_73"/>
    <g id="xtick_74"/>
   </g>
   <g id="matplotlib.axis_2">
    <g id="ytick_1">
     <g id="line2d_17">
      <path d="M 76.525156 348.483355 
L 634.525156 348.483355 
" clip-path="url(#p27c2005922)" style="fill: none; stroke: #ffffff; stroke-linecap: round"/>
     </g>
     <g id="line2d_18">
      <defs>
       <path id="m792a3dcb49" d="M 0 0 
L -6 0 
" style="stroke: #262626; stroke-width: 1.25"/>
      </defs>
      <g>
       <use xlink:href="#m792a3dcb49" x="76.525156" y="348.483355" style="fill: #262626; stroke: #262626; stroke-width: 1.25"/>
      </g>
     </g>
     <g id="text_15">
      <!-- −15000 -->
      <g style="fill: #262626" transform="translate(22.81375 352.662496) scale(0.11 -0.11)">
       <defs>
        <path id="DejaVuSans-2212" d="M 678 2272 
L 4684 2272 
L 4684 1741 
L 678 1741 
L 678 2272 
z
" transform="scale(0.015625)"/>
        <path id="DejaVuSans-31" d="M 794 531 
L 1825 531 
L 1825 4091 
L 703 3866 
L 703 4441 
L 1819 4666 
L 2450 4666 
L 2450 531 
L 3481 531 
L 3481 0 
L 794 0 
L 794 531 
z
" transform="scale(0.015625)"/>
        <path id="DejaVuSans-35" d="M 691 4666 
L 3169 4666 
L 3169 4134 
L 1269 4134 
L 1269 2991 
Q 1406 3038 1543 3061 
Q 1681 3084 1819 3084 
Q 2600 3084 3056 2656 
Q 3513 2228 3513 1497 
Q 3513 744 3044 326 
Q 2575 -91 1722 -91 
Q 1428 -91 1123 -41 
Q 819 9 494 109 
L 494 744 
Q 775 591 1075 516 
Q 1375 441 1709 441 
Q 2250 441 2565 725 
Q 2881 1009 2881 1497 
Q 2881 1984 2565 2268 
Q 2250 2553 1709 2553 
Q 1456 2553 1204 2497 
Q 953 2441 691 2322 
L 691 4666 
z
" transform="scale(0.015625)"/>
       </defs>
       <use xlink:href="#DejaVuSans-2212"/>
       <use xlink:href="#DejaVuSans-31" x="83.789062"/>
       <use xlink:href="#DejaVuSans-35" x="147.412109"/>
       <use xlink:href="#DejaVuSans-30" x="211.035156"/>
       <use xlink:href="#DejaVuSans-30" x="274.658203"/>
       <use xlink:href="#DejaVuSans-30" x="338.28125"/>
      </g>
     </g>
    </g>
    <g id="ytick_2">
     <g id="line2d_19">
      <path d="M 76.525156 299.35148 
L 634.525156 299.35148 
" clip-path="url(#p27c2005922)" style="fill: none; stroke: #ffffff; stroke-linecap: round"/>
     </g>
     <g id="line2d_20">
      <g>
       <use xlink:href="#m792a3dcb49" x="76.525156" y="299.35148" style="fill: #262626; stroke: #262626; stroke-width: 1.25"/>
      </g>
     </g>
     <g id="text_16">
      <!-- −10000 -->
      <g style="fill: #262626" transform="translate(22.81375 303.530621) scale(0.11 -0.11)">
       <use xlink:href="#DejaVuSans-2212"/>
       <use xlink:href="#DejaVuSans-31" x="83.789062"/>
       <use xlink:href="#DejaVuSans-30" x="147.412109"/>
       <use xlink:href="#DejaVuSans-30" x="211.035156"/>
       <use xlink:href="#DejaVuSans-30" x="274.658203"/>
       <use xlink:href="#DejaVuSans-30" x="338.28125"/>
      </g>
     </g>
    </g>
    <g id="ytick_3">
     <g id="line2d_21">
      <path d="M 76.525156 250.219606 
L 634.525156 250.219606 
" clip-path="url(#p27c2005922)" style="fill: none; stroke: #ffffff; stroke-linecap: round"/>
     </g>
     <g id="line2d_22">
      <g>
       <use xlink:href="#m792a3dcb49" x="76.525156" y="250.219606" style="fill: #262626; stroke: #262626; stroke-width: 1.25"/>
      </g>
     </g>
     <g id="text_17">
      <!-- −5000 -->
      <g style="fill: #262626" transform="translate(29.8125 254.398747) scale(0.11 -0.11)">
       <use xlink:href="#DejaVuSans-2212"/>
       <use xlink:href="#DejaVuSans-35" x="83.789062"/>
       <use xlink:href="#DejaVuSans-30" x="147.412109"/>
       <use xlink:href="#DejaVuSans-30" x="211.035156"/>
       <use xlink:href="#DejaVuSans-30" x="274.658203"/>
      </g>
     </g>
    </g>
    <g id="ytick_4">
     <g id="line2d_23">
      <path d="M 76.525156 201.087732 
L 634.525156 201.087732 
" clip-path="url(#p27c2005922)" style="fill: none; stroke: #ffffff; stroke-linecap: round"/>
     </g>
     <g id="line2d_24">
      <g>
       <use xlink:href="#m792a3dcb49" x="76.525156" y="201.087732" style="fill: #262626; stroke: #262626; stroke-width: 1.25"/>
      </g>
     </g>
     <g id="text_18">
      <!-- 0 -->
      <g style="fill: #262626" transform="translate(60.026406 205.266872) scale(0.11 -0.11)">
       <use xlink:href="#DejaVuSans-30"/>
      </g>
     </g>
    </g>
    <g id="ytick_5">
     <g id="line2d_25">
      <path d="M 76.525156 151.955857 
L 634.525156 151.955857 
" clip-path="url(#p27c2005922)" style="fill: none; stroke: #ffffff; stroke-linecap: round"/>
     </g>
     <g id="line2d_26">
      <g>
       <use xlink:href="#m792a3dcb49" x="76.525156" y="151.955857" style="fill: #262626; stroke: #262626; stroke-width: 1.25"/>
      </g>
     </g>
     <g id="text_19">
      <!-- 5000 -->
      <g style="fill: #262626" transform="translate(39.030156 156.134998) scale(0.11 -0.11)">
       <use xlink:href="#DejaVuSans-35"/>
       <use xlink:href="#DejaVuSans-30" x="63.623047"/>
       <use xlink:href="#DejaVuSans-30" x="127.246094"/>
       <use xlink:href="#DejaVuSans-30" x="190.869141"/>
      </g>
     </g>
    </g>
    <g id="ytick_6">
     <g id="line2d_27">
      <path d="M 76.525156 102.823983 
L 634.525156 102.823983 
" clip-path="url(#p27c2005922)" style="fill: none; stroke: #ffffff; stroke-linecap: round"/>
     </g>
     <g id="line2d_28">
      <g>
       <use xlink:href="#m792a3dcb49" x="76.525156" y="102.823983" style="fill: #262626; stroke: #262626; stroke-width: 1.25"/>
      </g>
     </g>
     <g id="text_20">
      <!-- 10000 -->
      <g style="fill: #262626" transform="translate(32.031406 107.003123) scale(0.11 -0.11)">
       <use xlink:href="#DejaVuSans-31"/>
       <use xlink:href="#DejaVuSans-30" x="63.623047"/>
       <use xlink:href="#DejaVuSans-30" x="127.246094"/>
       <use xlink:href="#DejaVuSans-30" x="190.869141"/>
       <use xlink:href="#DejaVuSans-30" x="254.492188"/>
      </g>
     </g>
    </g>
    <g id="ytick_7">
     <g id="line2d_29">
      <path d="M 76.525156 53.692108 
L 634.525156 53.692108 
" clip-path="url(#p27c2005922)" style="fill: none; stroke: #ffffff; stroke-linecap: round"/>
     </g>
     <g id="line2d_30">
      <g>
       <use xlink:href="#m792a3dcb49" x="76.525156" y="53.692108" style="fill: #262626; stroke: #262626; stroke-width: 1.25"/>
      </g>
     </g>
     <g id="text_21">
      <!-- 15000 -->
      <g style="fill: #262626" transform="translate(32.031406 57.871249) scale(0.11 -0.11)">
       <use xlink:href="#DejaVuSans-31"/>
       <use xlink:href="#DejaVuSans-35" x="63.623047"/>
       <use xlink:href="#DejaVuSans-30" x="127.246094"/>
       <use xlink:href="#DejaVuSans-30" x="190.869141"/>
       <use xlink:href="#DejaVuSans-30" x="254.492188"/>
      </g>
     </g>
    </g>
    <g id="text_22">
     <!-- Net territory change in km² -->
     <g style="fill: #262626" transform="translate(16.318125 284.09175) rotate(-90) scale(0.12 -0.12)">
      <defs>
       <path id="DejaVuSans-20" transform="scale(0.015625)"/>
       <path id="DejaVuSans-69" d="M 603 3500 
L 1178 3500 
L 1178 0 
L 603 0 
L 603 3500 
z
M 603 4863 
L 1178 4863 
L 1178 4134 
L 603 4134 
L 603 4863 
z
" transform="scale(0.015625)"/>
       <path id="DejaVuSans-68" d="M 3513 2113 
L 3513 0 
L 2938 0 
L 2938 2094 
Q 2938 2591 2744 2837 
Q 2550 3084 2163 3084 
Q 1697 3084 1428 2787 
Q 1159 2491 1159 1978 
L 1159 0 
L 581 0 
L 581 4863 
L 1159 4863 
L 1159 2956 
Q 1366 3272 1645 3428 
Q 1925 3584 2291 3584 
Q 2894 3584 3203 3211 
Q 3513 2838 3513 2113 
z
" transform="scale(0.015625)"/>
       <path id="DejaVuSans-6b" d="M 581 4863 
L 1159 4863 
L 1159 1991 
L 2875 3500 
L 3609 3500 
L 1753 1863 
L 3688 0 
L 2938 0 
L 1159 1709 
L 1159 0 
L 581 0 
L 581 4863 
z
" transform="scale(0.015625)"/>
       <path id="DejaVuSans-6d" d="M 3328 2828 
Q 3544 3216 3844 3400 
Q 4144 3584 4550 3584 
Q 5097 3584 5394 3201 
Q 5691 2819 5691 2113 
L 5691 0 
L 5113 0 
L 5113 2094 
Q 5113 2597 4934 2840 
Q 4756 3084 4391 3084 
Q 3944 3084 3684 2787 
Q 3425 2491 3425 1978 
L 3425 0 
L 2847 0 
L 2847 2094 
Q 2847 2600 2669 2842 
Q 2491 3084 2119 3084 
Q 1678 3084 1418 2786 
Q 1159 2488 1159 1978 
L 1159 0 
L 581 0 
L 581 3500 
L 1159 3500 
L 1159 2956 
Q 1356 3278 1631 3431 
Q 1906 3584 2284 3584 
Q 2666 3584 2933 3390 
Q 3200 3197 3328 2828 
z
" transform="scale(0.015625)"/>
       <path id="DejaVuSans-b2" d="M 838 2444 
L 2163 2444 
L 2163 2088 
L 294 2088 
L 294 2431 
Q 400 2528 597 2703 
Q 1672 3656 1672 3950 
Q 1672 4156 1509 4282 
Q 1347 4409 1081 4409 
Q 919 4409 728 4354 
Q 538 4300 313 4191 
L 313 4575 
Q 553 4663 761 4706 
Q 969 4750 1147 4750 
Q 1600 4750 1872 4544 
Q 2144 4338 2144 4000 
Q 2144 3566 1109 2678 
Q 934 2528 838 2444 
z
" transform="scale(0.015625)"/>
      </defs>
      <use xlink:href="#DejaVuSans-4e"/>
      <use xlink:href="#DejaVuSans-65" x="74.804688"/>
      <use xlink:href="#DejaVuSans-74" x="136.328125"/>
      <use xlink:href="#DejaVuSans-20" x="175.537109"/>
      <use xlink:href="#DejaVuSans-74" x="207.324219"/>
      <use xlink:href="#DejaVuSans-65" x="246.533203"/>
      <use xlink:href="#DejaVuSans-72" x="308.056641"/>
      <use xlink:href="#DejaVuSans-72" x="347.419922"/>
      <use xlink:href="#DejaVuSans-69" x="388.533203"/>
      <use xlink:href="#DejaVuSans-74" x="416.316406"/>
      <use xlink:href="#DejaVuSans-6f" x="455.525391"/>
      <use xlink:href="#DejaVuSans-72" x="516.707031"/>
      <use xlink:href="#DejaVuSans-79" x="557.820312"/>
      <use xlink:href="#DejaVuSans-20" x="617"/>
      <use xlink:href="#DejaVuSans-63" x="648.787109"/>
      <use xlink:href="#DejaVuSans-68" x="703.767578"/>
      <use xlink:href="#DejaVuSans-61" x="767.146484"/>
      <use xlink:href="#DejaVuSans-6e" x="828.425781"/>
      <use xlink:href="#DejaVuSans-67" x="891.804688"/>
      <use xlink:href="#DejaVuSans-65" x="955.28125"/>
      <use xlink:href="#DejaVuSans-20" x="1016.804688"/>
      <use xlink:href="#DejaVuSans-69" x="1048.591797"/>
      <use xlink:href="#DejaVuSans-6e" x="1076.375"/>
      <use xlink:href="#DejaVuSans-20" x="1139.753906"/>
      <use xlink:href="#DejaVuSans-6b" x="1171.541016"/>
      <use xlink:href="#DejaVuSans-6d" x="1229.451172"/>
      <use xlink:href="#DejaVuSans-b2" x="1326.863281"/>
     </g>
    </g>
   </g>
   <g id="line2d_31">
    <path d="M 125.164381 111.713883 
L 126.515471 119.268048 
L 127.866561 161.910003 
L 129.21765 198.839228 
L 130.56874 194.629236 
L 131.919829 188.674486 
L 133.270919 153.246649 
L 134.622009 201.156237 
L 135.973098 155.407207 
L 137.324188 183.776006 
L 138.675277 198.046698 
L 140.026367 196.540559 
L 141.377456 163.688923 
L 142.728546 189.906564 
L 144.079636 200.253009 
L 145.430725 199.535655 
L 146.781815 201.631367 
L 148.132904 165.853384 
L 149.483994 152.399979 
L 150.835084 207.932643 
L 152.186173 168.956087 
L 153.537263 91.004801 
L 154.888352 201.087732 
L 156.239442 203.326602 
L 157.590532 201.535416 
L 158.941621 201.087732 
L 160.292711 50.8755 
L 161.6438 207.993329 
L 162.99489 153.579404 
L 164.345979 123.410956 
L 165.697069 206.333467 
L 167.048159 188.510972 
L 168.399248 201.087732 
L 169.750338 191.540007 
L 171.101427 202.043342 
L 172.452517 208.201472 
L 173.803607 208.682958 
L 175.154696 270.294292 
L 176.505786 245.346497 
L 177.856875 223.294781 
L 179.207965 353.2755 
L 180.559055 201.136523 
L 181.910144 201.087732 
L 183.261234 200.105693 
L 184.612323 198.966806 
L 185.963413 201.087732 
L 187.314502 201.076678 
L 188.665592 202.959836 
L 190.016682 206.42308 
L 191.367771 201.08756 
L 192.718861 201.087732 
L 194.06995 204.386282 
L 195.42104 200.493761 
L 196.77213 201.638939 
L 198.123219 199.948847 
L 199.474309 201.087732 
L 200.825398 199.224951 
L 202.176488 201.087732 
L 203.527578 197.0375 
L 204.878667 202.865993 
L 206.229757 200.456031 
L 207.580846 200.340875 
L 208.931936 200.601178 
L 210.283025 201.268664 
L 211.634115 202.901352 
L 212.985205 201.087732 
L 214.336294 202.750697 
L 215.687384 201.791341 
L 217.038473 201.028742 
L 218.389563 201.155457 
L 219.740653 201.681562 
L 221.091742 201.730398 
L 222.442832 200.215508 
L 223.793921 201.640735 
L 225.145011 201.212463 
L 226.496101 201.048677 
L 227.84719 201.02282 
L 229.19828 200.295742 
L 230.549369 201.109559 
L 231.900459 200.132263 
L 233.251549 201.087732 
L 234.602638 201.087732 
L 235.953728 200.96912 
L 237.304817 201.087732 
L 238.655907 200.396747 
L 240.006996 200.045829 
L 241.358086 200.925887 
L 244.060265 200.106204 
L 245.411355 200.920927 
L 246.762444 200.009733 
L 248.113534 200.860448 
L 249.464624 198.491826 
L 250.815713 201.233915 
L 252.166803 201.064984 
L 254.868982 201.320203 
L 256.220072 200.573066 
L 258.922251 201.124502 
L 260.27334 201.087732 
L 261.62443 201.758146 
L 262.975519 201.087732 
L 264.326609 201.679213 
L 265.677699 201.087732 
L 267.028788 201.087732 
L 268.379878 200.769063 
L 269.730967 200.324377 
L 271.082057 200.93409 
L 272.433147 200.595413 
L 273.784236 201.087732 
L 275.135326 201.331737 
L 277.837505 200.934233 
L 280.539684 201.385101 
L 281.890774 200.660072 
L 283.241863 201.087732 
L 284.592953 199.391577 
L 285.944042 201.895626 
L 287.295132 201.087732 
L 288.646222 200.535706 
L 289.997311 200.128727 
L 292.69949 201.835562 
L 294.05058 201.087732 
L 295.40167 200.851775 
L 296.752759 200.382536 
L 299.454938 201.093686 
L 300.806028 201.169715 
L 302.157118 199.927608 
L 303.508207 201.087732 
L 304.859297 201.530018 
L 306.210386 201.087732 
L 308.912565 201.087732 
L 310.263655 201.267825 
L 311.614745 201.087732 
L 314.316924 201.087732 
L 315.668013 200.771699 
L 317.019103 201.087732 
L 318.370193 201.087732 
L 319.721282 200.951793 
L 321.072372 201.087732 
L 322.423461 200.992109 
L 325.125641 201.087732 
L 327.82782 200.982184 
L 329.178909 201.087732 
L 330.529999 201.002969 
L 333.232178 201.087732 
L 338.636536 201.065847 
L 339.987626 200.664278 
L 341.338716 200.944666 
L 342.689805 201.384132 
L 344.040895 201.087732 
L 345.391984 199.86018 
L 346.743074 201.087732 
L 348.094164 201.287088 
L 349.445253 200.906196 
L 350.796343 201.611316 
L 352.147432 201.087732 
L 353.498522 201.335417 
L 354.849611 201.087732 
L 364.307239 201.087732 
L 365.658328 198.280672 
L 367.009418 201.087732 
L 368.360507 197.171667 
L 369.711597 201.087732 
L 371.062687 201.087732 
L 372.413776 200.572882 
L 373.764866 200.933136 
L 375.115955 201.087732 
L 379.169224 201.062886 
L 380.520314 202.002561 
L 381.871403 201.087732 
L 383.222493 201.165343 
L 384.573582 201.591598 
L 385.924672 202.459302 
L 387.275762 202.17001 
L 388.626851 207.530126 
L 389.977941 201.087732 
L 391.32903 218.972181 
L 392.68012 219.40552 
L 394.03121 201.087732 
L 395.382299 201.087732 
L 396.733389 201.30959 
L 398.084478 201.087732 
L 400.786657 201.087732 
L 402.137747 201.20989 
L 403.488837 202.054754 
L 404.839926 242.450808 
L 406.191016 201.087732 
L 407.542105 201.463821 
L 408.893195 201.331792 
L 410.244285 201.087732 
L 411.595374 202.80873 
L 412.946464 201.529511 
L 414.297553 201.575515 
L 415.648643 201.213513 
L 416.999733 201.182957 
L 418.350822 203.961759 
L 419.701912 201.087732 
L 421.053001 205.25279 
L 422.404091 211.548829 
L 423.75518 205.861632 
L 425.10627 201.891637 
L 426.45736 201.087732 
L 427.808449 212.563493 
L 429.159539 201.087732 
L 430.510628 207.512351 
L 431.861718 201.087732 
L 433.212808 202.000974 
L 434.563897 201.278212 
L 435.914987 201.087732 
L 437.266076 201.087732 
L 438.617166 201.210128 
L 439.968256 201.154172 
L 441.319345 199.513833 
L 442.670435 200.968319 
L 444.021524 200.363678 
L 445.372614 201.087732 
L 448.074793 201.087732 
L 449.425883 201.281081 
L 452.128062 201.087732 
L 453.479151 201.238419 
L 454.830241 201.087732 
L 462.936779 201.087732 
L 464.287868 201.502977 
L 465.638958 201.087732 
L 468.341137 201.087732 
L 469.692226 200.926382 
L 471.043316 201.110236 
L 472.394406 201.171933 
L 473.745495 207.061236 
L 475.096585 216.18367 
L 476.447674 199.017604 
L 477.798764 200.933066 
L 479.149854 198.129273 
L 480.500943 201.087732 
L 481.852033 222.63547 
L 483.203122 201.087732 
L 484.554212 200.990066 
L 487.256391 201.087732 
L 496.714018 201.087732 
L 498.065108 200.963911 
L 500.767287 201.215245 
L 502.118377 201.087732 
L 503.469466 201.472938 
L 504.820556 201.087732 
L 506.171645 200.909136 
L 507.522735 201.655398 
L 508.873825 201.087732 
L 527.789079 201.087732 
L 529.140168 201.32072 
L 530.491258 201.087732 
L 534.544527 201.087732 
L 535.895616 201.321788 
L 537.246706 201.087732 
L 538.597795 201.076255 
L 539.948885 201.350523 
L 541.299975 201.022683 
L 542.651064 201.087732 
L 544.002154 201.54838 
L 545.353243 201.087732 
L 548.055423 201.087732 
L 549.406512 201.404277 
L 550.757602 201.476463 
L 552.108691 201.020456 
L 554.810871 201.087732 
L 556.16196 200.773886 
L 557.51305 201.087732 
L 560.215229 200.998276 
L 561.566318 201.087732 
L 566.970677 201.087732 
L 568.321766 201.087732 
L 569.672856 200.545801 
L 571.023946 201.087732 
L 573.726125 201.087732 
L 575.077214 201.307644 
L 576.428304 200.847181 
L 577.779394 201.068465 
L 581.832662 201.087732 
L 583.183752 201.02027 
L 584.534841 201.087732 
L 585.885931 201.310941 
L 587.237021 201.087732 
L 593.992469 201.087732 
L 595.343558 200.849185 
L 596.694648 199.367717 
L 598.045737 201.087732 
L 599.396827 201.087732 
L 600.747917 200.23799 
L 602.099006 200.016687 
L 603.450096 201.087732 
L 606.152275 201.087732 
L 607.503364 201.087732 
L 608.854454 201.258959 
L 610.205544 201.041479 
L 635.876246 201.087732 
L 637.227335 189.383389 
L 638.578425 201.087732 
L 641.280604 201.089133 
L 641.280604 201.089133 
" clip-path="url(#p27c2005922)" style="fill: none; stroke: #4c72b0; stroke-width: 1.5; stroke-linecap: round"/>
   </g>
   <g id="patch_3">
    <path d="M 76.525156 368.3955 
L 76.525156 35.7555 
" style="fill: none; stroke: #ffffff; stroke-width: 1.25; stroke-linejoin: miter; stroke-linecap: square"/>
   </g>
   <g id="patch_4">
    <path d="M 634.525156 368.3955 
L 634.525156 35.7555 
" style="fill: none; stroke: #ffffff; stroke-width: 1.25; stroke-linejoin: miter; stroke-linecap: square"/>
   </g>
   <g id="patch_5">
    <path d="M 76.525156 368.3955 
L 634.525156 368.3955 
" style="fill: none; stroke: #ffffff; stroke-width: 1.25; stroke-linejoin: miter; stroke-linecap: square"/>
   </g>
   <g id="patch_6">
    <path d="M 76.525156 35.7555 
L 634.525156 35.7555 
" style="fill: none; stroke: #ffffff; stroke-width: 1.25; stroke-linejoin: miter; stroke-linecap: square"/>
   </g>
   <g id="legend_1">
    <g id="patch_7">
     <path d="M 230.694922 60.701437 
L 480.355391 60.701437 
Q 482.555391 60.701437 482.555391 58.501437 
L 482.555391 43.4555 
Q 482.555391 41.2555 480.355391 41.2555 
L 230.694922 41.2555 
Q 228.494922 41.2555 228.494922 43.4555 
L 228.494922 58.501437 
Q 228.494922 60.701437 230.694922 60.701437 
z
" style="fill: #eaeaf2; opacity: 0.8; stroke: #cccccc; stroke-linejoin: miter"/>
    </g>
    <g id="line2d_32">
     <path d="M 232.894922 50.163781 
L 243.894922 50.163781 
L 254.894922 50.163781 
" style="fill: none; stroke: #4c72b0; stroke-width: 1.5; stroke-linecap: round"/>
    </g>
    <g id="text_23">
     <!-- Net territory change (averaged) in km² -->
     <g style="fill: #262626" transform="translate(263.694922 54.013781) scale(0.11 -0.11)">
      <defs>
       <path id="DejaVuSans-28" d="M 1984 4856 
Q 1566 4138 1362 3434 
Q 1159 2731 1159 2009 
Q 1159 1288 1364 580 
Q 1569 -128 1984 -844 
L 1484 -844 
Q 1016 -109 783 600 
Q 550 1309 550 2009 
Q 550 2706 781 3412 
Q 1013 4119 1484 4856 
L 1984 4856 
z
" transform="scale(0.015625)"/>
       <path id="DejaVuSans-64" d="M 2906 2969 
L 2906 4863 
L 3481 4863 
L 3481 0 
L 2906 0 
L 2906 525 
Q 2725 213 2448 61 
Q 2172 -91 1784 -91 
Q 1150 -91 751 415 
Q 353 922 353 1747 
Q 353 2572 751 3078 
Q 1150 3584 1784 3584 
Q 2172 3584 2448 3432 
Q 2725 3281 2906 2969 
z
M 947 1747 
Q 947 1113 1208 752 
Q 1469 391 1925 391 
Q 2381 391 2643 752 
Q 2906 1113 2906 1747 
Q 2906 2381 2643 2742 
Q 2381 3103 1925 3103 
Q 1469 3103 1208 2742 
Q 947 2381 947 1747 
z
" transform="scale(0.015625)"/>
       <path id="DejaVuSans-29" d="M 513 4856 
L 1013 4856 
Q 1481 4119 1714 3412 
Q 1947 2706 1947 2009 
Q 1947 1309 1714 600 
Q 1481 -109 1013 -844 
L 513 -844 
Q 928 -128 1133 580 
Q 1338 1288 1338 2009 
Q 1338 2731 1133 3434 
Q 928 4138 513 4856 
z
" transform="scale(0.015625)"/>
      </defs>
      <use xlink:href="#DejaVuSans-4e"/>
      <use xlink:href="#DejaVuSans-65" x="74.804688"/>
      <use xlink:href="#DejaVuSans-74" x="136.328125"/>
      <use xlink:href="#DejaVuSans-20" x="175.537109"/>
      <use xlink:href="#DejaVuSans-74" x="207.324219"/>
      <use xlink:href="#DejaVuSans-65" x="246.533203"/>
      <use xlink:href="#DejaVuSans-72" x="308.056641"/>
      <use xlink:href="#DejaVuSans-72" x="347.419922"/>
      <use xlink:href="#DejaVuSans-69" x="388.533203"/>
      <use xlink:href="#DejaVuSans-74" x="416.316406"/>
      <use xlink:href="#DejaVuSans-6f" x="455.525391"/>
      <use xlink:href="#DejaVuSans-72" x="516.707031"/>
      <use xlink:href="#DejaVuSans-79" x="557.820312"/>
      <use xlink:href="#DejaVuSans-20" x="617"/>
      <use xlink:href="#DejaVuSans-63" x="648.787109"/>
      <use xlink:href="#DejaVuSans-68" x="703.767578"/>
      <use xlink:href="#DejaVuSans-61" x="767.146484"/>
      <use xlink:href="#DejaVuSans-6e" x="828.425781"/>
      <use xlink:href="#DejaVuSans-67" x="891.804688"/>
      <use xlink:href="#DejaVuSans-65" x="955.28125"/>
      <use xlink:href="#DejaVuSans-20" x="1016.804688"/>
      <use xlink:href="#DejaVuSans-28" x="1048.591797"/>
      <use xlink:href="#DejaVuSans-61" x="1087.605469"/>
      <use xlink:href="#DejaVuSans-76" x="1148.884766"/>
      <use xlink:href="#DejaVuSans-65" x="1208.064453"/>
      <use xlink:href="#DejaVuSans-72" x="1269.587891"/>
      <use xlink:href="#DejaVuSans-61" x="1310.701172"/>
      <use xlink:href="#DejaVuSans-67" x="1371.980469"/>
      <use xlink:href="#DejaVuSans-65" x="1435.457031"/>
      <use xlink:href="#DejaVuSans-64" x="1496.980469"/>
      <use xlink:href="#DejaVuSans-29" x="1560.457031"/>
      <use xlink:href="#DejaVuSans-20" x="1599.470703"/>
      <use xlink:href="#DejaVuSans-69" x="1631.257812"/>
      <use xlink:href="#DejaVuSans-6e" x="1659.041016"/>
      <use xlink:href="#DejaVuSans-20" x="1722.419922"/>
      <use xlink:href="#DejaVuSans-6b" x="1754.207031"/>
      <use xlink:href="#DejaVuSans-6d" x="1812.117188"/>
      <use xlink:href="#DejaVuSans-b2" x="1909.529297"/>
     </g>
    </g>
   </g>
  </g>
  <g id="axes_2">
   <g id="matplotlib.axis_3">
    <g id="ytick_8">
     <g id="line2d_33">
      <path d="M 76.525156 363.3555 
L 634.525156 363.3555 
" clip-path="url(#p27c2005922)" style="fill: none; stroke: #ffffff; stroke-linecap: round"/>
     </g>
     <g id="line2d_34">
      <defs>
       <path id="mf57112bb9c" d="M 0 0 
L 6 0 
" style="stroke: #262626; stroke-width: 1.25"/>
      </defs>
      <g>
       <use xlink:href="#mf57112bb9c" x="634.525156" y="363.3555" style="fill: #262626; stroke: #262626; stroke-width: 1.25"/>
      </g>
     </g>
     <g id="text_24">
      <!-- 0 -->
      <g style="fill: #262626" transform="translate(644.025156 367.534641) scale(0.11 -0.11)">
       <use xlink:href="#DejaVuSans-30"/>
      </g>
     </g>
    </g>
    <g id="ytick_9">
     <g id="line2d_35">
      <path d="M 76.525156 312.9555 
L 634.525156 312.9555 
" clip-path="url(#p27c2005922)" style="fill: none; stroke: #ffffff; stroke-linecap: round"/>
     </g>
     <g id="line2d_36">
      <g>
       <use xlink:href="#mf57112bb9c" x="634.525156" y="312.9555" style="fill: #262626; stroke: #262626; stroke-width: 1.25"/>
      </g>
     </g>
     <g id="text_25">
      <!-- 5 -->
      <g style="fill: #262626" transform="translate(644.025156 317.134641) scale(0.11 -0.11)">
       <use xlink:href="#DejaVuSans-35"/>
      </g>
     </g>
    </g>
    <g id="ytick_10">
     <g id="line2d_37">
      <path d="M 76.525156 262.5555 
L 634.525156 262.5555 
" clip-path="url(#p27c2005922)" style="fill: none; stroke: #ffffff; stroke-linecap: round"/>
     </g>
     <g id="line2d_38">
      <g>
       <use xlink:href="#mf57112bb9c" x="634.525156" y="262.5555" style="fill: #262626; stroke: #262626; stroke-width: 1.25"/>
      </g>
     </g>
     <g id="text_26">
      <!-- 10 -->
      <g style="fill: #262626" transform="translate(644.025156 266.734641) scale(0.11 -0.11)">
       <use xlink:href="#DejaVuSans-31"/>
       <use xlink:href="#DejaVuSans-30" x="63.623047"/>
      </g>
     </g>
    </g>
    <g id="ytick_11">
     <g id="line2d_39">
      <path d="M 76.525156 212.1555 
L 634.525156 212.1555 
" clip-path="url(#p27c2005922)" style="fill: none; stroke: #ffffff; stroke-linecap: round"/>
     </g>
     <g id="line2d_40">
      <g>
       <use xlink:href="#mf57112bb9c" x="634.525156" y="212.1555" style="fill: #262626; stroke: #262626; stroke-width: 1.25"/>
      </g>
     </g>
     <g id="text_27">
      <!-- 15 -->
      <g style="fill: #262626" transform="translate(644.025156 216.334641) scale(0.11 -0.11)">
       <use xlink:href="#DejaVuSans-31"/>
       <use xlink:href="#DejaVuSans-35" x="63.623047"/>
      </g>
     </g>
    </g>
    <g id="ytick_12">
     <g id="line2d_41">
      <path d="M 76.525156 161.7555 
L 634.525156 161.7555 
" clip-path="url(#p27c2005922)" style="fill: none; stroke: #ffffff; stroke-linecap: round"/>
     </g>
     <g id="line2d_42">
      <g>
       <use xlink:href="#mf57112bb9c" x="634.525156" y="161.7555" style="fill: #262626; stroke: #262626; stroke-width: 1.25"/>
      </g>
     </g>
     <g id="text_28">
      <!-- 20 -->
      <g style="fill: #262626" transform="translate(644.025156 165.934641) scale(0.11 -0.11)">
       <use xlink:href="#DejaVuSans-32"/>
       <use xlink:href="#DejaVuSans-30" x="63.623047"/>
      </g>
     </g>
    </g>
    <g id="ytick_13">
     <g id="line2d_43">
      <path d="M 76.525156 111.3555 
L 634.525156 111.3555 
" clip-path="url(#p27c2005922)" style="fill: none; stroke: #ffffff; stroke-linecap: round"/>
     </g>
     <g id="line2d_44">
      <g>
       <use xlink:href="#mf57112bb9c" x="634.525156" y="111.3555" style="fill: #262626; stroke: #262626; stroke-width: 1.25"/>
      </g>
     </g>
     <g id="text_29">
      <!-- 25 -->
      <g style="fill: #262626" transform="translate(644.025156 115.534641) scale(0.11 -0.11)">
       <use xlink:href="#DejaVuSans-32"/>
       <use xlink:href="#DejaVuSans-35" x="63.623047"/>
      </g>
     </g>
    </g>
    <g id="ytick_14">
     <g id="line2d_45">
      <path d="M 76.525156 60.9555 
L 634.525156 60.9555 
" clip-path="url(#p27c2005922)" style="fill: none; stroke: #ffffff; stroke-linecap: round"/>
     </g>
     <g id="line2d_46">
      <g>
       <use xlink:href="#mf57112bb9c" x="634.525156" y="60.9555" style="fill: #262626; stroke: #262626; stroke-width: 1.25"/>
      </g>
     </g>
     <g id="text_30">
      <!-- 30 -->
      <g style="fill: #262626" transform="translate(644.025156 65.134641) scale(0.11 -0.11)">
       <use xlink:href="#DejaVuSans-33"/>
       <use xlink:href="#DejaVuSans-30" x="63.623047"/>
      </g>
     </g>
    </g>
    <g id="text_31">
     <!-- mentions of "missile" (green) -->
     <g style="fill: #262626" transform="translate(671.140781 289.853625) rotate(-90) scale(0.12 -0.12)">
      <defs>
       <path id="DejaVuSans-73" d="M 2834 3397 
L 2834 2853 
Q 2591 2978 2328 3040 
Q 2066 3103 1784 3103 
Q 1356 3103 1142 2972 
Q 928 2841 928 2578 
Q 928 2378 1081 2264 
Q 1234 2150 1697 2047 
L 1894 2003 
Q 2506 1872 2764 1633 
Q 3022 1394 3022 966 
Q 3022 478 2636 193 
Q 2250 -91 1575 -91 
Q 1294 -91 989 -36 
Q 684 19 347 128 
L 347 722 
Q 666 556 975 473 
Q 1284 391 1588 391 
Q 1994 391 2212 530 
Q 2431 669 2431 922 
Q 2431 1156 2273 1281 
Q 2116 1406 1581 1522 
L 1381 1569 
Q 847 1681 609 1914 
Q 372 2147 372 2553 
Q 372 3047 722 3315 
Q 1072 3584 1716 3584 
Q 2034 3584 2315 3537 
Q 2597 3491 2834 3397 
z
" transform="scale(0.015625)"/>
       <path id="DejaVuSans-66" d="M 2375 4863 
L 2375 4384 
L 1825 4384 
Q 1516 4384 1395 4259 
Q 1275 4134 1275 3809 
L 1275 3500 
L 2222 3500 
L 2222 3053 
L 1275 3053 
L 1275 0 
L 697 0 
L 697 3053 
L 147 3053 
L 147 3500 
L 697 3500 
L 697 3744 
Q 697 4328 969 4595 
Q 1241 4863 1831 4863 
L 2375 4863 
z
" transform="scale(0.015625)"/>
       <path id="DejaVuSans-22" d="M 1147 4666 
L 1147 2931 
L 616 2931 
L 616 4666 
L 1147 4666 
z
M 2328 4666 
L 2328 2931 
L 1797 2931 
L 1797 4666 
L 2328 4666 
z
" transform="scale(0.015625)"/>
      </defs>
      <use xlink:href="#DejaVuSans-6d"/>
      <use xlink:href="#DejaVuSans-65" x="97.412109"/>
      <use xlink:href="#DejaVuSans-6e" x="158.935547"/>
      <use xlink:href="#DejaVuSans-74" x="222.314453"/>
      <use xlink:href="#DejaVuSans-69" x="261.523438"/>
      <use xlink:href="#DejaVuSans-6f" x="289.306641"/>
      <use xlink:href="#DejaVuSans-6e" x="350.488281"/>
      <use xlink:href="#DejaVuSans-73" x="413.867188"/>
      <use xlink:href="#DejaVuSans-20" x="465.966797"/>
      <use xlink:href="#DejaVuSans-6f" x="497.753906"/>
      <use xlink:href="#DejaVuSans-66" x="558.935547"/>
      <use xlink:href="#DejaVuSans-20" x="594.140625"/>
      <use xlink:href="#DejaVuSans-22" x="625.927734"/>
      <use xlink:href="#DejaVuSans-6d" x="671.923828"/>
      <use xlink:href="#DejaVuSans-69" x="769.335938"/>
      <use xlink:href="#DejaVuSans-73" x="797.119141"/>
      <use xlink:href="#DejaVuSans-73" x="849.21875"/>
      <use xlink:href="#DejaVuSans-69" x="901.318359"/>
      <use xlink:href="#DejaVuSans-6c" x="929.101562"/>
      <use xlink:href="#DejaVuSans-65" x="956.884766"/>
      <use xlink:href="#DejaVuSans-22" x="1018.408203"/>
      <use xlink:href="#DejaVuSans-20" x="1064.404297"/>
      <use xlink:href="#DejaVuSans-28" x="1096.191406"/>
      <use xlink:href="#DejaVuSans-67" x="1135.205078"/>
      <use xlink:href="#DejaVuSans-72" x="1198.681641"/>
      <use xlink:href="#DejaVuSans-65" x="1237.544922"/>
      <use xlink:href="#DejaVuSans-65" x="1299.068359"/>
      <use xlink:href="#DejaVuSans-6e" x="1360.591797"/>
      <use xlink:href="#DejaVuSans-29" x="1423.970703"/>
     </g>
    </g>
   </g>
   <g id="line2d_47">
    <path d="M 76.525156 353.2755 
L 85.982783 353.2755 
L 110.302396 353.2755 
L 123.813292 242.3955 
L 125.164381 323.0355 
L 126.515471 212.1555 
L 127.866561 343.1955 
L 129.21765 343.1955 
L 130.56874 312.9555 
L 131.919829 292.7955 
L 133.270919 292.7955 
L 137.324188 353.2755 
L 138.675277 343.1955 
L 140.026367 353.2755 
L 141.377456 353.2755 
L 142.728546 353.2755 
L 144.079636 353.2755 
L 145.430725 333.1155 
L 148.132904 50.8755 
L 150.835084 333.1155 
L 154.888352 353.2755 
L 156.239442 353.2755 
L 157.590532 343.1955 
L 158.941621 353.2755 
L 160.292711 353.2755 
L 161.6438 353.2755 
L 168.399248 353.2755 
L 171.101427 353.2755 
L 172.452517 353.2755 
L 181.910144 323.0355 
L 191.367771 353.2755 
L 195.42104 353.2755 
L 198.123219 353.2755 
L 202.176488 333.1155 
L 206.229757 343.1955 
L 207.580846 353.2755 
L 208.931936 353.2755 
L 214.336294 353.2755 
L 218.389563 353.2755 
L 219.740653 343.1955 
L 221.091742 343.1955 
L 222.442832 343.1955 
L 225.145011 353.2755 
L 234.602638 353.2755 
L 256.220072 353.2755 
L 258.922251 353.2755 
L 267.028788 353.2755 
L 272.433147 353.2755 
L 275.135326 343.1955 
L 276.486415 353.2755 
L 285.944042 343.1955 
L 287.295132 353.2755 
L 288.646222 292.7955 
L 289.997311 262.5555 
L 291.348401 343.1955 
L 295.40167 302.8755 
L 298.103849 353.2755 
L 312.965834 302.8755 
L 314.316924 323.0355 
L 315.668013 343.1955 
L 319.721282 353.2755 
L 321.072372 353.2755 
L 325.125641 343.1955 
L 329.178909 312.9555 
L 331.881088 353.2755 
L 344.040895 353.2755 
L 367.009418 353.2755 
L 368.360507 343.1955 
L 396.733389 353.2755 
L 402.137747 353.2755 
L 415.648643 353.2755 
L 416.999733 333.1155 
L 426.45736 353.2755 
L 430.510628 353.2755 
L 431.861718 323.0355 
L 442.670435 353.2755 
L 448.074793 353.2755 
L 462.936779 353.2755 
L 480.500943 333.1155 
L 481.852033 343.1955 
L 483.203122 353.2755 
L 491.30966 302.8755 
L 515.629272 343.1955 
L 542.651064 312.9555 
L 546.704333 353.2755 
L 556.16196 353.2755 
L 562.917408 343.1955 
L 579.130483 353.2755 
L 585.885931 343.1955 
L 589.9392 353.2755 
L 592.641379 333.1155 
L 608.854454 353.2755 
L 634.525156 343.1955 
" clip-path="url(#p27c2005922)" style="fill: none; stroke: #2ca02c; stroke-width: 1.5; stroke-linecap: round"/>
   </g>
   <g id="patch_8">
    <path d="M 76.525156 368.3955 
L 76.525156 35.7555 
" style="fill: none; stroke: #ffffff; stroke-width: 1.25; stroke-linejoin: miter; stroke-linecap: square"/>
   </g>
   <g id="patch_9">
    <path d="M 634.525156 368.3955 
L 634.525156 35.7555 
" style="fill: none; stroke: #ffffff; stroke-width: 1.25; stroke-linejoin: miter; stroke-linecap: square"/>
   </g>
   <g id="patch_10">
    <path d="M 76.525156 368.3955 
L 634.525156 368.3955 
" style="fill: none; stroke: #ffffff; stroke-width: 1.25; stroke-linejoin: miter; stroke-linecap: square"/>
   </g>
   <g id="patch_11">
    <path d="M 76.525156 35.7555 
L 634.525156 35.7555 
" style="fill: none; stroke: #ffffff; stroke-width: 1.25; stroke-linejoin: miter; stroke-linecap: square"/>
   </g>
   <g id="text_32">
    <!-- Net change in Russian control of Ukrainian territory (averaged)  -->
    <g style="fill: #262626" transform="translate(164.341719 16.318125) scale(0.12 -0.12)">
     <defs>
      <path id="DejaVuSans-52" d="M 2841 2188 
Q 3044 2119 3236 1894 
Q 3428 1669 3622 1275 
L 4263 0 
L 3584 0 
L 2988 1197 
Q 2756 1666 2539 1819 
Q 2322 1972 1947 1972 
L 1259 1972 
L 1259 0 
L 628 0 
L 628 4666 
L 2053 4666 
Q 2853 4666 3247 4331 
Q 3641 3997 3641 3322 
Q 3641 2881 3436 2590 
Q 3231 2300 2841 2188 
z
M 1259 4147 
L 1259 2491 
L 2053 2491 
Q 2509 2491 2742 2702 
Q 2975 2913 2975 3322 
Q 2975 3731 2742 3939 
Q 2509 4147 2053 4147 
L 1259 4147 
z
" transform="scale(0.015625)"/>
      <path id="DejaVuSans-55" d="M 556 4666 
L 1191 4666 
L 1191 1831 
Q 1191 1081 1462 751 
Q 1734 422 2344 422 
Q 2950 422 3222 751 
Q 3494 1081 3494 1831 
L 3494 4666 
L 4128 4666 
L 4128 1753 
Q 4128 841 3676 375 
Q 3225 -91 2344 -91 
Q 1459 -91 1007 375 
Q 556 841 556 1753 
L 556 4666 
z
" transform="scale(0.015625)"/>
     </defs>
     <use xlink:href="#DejaVuSans-4e"/>
     <use xlink:href="#DejaVuSans-65" x="74.804688"/>
     <use xlink:href="#DejaVuSans-74" x="136.328125"/>
     <use xlink:href="#DejaVuSans-20" x="175.537109"/>
     <use xlink:href="#DejaVuSans-63" x="207.324219"/>
     <use xlink:href="#DejaVuSans-68" x="262.304688"/>
     <use xlink:href="#DejaVuSans-61" x="325.683594"/>
     <use xlink:href="#DejaVuSans-6e" x="386.962891"/>
     <use xlink:href="#DejaVuSans-67" x="450.341797"/>
     <use xlink:href="#DejaVuSans-65" x="513.818359"/>
     <use xlink:href="#DejaVuSans-20" x="575.341797"/>
     <use xlink:href="#DejaVuSans-69" x="607.128906"/>
     <use xlink:href="#DejaVuSans-6e" x="634.912109"/>
     <use xlink:href="#DejaVuSans-20" x="698.291016"/>
     <use xlink:href="#DejaVuSans-52" x="730.078125"/>
     <use xlink:href="#DejaVuSans-75" x="795.060547"/>
     <use xlink:href="#DejaVuSans-73" x="858.439453"/>
     <use xlink:href="#DejaVuSans-73" x="910.539062"/>
     <use xlink:href="#DejaVuSans-69" x="962.638672"/>
     <use xlink:href="#DejaVuSans-61" x="990.421875"/>
     <use xlink:href="#DejaVuSans-6e" x="1051.701172"/>
     <use xlink:href="#DejaVuSans-20" x="1115.080078"/>
     <use xlink:href="#DejaVuSans-63" x="1146.867188"/>
     <use xlink:href="#DejaVuSans-6f" x="1201.847656"/>
     <use xlink:href="#DejaVuSans-6e" x="1263.029297"/>
     <use xlink:href="#DejaVuSans-74" x="1326.408203"/>
     <use xlink:href="#DejaVuSans-72" x="1365.617188"/>
     <use xlink:href="#DejaVuSans-6f" x="1404.480469"/>
     <use xlink:href="#DejaVuSans-6c" x="1465.662109"/>
     <use xlink:href="#DejaVuSans-20" x="1493.445312"/>
     <use xlink:href="#DejaVuSans-6f" x="1525.232422"/>
     <use xlink:href="#DejaVuSans-66" x="1586.414062"/>
     <use xlink:href="#DejaVuSans-20" x="1621.619141"/>
     <use xlink:href="#DejaVuSans-55" x="1653.40625"/>
     <use xlink:href="#DejaVuSans-6b" x="1726.599609"/>
     <use xlink:href="#DejaVuSans-72" x="1784.509766"/>
     <use xlink:href="#DejaVuSans-61" x="1825.623047"/>
     <use xlink:href="#DejaVuSans-69" x="1886.902344"/>
     <use xlink:href="#DejaVuSans-6e" x="1914.685547"/>
     <use xlink:href="#DejaVuSans-69" x="1978.064453"/>
     <use xlink:href="#DejaVuSans-61" x="2005.847656"/>
     <use xlink:href="#DejaVuSans-6e" x="2067.126953"/>
     <use xlink:href="#DejaVuSans-20" x="2130.505859"/>
     <use xlink:href="#DejaVuSans-74" x="2162.292969"/>
     <use xlink:href="#DejaVuSans-65" x="2201.501953"/>
     <use xlink:href="#DejaVuSans-72" x="2263.025391"/>
     <use xlink:href="#DejaVuSans-72" x="2302.388672"/>
     <use xlink:href="#DejaVuSans-69" x="2343.501953"/>
     <use xlink:href="#DejaVuSans-74" x="2371.285156"/>
     <use xlink:href="#DejaVuSans-6f" x="2410.494141"/>
     <use xlink:href="#DejaVuSans-72" x="2471.675781"/>
     <use xlink:href="#DejaVuSans-79" x="2512.789062"/>
     <use xlink:href="#DejaVuSans-20" x="2571.96875"/>
     <use xlink:href="#DejaVuSans-28" x="2603.755859"/>
     <use xlink:href="#DejaVuSans-61" x="2642.769531"/>
     <use xlink:href="#DejaVuSans-76" x="2704.048828"/>
     <use xlink:href="#DejaVuSans-65" x="2763.228516"/>
     <use xlink:href="#DejaVuSans-72" x="2824.751953"/>
     <use xlink:href="#DejaVuSans-61" x="2865.865234"/>
     <use xlink:href="#DejaVuSans-67" x="2927.144531"/>
     <use xlink:href="#DejaVuSans-65" x="2990.621094"/>
     <use xlink:href="#DejaVuSans-64" x="3052.144531"/>
     <use xlink:href="#DejaVuSans-29" x="3115.621094"/>
     <use xlink:href="#DejaVuSans-20" x="3154.634766"/>
    </g>
    <!-- vs mentions of the term "missiles" in Cen4Infores dataset -->
    <g style="fill: #262626" transform="translate(182.161719 29.7555) scale(0.12 -0.12)">
     <defs>
      <path id="DejaVuSans-43" d="M 4122 4306 
L 4122 3641 
Q 3803 3938 3442 4084 
Q 3081 4231 2675 4231 
Q 1875 4231 1450 3742 
Q 1025 3253 1025 2328 
Q 1025 1406 1450 917 
Q 1875 428 2675 428 
Q 3081 428 3442 575 
Q 3803 722 4122 1019 
L 4122 359 
Q 3791 134 3420 21 
Q 3050 -91 2638 -91 
Q 1578 -91 968 557 
Q 359 1206 359 2328 
Q 359 3453 968 4101 
Q 1578 4750 2638 4750 
Q 3056 4750 3426 4639 
Q 3797 4528 4122 4306 
z
" transform="scale(0.015625)"/>
      <path id="DejaVuSans-34" d="M 2419 4116 
L 825 1625 
L 2419 1625 
L 2419 4116 
z
M 2253 4666 
L 3047 4666 
L 3047 1625 
L 3713 1625 
L 3713 1100 
L 3047 1100 
L 3047 0 
L 2419 0 
L 2419 1100 
L 313 1100 
L 313 1709 
L 2253 4666 
z
" transform="scale(0.015625)"/>
      <path id="DejaVuSans-49" d="M 628 4666 
L 1259 4666 
L 1259 0 
L 628 0 
L 628 4666 
z
" transform="scale(0.015625)"/>
     </defs>
     <use xlink:href="#DejaVuSans-76"/>
     <use xlink:href="#DejaVuSans-73" x="59.179688"/>
     <use xlink:href="#DejaVuSans-20" x="111.279297"/>
     <use xlink:href="#DejaVuSans-6d" x="143.066406"/>
     <use xlink:href="#DejaVuSans-65" x="240.478516"/>
     <use xlink:href="#DejaVuSans-6e" x="302.001953"/>
     <use xlink:href="#DejaVuSans-74" x="365.380859"/>
     <use xlink:href="#DejaVuSans-69" x="404.589844"/>
     <use xlink:href="#DejaVuSans-6f" x="432.373047"/>
     <use xlink:href="#DejaVuSans-6e" x="493.554688"/>
     <use xlink:href="#DejaVuSans-73" x="556.933594"/>
     <use xlink:href="#DejaVuSans-20" x="609.033203"/>
     <use xlink:href="#DejaVuSans-6f" x="640.820312"/>
     <use xlink:href="#DejaVuSans-66" x="702.001953"/>
     <use xlink:href="#DejaVuSans-20" x="737.207031"/>
     <use xlink:href="#DejaVuSans-74" x="768.994141"/>
     <use xlink:href="#DejaVuSans-68" x="808.203125"/>
     <use xlink:href="#DejaVuSans-65" x="871.582031"/>
     <use xlink:href="#DejaVuSans-20" x="933.105469"/>
     <use xlink:href="#DejaVuSans-74" x="964.892578"/>
     <use xlink:href="#DejaVuSans-65" x="1004.101562"/>
     <use xlink:href="#DejaVuSans-72" x="1065.625"/>
     <use xlink:href="#DejaVuSans-6d" x="1104.988281"/>
     <use xlink:href="#DejaVuSans-20" x="1202.400391"/>
     <use xlink:href="#DejaVuSans-22" x="1234.1875"/>
     <use xlink:href="#DejaVuSans-6d" x="1280.183594"/>
     <use xlink:href="#DejaVuSans-69" x="1377.595703"/>
     <use xlink:href="#DejaVuSans-73" x="1405.378906"/>
     <use xlink:href="#DejaVuSans-73" x="1457.478516"/>
     <use xlink:href="#DejaVuSans-69" x="1509.578125"/>
     <use xlink:href="#DejaVuSans-6c" x="1537.361328"/>
     <use xlink:href="#DejaVuSans-65" x="1565.144531"/>
     <use xlink:href="#DejaVuSans-73" x="1626.667969"/>
     <use xlink:href="#DejaVuSans-22" x="1678.767578"/>
     <use xlink:href="#DejaVuSans-20" x="1724.763672"/>
     <use xlink:href="#DejaVuSans-69" x="1756.550781"/>
     <use xlink:href="#DejaVuSans-6e" x="1784.333984"/>
     <use xlink:href="#DejaVuSans-20" x="1847.712891"/>
     <use xlink:href="#DejaVuSans-43" x="1879.5"/>
     <use xlink:href="#DejaVuSans-65" x="1949.324219"/>
     <use xlink:href="#DejaVuSans-6e" x="2010.847656"/>
     <use xlink:href="#DejaVuSans-34" x="2074.226562"/>
     <use xlink:href="#DejaVuSans-49" x="2137.849609"/>
     <use xlink:href="#DejaVuSans-6e" x="2167.341797"/>
     <use xlink:href="#DejaVuSans-66" x="2230.720703"/>
     <use xlink:href="#DejaVuSans-6f" x="2265.925781"/>
     <use xlink:href="#DejaVuSans-72" x="2327.107422"/>
     <use xlink:href="#DejaVuSans-65" x="2365.970703"/>
     <use xlink:href="#DejaVuSans-73" x="2427.494141"/>
     <use xlink:href="#DejaVuSans-20" x="2479.59375"/>
     <use xlink:href="#DejaVuSans-64" x="2511.380859"/>
     <use xlink:href="#DejaVuSans-61" x="2574.857422"/>
     <use xlink:href="#DejaVuSans-74" x="2636.136719"/>
     <use xlink:href="#DejaVuSans-61" x="2675.345703"/>
     <use xlink:href="#DejaVuSans-73" x="2736.625"/>
     <use xlink:href="#DejaVuSans-65" x="2788.724609"/>
     <use xlink:href="#DejaVuSans-74" x="2850.248047"/>
    </g>
   </g>
   <g id="legend_2">
    <g id="patch_12">
     <path d="M 474.543906 60.701437 
L 626.825156 60.701437 
Q 629.025156 60.701437 629.025156 58.501437 
L 629.025156 43.4555 
Q 629.025156 41.2555 626.825156 41.2555 
L 474.543906 41.2555 
Q 472.343906 41.2555 472.343906 43.4555 
L 472.343906 58.501437 
Q 472.343906 60.701437 474.543906 60.701437 
z
" style="fill: #eaeaf2; opacity: 0.8; stroke: #cccccc; stroke-linejoin: miter"/>
    </g>
    <g id="line2d_48">
     <path d="M 476.743906 50.163781 
L 487.743906 50.163781 
L 498.743906 50.163781 
" style="fill: none; stroke: #2ca02c; stroke-width: 1.5; stroke-linecap: round"/>
    </g>
    <g id="text_33">
     <!-- mentions of "missile" -->
     <g style="fill: #262626" transform="translate(507.543906 54.013781) scale(0.11 -0.11)">
      <use xlink:href="#DejaVuSans-6d"/>
      <use xlink:href="#DejaVuSans-65" x="97.412109"/>
      <use xlink:href="#DejaVuSans-6e" x="158.935547"/>
      <use xlink:href="#DejaVuSans-74" x="222.314453"/>
      <use xlink:href="#DejaVuSans-69" x="261.523438"/>
      <use xlink:href="#DejaVuSans-6f" x="289.306641"/>
      <use xlink:href="#DejaVuSans-6e" x="350.488281"/>
      <use xlink:href="#DejaVuSans-73" x="413.867188"/>
      <use xlink:href="#DejaVuSans-20" x="465.966797"/>
      <use xlink:href="#DejaVuSans-6f" x="497.753906"/>
      <use xlink:href="#DejaVuSans-66" x="558.935547"/>
      <use xlink:href="#DejaVuSans-20" x="594.140625"/>
      <use xlink:href="#DejaVuSans-22" x="625.927734"/>
      <use xlink:href="#DejaVuSans-6d" x="671.923828"/>
      <use xlink:href="#DejaVuSans-69" x="769.335938"/>
      <use xlink:href="#DejaVuSans-73" x="797.119141"/>
      <use xlink:href="#DejaVuSans-73" x="849.21875"/>
      <use xlink:href="#DejaVuSans-69" x="901.318359"/>
      <use xlink:href="#DejaVuSans-6c" x="929.101562"/>
      <use xlink:href="#DejaVuSans-65" x="956.884766"/>
      <use xlink:href="#DejaVuSans-22" x="1018.408203"/>
     </g>
    </g>
   </g>
  </g>
 </g>
 <defs>
  <clipPath id="p27c2005922">
   <rect x="76.525156" y="35.7555" width="558" height="332.64"/>
  </clipPath>
 </defs>
</svg>
