<?xml version="1.0" encoding="utf-8" standalone="no"?>
<!DOCTYPE svg PUBLIC "-//W3C//DTD SVG 1.1//EN"
  "http://www.w3.org/Graphics/SVG/1.1/DTD/svg11.dtd">
<svg xmlns:xlink="http://www.w3.org/1999/xlink" width="631.253125pt" height="403.471437pt" viewBox="0 0 631.253125 403.471437" xmlns="http://www.w3.org/2000/svg" version="1.1">
 <metadata>
  <rdf:RDF xmlns:dc="http://purl.org/dc/elements/1.1/" xmlns:cc="http://creativecommons.org/ns#" xmlns:rdf="http://www.w3.org/1999/02/22-rdf-syntax-ns#">
   <cc:Work>
    <dc:type rdf:resource="http://purl.org/dc/dcmitype/StillImage"/>
    <dc:date>2023-03-15T00:19:27.045067</dc:date>
    <dc:format>image/svg+xml</dc:format>
    <dc:creator>
     <cc:Agent>
      <dc:title>Matplotlib v3.6.2, https://matplotlib.org/</dc:title>
     </cc:Agent>
    </dc:creator>
   </cc:Work>
  </rdf:RDF>
 </metadata>
 <defs>
  <style type="text/css">*{stroke-linejoin: round; stroke-linecap: butt}</style>
 </defs>
 <g id="figure_1">
  <g id="patch_1">
   <path d="M 0 403.471437 
L 631.253125 403.471437 
L 631.253125 0 
L 0 0 
z
" style="fill: #ffffff"/>
  </g>
  <g id="axes_1">
   <g id="patch_2">
    <path d="M 66.053125 368.3955 
L 624.053125 368.3955 
L 624.053125 35.7555 
L 66.053125 35.7555 
z
" style="fill: #ffffff"/>
   </g>
   <g id="matplotlib.axis_1">
    <g id="xtick_1">
     <g id="line2d_1">
      <defs>
       <path id="m2a127fda97" d="M 0 0 
L 0 3.5 
" style="stroke: #000000; stroke-width: 0.8"/>
      </defs>
      <g>
       <use xlink:href="#m2a127fda97" x="66.053125" y="368.3955" style="stroke: #000000; stroke-width: 0.8"/>
      </g>
     </g>
    </g>
    <g id="xtick_2">
     <g id="line2d_2">
      <g>
       <use xlink:href="#m2a127fda97" x="73.33772" y="368.3955" style="stroke: #000000; stroke-width: 0.8"/>
      </g>
     </g>
     <g id="text_1">
      <!-- Mar -->
      <g transform="translate(63.904127 382.993937) scale(0.1 -0.1)">
       <defs>
        <path id="DejaVuSans-4d" d="M 628 4666 
L 1569 4666 
L 2759 1491 
L 3956 4666 
L 4897 4666 
L 4897 0 
L 4281 0 
L 4281 4097 
L 3078 897 
L 2444 897 
L 1241 4097 
L 1241 0 
L 628 0 
L 628 4666 
z
" transform="scale(0.015625)"/>
        <path id="DejaVuSans-61" d="M 2194 1759 
Q 1497 1759 1228 1600 
Q 959 1441 959 1056 
Q 959 750 1161 570 
Q 1363 391 1709 391 
Q 2188 391 2477 730 
Q 2766 1069 2766 1631 
L 2766 1759 
L 2194 1759 
z
M 3341 1997 
L 3341 0 
L 2766 0 
L 2766 531 
Q 2569 213 2275 61 
Q 1981 -91 1556 -91 
Q 1019 -91 701 211 
Q 384 513 384 1019 
Q 384 1609 779 1909 
Q 1175 2209 1959 2209 
L 2766 2209 
L 2766 2266 
Q 2766 2663 2505 2880 
Q 2244 3097 1772 3097 
Q 1472 3097 1187 3025 
Q 903 2953 641 2809 
L 641 3341 
Q 956 3463 1253 3523 
Q 1550 3584 1831 3584 
Q 2591 3584 2966 3190 
Q 3341 2797 3341 1997 
z
" transform="scale(0.015625)"/>
        <path id="DejaVuSans-72" d="M 2631 2963 
Q 2534 3019 2420 3045 
Q 2306 3072 2169 3072 
Q 1681 3072 1420 2755 
Q 1159 2438 1159 1844 
L 1159 0 
L 581 0 
L 581 3500 
L 1159 3500 
L 1159 2956 
Q 1341 3275 1631 3429 
Q 1922 3584 2338 3584 
Q 2397 3584 2469 3576 
Q 2541 3569 2628 3553 
L 2631 2963 
z
" transform="scale(0.015625)"/>
       </defs>
       <use xlink:href="#DejaVuSans-4d"/>
       <use xlink:href="#DejaVuSans-61" x="86.279297"/>
       <use xlink:href="#DejaVuSans-72" x="147.558594"/>
      </g>
     </g>
    </g>
    <g id="xtick_3">
     <g id="line2d_3">
      <g>
       <use xlink:href="#m2a127fda97" x="118.502211" y="368.3955" style="stroke: #000000; stroke-width: 0.8"/>
      </g>
     </g>
     <g id="text_2">
      <!-- Apr -->
      <g transform="translate(109.852211 382.993937) scale(0.1 -0.1)">
       <defs>
        <path id="DejaVuSans-41" d="M 2188 4044 
L 1331 1722 
L 3047 1722 
L 2188 4044 
z
M 1831 4666 
L 2547 4666 
L 4325 0 
L 3669 0 
L 3244 1197 
L 1141 1197 
L 716 0 
L 50 0 
L 1831 4666 
z
" transform="scale(0.015625)"/>
        <path id="DejaVuSans-70" d="M 1159 525 
L 1159 -1331 
L 581 -1331 
L 581 3500 
L 1159 3500 
L 1159 2969 
Q 1341 3281 1617 3432 
Q 1894 3584 2278 3584 
Q 2916 3584 3314 3078 
Q 3713 2572 3713 1747 
Q 3713 922 3314 415 
Q 2916 -91 2278 -91 
Q 1894 -91 1617 61 
Q 1341 213 1159 525 
z
M 3116 1747 
Q 3116 2381 2855 2742 
Q 2594 3103 2138 3103 
Q 1681 3103 1420 2742 
Q 1159 2381 1159 1747 
Q 1159 1113 1420 752 
Q 1681 391 2138 391 
Q 2594 391 2855 752 
Q 3116 1113 3116 1747 
z
" transform="scale(0.015625)"/>
       </defs>
       <use xlink:href="#DejaVuSans-41"/>
       <use xlink:href="#DejaVuSans-70" x="68.408203"/>
       <use xlink:href="#DejaVuSans-72" x="131.884766"/>
      </g>
     </g>
    </g>
    <g id="xtick_4">
     <g id="line2d_4">
      <g>
       <use xlink:href="#m2a127fda97" x="162.209783" y="368.3955" style="stroke: #000000; stroke-width: 0.8"/>
      </g>
     </g>
     <g id="text_3">
      <!-- May -->
      <g transform="translate(151.872283 382.993937) scale(0.1 -0.1)">
       <defs>
        <path id="DejaVuSans-79" d="M 2059 -325 
Q 1816 -950 1584 -1140 
Q 1353 -1331 966 -1331 
L 506 -1331 
L 506 -850 
L 844 -850 
Q 1081 -850 1212 -737 
Q 1344 -625 1503 -206 
L 1606 56 
L 191 3500 
L 800 3500 
L 1894 763 
L 2988 3500 
L 3597 3500 
L 2059 -325 
z
" transform="scale(0.015625)"/>
       </defs>
       <use xlink:href="#DejaVuSans-4d"/>
       <use xlink:href="#DejaVuSans-61" x="86.279297"/>
       <use xlink:href="#DejaVuSans-79" x="147.558594"/>
      </g>
     </g>
    </g>
    <g id="xtick_5">
     <g id="line2d_5">
      <g>
       <use xlink:href="#m2a127fda97" x="207.374274" y="368.3955" style="stroke: #000000; stroke-width: 0.8"/>
      </g>
     </g>
     <g id="text_4">
      <!-- Jun -->
      <g transform="translate(199.561774 382.993937) scale(0.1 -0.1)">
       <defs>
        <path id="DejaVuSans-4a" d="M 628 4666 
L 1259 4666 
L 1259 325 
Q 1259 -519 939 -900 
Q 619 -1281 -91 -1281 
L -331 -1281 
L -331 -750 
L -134 -750 
Q 284 -750 456 -515 
Q 628 -281 628 325 
L 628 4666 
z
" transform="scale(0.015625)"/>
        <path id="DejaVuSans-75" d="M 544 1381 
L 544 3500 
L 1119 3500 
L 1119 1403 
Q 1119 906 1312 657 
Q 1506 409 1894 409 
Q 2359 409 2629 706 
Q 2900 1003 2900 1516 
L 2900 3500 
L 3475 3500 
L 3475 0 
L 2900 0 
L 2900 538 
Q 2691 219 2414 64 
Q 2138 -91 1772 -91 
Q 1169 -91 856 284 
Q 544 659 544 1381 
z
M 1991 3584 
L 1991 3584 
z
" transform="scale(0.015625)"/>
        <path id="DejaVuSans-6e" d="M 3513 2113 
L 3513 0 
L 2938 0 
L 2938 2094 
Q 2938 2591 2744 2837 
Q 2550 3084 2163 3084 
Q 1697 3084 1428 2787 
Q 1159 2491 1159 1978 
L 1159 0 
L 581 0 
L 581 3500 
L 1159 3500 
L 1159 2956 
Q 1366 3272 1645 3428 
Q 1925 3584 2291 3584 
Q 2894 3584 3203 3211 
Q 3513 2838 3513 2113 
z
" transform="scale(0.015625)"/>
       </defs>
       <use xlink:href="#DejaVuSans-4a"/>
       <use xlink:href="#DejaVuSans-75" x="29.492188"/>
       <use xlink:href="#DejaVuSans-6e" x="92.871094"/>
      </g>
     </g>
    </g>
    <g id="xtick_6">
     <g id="line2d_6">
      <g>
       <use xlink:href="#m2a127fda97" x="251.081846" y="368.3955" style="stroke: #000000; stroke-width: 0.8"/>
      </g>
     </g>
     <g id="text_5">
      <!-- Jul -->
      <g transform="translate(245.049033 382.993937) scale(0.1 -0.1)">
       <defs>
        <path id="DejaVuSans-6c" d="M 603 4863 
L 1178 4863 
L 1178 0 
L 603 0 
L 603 4863 
z
" transform="scale(0.015625)"/>
       </defs>
       <use xlink:href="#DejaVuSans-4a"/>
       <use xlink:href="#DejaVuSans-75" x="29.492188"/>
       <use xlink:href="#DejaVuSans-6c" x="92.871094"/>
      </g>
     </g>
    </g>
    <g id="xtick_7">
     <g id="line2d_7">
      <g>
       <use xlink:href="#m2a127fda97" x="296.246336" y="368.3955" style="stroke: #000000; stroke-width: 0.8"/>
      </g>
     </g>
     <g id="text_6">
      <!-- Aug -->
      <g transform="translate(286.483055 382.993937) scale(0.1 -0.1)">
       <defs>
        <path id="DejaVuSans-67" d="M 2906 1791 
Q 2906 2416 2648 2759 
Q 2391 3103 1925 3103 
Q 1463 3103 1205 2759 
Q 947 2416 947 1791 
Q 947 1169 1205 825 
Q 1463 481 1925 481 
Q 2391 481 2648 825 
Q 2906 1169 2906 1791 
z
M 3481 434 
Q 3481 -459 3084 -895 
Q 2688 -1331 1869 -1331 
Q 1566 -1331 1297 -1286 
Q 1028 -1241 775 -1147 
L 775 -588 
Q 1028 -725 1275 -790 
Q 1522 -856 1778 -856 
Q 2344 -856 2625 -561 
Q 2906 -266 2906 331 
L 2906 616 
Q 2728 306 2450 153 
Q 2172 0 1784 0 
Q 1141 0 747 490 
Q 353 981 353 1791 
Q 353 2603 747 3093 
Q 1141 3584 1784 3584 
Q 2172 3584 2450 3431 
Q 2728 3278 2906 2969 
L 2906 3500 
L 3481 3500 
L 3481 434 
z
" transform="scale(0.015625)"/>
       </defs>
       <use xlink:href="#DejaVuSans-41"/>
       <use xlink:href="#DejaVuSans-75" x="68.408203"/>
       <use xlink:href="#DejaVuSans-67" x="131.787109"/>
      </g>
     </g>
    </g>
    <g id="xtick_8">
     <g id="line2d_8">
      <g>
       <use xlink:href="#m2a127fda97" x="341.410827" y="368.3955" style="stroke: #000000; stroke-width: 0.8"/>
      </g>
     </g>
     <g id="text_7">
      <!-- Sep -->
      <g transform="translate(331.985827 382.993937) scale(0.1 -0.1)">
       <defs>
        <path id="DejaVuSans-53" d="M 3425 4513 
L 3425 3897 
Q 3066 4069 2747 4153 
Q 2428 4238 2131 4238 
Q 1616 4238 1336 4038 
Q 1056 3838 1056 3469 
Q 1056 3159 1242 3001 
Q 1428 2844 1947 2747 
L 2328 2669 
Q 3034 2534 3370 2195 
Q 3706 1856 3706 1288 
Q 3706 609 3251 259 
Q 2797 -91 1919 -91 
Q 1588 -91 1214 -16 
Q 841 59 441 206 
L 441 856 
Q 825 641 1194 531 
Q 1563 422 1919 422 
Q 2459 422 2753 634 
Q 3047 847 3047 1241 
Q 3047 1584 2836 1778 
Q 2625 1972 2144 2069 
L 1759 2144 
Q 1053 2284 737 2584 
Q 422 2884 422 3419 
Q 422 4038 858 4394 
Q 1294 4750 2059 4750 
Q 2388 4750 2728 4690 
Q 3069 4631 3425 4513 
z
" transform="scale(0.015625)"/>
        <path id="DejaVuSans-65" d="M 3597 1894 
L 3597 1613 
L 953 1613 
Q 991 1019 1311 708 
Q 1631 397 2203 397 
Q 2534 397 2845 478 
Q 3156 559 3463 722 
L 3463 178 
Q 3153 47 2828 -22 
Q 2503 -91 2169 -91 
Q 1331 -91 842 396 
Q 353 884 353 1716 
Q 353 2575 817 3079 
Q 1281 3584 2069 3584 
Q 2775 3584 3186 3129 
Q 3597 2675 3597 1894 
z
M 3022 2063 
Q 3016 2534 2758 2815 
Q 2500 3097 2075 3097 
Q 1594 3097 1305 2825 
Q 1016 2553 972 2059 
L 3022 2063 
z
" transform="scale(0.015625)"/>
       </defs>
       <use xlink:href="#DejaVuSans-53"/>
       <use xlink:href="#DejaVuSans-65" x="63.476562"/>
       <use xlink:href="#DejaVuSans-70" x="125"/>
      </g>
     </g>
    </g>
    <g id="xtick_9">
     <g id="line2d_9">
      <g>
       <use xlink:href="#m2a127fda97" x="385.118399" y="368.3955" style="stroke: #000000; stroke-width: 0.8"/>
      </g>
     </g>
     <g id="text_8">
      <!-- Oct -->
      <g transform="translate(376.473087 382.993937) scale(0.1 -0.1)">
       <defs>
        <path id="DejaVuSans-4f" d="M 2522 4238 
Q 1834 4238 1429 3725 
Q 1025 3213 1025 2328 
Q 1025 1447 1429 934 
Q 1834 422 2522 422 
Q 3209 422 3611 934 
Q 4013 1447 4013 2328 
Q 4013 3213 3611 3725 
Q 3209 4238 2522 4238 
z
M 2522 4750 
Q 3503 4750 4090 4092 
Q 4678 3434 4678 2328 
Q 4678 1225 4090 567 
Q 3503 -91 2522 -91 
Q 1538 -91 948 565 
Q 359 1222 359 2328 
Q 359 3434 948 4092 
Q 1538 4750 2522 4750 
z
" transform="scale(0.015625)"/>
        <path id="DejaVuSans-63" d="M 3122 3366 
L 3122 2828 
Q 2878 2963 2633 3030 
Q 2388 3097 2138 3097 
Q 1578 3097 1268 2742 
Q 959 2388 959 1747 
Q 959 1106 1268 751 
Q 1578 397 2138 397 
Q 2388 397 2633 464 
Q 2878 531 3122 666 
L 3122 134 
Q 2881 22 2623 -34 
Q 2366 -91 2075 -91 
Q 1284 -91 818 406 
Q 353 903 353 1747 
Q 353 2603 823 3093 
Q 1294 3584 2113 3584 
Q 2378 3584 2631 3529 
Q 2884 3475 3122 3366 
z
" transform="scale(0.015625)"/>
        <path id="DejaVuSans-74" d="M 1172 4494 
L 1172 3500 
L 2356 3500 
L 2356 3053 
L 1172 3053 
L 1172 1153 
Q 1172 725 1289 603 
Q 1406 481 1766 481 
L 2356 481 
L 2356 0 
L 1766 0 
Q 1100 0 847 248 
Q 594 497 594 1153 
L 594 3053 
L 172 3053 
L 172 3500 
L 594 3500 
L 594 4494 
L 1172 4494 
z
" transform="scale(0.015625)"/>
       </defs>
       <use xlink:href="#DejaVuSans-4f"/>
       <use xlink:href="#DejaVuSans-63" x="78.710938"/>
       <use xlink:href="#DejaVuSans-74" x="133.691406"/>
      </g>
     </g>
    </g>
    <g id="xtick_10">
     <g id="line2d_10">
      <g>
       <use xlink:href="#m2a127fda97" x="430.28289" y="368.3955" style="stroke: #000000; stroke-width: 0.8"/>
      </g>
     </g>
     <g id="text_9">
      <!-- Nov -->
      <g transform="translate(420.523515 382.993937) scale(0.1 -0.1)">
       <defs>
        <path id="DejaVuSans-4e" d="M 628 4666 
L 1478 4666 
L 3547 763 
L 3547 4666 
L 4159 4666 
L 4159 0 
L 3309 0 
L 1241 3903 
L 1241 0 
L 628 0 
L 628 4666 
z
" transform="scale(0.015625)"/>
        <path id="DejaVuSans-6f" d="M 1959 3097 
Q 1497 3097 1228 2736 
Q 959 2375 959 1747 
Q 959 1119 1226 758 
Q 1494 397 1959 397 
Q 2419 397 2687 759 
Q 2956 1122 2956 1747 
Q 2956 2369 2687 2733 
Q 2419 3097 1959 3097 
z
M 1959 3584 
Q 2709 3584 3137 3096 
Q 3566 2609 3566 1747 
Q 3566 888 3137 398 
Q 2709 -91 1959 -91 
Q 1206 -91 779 398 
Q 353 888 353 1747 
Q 353 2609 779 3096 
Q 1206 3584 1959 3584 
z
" transform="scale(0.015625)"/>
        <path id="DejaVuSans-76" d="M 191 3500 
L 800 3500 
L 1894 563 
L 2988 3500 
L 3597 3500 
L 2284 0 
L 1503 0 
L 191 3500 
z
" transform="scale(0.015625)"/>
       </defs>
       <use xlink:href="#DejaVuSans-4e"/>
       <use xlink:href="#DejaVuSans-6f" x="74.804688"/>
       <use xlink:href="#DejaVuSans-76" x="135.986328"/>
      </g>
     </g>
    </g>
    <g id="xtick_11">
     <g id="line2d_11">
      <g>
       <use xlink:href="#m2a127fda97" x="473.990462" y="368.3955" style="stroke: #000000; stroke-width: 0.8"/>
      </g>
     </g>
     <g id="text_10">
      <!-- Dec -->
      <g transform="translate(464.314681 382.993937) scale(0.1 -0.1)">
       <defs>
        <path id="DejaVuSans-44" d="M 1259 4147 
L 1259 519 
L 2022 519 
Q 2988 519 3436 956 
Q 3884 1394 3884 2338 
Q 3884 3275 3436 3711 
Q 2988 4147 2022 4147 
L 1259 4147 
z
M 628 4666 
L 1925 4666 
Q 3281 4666 3915 4102 
Q 4550 3538 4550 2338 
Q 4550 1131 3912 565 
Q 3275 0 1925 0 
L 628 0 
L 628 4666 
z
" transform="scale(0.015625)"/>
       </defs>
       <use xlink:href="#DejaVuSans-44"/>
       <use xlink:href="#DejaVuSans-65" x="77.001953"/>
       <use xlink:href="#DejaVuSans-63" x="138.525391"/>
      </g>
     </g>
    </g>
    <g id="xtick_12">
     <g id="line2d_12">
      <g>
       <use xlink:href="#m2a127fda97" x="519.154953" y="368.3955" style="stroke: #000000; stroke-width: 0.8"/>
      </g>
     </g>
     <g id="text_11">
      <!-- Jan -->
      <g transform="translate(511.44714 382.993937) scale(0.1 -0.1)">
       <use xlink:href="#DejaVuSans-4a"/>
       <use xlink:href="#DejaVuSans-61" x="29.492188"/>
       <use xlink:href="#DejaVuSans-6e" x="90.771484"/>
      </g>
      <!-- 2023 -->
      <g transform="translate(506.429953 394.19175) scale(0.1 -0.1)">
       <defs>
        <path id="DejaVuSans-32" d="M 1228 531 
L 3431 531 
L 3431 0 
L 469 0 
L 469 531 
Q 828 903 1448 1529 
Q 2069 2156 2228 2338 
Q 2531 2678 2651 2914 
Q 2772 3150 2772 3378 
Q 2772 3750 2511 3984 
Q 2250 4219 1831 4219 
Q 1534 4219 1204 4116 
Q 875 4013 500 3803 
L 500 4441 
Q 881 4594 1212 4672 
Q 1544 4750 1819 4750 
Q 2544 4750 2975 4387 
Q 3406 4025 3406 3419 
Q 3406 3131 3298 2873 
Q 3191 2616 2906 2266 
Q 2828 2175 2409 1742 
Q 1991 1309 1228 531 
z
" transform="scale(0.015625)"/>
        <path id="DejaVuSans-30" d="M 2034 4250 
Q 1547 4250 1301 3770 
Q 1056 3291 1056 2328 
Q 1056 1369 1301 889 
Q 1547 409 2034 409 
Q 2525 409 2770 889 
Q 3016 1369 3016 2328 
Q 3016 3291 2770 3770 
Q 2525 4250 2034 4250 
z
M 2034 4750 
Q 2819 4750 3233 4129 
Q 3647 3509 3647 2328 
Q 3647 1150 3233 529 
Q 2819 -91 2034 -91 
Q 1250 -91 836 529 
Q 422 1150 422 2328 
Q 422 3509 836 4129 
Q 1250 4750 2034 4750 
z
" transform="scale(0.015625)"/>
        <path id="DejaVuSans-33" d="M 2597 2516 
Q 3050 2419 3304 2112 
Q 3559 1806 3559 1356 
Q 3559 666 3084 287 
Q 2609 -91 1734 -91 
Q 1441 -91 1130 -33 
Q 819 25 488 141 
L 488 750 
Q 750 597 1062 519 
Q 1375 441 1716 441 
Q 2309 441 2620 675 
Q 2931 909 2931 1356 
Q 2931 1769 2642 2001 
Q 2353 2234 1838 2234 
L 1294 2234 
L 1294 2753 
L 1863 2753 
Q 2328 2753 2575 2939 
Q 2822 3125 2822 3475 
Q 2822 3834 2567 4026 
Q 2313 4219 1838 4219 
Q 1578 4219 1281 4162 
Q 984 4106 628 3988 
L 628 4550 
Q 988 4650 1302 4700 
Q 1616 4750 1894 4750 
Q 2613 4750 3031 4423 
Q 3450 4097 3450 3541 
Q 3450 3153 3228 2886 
Q 3006 2619 2597 2516 
z
" transform="scale(0.015625)"/>
       </defs>
       <use xlink:href="#DejaVuSans-32"/>
       <use xlink:href="#DejaVuSans-30" x="63.623047"/>
       <use xlink:href="#DejaVuSans-32" x="127.246094"/>
       <use xlink:href="#DejaVuSans-33" x="190.869141"/>
      </g>
     </g>
    </g>
    <g id="xtick_13">
     <g id="line2d_13">
      <g>
       <use xlink:href="#m2a127fda97" x="564.319444" y="368.3955" style="stroke: #000000; stroke-width: 0.8"/>
      </g>
     </g>
     <g id="text_12">
      <!-- Feb -->
      <g transform="translate(555.467881 382.993937) scale(0.1 -0.1)">
       <defs>
        <path id="DejaVuSans-46" d="M 628 4666 
L 3309 4666 
L 3309 4134 
L 1259 4134 
L 1259 2759 
L 3109 2759 
L 3109 2228 
L 1259 2228 
L 1259 0 
L 628 0 
L 628 4666 
z
" transform="scale(0.015625)"/>
        <path id="DejaVuSans-62" d="M 3116 1747 
Q 3116 2381 2855 2742 
Q 2594 3103 2138 3103 
Q 1681 3103 1420 2742 
Q 1159 2381 1159 1747 
Q 1159 1113 1420 752 
Q 1681 391 2138 391 
Q 2594 391 2855 752 
Q 3116 1113 3116 1747 
z
M 1159 2969 
Q 1341 3281 1617 3432 
Q 1894 3584 2278 3584 
Q 2916 3584 3314 3078 
Q 3713 2572 3713 1747 
Q 3713 922 3314 415 
Q 2916 -91 2278 -91 
Q 1894 -91 1617 61 
Q 1341 213 1159 525 
L 1159 0 
L 581 0 
L 581 4863 
L 1159 4863 
L 1159 2969 
z
" transform="scale(0.015625)"/>
       </defs>
       <use xlink:href="#DejaVuSans-46"/>
       <use xlink:href="#DejaVuSans-65" x="52.019531"/>
       <use xlink:href="#DejaVuSans-62" x="113.542969"/>
      </g>
     </g>
    </g>
    <g id="xtick_14">
     <g id="line2d_14">
      <g>
       <use xlink:href="#m2a127fda97" x="605.113177" y="368.3955" style="stroke: #000000; stroke-width: 0.8"/>
      </g>
     </g>
     <g id="text_13">
      <!-- Mar -->
      <g transform="translate(595.679583 382.993937) scale(0.1 -0.1)">
       <use xlink:href="#DejaVuSans-4d"/>
       <use xlink:href="#DejaVuSans-61" x="86.279297"/>
       <use xlink:href="#DejaVuSans-72" x="147.558594"/>
      </g>
     </g>
    </g>
    <g id="xtick_15">
     <g id="line2d_15">
      <g>
       <use xlink:href="#m2a127fda97" x="624.053125" y="368.3955" style="stroke: #000000; stroke-width: 0.8"/>
      </g>
     </g>
    </g>
    <g id="xtick_16">
     <g id="line2d_16">
      <defs>
       <path id="m1e85595900" d="M 0 0 
L 0 2 
" style="stroke: #000000; stroke-width: 0.6"/>
      </defs>
      <g>
       <use xlink:href="#m1e85595900" x="71.880801" y="368.3955" style="stroke: #000000; stroke-width: 0.6"/>
      </g>
     </g>
    </g>
    <g id="xtick_17">
     <g id="line2d_17">
      <g>
       <use xlink:href="#m1e85595900" x="82.079235" y="368.3955" style="stroke: #000000; stroke-width: 0.6"/>
      </g>
     </g>
    </g>
    <g id="xtick_18">
     <g id="line2d_18">
      <g>
       <use xlink:href="#m1e85595900" x="92.277668" y="368.3955" style="stroke: #000000; stroke-width: 0.6"/>
      </g>
     </g>
    </g>
    <g id="xtick_19">
     <g id="line2d_19">
      <g>
       <use xlink:href="#m1e85595900" x="102.476102" y="368.3955" style="stroke: #000000; stroke-width: 0.6"/>
      </g>
     </g>
    </g>
    <g id="xtick_20">
     <g id="line2d_20">
      <g>
       <use xlink:href="#m1e85595900" x="112.674535" y="368.3955" style="stroke: #000000; stroke-width: 0.6"/>
      </g>
     </g>
    </g>
    <g id="xtick_21">
     <g id="line2d_21">
      <g>
       <use xlink:href="#m1e85595900" x="122.872968" y="368.3955" style="stroke: #000000; stroke-width: 0.6"/>
      </g>
     </g>
    </g>
    <g id="xtick_22">
     <g id="line2d_22">
      <g>
       <use xlink:href="#m1e85595900" x="133.071402" y="368.3955" style="stroke: #000000; stroke-width: 0.6"/>
      </g>
     </g>
    </g>
    <g id="xtick_23">
     <g id="line2d_23">
      <g>
       <use xlink:href="#m1e85595900" x="143.269835" y="368.3955" style="stroke: #000000; stroke-width: 0.6"/>
      </g>
     </g>
    </g>
    <g id="xtick_24">
     <g id="line2d_24">
      <g>
       <use xlink:href="#m1e85595900" x="153.468269" y="368.3955" style="stroke: #000000; stroke-width: 0.6"/>
      </g>
     </g>
    </g>
    <g id="xtick_25">
     <g id="line2d_25">
      <g>
       <use xlink:href="#m1e85595900" x="163.666702" y="368.3955" style="stroke: #000000; stroke-width: 0.6"/>
      </g>
     </g>
    </g>
    <g id="xtick_26">
     <g id="line2d_26">
      <g>
       <use xlink:href="#m1e85595900" x="173.865135" y="368.3955" style="stroke: #000000; stroke-width: 0.6"/>
      </g>
     </g>
    </g>
    <g id="xtick_27">
     <g id="line2d_27">
      <g>
       <use xlink:href="#m1e85595900" x="184.063569" y="368.3955" style="stroke: #000000; stroke-width: 0.6"/>
      </g>
     </g>
    </g>
    <g id="xtick_28">
     <g id="line2d_28">
      <g>
       <use xlink:href="#m1e85595900" x="194.262002" y="368.3955" style="stroke: #000000; stroke-width: 0.6"/>
      </g>
     </g>
    </g>
    <g id="xtick_29">
     <g id="line2d_29">
      <g>
       <use xlink:href="#m1e85595900" x="204.460436" y="368.3955" style="stroke: #000000; stroke-width: 0.6"/>
      </g>
     </g>
    </g>
    <g id="xtick_30">
     <g id="line2d_30">
      <g>
       <use xlink:href="#m1e85595900" x="214.658869" y="368.3955" style="stroke: #000000; stroke-width: 0.6"/>
      </g>
     </g>
    </g>
    <g id="xtick_31">
     <g id="line2d_31">
      <g>
       <use xlink:href="#m1e85595900" x="224.857303" y="368.3955" style="stroke: #000000; stroke-width: 0.6"/>
      </g>
     </g>
    </g>
    <g id="xtick_32">
     <g id="line2d_32">
      <g>
       <use xlink:href="#m1e85595900" x="235.055736" y="368.3955" style="stroke: #000000; stroke-width: 0.6"/>
      </g>
     </g>
    </g>
    <g id="xtick_33">
     <g id="line2d_33">
      <g>
       <use xlink:href="#m1e85595900" x="245.254169" y="368.3955" style="stroke: #000000; stroke-width: 0.6"/>
      </g>
     </g>
    </g>
    <g id="xtick_34">
     <g id="line2d_34">
      <g>
       <use xlink:href="#m1e85595900" x="255.452603" y="368.3955" style="stroke: #000000; stroke-width: 0.6"/>
      </g>
     </g>
    </g>
    <g id="xtick_35">
     <g id="line2d_35">
      <g>
       <use xlink:href="#m1e85595900" x="265.651036" y="368.3955" style="stroke: #000000; stroke-width: 0.6"/>
      </g>
     </g>
    </g>
    <g id="xtick_36">
     <g id="line2d_36">
      <g>
       <use xlink:href="#m1e85595900" x="275.84947" y="368.3955" style="stroke: #000000; stroke-width: 0.6"/>
      </g>
     </g>
    </g>
    <g id="xtick_37">
     <g id="line2d_37">
      <g>
       <use xlink:href="#m1e85595900" x="286.047903" y="368.3955" style="stroke: #000000; stroke-width: 0.6"/>
      </g>
     </g>
    </g>
    <g id="xtick_38">
     <g id="line2d_38">
      <g>
       <use xlink:href="#m1e85595900" x="306.44477" y="368.3955" style="stroke: #000000; stroke-width: 0.6"/>
      </g>
     </g>
    </g>
    <g id="xtick_39">
     <g id="line2d_39">
      <g>
       <use xlink:href="#m1e85595900" x="316.643203" y="368.3955" style="stroke: #000000; stroke-width: 0.6"/>
      </g>
     </g>
    </g>
    <g id="xtick_40">
     <g id="line2d_40">
      <g>
       <use xlink:href="#m1e85595900" x="326.841637" y="368.3955" style="stroke: #000000; stroke-width: 0.6"/>
      </g>
     </g>
    </g>
    <g id="xtick_41">
     <g id="line2d_41">
      <g>
       <use xlink:href="#m1e85595900" x="337.04007" y="368.3955" style="stroke: #000000; stroke-width: 0.6"/>
      </g>
     </g>
    </g>
    <g id="xtick_42">
     <g id="line2d_42">
      <g>
       <use xlink:href="#m1e85595900" x="347.238504" y="368.3955" style="stroke: #000000; stroke-width: 0.6"/>
      </g>
     </g>
    </g>
    <g id="xtick_43">
     <g id="line2d_43">
      <g>
       <use xlink:href="#m1e85595900" x="357.436937" y="368.3955" style="stroke: #000000; stroke-width: 0.6"/>
      </g>
     </g>
    </g>
    <g id="xtick_44">
     <g id="line2d_44">
      <g>
       <use xlink:href="#m1e85595900" x="367.63537" y="368.3955" style="stroke: #000000; stroke-width: 0.6"/>
      </g>
     </g>
    </g>
    <g id="xtick_45">
     <g id="line2d_45">
      <g>
       <use xlink:href="#m1e85595900" x="377.833804" y="368.3955" style="stroke: #000000; stroke-width: 0.6"/>
      </g>
     </g>
    </g>
    <g id="xtick_46">
     <g id="line2d_46">
      <g>
       <use xlink:href="#m1e85595900" x="388.032237" y="368.3955" style="stroke: #000000; stroke-width: 0.6"/>
      </g>
     </g>
    </g>
    <g id="xtick_47">
     <g id="line2d_47">
      <g>
       <use xlink:href="#m1e85595900" x="398.230671" y="368.3955" style="stroke: #000000; stroke-width: 0.6"/>
      </g>
     </g>
    </g>
    <g id="xtick_48">
     <g id="line2d_48">
      <g>
       <use xlink:href="#m1e85595900" x="408.429104" y="368.3955" style="stroke: #000000; stroke-width: 0.6"/>
      </g>
     </g>
    </g>
    <g id="xtick_49">
     <g id="line2d_49">
      <g>
       <use xlink:href="#m1e85595900" x="418.627538" y="368.3955" style="stroke: #000000; stroke-width: 0.6"/>
      </g>
     </g>
    </g>
    <g id="xtick_50">
     <g id="line2d_50">
      <g>
       <use xlink:href="#m1e85595900" x="428.825971" y="368.3955" style="stroke: #000000; stroke-width: 0.6"/>
      </g>
     </g>
    </g>
    <g id="xtick_51">
     <g id="line2d_51">
      <g>
       <use xlink:href="#m1e85595900" x="439.024404" y="368.3955" style="stroke: #000000; stroke-width: 0.6"/>
      </g>
     </g>
    </g>
    <g id="xtick_52">
     <g id="line2d_52">
      <g>
       <use xlink:href="#m1e85595900" x="449.222838" y="368.3955" style="stroke: #000000; stroke-width: 0.6"/>
      </g>
     </g>
    </g>
    <g id="xtick_53">
     <g id="line2d_53">
      <g>
       <use xlink:href="#m1e85595900" x="459.421271" y="368.3955" style="stroke: #000000; stroke-width: 0.6"/>
      </g>
     </g>
    </g>
    <g id="xtick_54">
     <g id="line2d_54">
      <g>
       <use xlink:href="#m1e85595900" x="469.619705" y="368.3955" style="stroke: #000000; stroke-width: 0.6"/>
      </g>
     </g>
    </g>
    <g id="xtick_55">
     <g id="line2d_55">
      <g>
       <use xlink:href="#m1e85595900" x="479.818138" y="368.3955" style="stroke: #000000; stroke-width: 0.6"/>
      </g>
     </g>
    </g>
    <g id="xtick_56">
     <g id="line2d_56">
      <g>
       <use xlink:href="#m1e85595900" x="490.016571" y="368.3955" style="stroke: #000000; stroke-width: 0.6"/>
      </g>
     </g>
    </g>
    <g id="xtick_57">
     <g id="line2d_57">
      <g>
       <use xlink:href="#m1e85595900" x="500.215005" y="368.3955" style="stroke: #000000; stroke-width: 0.6"/>
      </g>
     </g>
    </g>
    <g id="xtick_58">
     <g id="line2d_58">
      <g>
       <use xlink:href="#m1e85595900" x="510.413438" y="368.3955" style="stroke: #000000; stroke-width: 0.6"/>
      </g>
     </g>
    </g>
    <g id="xtick_59">
     <g id="line2d_59">
      <g>
       <use xlink:href="#m1e85595900" x="520.611872" y="368.3955" style="stroke: #000000; stroke-width: 0.6"/>
      </g>
     </g>
    </g>
    <g id="xtick_60">
     <g id="line2d_60">
      <g>
       <use xlink:href="#m1e85595900" x="530.810305" y="368.3955" style="stroke: #000000; stroke-width: 0.6"/>
      </g>
     </g>
    </g>
    <g id="xtick_61">
     <g id="line2d_61">
      <g>
       <use xlink:href="#m1e85595900" x="541.008739" y="368.3955" style="stroke: #000000; stroke-width: 0.6"/>
      </g>
     </g>
    </g>
    <g id="xtick_62">
     <g id="line2d_62">
      <g>
       <use xlink:href="#m1e85595900" x="551.207172" y="368.3955" style="stroke: #000000; stroke-width: 0.6"/>
      </g>
     </g>
    </g>
    <g id="xtick_63">
     <g id="line2d_63">
      <g>
       <use xlink:href="#m1e85595900" x="561.405605" y="368.3955" style="stroke: #000000; stroke-width: 0.6"/>
      </g>
     </g>
    </g>
    <g id="xtick_64">
     <g id="line2d_64">
      <g>
       <use xlink:href="#m1e85595900" x="571.604039" y="368.3955" style="stroke: #000000; stroke-width: 0.6"/>
      </g>
     </g>
    </g>
    <g id="xtick_65">
     <g id="line2d_65">
      <g>
       <use xlink:href="#m1e85595900" x="581.802472" y="368.3955" style="stroke: #000000; stroke-width: 0.6"/>
      </g>
     </g>
    </g>
    <g id="xtick_66">
     <g id="line2d_66">
      <g>
       <use xlink:href="#m1e85595900" x="592.000906" y="368.3955" style="stroke: #000000; stroke-width: 0.6"/>
      </g>
     </g>
    </g>
    <g id="xtick_67">
     <g id="line2d_67">
      <g>
       <use xlink:href="#m1e85595900" x="602.199339" y="368.3955" style="stroke: #000000; stroke-width: 0.6"/>
      </g>
     </g>
    </g>
    <g id="xtick_68">
     <g id="line2d_68">
      <g>
       <use xlink:href="#m1e85595900" x="612.397773" y="368.3955" style="stroke: #000000; stroke-width: 0.6"/>
      </g>
     </g>
    </g>
    <g id="xtick_69">
     <g id="line2d_69">
      <g>
       <use xlink:href="#m1e85595900" x="622.596206" y="368.3955" style="stroke: #000000; stroke-width: 0.6"/>
      </g>
     </g>
    </g>
   </g>
   <g id="matplotlib.axis_2">
    <g id="ytick_1">
     <g id="line2d_70">
      <defs>
       <path id="m1e3d0fe169" d="M 0 0 
L -3.5 0 
" style="stroke: #000000; stroke-width: 0.8"/>
      </defs>
      <g>
       <use xlink:href="#m1e3d0fe169" x="66.053125" y="345.16762" style="stroke: #000000; stroke-width: 0.8"/>
      </g>
     </g>
     <g id="text_14">
      <!-- 60000 -->
      <g transform="translate(27.240625 348.966839) scale(0.1 -0.1)">
       <defs>
        <path id="DejaVuSans-36" d="M 2113 2584 
Q 1688 2584 1439 2293 
Q 1191 2003 1191 1497 
Q 1191 994 1439 701 
Q 1688 409 2113 409 
Q 2538 409 2786 701 
Q 3034 994 3034 1497 
Q 3034 2003 2786 2293 
Q 2538 2584 2113 2584 
z
M 3366 4563 
L 3366 3988 
Q 3128 4100 2886 4159 
Q 2644 4219 2406 4219 
Q 1781 4219 1451 3797 
Q 1122 3375 1075 2522 
Q 1259 2794 1537 2939 
Q 1816 3084 2150 3084 
Q 2853 3084 3261 2657 
Q 3669 2231 3669 1497 
Q 3669 778 3244 343 
Q 2819 -91 2113 -91 
Q 1303 -91 875 529 
Q 447 1150 447 2328 
Q 447 3434 972 4092 
Q 1497 4750 2381 4750 
Q 2619 4750 2861 4703 
Q 3103 4656 3366 4563 
z
" transform="scale(0.015625)"/>
       </defs>
       <use xlink:href="#DejaVuSans-36"/>
       <use xlink:href="#DejaVuSans-30" x="63.623047"/>
       <use xlink:href="#DejaVuSans-30" x="127.246094"/>
       <use xlink:href="#DejaVuSans-30" x="190.869141"/>
       <use xlink:href="#DejaVuSans-30" x="254.492188"/>
      </g>
     </g>
    </g>
    <g id="ytick_2">
     <g id="line2d_71">
      <g>
       <use xlink:href="#m1e3d0fe169" x="66.053125" y="284.904676" style="stroke: #000000; stroke-width: 0.8"/>
      </g>
     </g>
     <g id="text_15">
      <!-- 80000 -->
      <g transform="translate(27.240625 288.703895) scale(0.1 -0.1)">
       <defs>
        <path id="DejaVuSans-38" d="M 2034 2216 
Q 1584 2216 1326 1975 
Q 1069 1734 1069 1313 
Q 1069 891 1326 650 
Q 1584 409 2034 409 
Q 2484 409 2743 651 
Q 3003 894 3003 1313 
Q 3003 1734 2745 1975 
Q 2488 2216 2034 2216 
z
M 1403 2484 
Q 997 2584 770 2862 
Q 544 3141 544 3541 
Q 544 4100 942 4425 
Q 1341 4750 2034 4750 
Q 2731 4750 3128 4425 
Q 3525 4100 3525 3541 
Q 3525 3141 3298 2862 
Q 3072 2584 2669 2484 
Q 3125 2378 3379 2068 
Q 3634 1759 3634 1313 
Q 3634 634 3220 271 
Q 2806 -91 2034 -91 
Q 1263 -91 848 271 
Q 434 634 434 1313 
Q 434 1759 690 2068 
Q 947 2378 1403 2484 
z
M 1172 3481 
Q 1172 3119 1398 2916 
Q 1625 2713 2034 2713 
Q 2441 2713 2670 2916 
Q 2900 3119 2900 3481 
Q 2900 3844 2670 4047 
Q 2441 4250 2034 4250 
Q 1625 4250 1398 4047 
Q 1172 3844 1172 3481 
z
" transform="scale(0.015625)"/>
       </defs>
       <use xlink:href="#DejaVuSans-38"/>
       <use xlink:href="#DejaVuSans-30" x="63.623047"/>
       <use xlink:href="#DejaVuSans-30" x="127.246094"/>
       <use xlink:href="#DejaVuSans-30" x="190.869141"/>
       <use xlink:href="#DejaVuSans-30" x="254.492188"/>
      </g>
     </g>
    </g>
    <g id="ytick_3">
     <g id="line2d_72">
      <g>
       <use xlink:href="#m1e3d0fe169" x="66.053125" y="224.641732" style="stroke: #000000; stroke-width: 0.8"/>
      </g>
     </g>
     <g id="text_16">
      <!-- 100000 -->
      <g transform="translate(20.878125 228.440951) scale(0.1 -0.1)">
       <defs>
        <path id="DejaVuSans-31" d="M 794 531 
L 1825 531 
L 1825 4091 
L 703 3866 
L 703 4441 
L 1819 4666 
L 2450 4666 
L 2450 531 
L 3481 531 
L 3481 0 
L 794 0 
L 794 531 
z
" transform="scale(0.015625)"/>
       </defs>
       <use xlink:href="#DejaVuSans-31"/>
       <use xlink:href="#DejaVuSans-30" x="63.623047"/>
       <use xlink:href="#DejaVuSans-30" x="127.246094"/>
       <use xlink:href="#DejaVuSans-30" x="190.869141"/>
       <use xlink:href="#DejaVuSans-30" x="254.492188"/>
       <use xlink:href="#DejaVuSans-30" x="318.115234"/>
      </g>
     </g>
    </g>
    <g id="ytick_4">
     <g id="line2d_73">
      <g>
       <use xlink:href="#m1e3d0fe169" x="66.053125" y="164.378788" style="stroke: #000000; stroke-width: 0.8"/>
      </g>
     </g>
     <g id="text_17">
      <!-- 120000 -->
      <g transform="translate(20.878125 168.178007) scale(0.1 -0.1)">
       <use xlink:href="#DejaVuSans-31"/>
       <use xlink:href="#DejaVuSans-32" x="63.623047"/>
       <use xlink:href="#DejaVuSans-30" x="127.246094"/>
       <use xlink:href="#DejaVuSans-30" x="190.869141"/>
       <use xlink:href="#DejaVuSans-30" x="254.492188"/>
       <use xlink:href="#DejaVuSans-30" x="318.115234"/>
      </g>
     </g>
    </g>
    <g id="ytick_5">
     <g id="line2d_74">
      <g>
       <use xlink:href="#m1e3d0fe169" x="66.053125" y="104.115844" style="stroke: #000000; stroke-width: 0.8"/>
      </g>
     </g>
     <g id="text_18">
      <!-- 140000 -->
      <g transform="translate(20.878125 107.915063) scale(0.1 -0.1)">
       <defs>
        <path id="DejaVuSans-34" d="M 2419 4116 
L 825 1625 
L 2419 1625 
L 2419 4116 
z
M 2253 4666 
L 3047 4666 
L 3047 1625 
L 3713 1625 
L 3713 1100 
L 3047 1100 
L 3047 0 
L 2419 0 
L 2419 1100 
L 313 1100 
L 313 1709 
L 2253 4666 
z
" transform="scale(0.015625)"/>
       </defs>
       <use xlink:href="#DejaVuSans-31"/>
       <use xlink:href="#DejaVuSans-34" x="63.623047"/>
       <use xlink:href="#DejaVuSans-30" x="127.246094"/>
       <use xlink:href="#DejaVuSans-30" x="190.869141"/>
       <use xlink:href="#DejaVuSans-30" x="254.492188"/>
       <use xlink:href="#DejaVuSans-30" x="318.115234"/>
      </g>
     </g>
    </g>
    <g id="ytick_6">
     <g id="line2d_75">
      <g>
       <use xlink:href="#m1e3d0fe169" x="66.053125" y="43.852901" style="stroke: #000000; stroke-width: 0.8"/>
      </g>
     </g>
     <g id="text_19">
      <!-- 160000 -->
      <g transform="translate(20.878125 47.652119) scale(0.1 -0.1)">
       <use xlink:href="#DejaVuSans-31"/>
       <use xlink:href="#DejaVuSans-36" x="63.623047"/>
       <use xlink:href="#DejaVuSans-30" x="127.246094"/>
       <use xlink:href="#DejaVuSans-30" x="190.869141"/>
       <use xlink:href="#DejaVuSans-30" x="254.492188"/>
       <use xlink:href="#DejaVuSans-30" x="318.115234"/>
      </g>
     </g>
    </g>
    <g id="text_20">
     <!-- Total territory control in km² -->
     <g transform="translate(14.798438 272.248937) rotate(-90) scale(0.1 -0.1)">
      <defs>
       <path id="DejaVuSans-54" d="M -19 4666 
L 3928 4666 
L 3928 4134 
L 2272 4134 
L 2272 0 
L 1638 0 
L 1638 4134 
L -19 4134 
L -19 4666 
z
" transform="scale(0.015625)"/>
       <path id="DejaVuSans-20" transform="scale(0.015625)"/>
       <path id="DejaVuSans-69" d="M 603 3500 
L 1178 3500 
L 1178 0 
L 603 0 
L 603 3500 
z
M 603 4863 
L 1178 4863 
L 1178 4134 
L 603 4134 
L 603 4863 
z
" transform="scale(0.015625)"/>
       <path id="DejaVuSans-6b" d="M 581 4863 
L 1159 4863 
L 1159 1991 
L 2875 3500 
L 3609 3500 
L 1753 1863 
L 3688 0 
L 2938 0 
L 1159 1709 
L 1159 0 
L 581 0 
L 581 4863 
z
" transform="scale(0.015625)"/>
       <path id="DejaVuSans-6d" d="M 3328 2828 
Q 3544 3216 3844 3400 
Q 4144 3584 4550 3584 
Q 5097 3584 5394 3201 
Q 5691 2819 5691 2113 
L 5691 0 
L 5113 0 
L 5113 2094 
Q 5113 2597 4934 2840 
Q 4756 3084 4391 3084 
Q 3944 3084 3684 2787 
Q 3425 2491 3425 1978 
L 3425 0 
L 2847 0 
L 2847 2094 
Q 2847 2600 2669 2842 
Q 2491 3084 2119 3084 
Q 1678 3084 1418 2786 
Q 1159 2488 1159 1978 
L 1159 0 
L 581 0 
L 581 3500 
L 1159 3500 
L 1159 2956 
Q 1356 3278 1631 3431 
Q 1906 3584 2284 3584 
Q 2666 3584 2933 3390 
Q 3200 3197 3328 2828 
z
" transform="scale(0.015625)"/>
       <path id="DejaVuSans-b2" d="M 838 2444 
L 2163 2444 
L 2163 2088 
L 294 2088 
L 294 2431 
Q 400 2528 597 2703 
Q 1672 3656 1672 3950 
Q 1672 4156 1509 4282 
Q 1347 4409 1081 4409 
Q 919 4409 728 4354 
Q 538 4300 313 4191 
L 313 4575 
Q 553 4663 761 4706 
Q 969 4750 1147 4750 
Q 1600 4750 1872 4544 
Q 2144 4338 2144 4000 
Q 2144 3566 1109 2678 
Q 934 2528 838 2444 
z
" transform="scale(0.015625)"/>
      </defs>
      <use xlink:href="#DejaVuSans-54"/>
      <use xlink:href="#DejaVuSans-6f" x="44.083984"/>
      <use xlink:href="#DejaVuSans-74" x="105.265625"/>
      <use xlink:href="#DejaVuSans-61" x="144.474609"/>
      <use xlink:href="#DejaVuSans-6c" x="205.753906"/>
      <use xlink:href="#DejaVuSans-20" x="233.537109"/>
      <use xlink:href="#DejaVuSans-74" x="265.324219"/>
      <use xlink:href="#DejaVuSans-65" x="304.533203"/>
      <use xlink:href="#DejaVuSans-72" x="366.056641"/>
      <use xlink:href="#DejaVuSans-72" x="405.419922"/>
      <use xlink:href="#DejaVuSans-69" x="446.533203"/>
      <use xlink:href="#DejaVuSans-74" x="474.316406"/>
      <use xlink:href="#DejaVuSans-6f" x="513.525391"/>
      <use xlink:href="#DejaVuSans-72" x="574.707031"/>
      <use xlink:href="#DejaVuSans-79" x="615.820312"/>
      <use xlink:href="#DejaVuSans-20" x="675"/>
      <use xlink:href="#DejaVuSans-63" x="706.787109"/>
      <use xlink:href="#DejaVuSans-6f" x="761.767578"/>
      <use xlink:href="#DejaVuSans-6e" x="822.949219"/>
      <use xlink:href="#DejaVuSans-74" x="886.328125"/>
      <use xlink:href="#DejaVuSans-72" x="925.537109"/>
      <use xlink:href="#DejaVuSans-6f" x="964.400391"/>
      <use xlink:href="#DejaVuSans-6c" x="1025.582031"/>
      <use xlink:href="#DejaVuSans-20" x="1053.365234"/>
      <use xlink:href="#DejaVuSans-69" x="1085.152344"/>
      <use xlink:href="#DejaVuSans-6e" x="1112.935547"/>
      <use xlink:href="#DejaVuSans-20" x="1176.314453"/>
      <use xlink:href="#DejaVuSans-6b" x="1208.101562"/>
      <use xlink:href="#DejaVuSans-6d" x="1266.011719"/>
      <use xlink:href="#DejaVuSans-b2" x="1363.423828"/>
     </g>
    </g>
   </g>
   <g id="line2d_76">
    <path d="M 66.053125 314.44257 
L 67.510044 308.751314 
L 68.966963 283.288707 
L 70.423882 271.318721 
L 71.880801 269.939764 
L 73.33772 269.939764 
L 74.794639 264.303224 
L 76.251558 250.119814 
L 77.708477 250.119814 
L 79.165397 235.666605 
L 80.622316 225.049714 
L 82.079235 223.184716 
L 84.993073 217.382566 
L 86.449992 213.741358 
L 87.906911 214.081473 
L 89.36383 213.129619 
L 90.820749 213.463018 
L 92.277668 191.854586 
L 93.734587 188.363186 
L 95.191506 187.98025 
L 96.648425 168.274636 
L 98.105344 100.763254 
L 99.562263 100.763254 
L 101.019182 102.136303 
L 102.476102 102.410858 
L 105.38994 102.438772 
L 106.846859 104.734856 
L 108.303778 72.272155 
L 109.760697 68.003883 
L 111.217616 71.220975 
L 112.674535 63.507931 
L 115.588373 63.517031 
L 117.045292 64.103085 
L 118.502211 68.465782 
L 119.95913 69.176049 
L 121.416049 111.618874 
L 122.872968 138.761777 
L 124.329887 155.238041 
L 125.786806 154.221137 
L 128.700645 154.25106 
L 130.157564 153.648798 
L 131.614483 154.214954 
L 134.528321 154.208175 
L 135.98524 154.520934 
L 137.442159 157.792983 
L 140.355997 157.792983 
L 141.812916 156.995745 
L 143.269835 156.631476 
L 144.726754 156.969519 
L 147.640592 156.866564 
L 149.097511 155.729285 
L 150.55443 155.729285 
L 152.01135 154.780985 
L 153.468269 155.871553 
L 154.925188 156.422399 
L 156.382107 155.964369 
L 157.839026 155.665977 
L 162.209783 155.923488 
L 163.666702 155.923488 
L 165.123621 156.354997 
L 168.037459 156.396531 
L 169.494378 156.760714 
L 170.951297 156.760714 
L 172.408216 156.225799 
L 173.865135 156.61949 
L 176.778974 156.695985 
L 178.235893 156.415013 
L 179.692812 155.929304 
L 188.434326 155.94269 
L 189.891245 155.518925 
L 192.805083 155.419669 
L 194.262002 155.049489 
L 195.718921 154.447541 
L 197.17584 154.345243 
L 198.632759 153.68413 
L 200.089679 153.544742 
L 204.460436 153.620443 
L 208.831193 153.796156 
L 210.288112 153.681258 
L 216.115788 153.703808 
L 217.572707 154.044 
L 220.486545 154.044 
L 221.943464 153.848568 
L 224.857303 153.737622 
L 226.314222 153.435695 
L 233.598817 153.433905 
L 235.055736 153.616275 
L 236.512655 153.354001 
L 237.969574 153.354001 
L 239.426493 152.808892 
L 240.883412 153.304356 
L 242.340331 153.304356 
L 243.79725 152.965811 
L 246.711088 152.855758 
L 249.624927 152.855758 
L 251.081846 152.711051 
L 253.995684 152.214001 
L 265.651036 152.267932 
L 268.564874 152.378379 
L 271.478712 152.378379 
L 272.935632 152.184563 
L 284.590984 152.12592 
L 288.961741 152.009207 
L 297.703256 151.99959 
L 299.160175 151.739896 
L 300.617094 151.652157 
L 302.074013 151.833932 
L 306.44477 151.833932 
L 307.901689 151.956193 
L 310.815527 151.844861 
L 325.384718 151.844861 
L 326.841637 150.123355 
L 328.298556 150.123355 
L 329.755475 149.893678 
L 332.669313 149.893678 
L 334.126232 149.577932 
L 341.410827 149.565755 
L 342.867746 150.126799 
L 345.781585 150.156568 
L 348.695423 150.716037 
L 350.152342 151.379774 
L 351.609261 155.0552 
L 353.06618 155.0552 
L 355.980018 176.344115 
L 358.893856 176.344115 
L 360.350775 176.480176 
L 366.178451 176.555093 
L 367.63537 177.148147 
L 369.092289 177.365727 
L 370.549209 177.365727 
L 373.463047 177.746052 
L 374.919966 177.746052 
L 380.747642 178.643038 
L 382.204561 178.701437 
L 383.66148 179.694474 
L 385.118399 179.694474 
L 386.575318 182.248811 
L 388.032237 186.845066 
L 389.489156 189.772792 
L 390.946075 190.265809 
L 395.316833 190.206599 
L 396.773752 190.725924 
L 399.68759 190.76667 
L 401.144509 190.883488 
L 406.972185 190.958551 
L 408.429104 189.993314 
L 409.886023 189.920081 
L 411.342942 189.476036 
L 420.084457 189.501743 
L 422.998295 189.594156 
L 431.739809 189.649203 
L 433.196728 189.903864 
L 441.938242 189.856551 
L 443.395162 193.204891 
L 444.852081 202.462891 
L 446.309 201.193328 
L 449.222838 201.098475 
L 468.162786 201.038579 
L 471.076624 200.962643 
L 478.361219 201.277082 
L 501.671924 201.277082 
L 503.128843 201.419969 
L 513.327276 201.41293 
L 514.784195 201.574095 
L 517.698034 201.574095 
L 519.154953 201.8566 
L 533.724143 201.793431 
L 539.55182 201.663641 
L 545.379496 201.657309 
L 546.836415 201.466004 
L 551.207172 201.466004 
L 552.664091 201.600871 
L 561.405605 201.519 
L 573.060958 201.519 
L 574.517877 201.372705 
L 575.974796 200.91835 
L 578.888634 200.91835 
L 580.345553 200.397223 
L 600.74242 200.303252 
L 612.397773 200.173538 
L 618.225449 200.152052 
L 618.225449 200.152052 
" clip-path="url(#pe37a7ed254)" style="fill: none; stroke: #1f77b4; stroke-width: 1.5; stroke-linecap: square"/>
   </g>
   <g id="line2d_77">
    <path d="M 66.053125 353.2755 
L 67.510044 304.155788 
L 68.966963 279.440226 
L 70.423882 267.383394 
L 71.880801 267.383394 
L 73.33772 263.422544 
L 74.794639 261.44632 
L 76.251558 246.289872 
L 77.708477 246.331884 
L 79.165397 232.770256 
L 83.536154 232.770256 
L 84.993073 212.847881 
L 86.449992 209.631931 
L 87.906911 208.7799 
L 92.277668 208.7799 
L 93.734587 182.412199 
L 95.191506 186.992964 
L 103.933021 186.992964 
L 105.38994 94.843272 
L 106.846859 96.782236 
L 108.303778 100.10915 
L 109.760697 56.740004 
L 114.131454 56.740004 
L 115.588373 50.8755 
L 118.502211 50.8755 
L 119.95913 54.823214 
L 122.872968 54.823214 
L 124.329887 51.966034 
L 125.786806 146.316268 
L 130.157564 146.316268 
L 131.614483 144.449396 
L 134.528321 144.449396 
L 135.98524 145.284757 
L 140.355997 145.284651 
L 141.812916 148.104816 
L 144.726754 148.104816 
L 146.183673 147.509319 
L 150.55443 147.504196 
L 152.01135 145.968581 
L 153.468269 145.968581 
L 154.925188 145.030327 
L 159.295945 145.030327 
L 160.752864 145.99603 
L 162.209783 145.99603 
L 163.666702 147.01589 
L 169.494378 146.979712 
L 170.951297 147.373845 
L 176.778974 147.295347 
L 178.235893 147.53651 
L 181.149731 147.53651 
L 182.60665 146.950543 
L 189.891245 146.877801 
L 191.348164 146.238825 
L 200.089679 146.238825 
L 201.546598 144.646815 
L 207.374274 144.646815 
L 208.831193 144.372198 
L 213.20195 144.372198 
L 214.658869 144.783348 
L 221.943464 144.805898 
L 223.400383 144.354471 
L 227.771141 144.354471 
L 229.22806 144.504114 
L 237.969574 144.504114 
L 239.426493 144.00901 
L 243.79725 144.00901 
L 245.254169 143.499026 
L 246.711088 143.499026 
L 248.168008 143.957654 
L 251.081846 143.957654 
L 252.538765 143.812051 
L 256.909522 143.812051 
L 258.366441 143.100573 
L 259.82336 143.100573 
L 261.280279 143.371817 
L 283.134065 143.288449 
L 286.047903 143.229805 
L 303.530932 143.229805 
L 304.987851 142.476976 
L 309.358608 142.476976 
L 310.815527 142.798078 
L 312.272446 142.798078 
L 313.729365 142.949978 
L 328.298556 142.949978 
L 329.755475 140.778021 
L 338.496989 140.683211 
L 344.324665 140.653294 
L 347.238504 140.671123 
L 348.695423 141.261817 
L 350.152342 141.261817 
L 351.609261 141.537366 
L 354.523099 141.537366 
L 355.980018 142.450467 
L 367.63537 142.450467 
L 369.092289 167.59993 
L 374.919966 167.59993 
L 376.376885 168.405612 
L 382.204561 168.405612 
L 383.66148 169.175151 
L 386.575318 169.175151 
L 388.032237 170.994451 
L 392.402994 170.994451 
L 393.859914 178.091487 
L 395.316833 178.091487 
L 396.773752 181.512237 
L 398.230671 181.512237 
L 399.68759 182.031562 
L 415.713699 182.072308 
L 417.170618 182.190885 
L 441.938242 182.204686 
L 443.395162 182.519761 
L 447.765919 182.519761 
L 449.222838 180.705405 
L 450.679757 180.705405 
L 452.136676 193.920148 
L 476.9043 193.860262 
L 478.361219 193.750734 
L 479.818138 194.098871 
L 508.956519 194.098215 
L 510.413438 194.241757 
L 523.52571 194.201864 
L 527.896467 194.6785 
L 530.810305 194.6785 
L 532.267224 194.463832 
L 545.379496 194.463832 
L 546.836415 194.322784 
L 552.664091 194.322784 
L 554.12101 194.203942 
L 562.862524 194.203942 
L 564.319444 194.340832 
L 574.517877 194.340832 
L 575.974796 193.74034 
L 580.345553 193.74034 
L 581.802472 193.083493 
L 624.053125 192.974473 
L 624.053125 192.974473 
" clip-path="url(#pe37a7ed254)" style="fill: none; stroke: #ff7f0e; stroke-width: 1.5; stroke-linecap: square"/>
   </g>
   <g id="patch_3">
    <path d="M 66.053125 368.3955 
L 66.053125 35.7555 
" style="fill: none; stroke: #000000; stroke-width: 0.8; stroke-linejoin: miter; stroke-linecap: square"/>
   </g>
   <g id="patch_4">
    <path d="M 624.053125 368.3955 
L 624.053125 35.7555 
" style="fill: none; stroke: #000000; stroke-width: 0.8; stroke-linejoin: miter; stroke-linecap: square"/>
   </g>
   <g id="patch_5">
    <path d="M 66.053125 368.3955 
L 624.053125 368.3955 
" style="fill: none; stroke: #000000; stroke-width: 0.8; stroke-linejoin: miter; stroke-linecap: square"/>
   </g>
   <g id="patch_6">
    <path d="M 66.053125 35.7555 
L 624.053125 35.7555 
" style="fill: none; stroke: #000000; stroke-width: 0.8; stroke-linejoin: miter; stroke-linecap: square"/>
   </g>
   <g id="text_21">
    <!-- Comparison of assessed Russian territory control, liveuamap vs NZZ. -->
    <g transform="translate(137.658438 16.318125) scale(0.12 -0.12)">
     <defs>
      <path id="DejaVuSans-43" d="M 4122 4306 
L 4122 3641 
Q 3803 3938 3442 4084 
Q 3081 4231 2675 4231 
Q 1875 4231 1450 3742 
Q 1025 3253 1025 2328 
Q 1025 1406 1450 917 
Q 1875 428 2675 428 
Q 3081 428 3442 575 
Q 3803 722 4122 1019 
L 4122 359 
Q 3791 134 3420 21 
Q 3050 -91 2638 -91 
Q 1578 -91 968 557 
Q 359 1206 359 2328 
Q 359 3453 968 4101 
Q 1578 4750 2638 4750 
Q 3056 4750 3426 4639 
Q 3797 4528 4122 4306 
z
" transform="scale(0.015625)"/>
      <path id="DejaVuSans-73" d="M 2834 3397 
L 2834 2853 
Q 2591 2978 2328 3040 
Q 2066 3103 1784 3103 
Q 1356 3103 1142 2972 
Q 928 2841 928 2578 
Q 928 2378 1081 2264 
Q 1234 2150 1697 2047 
L 1894 2003 
Q 2506 1872 2764 1633 
Q 3022 1394 3022 966 
Q 3022 478 2636 193 
Q 2250 -91 1575 -91 
Q 1294 -91 989 -36 
Q 684 19 347 128 
L 347 722 
Q 666 556 975 473 
Q 1284 391 1588 391 
Q 1994 391 2212 530 
Q 2431 669 2431 922 
Q 2431 1156 2273 1281 
Q 2116 1406 1581 1522 
L 1381 1569 
Q 847 1681 609 1914 
Q 372 2147 372 2553 
Q 372 3047 722 3315 
Q 1072 3584 1716 3584 
Q 2034 3584 2315 3537 
Q 2597 3491 2834 3397 
z
" transform="scale(0.015625)"/>
      <path id="DejaVuSans-66" d="M 2375 4863 
L 2375 4384 
L 1825 4384 
Q 1516 4384 1395 4259 
Q 1275 4134 1275 3809 
L 1275 3500 
L 2222 3500 
L 2222 3053 
L 1275 3053 
L 1275 0 
L 697 0 
L 697 3053 
L 147 3053 
L 147 3500 
L 697 3500 
L 697 3744 
Q 697 4328 969 4595 
Q 1241 4863 1831 4863 
L 2375 4863 
z
" transform="scale(0.015625)"/>
      <path id="DejaVuSans-64" d="M 2906 2969 
L 2906 4863 
L 3481 4863 
L 3481 0 
L 2906 0 
L 2906 525 
Q 2725 213 2448 61 
Q 2172 -91 1784 -91 
Q 1150 -91 751 415 
Q 353 922 353 1747 
Q 353 2572 751 3078 
Q 1150 3584 1784 3584 
Q 2172 3584 2448 3432 
Q 2725 3281 2906 2969 
z
M 947 1747 
Q 947 1113 1208 752 
Q 1469 391 1925 391 
Q 2381 391 2643 752 
Q 2906 1113 2906 1747 
Q 2906 2381 2643 2742 
Q 2381 3103 1925 3103 
Q 1469 3103 1208 2742 
Q 947 2381 947 1747 
z
" transform="scale(0.015625)"/>
      <path id="DejaVuSans-52" d="M 2841 2188 
Q 3044 2119 3236 1894 
Q 3428 1669 3622 1275 
L 4263 0 
L 3584 0 
L 2988 1197 
Q 2756 1666 2539 1819 
Q 2322 1972 1947 1972 
L 1259 1972 
L 1259 0 
L 628 0 
L 628 4666 
L 2053 4666 
Q 2853 4666 3247 4331 
Q 3641 3997 3641 3322 
Q 3641 2881 3436 2590 
Q 3231 2300 2841 2188 
z
M 1259 4147 
L 1259 2491 
L 2053 2491 
Q 2509 2491 2742 2702 
Q 2975 2913 2975 3322 
Q 2975 3731 2742 3939 
Q 2509 4147 2053 4147 
L 1259 4147 
z
" transform="scale(0.015625)"/>
      <path id="DejaVuSans-2c" d="M 750 794 
L 1409 794 
L 1409 256 
L 897 -744 
L 494 -744 
L 750 256 
L 750 794 
z
" transform="scale(0.015625)"/>
      <path id="DejaVuSans-5a" d="M 359 4666 
L 4025 4666 
L 4025 4184 
L 1075 531 
L 4097 531 
L 4097 0 
L 288 0 
L 288 481 
L 3238 4134 
L 359 4134 
L 359 4666 
z
" transform="scale(0.015625)"/>
      <path id="DejaVuSans-2e" d="M 684 794 
L 1344 794 
L 1344 0 
L 684 0 
L 684 794 
z
" transform="scale(0.015625)"/>
     </defs>
     <use xlink:href="#DejaVuSans-43"/>
     <use xlink:href="#DejaVuSans-6f" x="69.824219"/>
     <use xlink:href="#DejaVuSans-6d" x="131.005859"/>
     <use xlink:href="#DejaVuSans-70" x="228.417969"/>
     <use xlink:href="#DejaVuSans-61" x="291.894531"/>
     <use xlink:href="#DejaVuSans-72" x="353.173828"/>
     <use xlink:href="#DejaVuSans-69" x="394.287109"/>
     <use xlink:href="#DejaVuSans-73" x="422.070312"/>
     <use xlink:href="#DejaVuSans-6f" x="474.169922"/>
     <use xlink:href="#DejaVuSans-6e" x="535.351562"/>
     <use xlink:href="#DejaVuSans-20" x="598.730469"/>
     <use xlink:href="#DejaVuSans-6f" x="630.517578"/>
     <use xlink:href="#DejaVuSans-66" x="691.699219"/>
     <use xlink:href="#DejaVuSans-20" x="726.904297"/>
     <use xlink:href="#DejaVuSans-61" x="758.691406"/>
     <use xlink:href="#DejaVuSans-73" x="819.970703"/>
     <use xlink:href="#DejaVuSans-73" x="872.070312"/>
     <use xlink:href="#DejaVuSans-65" x="924.169922"/>
     <use xlink:href="#DejaVuSans-73" x="985.693359"/>
     <use xlink:href="#DejaVuSans-73" x="1037.792969"/>
     <use xlink:href="#DejaVuSans-65" x="1089.892578"/>
     <use xlink:href="#DejaVuSans-64" x="1151.416016"/>
     <use xlink:href="#DejaVuSans-20" x="1214.892578"/>
     <use xlink:href="#DejaVuSans-52" x="1246.679688"/>
     <use xlink:href="#DejaVuSans-75" x="1311.662109"/>
     <use xlink:href="#DejaVuSans-73" x="1375.041016"/>
     <use xlink:href="#DejaVuSans-73" x="1427.140625"/>
     <use xlink:href="#DejaVuSans-69" x="1479.240234"/>
     <use xlink:href="#DejaVuSans-61" x="1507.023438"/>
     <use xlink:href="#DejaVuSans-6e" x="1568.302734"/>
     <use xlink:href="#DejaVuSans-20" x="1631.681641"/>
     <use xlink:href="#DejaVuSans-74" x="1663.46875"/>
     <use xlink:href="#DejaVuSans-65" x="1702.677734"/>
     <use xlink:href="#DejaVuSans-72" x="1764.201172"/>
     <use xlink:href="#DejaVuSans-72" x="1803.564453"/>
     <use xlink:href="#DejaVuSans-69" x="1844.677734"/>
     <use xlink:href="#DejaVuSans-74" x="1872.460938"/>
     <use xlink:href="#DejaVuSans-6f" x="1911.669922"/>
     <use xlink:href="#DejaVuSans-72" x="1972.851562"/>
     <use xlink:href="#DejaVuSans-79" x="2013.964844"/>
     <use xlink:href="#DejaVuSans-20" x="2073.144531"/>
     <use xlink:href="#DejaVuSans-63" x="2104.931641"/>
     <use xlink:href="#DejaVuSans-6f" x="2159.912109"/>
     <use xlink:href="#DejaVuSans-6e" x="2221.09375"/>
     <use xlink:href="#DejaVuSans-74" x="2284.472656"/>
     <use xlink:href="#DejaVuSans-72" x="2323.681641"/>
     <use xlink:href="#DejaVuSans-6f" x="2362.544922"/>
     <use xlink:href="#DejaVuSans-6c" x="2423.726562"/>
     <use xlink:href="#DejaVuSans-2c" x="2451.509766"/>
     <use xlink:href="#DejaVuSans-20" x="2483.296875"/>
     <use xlink:href="#DejaVuSans-6c" x="2515.083984"/>
     <use xlink:href="#DejaVuSans-69" x="2542.867188"/>
     <use xlink:href="#DejaVuSans-76" x="2570.650391"/>
     <use xlink:href="#DejaVuSans-65" x="2629.830078"/>
     <use xlink:href="#DejaVuSans-75" x="2691.353516"/>
     <use xlink:href="#DejaVuSans-61" x="2754.732422"/>
     <use xlink:href="#DejaVuSans-6d" x="2816.011719"/>
     <use xlink:href="#DejaVuSans-61" x="2913.423828"/>
     <use xlink:href="#DejaVuSans-70" x="2974.703125"/>
     <use xlink:href="#DejaVuSans-20" x="3038.179688"/>
     <use xlink:href="#DejaVuSans-76" x="3069.966797"/>
     <use xlink:href="#DejaVuSans-73" x="3129.146484"/>
     <use xlink:href="#DejaVuSans-20" x="3181.246094"/>
     <use xlink:href="#DejaVuSans-4e" x="3213.033203"/>
     <use xlink:href="#DejaVuSans-5a" x="3287.837891"/>
     <use xlink:href="#DejaVuSans-5a" x="3356.34375"/>
     <use xlink:href="#DejaVuSans-2e" x="3424.849609"/>
    </g>
    <!-- NZZ data adjusted for Crimea -->
    <g transform="translate(255.481563 29.7555) scale(0.12 -0.12)">
     <defs>
      <path id="DejaVuSans-6a" d="M 603 3500 
L 1178 3500 
L 1178 -63 
Q 1178 -731 923 -1031 
Q 669 -1331 103 -1331 
L -116 -1331 
L -116 -844 
L 38 -844 
Q 366 -844 484 -692 
Q 603 -541 603 -63 
L 603 3500 
z
M 603 4863 
L 1178 4863 
L 1178 4134 
L 603 4134 
L 603 4863 
z
" transform="scale(0.015625)"/>
     </defs>
     <use xlink:href="#DejaVuSans-4e"/>
     <use xlink:href="#DejaVuSans-5a" x="74.804688"/>
     <use xlink:href="#DejaVuSans-5a" x="143.310547"/>
     <use xlink:href="#DejaVuSans-20" x="211.816406"/>
     <use xlink:href="#DejaVuSans-64" x="243.603516"/>
     <use xlink:href="#DejaVuSans-61" x="307.080078"/>
     <use xlink:href="#DejaVuSans-74" x="368.359375"/>
     <use xlink:href="#DejaVuSans-61" x="407.568359"/>
     <use xlink:href="#DejaVuSans-20" x="468.847656"/>
     <use xlink:href="#DejaVuSans-61" x="500.634766"/>
     <use xlink:href="#DejaVuSans-64" x="561.914062"/>
     <use xlink:href="#DejaVuSans-6a" x="625.390625"/>
     <use xlink:href="#DejaVuSans-75" x="653.173828"/>
     <use xlink:href="#DejaVuSans-73" x="716.552734"/>
     <use xlink:href="#DejaVuSans-74" x="768.652344"/>
     <use xlink:href="#DejaVuSans-65" x="807.861328"/>
     <use xlink:href="#DejaVuSans-64" x="869.384766"/>
     <use xlink:href="#DejaVuSans-20" x="932.861328"/>
     <use xlink:href="#DejaVuSans-66" x="964.648438"/>
     <use xlink:href="#DejaVuSans-6f" x="999.853516"/>
     <use xlink:href="#DejaVuSans-72" x="1061.035156"/>
     <use xlink:href="#DejaVuSans-20" x="1102.148438"/>
     <use xlink:href="#DejaVuSans-43" x="1133.935547"/>
     <use xlink:href="#DejaVuSans-72" x="1203.759766"/>
     <use xlink:href="#DejaVuSans-69" x="1244.873047"/>
     <use xlink:href="#DejaVuSans-6d" x="1272.65625"/>
     <use xlink:href="#DejaVuSans-65" x="1370.068359"/>
     <use xlink:href="#DejaVuSans-61" x="1431.591797"/>
    </g>
   </g>
   <g id="legend_1">
    <g id="patch_7">
     <path d="M 532.742188 73.11175 
L 617.053125 73.11175 
Q 619.053125 73.11175 619.053125 71.11175 
L 619.053125 42.7555 
Q 619.053125 40.7555 617.053125 40.7555 
L 532.742188 40.7555 
Q 530.742188 40.7555 530.742188 42.7555 
L 530.742188 71.11175 
Q 530.742188 73.11175 532.742188 73.11175 
z
" style="fill: #ffffff; opacity: 0.8; stroke: #cccccc; stroke-linejoin: miter"/>
    </g>
    <g id="line2d_78">
     <path d="M 534.742188 48.853937 
L 544.742188 48.853937 
L 554.742188 48.853937 
" style="fill: none; stroke: #1f77b4; stroke-width: 1.5; stroke-linecap: square"/>
    </g>
    <g id="text_22">
     <!-- liveuamap -->
     <g transform="translate(562.742188 52.353937) scale(0.1 -0.1)">
      <use xlink:href="#DejaVuSans-6c"/>
      <use xlink:href="#DejaVuSans-69" x="27.783203"/>
      <use xlink:href="#DejaVuSans-76" x="55.566406"/>
      <use xlink:href="#DejaVuSans-65" x="114.746094"/>
      <use xlink:href="#DejaVuSans-75" x="176.269531"/>
      <use xlink:href="#DejaVuSans-61" x="239.648438"/>
      <use xlink:href="#DejaVuSans-6d" x="300.927734"/>
      <use xlink:href="#DejaVuSans-61" x="398.339844"/>
      <use xlink:href="#DejaVuSans-70" x="459.619141"/>
     </g>
    </g>
    <g id="line2d_79">
     <path d="M 534.742188 63.532062 
L 544.742188 63.532062 
L 554.742188 63.532062 
" style="fill: none; stroke: #ff7f0e; stroke-width: 1.5; stroke-linecap: square"/>
    </g>
    <g id="text_23">
     <!-- NZZ -->
     <g transform="translate(562.742188 67.032062) scale(0.1 -0.1)">
      <use xlink:href="#DejaVuSans-4e"/>
      <use xlink:href="#DejaVuSans-5a" x="74.804688"/>
      <use xlink:href="#DejaVuSans-5a" x="143.310547"/>
     </g>
    </g>
   </g>
  </g>
 </g>
 <defs>
  <clipPath id="pe37a7ed254">
   <rect x="66.053125" y="35.7555" width="558" height="332.64"/>
  </clipPath>
 </defs>
</svg>
