<?xml version="1.0" encoding="utf-8" standalone="no"?>
<!DOCTYPE svg PUBLIC "-//W3C//DTD SVG 1.1//EN"
  "http://www.w3.org/Graphics/SVG/1.1/DTD/svg11.dtd">
<svg xmlns:xlink="http://www.w3.org/1999/xlink" width="623.8925pt" height="354.795406pt" viewBox="0 0 623.8925 354.795406" xmlns="http://www.w3.org/2000/svg" version="1.1">
 <metadata>
  <rdf:RDF xmlns:dc="http://purl.org/dc/elements/1.1/" xmlns:cc="http://creativecommons.org/ns#" xmlns:rdf="http://www.w3.org/1999/02/22-rdf-syntax-ns#">
   <cc:Work>
    <dc:type rdf:resource="http://purl.org/dc/dcmitype/StillImage"/>
    <dc:date>2023-03-26T21:25:33.009326</dc:date>
    <dc:format>image/svg+xml</dc:format>
    <dc:creator>
     <cc:Agent>
      <dc:title>Matplotlib v3.6.2, https://matplotlib.org/</dc:title>
     </cc:Agent>
    </dc:creator>
   </cc:Work>
  </rdf:RDF>
 </metadata>
 <defs>
  <style type="text/css">*{stroke-linejoin: round; stroke-linecap: butt}</style>
 </defs>
 <g id="figure_1">
  <g id="patch_1">
   <path d="M 0 354.795406 
L 623.8925 354.795406 
L 623.8925 0 
L 0 0 
z
" style="fill: #ffffff"/>
  </g>
  <g id="axes_1">
   <g id="patch_2">
    <path d="M 58.6925 299.518125 
L 616.6925 299.518125 
L 616.6925 22.318125 
L 58.6925 22.318125 
z
" style="fill: #eaeaf2"/>
   </g>
   <g id="matplotlib.axis_1">
    <g id="xtick_1">
     <g id="line2d_1">
      <path d="M 58.6925 299.518125 
L 58.6925 22.318125 
" clip-path="url(#pe7b72733c4)" style="fill: none; stroke: #ffffff; stroke-linecap: round"/>
     </g>
    </g>
    <g id="xtick_2">
     <g id="line2d_2">
      <path d="M 65.977095 299.518125 
L 65.977095 22.318125 
" clip-path="url(#pe7b72733c4)" style="fill: none; stroke: #ffffff; stroke-linecap: round"/>
     </g>
     <g id="text_1">
      <!-- Mar -->
      <g style="fill: #262626" transform="translate(55.600142 317.376406) scale(0.11 -0.11)">
       <defs>
        <path id="DejaVuSans-4d" d="M 628 4666 
L 1569 4666 
L 2759 1491 
L 3956 4666 
L 4897 4666 
L 4897 0 
L 4281 0 
L 4281 4097 
L 3078 897 
L 2444 897 
L 1241 4097 
L 1241 0 
L 628 0 
L 628 4666 
z
" transform="scale(0.015625)"/>
        <path id="DejaVuSans-61" d="M 2194 1759 
Q 1497 1759 1228 1600 
Q 959 1441 959 1056 
Q 959 750 1161 570 
Q 1363 391 1709 391 
Q 2188 391 2477 730 
Q 2766 1069 2766 1631 
L 2766 1759 
L 2194 1759 
z
M 3341 1997 
L 3341 0 
L 2766 0 
L 2766 531 
Q 2569 213 2275 61 
Q 1981 -91 1556 -91 
Q 1019 -91 701 211 
Q 384 513 384 1019 
Q 384 1609 779 1909 
Q 1175 2209 1959 2209 
L 2766 2209 
L 2766 2266 
Q 2766 2663 2505 2880 
Q 2244 3097 1772 3097 
Q 1472 3097 1187 3025 
Q 903 2953 641 2809 
L 641 3341 
Q 956 3463 1253 3523 
Q 1550 3584 1831 3584 
Q 2591 3584 2966 3190 
Q 3341 2797 3341 1997 
z
" transform="scale(0.015625)"/>
        <path id="DejaVuSans-72" d="M 2631 2963 
Q 2534 3019 2420 3045 
Q 2306 3072 2169 3072 
Q 1681 3072 1420 2755 
Q 1159 2438 1159 1844 
L 1159 0 
L 581 0 
L 581 3500 
L 1159 3500 
L 1159 2956 
Q 1341 3275 1631 3429 
Q 1922 3584 2338 3584 
Q 2397 3584 2469 3576 
Q 2541 3569 2628 3553 
L 2631 2963 
z
" transform="scale(0.015625)"/>
       </defs>
       <use xlink:href="#DejaVuSans-4d"/>
       <use xlink:href="#DejaVuSans-61" x="86.279297"/>
       <use xlink:href="#DejaVuSans-72" x="147.558594"/>
      </g>
     </g>
    </g>
    <g id="xtick_3">
     <g id="line2d_3">
      <path d="M 111.141586 299.518125 
L 111.141586 22.318125 
" clip-path="url(#pe7b72733c4)" style="fill: none; stroke: #ffffff; stroke-linecap: round"/>
     </g>
     <g id="text_2">
      <!-- Apr -->
      <g style="fill: #262626" transform="translate(101.626586 317.376406) scale(0.11 -0.11)">
       <defs>
        <path id="DejaVuSans-41" d="M 2188 4044 
L 1331 1722 
L 3047 1722 
L 2188 4044 
z
M 1831 4666 
L 2547 4666 
L 4325 0 
L 3669 0 
L 3244 1197 
L 1141 1197 
L 716 0 
L 50 0 
L 1831 4666 
z
" transform="scale(0.015625)"/>
        <path id="DejaVuSans-70" d="M 1159 525 
L 1159 -1331 
L 581 -1331 
L 581 3500 
L 1159 3500 
L 1159 2969 
Q 1341 3281 1617 3432 
Q 1894 3584 2278 3584 
Q 2916 3584 3314 3078 
Q 3713 2572 3713 1747 
Q 3713 922 3314 415 
Q 2916 -91 2278 -91 
Q 1894 -91 1617 61 
Q 1341 213 1159 525 
z
M 3116 1747 
Q 3116 2381 2855 2742 
Q 2594 3103 2138 3103 
Q 1681 3103 1420 2742 
Q 1159 2381 1159 1747 
Q 1159 1113 1420 752 
Q 1681 391 2138 391 
Q 2594 391 2855 752 
Q 3116 1113 3116 1747 
z
" transform="scale(0.015625)"/>
       </defs>
       <use xlink:href="#DejaVuSans-41"/>
       <use xlink:href="#DejaVuSans-70" x="68.408203"/>
       <use xlink:href="#DejaVuSans-72" x="131.884766"/>
      </g>
     </g>
    </g>
    <g id="xtick_4">
     <g id="line2d_4">
      <path d="M 154.849158 299.518125 
L 154.849158 22.318125 
" clip-path="url(#pe7b72733c4)" style="fill: none; stroke: #ffffff; stroke-linecap: round"/>
     </g>
     <g id="text_3">
      <!-- May -->
      <g style="fill: #262626" transform="translate(143.477908 317.376406) scale(0.11 -0.11)">
       <defs>
        <path id="DejaVuSans-79" d="M 2059 -325 
Q 1816 -950 1584 -1140 
Q 1353 -1331 966 -1331 
L 506 -1331 
L 506 -850 
L 844 -850 
Q 1081 -850 1212 -737 
Q 1344 -625 1503 -206 
L 1606 56 
L 191 3500 
L 800 3500 
L 1894 763 
L 2988 3500 
L 3597 3500 
L 2059 -325 
z
" transform="scale(0.015625)"/>
       </defs>
       <use xlink:href="#DejaVuSans-4d"/>
       <use xlink:href="#DejaVuSans-61" x="86.279297"/>
       <use xlink:href="#DejaVuSans-79" x="147.558594"/>
      </g>
     </g>
    </g>
    <g id="xtick_5">
     <g id="line2d_5">
      <path d="M 200.013649 299.518125 
L 200.013649 22.318125 
" clip-path="url(#pe7b72733c4)" style="fill: none; stroke: #ffffff; stroke-linecap: round"/>
     </g>
     <g id="text_4">
      <!-- Jun -->
      <g style="fill: #262626" transform="translate(191.419899 317.376406) scale(0.11 -0.11)">
       <defs>
        <path id="DejaVuSans-4a" d="M 628 4666 
L 1259 4666 
L 1259 325 
Q 1259 -519 939 -900 
Q 619 -1281 -91 -1281 
L -331 -1281 
L -331 -750 
L -134 -750 
Q 284 -750 456 -515 
Q 628 -281 628 325 
L 628 4666 
z
" transform="scale(0.015625)"/>
        <path id="DejaVuSans-75" d="M 544 1381 
L 544 3500 
L 1119 3500 
L 1119 1403 
Q 1119 906 1312 657 
Q 1506 409 1894 409 
Q 2359 409 2629 706 
Q 2900 1003 2900 1516 
L 2900 3500 
L 3475 3500 
L 3475 0 
L 2900 0 
L 2900 538 
Q 2691 219 2414 64 
Q 2138 -91 1772 -91 
Q 1169 -91 856 284 
Q 544 659 544 1381 
z
M 1991 3584 
L 1991 3584 
z
" transform="scale(0.015625)"/>
        <path id="DejaVuSans-6e" d="M 3513 2113 
L 3513 0 
L 2938 0 
L 2938 2094 
Q 2938 2591 2744 2837 
Q 2550 3084 2163 3084 
Q 1697 3084 1428 2787 
Q 1159 2491 1159 1978 
L 1159 0 
L 581 0 
L 581 3500 
L 1159 3500 
L 1159 2956 
Q 1366 3272 1645 3428 
Q 1925 3584 2291 3584 
Q 2894 3584 3203 3211 
Q 3513 2838 3513 2113 
z
" transform="scale(0.015625)"/>
       </defs>
       <use xlink:href="#DejaVuSans-4a"/>
       <use xlink:href="#DejaVuSans-75" x="29.492188"/>
       <use xlink:href="#DejaVuSans-6e" x="92.871094"/>
      </g>
     </g>
    </g>
    <g id="xtick_6">
     <g id="line2d_6">
      <path d="M 243.721221 299.518125 
L 243.721221 22.318125 
" clip-path="url(#pe7b72733c4)" style="fill: none; stroke: #ffffff; stroke-linecap: round"/>
     </g>
     <g id="text_5">
      <!-- Jul -->
      <g style="fill: #262626" transform="translate(237.085127 317.376406) scale(0.11 -0.11)">
       <defs>
        <path id="DejaVuSans-6c" d="M 603 4863 
L 1178 4863 
L 1178 0 
L 603 0 
L 603 4863 
z
" transform="scale(0.015625)"/>
       </defs>
       <use xlink:href="#DejaVuSans-4a"/>
       <use xlink:href="#DejaVuSans-75" x="29.492188"/>
       <use xlink:href="#DejaVuSans-6c" x="92.871094"/>
      </g>
     </g>
    </g>
    <g id="xtick_7">
     <g id="line2d_7">
      <path d="M 288.885711 299.518125 
L 288.885711 22.318125 
" clip-path="url(#pe7b72733c4)" style="fill: none; stroke: #ffffff; stroke-linecap: round"/>
     </g>
     <g id="text_6">
      <!-- Aug -->
      <g style="fill: #262626" transform="translate(278.146102 317.376406) scale(0.11 -0.11)">
       <defs>
        <path id="DejaVuSans-67" d="M 2906 1791 
Q 2906 2416 2648 2759 
Q 2391 3103 1925 3103 
Q 1463 3103 1205 2759 
Q 947 2416 947 1791 
Q 947 1169 1205 825 
Q 1463 481 1925 481 
Q 2391 481 2648 825 
Q 2906 1169 2906 1791 
z
M 3481 434 
Q 3481 -459 3084 -895 
Q 2688 -1331 1869 -1331 
Q 1566 -1331 1297 -1286 
Q 1028 -1241 775 -1147 
L 775 -588 
Q 1028 -725 1275 -790 
Q 1522 -856 1778 -856 
Q 2344 -856 2625 -561 
Q 2906 -266 2906 331 
L 2906 616 
Q 2728 306 2450 153 
Q 2172 0 1784 0 
Q 1141 0 747 490 
Q 353 981 353 1791 
Q 353 2603 747 3093 
Q 1141 3584 1784 3584 
Q 2172 3584 2450 3431 
Q 2728 3278 2906 2969 
L 2906 3500 
L 3481 3500 
L 3481 434 
z
" transform="scale(0.015625)"/>
       </defs>
       <use xlink:href="#DejaVuSans-41"/>
       <use xlink:href="#DejaVuSans-75" x="68.408203"/>
       <use xlink:href="#DejaVuSans-67" x="131.787109"/>
      </g>
     </g>
    </g>
    <g id="xtick_8">
     <g id="line2d_8">
      <path d="M 334.050202 299.518125 
L 334.050202 22.318125 
" clip-path="url(#pe7b72733c4)" style="fill: none; stroke: #ffffff; stroke-linecap: round"/>
     </g>
     <g id="text_7">
      <!-- Sep -->
      <g style="fill: #262626" transform="translate(323.682702 317.376406) scale(0.11 -0.11)">
       <defs>
        <path id="DejaVuSans-53" d="M 3425 4513 
L 3425 3897 
Q 3066 4069 2747 4153 
Q 2428 4238 2131 4238 
Q 1616 4238 1336 4038 
Q 1056 3838 1056 3469 
Q 1056 3159 1242 3001 
Q 1428 2844 1947 2747 
L 2328 2669 
Q 3034 2534 3370 2195 
Q 3706 1856 3706 1288 
Q 3706 609 3251 259 
Q 2797 -91 1919 -91 
Q 1588 -91 1214 -16 
Q 841 59 441 206 
L 441 856 
Q 825 641 1194 531 
Q 1563 422 1919 422 
Q 2459 422 2753 634 
Q 3047 847 3047 1241 
Q 3047 1584 2836 1778 
Q 2625 1972 2144 2069 
L 1759 2144 
Q 1053 2284 737 2584 
Q 422 2884 422 3419 
Q 422 4038 858 4394 
Q 1294 4750 2059 4750 
Q 2388 4750 2728 4690 
Q 3069 4631 3425 4513 
z
" transform="scale(0.015625)"/>
        <path id="DejaVuSans-65" d="M 3597 1894 
L 3597 1613 
L 953 1613 
Q 991 1019 1311 708 
Q 1631 397 2203 397 
Q 2534 397 2845 478 
Q 3156 559 3463 722 
L 3463 178 
Q 3153 47 2828 -22 
Q 2503 -91 2169 -91 
Q 1331 -91 842 396 
Q 353 884 353 1716 
Q 353 2575 817 3079 
Q 1281 3584 2069 3584 
Q 2775 3584 3186 3129 
Q 3597 2675 3597 1894 
z
M 3022 2063 
Q 3016 2534 2758 2815 
Q 2500 3097 2075 3097 
Q 1594 3097 1305 2825 
Q 1016 2553 972 2059 
L 3022 2063 
z
" transform="scale(0.015625)"/>
       </defs>
       <use xlink:href="#DejaVuSans-53"/>
       <use xlink:href="#DejaVuSans-65" x="63.476562"/>
       <use xlink:href="#DejaVuSans-70" x="125"/>
      </g>
     </g>
    </g>
    <g id="xtick_9">
     <g id="line2d_9">
      <path d="M 377.757774 299.518125 
L 377.757774 22.318125 
" clip-path="url(#pe7b72733c4)" style="fill: none; stroke: #ffffff; stroke-linecap: round"/>
     </g>
     <g id="text_8">
      <!-- Oct -->
      <g style="fill: #262626" transform="translate(368.24793 317.376406) scale(0.11 -0.11)">
       <defs>
        <path id="DejaVuSans-4f" d="M 2522 4238 
Q 1834 4238 1429 3725 
Q 1025 3213 1025 2328 
Q 1025 1447 1429 934 
Q 1834 422 2522 422 
Q 3209 422 3611 934 
Q 4013 1447 4013 2328 
Q 4013 3213 3611 3725 
Q 3209 4238 2522 4238 
z
M 2522 4750 
Q 3503 4750 4090 4092 
Q 4678 3434 4678 2328 
Q 4678 1225 4090 567 
Q 3503 -91 2522 -91 
Q 1538 -91 948 565 
Q 359 1222 359 2328 
Q 359 3434 948 4092 
Q 1538 4750 2522 4750 
z
" transform="scale(0.015625)"/>
        <path id="DejaVuSans-63" d="M 3122 3366 
L 3122 2828 
Q 2878 2963 2633 3030 
Q 2388 3097 2138 3097 
Q 1578 3097 1268 2742 
Q 959 2388 959 1747 
Q 959 1106 1268 751 
Q 1578 397 2138 397 
Q 2388 397 2633 464 
Q 2878 531 3122 666 
L 3122 134 
Q 2881 22 2623 -34 
Q 2366 -91 2075 -91 
Q 1284 -91 818 406 
Q 353 903 353 1747 
Q 353 2603 823 3093 
Q 1294 3584 2113 3584 
Q 2378 3584 2631 3529 
Q 2884 3475 3122 3366 
z
" transform="scale(0.015625)"/>
        <path id="DejaVuSans-74" d="M 1172 4494 
L 1172 3500 
L 2356 3500 
L 2356 3053 
L 1172 3053 
L 1172 1153 
Q 1172 725 1289 603 
Q 1406 481 1766 481 
L 2356 481 
L 2356 0 
L 1766 0 
Q 1100 0 847 248 
Q 594 497 594 1153 
L 594 3053 
L 172 3053 
L 172 3500 
L 594 3500 
L 594 4494 
L 1172 4494 
z
" transform="scale(0.015625)"/>
       </defs>
       <use xlink:href="#DejaVuSans-4f"/>
       <use xlink:href="#DejaVuSans-63" x="78.710938"/>
       <use xlink:href="#DejaVuSans-74" x="133.691406"/>
      </g>
     </g>
    </g>
    <g id="xtick_10">
     <g id="line2d_10">
      <path d="M 422.922265 299.518125 
L 422.922265 22.318125 
" clip-path="url(#pe7b72733c4)" style="fill: none; stroke: #ffffff; stroke-linecap: round"/>
     </g>
     <g id="text_9">
      <!-- Nov -->
      <g style="fill: #262626" transform="translate(412.186953 317.376406) scale(0.11 -0.11)">
       <defs>
        <path id="DejaVuSans-4e" d="M 628 4666 
L 1478 4666 
L 3547 763 
L 3547 4666 
L 4159 4666 
L 4159 0 
L 3309 0 
L 1241 3903 
L 1241 0 
L 628 0 
L 628 4666 
z
" transform="scale(0.015625)"/>
        <path id="DejaVuSans-6f" d="M 1959 3097 
Q 1497 3097 1228 2736 
Q 959 2375 959 1747 
Q 959 1119 1226 758 
Q 1494 397 1959 397 
Q 2419 397 2687 759 
Q 2956 1122 2956 1747 
Q 2956 2369 2687 2733 
Q 2419 3097 1959 3097 
z
M 1959 3584 
Q 2709 3584 3137 3096 
Q 3566 2609 3566 1747 
Q 3566 888 3137 398 
Q 2709 -91 1959 -91 
Q 1206 -91 779 398 
Q 353 888 353 1747 
Q 353 2609 779 3096 
Q 1206 3584 1959 3584 
z
" transform="scale(0.015625)"/>
        <path id="DejaVuSans-76" d="M 191 3500 
L 800 3500 
L 1894 563 
L 2988 3500 
L 3597 3500 
L 2284 0 
L 1503 0 
L 191 3500 
z
" transform="scale(0.015625)"/>
       </defs>
       <use xlink:href="#DejaVuSans-4e"/>
       <use xlink:href="#DejaVuSans-6f" x="74.804688"/>
       <use xlink:href="#DejaVuSans-76" x="135.986328"/>
      </g>
     </g>
    </g>
    <g id="xtick_11">
     <g id="line2d_11">
      <path d="M 466.629837 299.518125 
L 466.629837 22.318125 
" clip-path="url(#pe7b72733c4)" style="fill: none; stroke: #ffffff; stroke-linecap: round"/>
     </g>
     <g id="text_10">
      <!-- Dec -->
      <g style="fill: #262626" transform="translate(455.986477 317.376406) scale(0.11 -0.11)">
       <defs>
        <path id="DejaVuSans-44" d="M 1259 4147 
L 1259 519 
L 2022 519 
Q 2988 519 3436 956 
Q 3884 1394 3884 2338 
Q 3884 3275 3436 3711 
Q 2988 4147 2022 4147 
L 1259 4147 
z
M 628 4666 
L 1925 4666 
Q 3281 4666 3915 4102 
Q 4550 3538 4550 2338 
Q 4550 1131 3912 565 
Q 3275 0 1925 0 
L 628 0 
L 628 4666 
z
" transform="scale(0.015625)"/>
       </defs>
       <use xlink:href="#DejaVuSans-44"/>
       <use xlink:href="#DejaVuSans-65" x="77.001953"/>
       <use xlink:href="#DejaVuSans-63" x="138.525391"/>
      </g>
     </g>
    </g>
    <g id="xtick_12">
     <g id="line2d_12">
      <path d="M 511.794328 299.518125 
L 511.794328 22.318125 
" clip-path="url(#pe7b72733c4)" style="fill: none; stroke: #ffffff; stroke-linecap: round"/>
     </g>
     <g id="text_11">
      <!-- Jan -->
      <g style="fill: #262626" transform="translate(503.315734 317.376406) scale(0.11 -0.11)">
       <use xlink:href="#DejaVuSans-4a"/>
       <use xlink:href="#DejaVuSans-61" x="29.492188"/>
       <use xlink:href="#DejaVuSans-6e" x="90.771484"/>
      </g>
      <!-- 2023 -->
      <g style="fill: #262626" transform="translate(497.796828 329.694) scale(0.11 -0.11)">
       <defs>
        <path id="DejaVuSans-32" d="M 1228 531 
L 3431 531 
L 3431 0 
L 469 0 
L 469 531 
Q 828 903 1448 1529 
Q 2069 2156 2228 2338 
Q 2531 2678 2651 2914 
Q 2772 3150 2772 3378 
Q 2772 3750 2511 3984 
Q 2250 4219 1831 4219 
Q 1534 4219 1204 4116 
Q 875 4013 500 3803 
L 500 4441 
Q 881 4594 1212 4672 
Q 1544 4750 1819 4750 
Q 2544 4750 2975 4387 
Q 3406 4025 3406 3419 
Q 3406 3131 3298 2873 
Q 3191 2616 2906 2266 
Q 2828 2175 2409 1742 
Q 1991 1309 1228 531 
z
" transform="scale(0.015625)"/>
        <path id="DejaVuSans-30" d="M 2034 4250 
Q 1547 4250 1301 3770 
Q 1056 3291 1056 2328 
Q 1056 1369 1301 889 
Q 1547 409 2034 409 
Q 2525 409 2770 889 
Q 3016 1369 3016 2328 
Q 3016 3291 2770 3770 
Q 2525 4250 2034 4250 
z
M 2034 4750 
Q 2819 4750 3233 4129 
Q 3647 3509 3647 2328 
Q 3647 1150 3233 529 
Q 2819 -91 2034 -91 
Q 1250 -91 836 529 
Q 422 1150 422 2328 
Q 422 3509 836 4129 
Q 1250 4750 2034 4750 
z
" transform="scale(0.015625)"/>
        <path id="DejaVuSans-33" d="M 2597 2516 
Q 3050 2419 3304 2112 
Q 3559 1806 3559 1356 
Q 3559 666 3084 287 
Q 2609 -91 1734 -91 
Q 1441 -91 1130 -33 
Q 819 25 488 141 
L 488 750 
Q 750 597 1062 519 
Q 1375 441 1716 441 
Q 2309 441 2620 675 
Q 2931 909 2931 1356 
Q 2931 1769 2642 2001 
Q 2353 2234 1838 2234 
L 1294 2234 
L 1294 2753 
L 1863 2753 
Q 2328 2753 2575 2939 
Q 2822 3125 2822 3475 
Q 2822 3834 2567 4026 
Q 2313 4219 1838 4219 
Q 1578 4219 1281 4162 
Q 984 4106 628 3988 
L 628 4550 
Q 988 4650 1302 4700 
Q 1616 4750 1894 4750 
Q 2613 4750 3031 4423 
Q 3450 4097 3450 3541 
Q 3450 3153 3228 2886 
Q 3006 2619 2597 2516 
z
" transform="scale(0.015625)"/>
       </defs>
       <use xlink:href="#DejaVuSans-32"/>
       <use xlink:href="#DejaVuSans-30" x="63.623047"/>
       <use xlink:href="#DejaVuSans-32" x="127.246094"/>
       <use xlink:href="#DejaVuSans-33" x="190.869141"/>
      </g>
     </g>
    </g>
    <g id="xtick_13">
     <g id="line2d_13">
      <path d="M 556.958819 299.518125 
L 556.958819 22.318125 
" clip-path="url(#pe7b72733c4)" style="fill: none; stroke: #ffffff; stroke-linecap: round"/>
     </g>
     <g id="text_12">
      <!-- Feb -->
      <g style="fill: #262626" transform="translate(547.2221 317.376406) scale(0.11 -0.11)">
       <defs>
        <path id="DejaVuSans-46" d="M 628 4666 
L 3309 4666 
L 3309 4134 
L 1259 4134 
L 1259 2759 
L 3109 2759 
L 3109 2228 
L 1259 2228 
L 1259 0 
L 628 0 
L 628 4666 
z
" transform="scale(0.015625)"/>
        <path id="DejaVuSans-62" d="M 3116 1747 
Q 3116 2381 2855 2742 
Q 2594 3103 2138 3103 
Q 1681 3103 1420 2742 
Q 1159 2381 1159 1747 
Q 1159 1113 1420 752 
Q 1681 391 2138 391 
Q 2594 391 2855 752 
Q 3116 1113 3116 1747 
z
M 1159 2969 
Q 1341 3281 1617 3432 
Q 1894 3584 2278 3584 
Q 2916 3584 3314 3078 
Q 3713 2572 3713 1747 
Q 3713 922 3314 415 
Q 2916 -91 2278 -91 
Q 1894 -91 1617 61 
Q 1341 213 1159 525 
L 1159 0 
L 581 0 
L 581 4863 
L 1159 4863 
L 1159 2969 
z
" transform="scale(0.015625)"/>
       </defs>
       <use xlink:href="#DejaVuSans-46"/>
       <use xlink:href="#DejaVuSans-65" x="52.019531"/>
       <use xlink:href="#DejaVuSans-62" x="113.542969"/>
      </g>
     </g>
    </g>
    <g id="xtick_14">
     <g id="line2d_14">
      <path d="M 597.752552 299.518125 
L 597.752552 22.318125 
" clip-path="url(#pe7b72733c4)" style="fill: none; stroke: #ffffff; stroke-linecap: round"/>
     </g>
     <g id="text_13">
      <!-- Mar -->
      <g style="fill: #262626" transform="translate(587.375599 317.376406) scale(0.11 -0.11)">
       <use xlink:href="#DejaVuSans-4d"/>
       <use xlink:href="#DejaVuSans-61" x="86.279297"/>
       <use xlink:href="#DejaVuSans-72" x="147.558594"/>
      </g>
     </g>
    </g>
    <g id="xtick_15">
     <g id="line2d_15">
      <path d="M 616.6925 299.518125 
L 616.6925 22.318125 
" clip-path="url(#pe7b72733c4)" style="fill: none; stroke: #ffffff; stroke-linecap: round"/>
     </g>
    </g>
    <g id="xtick_16"/>
    <g id="xtick_17"/>
    <g id="xtick_18"/>
    <g id="xtick_19"/>
    <g id="xtick_20"/>
    <g id="xtick_21"/>
    <g id="xtick_22"/>
    <g id="xtick_23"/>
    <g id="xtick_24"/>
    <g id="xtick_25"/>
    <g id="xtick_26"/>
    <g id="xtick_27"/>
    <g id="xtick_28"/>
    <g id="xtick_29"/>
    <g id="xtick_30"/>
    <g id="xtick_31"/>
    <g id="xtick_32"/>
    <g id="xtick_33"/>
    <g id="xtick_34"/>
    <g id="xtick_35"/>
    <g id="xtick_36"/>
    <g id="xtick_37"/>
    <g id="xtick_38"/>
    <g id="xtick_39"/>
    <g id="xtick_40"/>
    <g id="xtick_41"/>
    <g id="xtick_42"/>
    <g id="xtick_43"/>
    <g id="xtick_44"/>
    <g id="xtick_45"/>
    <g id="xtick_46"/>
    <g id="xtick_47"/>
    <g id="xtick_48"/>
    <g id="xtick_49"/>
    <g id="xtick_50"/>
    <g id="xtick_51"/>
    <g id="xtick_52"/>
    <g id="xtick_53"/>
    <g id="xtick_54"/>
    <g id="xtick_55"/>
    <g id="xtick_56"/>
    <g id="xtick_57"/>
    <g id="xtick_58"/>
    <g id="xtick_59"/>
    <g id="xtick_60"/>
    <g id="xtick_61"/>
    <g id="xtick_62"/>
    <g id="xtick_63"/>
    <g id="xtick_64"/>
    <g id="xtick_65"/>
    <g id="xtick_66"/>
    <g id="xtick_67"/>
    <g id="xtick_68"/>
    <g id="xtick_69"/>
    <g id="text_14">
     <!-- date -->
     <g style="fill: #262626" transform="translate(324.1625 345.099781) scale(0.12 -0.12)">
      <defs>
       <path id="DejaVuSans-64" d="M 2906 2969 
L 2906 4863 
L 3481 4863 
L 3481 0 
L 2906 0 
L 2906 525 
Q 2725 213 2448 61 
Q 2172 -91 1784 -91 
Q 1150 -91 751 415 
Q 353 922 353 1747 
Q 353 2572 751 3078 
Q 1150 3584 1784 3584 
Q 2172 3584 2448 3432 
Q 2725 3281 2906 2969 
z
M 947 1747 
Q 947 1113 1208 752 
Q 1469 391 1925 391 
Q 2381 391 2643 752 
Q 2906 1113 2906 1747 
Q 2906 2381 2643 2742 
Q 2381 3103 1925 3103 
Q 1469 3103 1208 2742 
Q 947 2381 947 1747 
z
" transform="scale(0.015625)"/>
      </defs>
      <use xlink:href="#DejaVuSans-64"/>
      <use xlink:href="#DejaVuSans-61" x="63.476562"/>
      <use xlink:href="#DejaVuSans-74" x="124.755859"/>
      <use xlink:href="#DejaVuSans-65" x="163.964844"/>
     </g>
    </g>
   </g>
   <g id="matplotlib.axis_2">
    <g id="ytick_1">
     <g id="line2d_16">
      <path d="M 58.6925 280.161559 
L 616.6925 280.161559 
" clip-path="url(#pe7b72733c4)" style="fill: none; stroke: #ffffff; stroke-linecap: round"/>
     </g>
     <g id="text_15">
      <!-- 60000 -->
      <g style="fill: #262626" transform="translate(14.19875 284.340699) scale(0.11 -0.11)">
       <defs>
        <path id="DejaVuSans-36" d="M 2113 2584 
Q 1688 2584 1439 2293 
Q 1191 2003 1191 1497 
Q 1191 994 1439 701 
Q 1688 409 2113 409 
Q 2538 409 2786 701 
Q 3034 994 3034 1497 
Q 3034 2003 2786 2293 
Q 2538 2584 2113 2584 
z
M 3366 4563 
L 3366 3988 
Q 3128 4100 2886 4159 
Q 2644 4219 2406 4219 
Q 1781 4219 1451 3797 
Q 1122 3375 1075 2522 
Q 1259 2794 1537 2939 
Q 1816 3084 2150 3084 
Q 2853 3084 3261 2657 
Q 3669 2231 3669 1497 
Q 3669 778 3244 343 
Q 2819 -91 2113 -91 
Q 1303 -91 875 529 
Q 447 1150 447 2328 
Q 447 3434 972 4092 
Q 1497 4750 2381 4750 
Q 2619 4750 2861 4703 
Q 3103 4656 3366 4563 
z
" transform="scale(0.015625)"/>
       </defs>
       <use xlink:href="#DejaVuSans-36"/>
       <use xlink:href="#DejaVuSans-30" x="63.623047"/>
       <use xlink:href="#DejaVuSans-30" x="127.246094"/>
       <use xlink:href="#DejaVuSans-30" x="190.869141"/>
       <use xlink:href="#DejaVuSans-30" x="254.492188"/>
      </g>
     </g>
    </g>
    <g id="ytick_2">
     <g id="line2d_17">
      <path d="M 58.6925 229.942439 
L 616.6925 229.942439 
" clip-path="url(#pe7b72733c4)" style="fill: none; stroke: #ffffff; stroke-linecap: round"/>
     </g>
     <g id="text_16">
      <!-- 80000 -->
      <g style="fill: #262626" transform="translate(14.19875 234.121579) scale(0.11 -0.11)">
       <defs>
        <path id="DejaVuSans-38" d="M 2034 2216 
Q 1584 2216 1326 1975 
Q 1069 1734 1069 1313 
Q 1069 891 1326 650 
Q 1584 409 2034 409 
Q 2484 409 2743 651 
Q 3003 894 3003 1313 
Q 3003 1734 2745 1975 
Q 2488 2216 2034 2216 
z
M 1403 2484 
Q 997 2584 770 2862 
Q 544 3141 544 3541 
Q 544 4100 942 4425 
Q 1341 4750 2034 4750 
Q 2731 4750 3128 4425 
Q 3525 4100 3525 3541 
Q 3525 3141 3298 2862 
Q 3072 2584 2669 2484 
Q 3125 2378 3379 2068 
Q 3634 1759 3634 1313 
Q 3634 634 3220 271 
Q 2806 -91 2034 -91 
Q 1263 -91 848 271 
Q 434 634 434 1313 
Q 434 1759 690 2068 
Q 947 2378 1403 2484 
z
M 1172 3481 
Q 1172 3119 1398 2916 
Q 1625 2713 2034 2713 
Q 2441 2713 2670 2916 
Q 2900 3119 2900 3481 
Q 2900 3844 2670 4047 
Q 2441 4250 2034 4250 
Q 1625 4250 1398 4047 
Q 1172 3844 1172 3481 
z
" transform="scale(0.015625)"/>
       </defs>
       <use xlink:href="#DejaVuSans-38"/>
       <use xlink:href="#DejaVuSans-30" x="63.623047"/>
       <use xlink:href="#DejaVuSans-30" x="127.246094"/>
       <use xlink:href="#DejaVuSans-30" x="190.869141"/>
       <use xlink:href="#DejaVuSans-30" x="254.492188"/>
      </g>
     </g>
    </g>
    <g id="ytick_3">
     <g id="line2d_18">
      <path d="M 58.6925 179.723319 
L 616.6925 179.723319 
" clip-path="url(#pe7b72733c4)" style="fill: none; stroke: #ffffff; stroke-linecap: round"/>
     </g>
     <g id="text_17">
      <!-- 100000 -->
      <g style="fill: #262626" transform="translate(7.2 183.902459) scale(0.11 -0.11)">
       <defs>
        <path id="DejaVuSans-31" d="M 794 531 
L 1825 531 
L 1825 4091 
L 703 3866 
L 703 4441 
L 1819 4666 
L 2450 4666 
L 2450 531 
L 3481 531 
L 3481 0 
L 794 0 
L 794 531 
z
" transform="scale(0.015625)"/>
       </defs>
       <use xlink:href="#DejaVuSans-31"/>
       <use xlink:href="#DejaVuSans-30" x="63.623047"/>
       <use xlink:href="#DejaVuSans-30" x="127.246094"/>
       <use xlink:href="#DejaVuSans-30" x="190.869141"/>
       <use xlink:href="#DejaVuSans-30" x="254.492188"/>
       <use xlink:href="#DejaVuSans-30" x="318.115234"/>
      </g>
     </g>
    </g>
    <g id="ytick_4">
     <g id="line2d_19">
      <path d="M 58.6925 129.504199 
L 616.6925 129.504199 
" clip-path="url(#pe7b72733c4)" style="fill: none; stroke: #ffffff; stroke-linecap: round"/>
     </g>
     <g id="text_18">
      <!-- 120000 -->
      <g style="fill: #262626" transform="translate(7.2 133.683339) scale(0.11 -0.11)">
       <use xlink:href="#DejaVuSans-31"/>
       <use xlink:href="#DejaVuSans-32" x="63.623047"/>
       <use xlink:href="#DejaVuSans-30" x="127.246094"/>
       <use xlink:href="#DejaVuSans-30" x="190.869141"/>
       <use xlink:href="#DejaVuSans-30" x="254.492188"/>
       <use xlink:href="#DejaVuSans-30" x="318.115234"/>
      </g>
     </g>
    </g>
    <g id="ytick_5">
     <g id="line2d_20">
      <path d="M 58.6925 79.285079 
L 616.6925 79.285079 
" clip-path="url(#pe7b72733c4)" style="fill: none; stroke: #ffffff; stroke-linecap: round"/>
     </g>
     <g id="text_19">
      <!-- 140000 -->
      <g style="fill: #262626" transform="translate(7.2 83.464219) scale(0.11 -0.11)">
       <defs>
        <path id="DejaVuSans-34" d="M 2419 4116 
L 825 1625 
L 2419 1625 
L 2419 4116 
z
M 2253 4666 
L 3047 4666 
L 3047 1625 
L 3713 1625 
L 3713 1100 
L 3047 1100 
L 3047 0 
L 2419 0 
L 2419 1100 
L 313 1100 
L 313 1709 
L 2253 4666 
z
" transform="scale(0.015625)"/>
       </defs>
       <use xlink:href="#DejaVuSans-31"/>
       <use xlink:href="#DejaVuSans-34" x="63.623047"/>
       <use xlink:href="#DejaVuSans-30" x="127.246094"/>
       <use xlink:href="#DejaVuSans-30" x="190.869141"/>
       <use xlink:href="#DejaVuSans-30" x="254.492188"/>
       <use xlink:href="#DejaVuSans-30" x="318.115234"/>
      </g>
     </g>
    </g>
    <g id="ytick_6">
     <g id="line2d_21">
      <path d="M 58.6925 29.065959 
L 616.6925 29.065959 
" clip-path="url(#pe7b72733c4)" style="fill: none; stroke: #ffffff; stroke-linecap: round"/>
     </g>
     <g id="text_20">
      <!-- 160000 -->
      <g style="fill: #262626" transform="translate(7.2 33.245099) scale(0.11 -0.11)">
       <use xlink:href="#DejaVuSans-31"/>
       <use xlink:href="#DejaVuSans-36" x="63.623047"/>
       <use xlink:href="#DejaVuSans-30" x="127.246094"/>
       <use xlink:href="#DejaVuSans-30" x="190.869141"/>
       <use xlink:href="#DejaVuSans-30" x="254.492188"/>
       <use xlink:href="#DejaVuSans-30" x="318.115234"/>
      </g>
     </g>
    </g>
   </g>
   <g id="line2d_22">
    <path d="M 58.6925 254.55735 
L 60.149419 249.814636 
L 61.606338 228.595797 
L 63.063257 218.620809 
L 64.520176 217.471678 
L 65.977095 217.471678 
L 67.434014 212.774561 
L 68.890933 200.955053 
L 70.347852 200.955053 
L 71.804772 188.910713 
L 73.261691 180.063303 
L 74.71861 178.509139 
L 77.632448 173.674013 
L 79.089367 170.639674 
L 80.546286 170.923102 
L 82.003205 170.129891 
L 83.460124 170.407723 
L 84.917043 152.400697 
L 86.373962 149.491196 
L 87.830881 149.172083 
L 89.2878 132.750739 
L 90.744719 76.491254 
L 92.201638 76.491254 
L 93.658557 77.635461 
L 95.115477 77.864257 
L 98.029315 77.887518 
L 99.486234 79.800921 
L 100.943153 52.74867 
L 102.400072 49.191778 
L 103.856991 51.872687 
L 105.31391 45.445151 
L 108.227748 45.452734 
L 109.684667 45.941113 
L 111.141586 49.576693 
L 112.598505 50.168582 
L 114.055424 85.537603 
L 115.512343 108.156689 
L 116.969262 121.886909 
L 118.426181 121.03949 
L 121.34002 121.064425 
L 122.796939 120.56254 
L 124.253858 121.034337 
L 127.167696 121.028688 
L 128.624615 121.28932 
L 130.081534 124.016027 
L 132.995372 124.016027 
L 134.452291 123.351662 
L 135.90921 123.048105 
L 137.366129 123.329808 
L 140.279967 123.244011 
L 141.736886 122.296279 
L 143.193805 122.296279 
L 144.650725 121.50603 
L 146.107644 122.414836 
L 147.564563 122.873874 
L 149.021482 122.492182 
L 150.478401 122.243522 
L 154.849158 122.458115 
L 156.306077 122.458115 
L 157.762996 122.817705 
L 160.676834 122.852318 
L 162.133753 123.155803 
L 163.590672 123.155803 
L 165.047591 122.710041 
L 166.50451 123.038117 
L 169.418349 123.101862 
L 170.875268 122.867719 
L 172.332187 122.462961 
L 181.073701 122.474117 
L 182.53062 122.120979 
L 185.444458 122.038266 
L 186.901377 121.729783 
L 188.358296 121.228159 
L 189.815215 121.142911 
L 191.272134 120.591984 
L 192.729054 120.475827 
L 197.099811 120.538911 
L 201.470568 120.685338 
L 202.927487 120.58959 
L 208.755163 120.608382 
L 210.212082 120.891875 
L 213.12592 120.891875 
L 214.582839 120.729015 
L 217.496678 120.63656 
L 218.953597 120.384954 
L 226.238192 120.383463 
L 227.695111 120.535438 
L 229.15203 120.316876 
L 230.608949 120.316876 
L 232.065868 119.862619 
L 233.522787 120.275505 
L 234.979706 120.275505 
L 236.436625 119.993384 
L 240.807383 119.901673 
L 242.264302 119.901673 
L 243.721221 119.781084 
L 246.635059 119.366876 
L 271.402683 119.342345 
L 275.77344 119.293475 
L 290.342631 119.1882 
L 291.79955 118.971788 
L 293.256469 118.898672 
L 294.713388 119.050152 
L 318.024093 119.059259 
L 319.481012 117.624671 
L 320.937931 117.624671 
L 322.39485 117.433273 
L 325.308688 117.433273 
L 326.765607 117.170152 
L 334.050202 117.160004 
L 335.507121 117.627541 
L 338.42096 117.652348 
L 341.334798 118.118572 
L 342.791717 118.671686 
L 344.248636 121.734541 
L 345.705555 121.734541 
L 348.619393 139.475304 
L 351.533231 139.475304 
L 352.99015 139.588688 
L 358.817826 139.651119 
L 360.274745 140.145331 
L 361.731664 140.326648 
L 363.188584 140.326648 
L 366.102422 140.643585 
L 367.559341 140.643585 
L 373.387017 141.391073 
L 374.843936 141.439739 
L 376.300855 142.26727 
L 377.757774 142.26727 
L 379.214693 144.395884 
L 380.671612 148.226097 
L 382.128531 150.665868 
L 383.58545 151.076716 
L 387.956208 151.027375 
L 389.413127 151.460145 
L 392.326965 151.4941 
L 395.240803 151.591448 
L 399.61156 151.654001 
L 401.068479 150.849637 
L 402.525398 150.788609 
L 403.982317 150.418571 
L 420.008427 150.517005 
L 430.20686 150.775095 
L 433.120698 150.692635 
L 434.577617 150.735667 
L 436.034537 153.525951 
L 437.491456 161.24095 
L 438.948375 160.182982 
L 441.862213 160.103938 
L 460.802161 160.054024 
L 463.715999 159.990744 
L 471.000594 160.252777 
L 494.311299 160.252777 
L 495.768218 160.371849 
L 505.966651 160.365984 
L 507.42357 160.500287 
L 510.337409 160.500287 
L 511.794328 160.735708 
L 527.820437 160.632883 
L 532.191195 160.574909 
L 538.018871 160.569633 
L 539.47579 160.410211 
L 543.846547 160.410211 
L 545.303466 160.522601 
L 555.501899 160.454375 
L 565.700333 160.454375 
L 567.157252 160.332462 
L 568.614171 159.953833 
L 571.528009 159.953833 
L 572.984928 159.51956 
L 596.295633 159.41893 
L 605.037148 159.333157 
L 610.864824 159.315252 
L 610.864824 159.315252 
" clip-path="url(#pe7b72733c4)" style="fill: none; stroke: #4c72b0; stroke-width: 1.5; stroke-linecap: round"/>
   </g>
   <g id="line2d_23">
    <path d="M 58.6925 249.205087 
L 60.149419 244.233093 
L 61.606338 223.008258 
L 63.063257 213.013498 
L 64.520176 211.882563 
L 65.977095 211.882563 
L 67.434014 207.185443 
L 68.890933 195.28984 
L 70.347852 195.28984 
L 71.804772 183.237125 
L 73.261691 174.377694 
L 74.71861 172.823538 
L 77.632448 167.982314 
L 79.089367 164.872621 
L 80.546286 165.156033 
L 82.003205 164.36468 
L 83.460124 165.177727 
L 84.917043 147.139019 
L 86.373962 144.226135 
L 87.830881 143.904406 
L 89.2878 127.272335 
L 90.744719 73.624957 
L 92.201638 73.624957 
L 96.572396 73.985857 
L 98.029315 74.009133 
L 99.486234 75.920398 
L 100.943153 48.037035 
L 102.400072 44.475947 
L 103.856991 47.184339 
L 105.31391 40.758426 
L 108.227748 40.766009 
L 109.684667 41.421093 
L 111.141586 44.786979 
L 112.598505 46.601597 
L 114.055424 80.914237 
L 115.512343 100.595236 
L 116.969262 114.440421 
L 118.426181 113.592999 
L 121.34002 113.614317 
L 122.796939 113.112803 
L 124.253858 113.586872 
L 127.167696 113.58072 
L 128.624615 113.841357 
L 130.081534 116.568055 
L 132.995372 116.568055 
L 134.452291 115.901195 
L 135.90921 115.597646 
L 137.366129 115.978884 
L 140.279967 115.893085 
L 141.736886 114.945349 
L 143.193805 114.945349 
L 144.650725 114.15485 
L 146.107644 115.061732 
L 147.564563 115.52076 
L 149.021482 115.139095 
L 150.478401 114.892393 
L 154.849158 115.10698 
L 156.306077 115.10698 
L 157.762996 115.466574 
L 160.676834 115.500271 
L 162.133753 115.803745 
L 163.590672 115.803745 
L 165.047591 115.358 
L 166.50451 115.66524 
L 169.418349 115.728994 
L 170.875268 115.494922 
L 172.332187 115.090181 
L 179.616782 115.161919 
L 181.073701 114.877202 
L 182.53062 114.748465 
L 185.444458 114.659728 
L 186.901377 114.351483 
L 188.358296 113.851401 
L 189.815215 113.766154 
L 191.272134 113.215954 
L 192.729054 113.099797 
L 197.099811 113.162997 
L 201.470568 113.309411 
L 202.927487 113.213669 
L 208.755163 113.232451 
L 210.212082 113.515963 
L 213.12592 113.515963 
L 214.582839 113.353102 
L 217.496678 113.260674 
L 218.953597 113.009227 
L 226.238192 113.008122 
L 227.695111 113.160085 
L 229.15203 112.941556 
L 230.608949 112.941556 
L 232.065868 112.487224 
L 233.522787 112.9001 
L 234.979706 112.9001 
L 236.436625 112.617994 
L 240.807383 112.526294 
L 242.264302 112.526294 
L 243.721221 112.40494 
L 246.635059 111.99254 
L 271.402683 111.968008 
L 275.77344 111.919145 
L 290.342631 111.814288 
L 291.79955 111.598195 
L 293.256469 111.525277 
L 294.713388 111.676763 
L 318.024093 111.686003 
L 319.481012 110.251569 
L 320.937931 110.251569 
L 322.39485 110.060159 
L 325.308688 110.060159 
L 326.765607 109.797036 
L 334.050202 109.786967 
L 335.507121 110.254507 
L 338.42096 110.279215 
L 341.334798 110.745424 
L 342.791717 111.271143 
L 344.248636 114.361401 
L 345.705555 114.361401 
L 348.619393 132.301127 
L 351.533231 132.301127 
L 352.99015 132.414497 
L 358.817826 132.476945 
L 360.274745 132.971151 
L 361.731664 133.152492 
L 363.188584 133.152492 
L 366.102422 133.468345 
L 367.559341 133.468345 
L 369.01626 133.818799 
L 370.473179 133.90259 
L 371.930098 134.151878 
L 374.843936 134.265197 
L 376.300855 135.091829 
L 377.757774 135.091829 
L 379.214693 137.220442 
L 380.671612 141.067804 
L 382.128531 143.507574 
L 383.58545 143.918442 
L 387.956208 143.869102 
L 389.413127 144.301865 
L 392.326965 144.335838 
L 395.240803 144.433188 
L 420.008427 144.533124 
L 430.20686 144.7912 
L 433.120698 144.70874 
L 434.577617 144.751778 
L 436.034537 147.549058 
L 437.491456 155.295081 
L 438.948375 154.288992 
L 441.862213 154.210298 
L 460.802161 154.160406 
L 463.715999 154.09718 
L 471.000594 154.359198 
L 494.311299 154.359198 
L 495.768218 154.478293 
L 505.966651 154.472517 
L 507.42357 154.606803 
L 510.337409 154.606803 
L 511.794328 154.842231 
L 527.820437 154.739482 
L 532.191195 154.681504 
L 538.018871 154.676231 
L 539.47579 154.516811 
L 543.846547 154.516811 
L 545.303466 154.629201 
L 555.501899 154.560978 
L 565.700333 154.560978 
L 567.157252 154.439197 
L 568.614171 154.06057 
L 570.07109 154.06057 
L 570.07109 154.06057 
" clip-path="url(#pe7b72733c4)" style="fill: none; stroke: #dd8452; stroke-width: 1.5; stroke-linecap: round"/>
   </g>
   <g id="line2d_24">
    <path d="M 58.6925 286.918125 
L 60.149419 245.985032 
L 61.606338 225.38873 
L 63.063257 215.34137 
L 64.520176 215.34137 
L 65.977095 212.040662 
L 67.434014 210.393809 
L 68.890933 197.763435 
L 70.347852 197.798445 
L 71.804772 186.497089 
L 76.175529 186.497089 
L 77.632448 169.895109 
L 79.089367 167.21515 
L 80.546286 166.505125 
L 84.917043 166.505125 
L 86.373962 144.532041 
L 87.830881 148.349345 
L 96.572396 148.349345 
L 98.029315 71.557935 
L 99.486234 73.173738 
L 100.943153 75.946167 
L 102.400072 39.805212 
L 106.770829 39.805212 
L 108.227748 34.918125 
L 111.141586 34.918125 
L 112.598505 38.207887 
L 115.512343 38.207887 
L 116.969262 35.826903 
L 118.426181 114.452098 
L 122.796939 114.452098 
L 124.253858 112.896372 
L 127.167696 112.896372 
L 128.624615 113.592506 
L 132.995372 113.592418 
L 134.452291 115.942555 
L 137.366129 115.942555 
L 138.823048 115.446308 
L 143.193805 115.442039 
L 144.650725 114.162359 
L 146.107644 114.162359 
L 147.564563 113.380481 
L 151.93532 113.380481 
L 153.392239 114.185233 
L 154.849158 114.185233 
L 156.306077 115.035116 
L 162.133753 115.004969 
L 163.590672 115.333413 
L 169.418349 115.267997 
L 170.875268 115.468967 
L 173.789106 115.468967 
L 175.246025 114.980661 
L 182.53062 114.920042 
L 183.987539 114.387563 
L 192.729054 114.387563 
L 194.185973 113.060888 
L 200.013649 113.060888 
L 201.470568 112.83204 
L 205.841325 112.83204 
L 207.298244 113.174665 
L 214.582839 113.193457 
L 216.039758 112.817267 
L 220.410516 112.817267 
L 221.867435 112.94197 
L 230.608949 112.94197 
L 232.065868 112.529384 
L 236.436625 112.529384 
L 237.893544 112.104397 
L 239.350463 112.104397 
L 240.807383 112.486586 
L 243.721221 112.486586 
L 245.17814 112.365251 
L 249.548897 112.365251 
L 251.005816 111.772352 
L 252.462735 111.772352 
L 253.919654 111.998389 
L 275.77344 111.928916 
L 280.144197 111.880046 
L 296.170307 111.880046 
L 297.627226 111.252688 
L 301.997983 111.252688 
L 303.454902 111.520273 
L 304.911821 111.520273 
L 306.36874 111.646857 
L 320.937931 111.646857 
L 322.39485 109.836893 
L 339.877879 109.747811 
L 341.334798 110.240056 
L 342.791717 110.240056 
L 344.248636 110.46968 
L 347.162474 110.46968 
L 348.619393 111.230598 
L 360.274745 111.230598 
L 361.731664 132.188483 
L 367.559341 132.188483 
L 369.01626 132.859885 
L 374.843936 132.859885 
L 376.300855 133.501168 
L 379.214693 133.501168 
L 380.671612 135.017251 
L 385.042369 135.017251 
L 386.499289 140.931448 
L 387.956208 140.931448 
L 389.413127 143.782072 
L 390.870046 143.782072 
L 392.326965 144.214843 
L 408.353074 144.248798 
L 411.266913 144.347612 
L 434.577617 144.359114 
L 436.034537 144.621676 
L 440.405294 144.621676 
L 441.862213 143.109712 
L 443.319132 143.109712 
L 444.776051 154.121998 
L 469.543675 154.072093 
L 471.000594 153.98082 
L 472.457513 154.270934 
L 501.595894 154.270388 
L 503.052813 154.390006 
L 516.165085 154.356762 
L 520.535842 154.753958 
L 523.44968 154.753958 
L 524.906599 154.575068 
L 538.018871 154.575068 
L 539.47579 154.457528 
L 567.157252 154.472568 
L 568.614171 153.972159 
L 572.984928 153.972159 
L 574.441847 153.424786 
L 616.6925 153.333935 
L 616.6925 153.333935 
" clip-path="url(#pe7b72733c4)" style="fill: none; stroke: #55a868; stroke-width: 1.5; stroke-linecap: round"/>
   </g>
   <g id="patch_3">
    <path d="M 58.6925 299.518125 
L 58.6925 22.318125 
" style="fill: none; stroke: #ffffff; stroke-width: 1.25; stroke-linejoin: miter; stroke-linecap: square"/>
   </g>
   <g id="patch_4">
    <path d="M 616.6925 299.518125 
L 616.6925 22.318125 
" style="fill: none; stroke: #ffffff; stroke-width: 1.25; stroke-linejoin: miter; stroke-linecap: square"/>
   </g>
   <g id="patch_5">
    <path d="M 58.6925 299.518125 
L 616.6925 299.518125 
" style="fill: none; stroke: #ffffff; stroke-width: 1.25; stroke-linejoin: miter; stroke-linecap: square"/>
   </g>
   <g id="patch_6">
    <path d="M 58.6925 22.318125 
L 616.6925 22.318125 
" style="fill: none; stroke: #ffffff; stroke-width: 1.25; stroke-linejoin: miter; stroke-linecap: square"/>
   </g>
   <g id="text_21">
    <!-- Comparison of assessed Russian territory control, liveuamap vs Novaya Gazeta vs NZZ.ch -->
    <g style="fill: #262626" transform="translate(66.986562 16.318125) scale(0.12 -0.12)">
     <defs>
      <path id="DejaVuSans-43" d="M 4122 4306 
L 4122 3641 
Q 3803 3938 3442 4084 
Q 3081 4231 2675 4231 
Q 1875 4231 1450 3742 
Q 1025 3253 1025 2328 
Q 1025 1406 1450 917 
Q 1875 428 2675 428 
Q 3081 428 3442 575 
Q 3803 722 4122 1019 
L 4122 359 
Q 3791 134 3420 21 
Q 3050 -91 2638 -91 
Q 1578 -91 968 557 
Q 359 1206 359 2328 
Q 359 3453 968 4101 
Q 1578 4750 2638 4750 
Q 3056 4750 3426 4639 
Q 3797 4528 4122 4306 
z
" transform="scale(0.015625)"/>
      <path id="DejaVuSans-6d" d="M 3328 2828 
Q 3544 3216 3844 3400 
Q 4144 3584 4550 3584 
Q 5097 3584 5394 3201 
Q 5691 2819 5691 2113 
L 5691 0 
L 5113 0 
L 5113 2094 
Q 5113 2597 4934 2840 
Q 4756 3084 4391 3084 
Q 3944 3084 3684 2787 
Q 3425 2491 3425 1978 
L 3425 0 
L 2847 0 
L 2847 2094 
Q 2847 2600 2669 2842 
Q 2491 3084 2119 3084 
Q 1678 3084 1418 2786 
Q 1159 2488 1159 1978 
L 1159 0 
L 581 0 
L 581 3500 
L 1159 3500 
L 1159 2956 
Q 1356 3278 1631 3431 
Q 1906 3584 2284 3584 
Q 2666 3584 2933 3390 
Q 3200 3197 3328 2828 
z
" transform="scale(0.015625)"/>
      <path id="DejaVuSans-69" d="M 603 3500 
L 1178 3500 
L 1178 0 
L 603 0 
L 603 3500 
z
M 603 4863 
L 1178 4863 
L 1178 4134 
L 603 4134 
L 603 4863 
z
" transform="scale(0.015625)"/>
      <path id="DejaVuSans-73" d="M 2834 3397 
L 2834 2853 
Q 2591 2978 2328 3040 
Q 2066 3103 1784 3103 
Q 1356 3103 1142 2972 
Q 928 2841 928 2578 
Q 928 2378 1081 2264 
Q 1234 2150 1697 2047 
L 1894 2003 
Q 2506 1872 2764 1633 
Q 3022 1394 3022 966 
Q 3022 478 2636 193 
Q 2250 -91 1575 -91 
Q 1294 -91 989 -36 
Q 684 19 347 128 
L 347 722 
Q 666 556 975 473 
Q 1284 391 1588 391 
Q 1994 391 2212 530 
Q 2431 669 2431 922 
Q 2431 1156 2273 1281 
Q 2116 1406 1581 1522 
L 1381 1569 
Q 847 1681 609 1914 
Q 372 2147 372 2553 
Q 372 3047 722 3315 
Q 1072 3584 1716 3584 
Q 2034 3584 2315 3537 
Q 2597 3491 2834 3397 
z
" transform="scale(0.015625)"/>
      <path id="DejaVuSans-20" transform="scale(0.015625)"/>
      <path id="DejaVuSans-66" d="M 2375 4863 
L 2375 4384 
L 1825 4384 
Q 1516 4384 1395 4259 
Q 1275 4134 1275 3809 
L 1275 3500 
L 2222 3500 
L 2222 3053 
L 1275 3053 
L 1275 0 
L 697 0 
L 697 3053 
L 147 3053 
L 147 3500 
L 697 3500 
L 697 3744 
Q 697 4328 969 4595 
Q 1241 4863 1831 4863 
L 2375 4863 
z
" transform="scale(0.015625)"/>
      <path id="DejaVuSans-52" d="M 2841 2188 
Q 3044 2119 3236 1894 
Q 3428 1669 3622 1275 
L 4263 0 
L 3584 0 
L 2988 1197 
Q 2756 1666 2539 1819 
Q 2322 1972 1947 1972 
L 1259 1972 
L 1259 0 
L 628 0 
L 628 4666 
L 2053 4666 
Q 2853 4666 3247 4331 
Q 3641 3997 3641 3322 
Q 3641 2881 3436 2590 
Q 3231 2300 2841 2188 
z
M 1259 4147 
L 1259 2491 
L 2053 2491 
Q 2509 2491 2742 2702 
Q 2975 2913 2975 3322 
Q 2975 3731 2742 3939 
Q 2509 4147 2053 4147 
L 1259 4147 
z
" transform="scale(0.015625)"/>
      <path id="DejaVuSans-2c" d="M 750 794 
L 1409 794 
L 1409 256 
L 897 -744 
L 494 -744 
L 750 256 
L 750 794 
z
" transform="scale(0.015625)"/>
      <path id="DejaVuSans-47" d="M 3809 666 
L 3809 1919 
L 2778 1919 
L 2778 2438 
L 4434 2438 
L 4434 434 
Q 4069 175 3628 42 
Q 3188 -91 2688 -91 
Q 1594 -91 976 548 
Q 359 1188 359 2328 
Q 359 3472 976 4111 
Q 1594 4750 2688 4750 
Q 3144 4750 3555 4637 
Q 3966 4525 4313 4306 
L 4313 3634 
Q 3963 3931 3569 4081 
Q 3175 4231 2741 4231 
Q 1884 4231 1454 3753 
Q 1025 3275 1025 2328 
Q 1025 1384 1454 906 
Q 1884 428 2741 428 
Q 3075 428 3337 486 
Q 3600 544 3809 666 
z
" transform="scale(0.015625)"/>
      <path id="DejaVuSans-7a" d="M 353 3500 
L 3084 3500 
L 3084 2975 
L 922 459 
L 3084 459 
L 3084 0 
L 275 0 
L 275 525 
L 2438 3041 
L 353 3041 
L 353 3500 
z
" transform="scale(0.015625)"/>
      <path id="DejaVuSans-5a" d="M 359 4666 
L 4025 4666 
L 4025 4184 
L 1075 531 
L 4097 531 
L 4097 0 
L 288 0 
L 288 481 
L 3238 4134 
L 359 4134 
L 359 4666 
z
" transform="scale(0.015625)"/>
      <path id="DejaVuSans-2e" d="M 684 794 
L 1344 794 
L 1344 0 
L 684 0 
L 684 794 
z
" transform="scale(0.015625)"/>
      <path id="DejaVuSans-68" d="M 3513 2113 
L 3513 0 
L 2938 0 
L 2938 2094 
Q 2938 2591 2744 2837 
Q 2550 3084 2163 3084 
Q 1697 3084 1428 2787 
Q 1159 2491 1159 1978 
L 1159 0 
L 581 0 
L 581 4863 
L 1159 4863 
L 1159 2956 
Q 1366 3272 1645 3428 
Q 1925 3584 2291 3584 
Q 2894 3584 3203 3211 
Q 3513 2838 3513 2113 
z
" transform="scale(0.015625)"/>
     </defs>
     <use xlink:href="#DejaVuSans-43"/>
     <use xlink:href="#DejaVuSans-6f" x="69.824219"/>
     <use xlink:href="#DejaVuSans-6d" x="131.005859"/>
     <use xlink:href="#DejaVuSans-70" x="228.417969"/>
     <use xlink:href="#DejaVuSans-61" x="291.894531"/>
     <use xlink:href="#DejaVuSans-72" x="353.173828"/>
     <use xlink:href="#DejaVuSans-69" x="394.287109"/>
     <use xlink:href="#DejaVuSans-73" x="422.070312"/>
     <use xlink:href="#DejaVuSans-6f" x="474.169922"/>
     <use xlink:href="#DejaVuSans-6e" x="535.351562"/>
     <use xlink:href="#DejaVuSans-20" x="598.730469"/>
     <use xlink:href="#DejaVuSans-6f" x="630.517578"/>
     <use xlink:href="#DejaVuSans-66" x="691.699219"/>
     <use xlink:href="#DejaVuSans-20" x="726.904297"/>
     <use xlink:href="#DejaVuSans-61" x="758.691406"/>
     <use xlink:href="#DejaVuSans-73" x="819.970703"/>
     <use xlink:href="#DejaVuSans-73" x="872.070312"/>
     <use xlink:href="#DejaVuSans-65" x="924.169922"/>
     <use xlink:href="#DejaVuSans-73" x="985.693359"/>
     <use xlink:href="#DejaVuSans-73" x="1037.792969"/>
     <use xlink:href="#DejaVuSans-65" x="1089.892578"/>
     <use xlink:href="#DejaVuSans-64" x="1151.416016"/>
     <use xlink:href="#DejaVuSans-20" x="1214.892578"/>
     <use xlink:href="#DejaVuSans-52" x="1246.679688"/>
     <use xlink:href="#DejaVuSans-75" x="1311.662109"/>
     <use xlink:href="#DejaVuSans-73" x="1375.041016"/>
     <use xlink:href="#DejaVuSans-73" x="1427.140625"/>
     <use xlink:href="#DejaVuSans-69" x="1479.240234"/>
     <use xlink:href="#DejaVuSans-61" x="1507.023438"/>
     <use xlink:href="#DejaVuSans-6e" x="1568.302734"/>
     <use xlink:href="#DejaVuSans-20" x="1631.681641"/>
     <use xlink:href="#DejaVuSans-74" x="1663.46875"/>
     <use xlink:href="#DejaVuSans-65" x="1702.677734"/>
     <use xlink:href="#DejaVuSans-72" x="1764.201172"/>
     <use xlink:href="#DejaVuSans-72" x="1803.564453"/>
     <use xlink:href="#DejaVuSans-69" x="1844.677734"/>
     <use xlink:href="#DejaVuSans-74" x="1872.460938"/>
     <use xlink:href="#DejaVuSans-6f" x="1911.669922"/>
     <use xlink:href="#DejaVuSans-72" x="1972.851562"/>
     <use xlink:href="#DejaVuSans-79" x="2013.964844"/>
     <use xlink:href="#DejaVuSans-20" x="2073.144531"/>
     <use xlink:href="#DejaVuSans-63" x="2104.931641"/>
     <use xlink:href="#DejaVuSans-6f" x="2159.912109"/>
     <use xlink:href="#DejaVuSans-6e" x="2221.09375"/>
     <use xlink:href="#DejaVuSans-74" x="2284.472656"/>
     <use xlink:href="#DejaVuSans-72" x="2323.681641"/>
     <use xlink:href="#DejaVuSans-6f" x="2362.544922"/>
     <use xlink:href="#DejaVuSans-6c" x="2423.726562"/>
     <use xlink:href="#DejaVuSans-2c" x="2451.509766"/>
     <use xlink:href="#DejaVuSans-20" x="2483.296875"/>
     <use xlink:href="#DejaVuSans-6c" x="2515.083984"/>
     <use xlink:href="#DejaVuSans-69" x="2542.867188"/>
     <use xlink:href="#DejaVuSans-76" x="2570.650391"/>
     <use xlink:href="#DejaVuSans-65" x="2629.830078"/>
     <use xlink:href="#DejaVuSans-75" x="2691.353516"/>
     <use xlink:href="#DejaVuSans-61" x="2754.732422"/>
     <use xlink:href="#DejaVuSans-6d" x="2816.011719"/>
     <use xlink:href="#DejaVuSans-61" x="2913.423828"/>
     <use xlink:href="#DejaVuSans-70" x="2974.703125"/>
     <use xlink:href="#DejaVuSans-20" x="3038.179688"/>
     <use xlink:href="#DejaVuSans-76" x="3069.966797"/>
     <use xlink:href="#DejaVuSans-73" x="3129.146484"/>
     <use xlink:href="#DejaVuSans-20" x="3181.246094"/>
     <use xlink:href="#DejaVuSans-4e" x="3213.033203"/>
     <use xlink:href="#DejaVuSans-6f" x="3287.837891"/>
     <use xlink:href="#DejaVuSans-76" x="3349.019531"/>
     <use xlink:href="#DejaVuSans-61" x="3408.199219"/>
     <use xlink:href="#DejaVuSans-79" x="3469.478516"/>
     <use xlink:href="#DejaVuSans-61" x="3528.658203"/>
     <use xlink:href="#DejaVuSans-20" x="3589.9375"/>
     <use xlink:href="#DejaVuSans-47" x="3621.724609"/>
     <use xlink:href="#DejaVuSans-61" x="3699.214844"/>
     <use xlink:href="#DejaVuSans-7a" x="3760.494141"/>
     <use xlink:href="#DejaVuSans-65" x="3812.984375"/>
     <use xlink:href="#DejaVuSans-74" x="3874.507812"/>
     <use xlink:href="#DejaVuSans-61" x="3913.716797"/>
     <use xlink:href="#DejaVuSans-20" x="3974.996094"/>
     <use xlink:href="#DejaVuSans-76" x="4006.783203"/>
     <use xlink:href="#DejaVuSans-73" x="4065.962891"/>
     <use xlink:href="#DejaVuSans-20" x="4118.0625"/>
     <use xlink:href="#DejaVuSans-4e" x="4149.849609"/>
     <use xlink:href="#DejaVuSans-5a" x="4224.654297"/>
     <use xlink:href="#DejaVuSans-5a" x="4293.160156"/>
     <use xlink:href="#DejaVuSans-2e" x="4361.666016"/>
     <use xlink:href="#DejaVuSans-63" x="4393.453125"/>
     <use xlink:href="#DejaVuSans-68" x="4448.433594"/>
    </g>
   </g>
   <g id="legend_1">
    <g id="patch_7">
     <path d="M 489.974219 79.555938 
L 608.9925 79.555938 
Q 611.1925 79.555938 611.1925 77.355938 
L 611.1925 30.018125 
Q 611.1925 27.818125 608.9925 27.818125 
L 489.974219 27.818125 
Q 487.774219 27.818125 487.774219 30.018125 
L 487.774219 77.355938 
Q 487.774219 79.555938 489.974219 79.555938 
z
" style="fill: #eaeaf2; opacity: 0.8; stroke: #cccccc; stroke-linejoin: miter"/>
    </g>
    <g id="line2d_25">
     <path d="M 492.174219 36.726406 
L 503.174219 36.726406 
L 514.174219 36.726406 
" style="fill: none; stroke: #4c72b0; stroke-width: 1.5; stroke-linecap: round"/>
    </g>
    <g id="text_22">
     <!-- liveuamap -->
     <g style="fill: #262626" transform="translate(522.974219 40.576406) scale(0.11 -0.11)">
      <use xlink:href="#DejaVuSans-6c"/>
      <use xlink:href="#DejaVuSans-69" x="27.783203"/>
      <use xlink:href="#DejaVuSans-76" x="55.566406"/>
      <use xlink:href="#DejaVuSans-65" x="114.746094"/>
      <use xlink:href="#DejaVuSans-75" x="176.269531"/>
      <use xlink:href="#DejaVuSans-61" x="239.648438"/>
      <use xlink:href="#DejaVuSans-6d" x="300.927734"/>
      <use xlink:href="#DejaVuSans-61" x="398.339844"/>
      <use xlink:href="#DejaVuSans-70" x="459.619141"/>
     </g>
    </g>
    <g id="line2d_26">
     <path d="M 492.174219 52.872344 
L 503.174219 52.872344 
L 514.174219 52.872344 
" style="fill: none; stroke: #dd8452; stroke-width: 1.5; stroke-linecap: round"/>
    </g>
    <g id="text_23">
     <!-- Novaya Gazeta -->
     <g style="fill: #262626" transform="translate(522.974219 56.722344) scale(0.11 -0.11)">
      <use xlink:href="#DejaVuSans-4e"/>
      <use xlink:href="#DejaVuSans-6f" x="74.804688"/>
      <use xlink:href="#DejaVuSans-76" x="135.986328"/>
      <use xlink:href="#DejaVuSans-61" x="195.166016"/>
      <use xlink:href="#DejaVuSans-79" x="256.445312"/>
      <use xlink:href="#DejaVuSans-61" x="315.625"/>
      <use xlink:href="#DejaVuSans-20" x="376.904297"/>
      <use xlink:href="#DejaVuSans-47" x="408.691406"/>
      <use xlink:href="#DejaVuSans-61" x="486.181641"/>
      <use xlink:href="#DejaVuSans-7a" x="547.460938"/>
      <use xlink:href="#DejaVuSans-65" x="599.951172"/>
      <use xlink:href="#DejaVuSans-74" x="661.474609"/>
      <use xlink:href="#DejaVuSans-61" x="700.683594"/>
     </g>
    </g>
    <g id="line2d_27">
     <path d="M 492.174219 69.018281 
L 503.174219 69.018281 
L 514.174219 69.018281 
" style="fill: none; stroke: #55a868; stroke-width: 1.5; stroke-linecap: round"/>
    </g>
    <g id="text_24">
     <!-- NZZ.ch -->
     <g style="fill: #262626" transform="translate(522.974219 72.868281) scale(0.11 -0.11)">
      <use xlink:href="#DejaVuSans-4e"/>
      <use xlink:href="#DejaVuSans-5a" x="74.804688"/>
      <use xlink:href="#DejaVuSans-5a" x="143.310547"/>
      <use xlink:href="#DejaVuSans-2e" x="211.816406"/>
      <use xlink:href="#DejaVuSans-63" x="243.603516"/>
      <use xlink:href="#DejaVuSans-68" x="298.583984"/>
     </g>
    </g>
   </g>
  </g>
 </g>
 <defs>
  <clipPath id="pe7b72733c4">
   <rect x="58.6925" y="22.318125" width="558" height="277.2"/>
  </clipPath>
 </defs>
</svg>
