<?xml version="1.0" encoding="utf-8" standalone="no"?>
<!DOCTYPE svg PUBLIC "-//W3C//DTD SVG 1.1//EN"
  "http://www.w3.org/Graphics/SVG/1.1/DTD/svg11.dtd">
<svg xmlns:xlink="http://www.w3.org/1999/xlink" width="639.50625pt" height="408.059031pt" viewBox="0 0 639.50625 408.059031" xmlns="http://www.w3.org/2000/svg" version="1.1">
 <metadata>
  <rdf:RDF xmlns:dc="http://purl.org/dc/elements/1.1/" xmlns:cc="http://creativecommons.org/ns#" xmlns:rdf="http://www.w3.org/1999/02/22-rdf-syntax-ns#">
   <cc:Work>
    <dc:type rdf:resource="http://purl.org/dc/dcmitype/StillImage"/>
    <dc:date>2023-03-15T22:04:11.508558</dc:date>
    <dc:format>image/svg+xml</dc:format>
    <dc:creator>
     <cc:Agent>
      <dc:title>Matplotlib v3.6.2, https://matplotlib.org/</dc:title>
     </cc:Agent>
    </dc:creator>
   </cc:Work>
  </rdf:RDF>
 </metadata>
 <defs>
  <style type="text/css">*{stroke-linejoin: round; stroke-linecap: butt}</style>
 </defs>
 <g id="figure_1">
  <g id="patch_1">
   <path d="M 0 408.059031 
L 639.50625 408.059031 
L 639.50625 0 
L 0 0 
z
" style="fill: #ffffff"/>
  </g>
  <g id="axes_1">
   <g id="patch_2">
    <path d="M 74.30625 368.3955 
L 632.30625 368.3955 
L 632.30625 35.7555 
L 74.30625 35.7555 
z
" style="fill: #eaeaf2"/>
   </g>
   <g id="matplotlib.axis_1">
    <g id="xtick_1">
     <g id="line2d_1">
      <path d="M 74.30625 368.3955 
L 74.30625 35.7555 
" clip-path="url(#p08905e265e)" style="fill: none; stroke: #ffffff; stroke-linecap: round"/>
     </g>
    </g>
    <g id="xtick_2">
     <g id="line2d_2">
      <path d="M 81.590845 368.3955 
L 81.590845 35.7555 
" clip-path="url(#p08905e265e)" style="fill: none; stroke: #ffffff; stroke-linecap: round"/>
     </g>
     <g id="text_1">
      <!-- Mar -->
      <g style="fill: #262626" transform="translate(71.213892 386.253781) scale(0.11 -0.11)">
       <defs>
        <path id="DejaVuSans-4d" d="M 628 4666 
L 1569 4666 
L 2759 1491 
L 3956 4666 
L 4897 4666 
L 4897 0 
L 4281 0 
L 4281 4097 
L 3078 897 
L 2444 897 
L 1241 4097 
L 1241 0 
L 628 0 
L 628 4666 
z
" transform="scale(0.015625)"/>
        <path id="DejaVuSans-61" d="M 2194 1759 
Q 1497 1759 1228 1600 
Q 959 1441 959 1056 
Q 959 750 1161 570 
Q 1363 391 1709 391 
Q 2188 391 2477 730 
Q 2766 1069 2766 1631 
L 2766 1759 
L 2194 1759 
z
M 3341 1997 
L 3341 0 
L 2766 0 
L 2766 531 
Q 2569 213 2275 61 
Q 1981 -91 1556 -91 
Q 1019 -91 701 211 
Q 384 513 384 1019 
Q 384 1609 779 1909 
Q 1175 2209 1959 2209 
L 2766 2209 
L 2766 2266 
Q 2766 2663 2505 2880 
Q 2244 3097 1772 3097 
Q 1472 3097 1187 3025 
Q 903 2953 641 2809 
L 641 3341 
Q 956 3463 1253 3523 
Q 1550 3584 1831 3584 
Q 2591 3584 2966 3190 
Q 3341 2797 3341 1997 
z
" transform="scale(0.015625)"/>
        <path id="DejaVuSans-72" d="M 2631 2963 
Q 2534 3019 2420 3045 
Q 2306 3072 2169 3072 
Q 1681 3072 1420 2755 
Q 1159 2438 1159 1844 
L 1159 0 
L 581 0 
L 581 3500 
L 1159 3500 
L 1159 2956 
Q 1341 3275 1631 3429 
Q 1922 3584 2338 3584 
Q 2397 3584 2469 3576 
Q 2541 3569 2628 3553 
L 2631 2963 
z
" transform="scale(0.015625)"/>
       </defs>
       <use xlink:href="#DejaVuSans-4d"/>
       <use xlink:href="#DejaVuSans-61" x="86.279297"/>
       <use xlink:href="#DejaVuSans-72" x="147.558594"/>
      </g>
     </g>
    </g>
    <g id="xtick_3">
     <g id="line2d_3">
      <path d="M 126.755336 368.3955 
L 126.755336 35.7555 
" clip-path="url(#p08905e265e)" style="fill: none; stroke: #ffffff; stroke-linecap: round"/>
     </g>
     <g id="text_2">
      <!-- Apr -->
      <g style="fill: #262626" transform="translate(117.240336 386.253781) scale(0.11 -0.11)">
       <defs>
        <path id="DejaVuSans-41" d="M 2188 4044 
L 1331 1722 
L 3047 1722 
L 2188 4044 
z
M 1831 4666 
L 2547 4666 
L 4325 0 
L 3669 0 
L 3244 1197 
L 1141 1197 
L 716 0 
L 50 0 
L 1831 4666 
z
" transform="scale(0.015625)"/>
        <path id="DejaVuSans-70" d="M 1159 525 
L 1159 -1331 
L 581 -1331 
L 581 3500 
L 1159 3500 
L 1159 2969 
Q 1341 3281 1617 3432 
Q 1894 3584 2278 3584 
Q 2916 3584 3314 3078 
Q 3713 2572 3713 1747 
Q 3713 922 3314 415 
Q 2916 -91 2278 -91 
Q 1894 -91 1617 61 
Q 1341 213 1159 525 
z
M 3116 1747 
Q 3116 2381 2855 2742 
Q 2594 3103 2138 3103 
Q 1681 3103 1420 2742 
Q 1159 2381 1159 1747 
Q 1159 1113 1420 752 
Q 1681 391 2138 391 
Q 2594 391 2855 752 
Q 3116 1113 3116 1747 
z
" transform="scale(0.015625)"/>
       </defs>
       <use xlink:href="#DejaVuSans-41"/>
       <use xlink:href="#DejaVuSans-70" x="68.408203"/>
       <use xlink:href="#DejaVuSans-72" x="131.884766"/>
      </g>
     </g>
    </g>
    <g id="xtick_4">
     <g id="line2d_4">
      <path d="M 170.462908 368.3955 
L 170.462908 35.7555 
" clip-path="url(#p08905e265e)" style="fill: none; stroke: #ffffff; stroke-linecap: round"/>
     </g>
     <g id="text_3">
      <!-- May -->
      <g style="fill: #262626" transform="translate(159.091658 386.253781) scale(0.11 -0.11)">
       <defs>
        <path id="DejaVuSans-79" d="M 2059 -325 
Q 1816 -950 1584 -1140 
Q 1353 -1331 966 -1331 
L 506 -1331 
L 506 -850 
L 844 -850 
Q 1081 -850 1212 -737 
Q 1344 -625 1503 -206 
L 1606 56 
L 191 3500 
L 800 3500 
L 1894 763 
L 2988 3500 
L 3597 3500 
L 2059 -325 
z
" transform="scale(0.015625)"/>
       </defs>
       <use xlink:href="#DejaVuSans-4d"/>
       <use xlink:href="#DejaVuSans-61" x="86.279297"/>
       <use xlink:href="#DejaVuSans-79" x="147.558594"/>
      </g>
     </g>
    </g>
    <g id="xtick_5">
     <g id="line2d_5">
      <path d="M 215.627399 368.3955 
L 215.627399 35.7555 
" clip-path="url(#p08905e265e)" style="fill: none; stroke: #ffffff; stroke-linecap: round"/>
     </g>
     <g id="text_4">
      <!-- Jun -->
      <g style="fill: #262626" transform="translate(207.033649 386.253781) scale(0.11 -0.11)">
       <defs>
        <path id="DejaVuSans-4a" d="M 628 4666 
L 1259 4666 
L 1259 325 
Q 1259 -519 939 -900 
Q 619 -1281 -91 -1281 
L -331 -1281 
L -331 -750 
L -134 -750 
Q 284 -750 456 -515 
Q 628 -281 628 325 
L 628 4666 
z
" transform="scale(0.015625)"/>
        <path id="DejaVuSans-75" d="M 544 1381 
L 544 3500 
L 1119 3500 
L 1119 1403 
Q 1119 906 1312 657 
Q 1506 409 1894 409 
Q 2359 409 2629 706 
Q 2900 1003 2900 1516 
L 2900 3500 
L 3475 3500 
L 3475 0 
L 2900 0 
L 2900 538 
Q 2691 219 2414 64 
Q 2138 -91 1772 -91 
Q 1169 -91 856 284 
Q 544 659 544 1381 
z
M 1991 3584 
L 1991 3584 
z
" transform="scale(0.015625)"/>
        <path id="DejaVuSans-6e" d="M 3513 2113 
L 3513 0 
L 2938 0 
L 2938 2094 
Q 2938 2591 2744 2837 
Q 2550 3084 2163 3084 
Q 1697 3084 1428 2787 
Q 1159 2491 1159 1978 
L 1159 0 
L 581 0 
L 581 3500 
L 1159 3500 
L 1159 2956 
Q 1366 3272 1645 3428 
Q 1925 3584 2291 3584 
Q 2894 3584 3203 3211 
Q 3513 2838 3513 2113 
z
" transform="scale(0.015625)"/>
       </defs>
       <use xlink:href="#DejaVuSans-4a"/>
       <use xlink:href="#DejaVuSans-75" x="29.492188"/>
       <use xlink:href="#DejaVuSans-6e" x="92.871094"/>
      </g>
     </g>
    </g>
    <g id="xtick_6">
     <g id="line2d_6">
      <path d="M 259.334971 368.3955 
L 259.334971 35.7555 
" clip-path="url(#p08905e265e)" style="fill: none; stroke: #ffffff; stroke-linecap: round"/>
     </g>
     <g id="text_5">
      <!-- Jul -->
      <g style="fill: #262626" transform="translate(252.698877 386.253781) scale(0.11 -0.11)">
       <defs>
        <path id="DejaVuSans-6c" d="M 603 4863 
L 1178 4863 
L 1178 0 
L 603 0 
L 603 4863 
z
" transform="scale(0.015625)"/>
       </defs>
       <use xlink:href="#DejaVuSans-4a"/>
       <use xlink:href="#DejaVuSans-75" x="29.492188"/>
       <use xlink:href="#DejaVuSans-6c" x="92.871094"/>
      </g>
     </g>
    </g>
    <g id="xtick_7">
     <g id="line2d_7">
      <path d="M 304.499461 368.3955 
L 304.499461 35.7555 
" clip-path="url(#p08905e265e)" style="fill: none; stroke: #ffffff; stroke-linecap: round"/>
     </g>
     <g id="text_6">
      <!-- Aug -->
      <g style="fill: #262626" transform="translate(293.759852 386.253781) scale(0.11 -0.11)">
       <defs>
        <path id="DejaVuSans-67" d="M 2906 1791 
Q 2906 2416 2648 2759 
Q 2391 3103 1925 3103 
Q 1463 3103 1205 2759 
Q 947 2416 947 1791 
Q 947 1169 1205 825 
Q 1463 481 1925 481 
Q 2391 481 2648 825 
Q 2906 1169 2906 1791 
z
M 3481 434 
Q 3481 -459 3084 -895 
Q 2688 -1331 1869 -1331 
Q 1566 -1331 1297 -1286 
Q 1028 -1241 775 -1147 
L 775 -588 
Q 1028 -725 1275 -790 
Q 1522 -856 1778 -856 
Q 2344 -856 2625 -561 
Q 2906 -266 2906 331 
L 2906 616 
Q 2728 306 2450 153 
Q 2172 0 1784 0 
Q 1141 0 747 490 
Q 353 981 353 1791 
Q 353 2603 747 3093 
Q 1141 3584 1784 3584 
Q 2172 3584 2450 3431 
Q 2728 3278 2906 2969 
L 2906 3500 
L 3481 3500 
L 3481 434 
z
" transform="scale(0.015625)"/>
       </defs>
       <use xlink:href="#DejaVuSans-41"/>
       <use xlink:href="#DejaVuSans-75" x="68.408203"/>
       <use xlink:href="#DejaVuSans-67" x="131.787109"/>
      </g>
     </g>
    </g>
    <g id="xtick_8">
     <g id="line2d_8">
      <path d="M 349.663952 368.3955 
L 349.663952 35.7555 
" clip-path="url(#p08905e265e)" style="fill: none; stroke: #ffffff; stroke-linecap: round"/>
     </g>
     <g id="text_7">
      <!-- Sep -->
      <g style="fill: #262626" transform="translate(339.296452 386.253781) scale(0.11 -0.11)">
       <defs>
        <path id="DejaVuSans-53" d="M 3425 4513 
L 3425 3897 
Q 3066 4069 2747 4153 
Q 2428 4238 2131 4238 
Q 1616 4238 1336 4038 
Q 1056 3838 1056 3469 
Q 1056 3159 1242 3001 
Q 1428 2844 1947 2747 
L 2328 2669 
Q 3034 2534 3370 2195 
Q 3706 1856 3706 1288 
Q 3706 609 3251 259 
Q 2797 -91 1919 -91 
Q 1588 -91 1214 -16 
Q 841 59 441 206 
L 441 856 
Q 825 641 1194 531 
Q 1563 422 1919 422 
Q 2459 422 2753 634 
Q 3047 847 3047 1241 
Q 3047 1584 2836 1778 
Q 2625 1972 2144 2069 
L 1759 2144 
Q 1053 2284 737 2584 
Q 422 2884 422 3419 
Q 422 4038 858 4394 
Q 1294 4750 2059 4750 
Q 2388 4750 2728 4690 
Q 3069 4631 3425 4513 
z
" transform="scale(0.015625)"/>
        <path id="DejaVuSans-65" d="M 3597 1894 
L 3597 1613 
L 953 1613 
Q 991 1019 1311 708 
Q 1631 397 2203 397 
Q 2534 397 2845 478 
Q 3156 559 3463 722 
L 3463 178 
Q 3153 47 2828 -22 
Q 2503 -91 2169 -91 
Q 1331 -91 842 396 
Q 353 884 353 1716 
Q 353 2575 817 3079 
Q 1281 3584 2069 3584 
Q 2775 3584 3186 3129 
Q 3597 2675 3597 1894 
z
M 3022 2063 
Q 3016 2534 2758 2815 
Q 2500 3097 2075 3097 
Q 1594 3097 1305 2825 
Q 1016 2553 972 2059 
L 3022 2063 
z
" transform="scale(0.015625)"/>
       </defs>
       <use xlink:href="#DejaVuSans-53"/>
       <use xlink:href="#DejaVuSans-65" x="63.476562"/>
       <use xlink:href="#DejaVuSans-70" x="125"/>
      </g>
     </g>
    </g>
    <g id="xtick_9">
     <g id="line2d_9">
      <path d="M 393.371524 368.3955 
L 393.371524 35.7555 
" clip-path="url(#p08905e265e)" style="fill: none; stroke: #ffffff; stroke-linecap: round"/>
     </g>
     <g id="text_8">
      <!-- Oct -->
      <g style="fill: #262626" transform="translate(383.86168 386.253781) scale(0.11 -0.11)">
       <defs>
        <path id="DejaVuSans-4f" d="M 2522 4238 
Q 1834 4238 1429 3725 
Q 1025 3213 1025 2328 
Q 1025 1447 1429 934 
Q 1834 422 2522 422 
Q 3209 422 3611 934 
Q 4013 1447 4013 2328 
Q 4013 3213 3611 3725 
Q 3209 4238 2522 4238 
z
M 2522 4750 
Q 3503 4750 4090 4092 
Q 4678 3434 4678 2328 
Q 4678 1225 4090 567 
Q 3503 -91 2522 -91 
Q 1538 -91 948 565 
Q 359 1222 359 2328 
Q 359 3434 948 4092 
Q 1538 4750 2522 4750 
z
" transform="scale(0.015625)"/>
        <path id="DejaVuSans-63" d="M 3122 3366 
L 3122 2828 
Q 2878 2963 2633 3030 
Q 2388 3097 2138 3097 
Q 1578 3097 1268 2742 
Q 959 2388 959 1747 
Q 959 1106 1268 751 
Q 1578 397 2138 397 
Q 2388 397 2633 464 
Q 2878 531 3122 666 
L 3122 134 
Q 2881 22 2623 -34 
Q 2366 -91 2075 -91 
Q 1284 -91 818 406 
Q 353 903 353 1747 
Q 353 2603 823 3093 
Q 1294 3584 2113 3584 
Q 2378 3584 2631 3529 
Q 2884 3475 3122 3366 
z
" transform="scale(0.015625)"/>
        <path id="DejaVuSans-74" d="M 1172 4494 
L 1172 3500 
L 2356 3500 
L 2356 3053 
L 1172 3053 
L 1172 1153 
Q 1172 725 1289 603 
Q 1406 481 1766 481 
L 2356 481 
L 2356 0 
L 1766 0 
Q 1100 0 847 248 
Q 594 497 594 1153 
L 594 3053 
L 172 3053 
L 172 3500 
L 594 3500 
L 594 4494 
L 1172 4494 
z
" transform="scale(0.015625)"/>
       </defs>
       <use xlink:href="#DejaVuSans-4f"/>
       <use xlink:href="#DejaVuSans-63" x="78.710938"/>
       <use xlink:href="#DejaVuSans-74" x="133.691406"/>
      </g>
     </g>
    </g>
    <g id="xtick_10">
     <g id="line2d_10">
      <path d="M 438.536015 368.3955 
L 438.536015 35.7555 
" clip-path="url(#p08905e265e)" style="fill: none; stroke: #ffffff; stroke-linecap: round"/>
     </g>
     <g id="text_9">
      <!-- Nov -->
      <g style="fill: #262626" transform="translate(427.800703 386.253781) scale(0.11 -0.11)">
       <defs>
        <path id="DejaVuSans-4e" d="M 628 4666 
L 1478 4666 
L 3547 763 
L 3547 4666 
L 4159 4666 
L 4159 0 
L 3309 0 
L 1241 3903 
L 1241 0 
L 628 0 
L 628 4666 
z
" transform="scale(0.015625)"/>
        <path id="DejaVuSans-6f" d="M 1959 3097 
Q 1497 3097 1228 2736 
Q 959 2375 959 1747 
Q 959 1119 1226 758 
Q 1494 397 1959 397 
Q 2419 397 2687 759 
Q 2956 1122 2956 1747 
Q 2956 2369 2687 2733 
Q 2419 3097 1959 3097 
z
M 1959 3584 
Q 2709 3584 3137 3096 
Q 3566 2609 3566 1747 
Q 3566 888 3137 398 
Q 2709 -91 1959 -91 
Q 1206 -91 779 398 
Q 353 888 353 1747 
Q 353 2609 779 3096 
Q 1206 3584 1959 3584 
z
" transform="scale(0.015625)"/>
        <path id="DejaVuSans-76" d="M 191 3500 
L 800 3500 
L 1894 563 
L 2988 3500 
L 3597 3500 
L 2284 0 
L 1503 0 
L 191 3500 
z
" transform="scale(0.015625)"/>
       </defs>
       <use xlink:href="#DejaVuSans-4e"/>
       <use xlink:href="#DejaVuSans-6f" x="74.804688"/>
       <use xlink:href="#DejaVuSans-76" x="135.986328"/>
      </g>
     </g>
    </g>
    <g id="xtick_11">
     <g id="line2d_11">
      <path d="M 482.243587 368.3955 
L 482.243587 35.7555 
" clip-path="url(#p08905e265e)" style="fill: none; stroke: #ffffff; stroke-linecap: round"/>
     </g>
     <g id="text_10">
      <!-- Dec -->
      <g style="fill: #262626" transform="translate(471.600227 386.253781) scale(0.11 -0.11)">
       <defs>
        <path id="DejaVuSans-44" d="M 1259 4147 
L 1259 519 
L 2022 519 
Q 2988 519 3436 956 
Q 3884 1394 3884 2338 
Q 3884 3275 3436 3711 
Q 2988 4147 2022 4147 
L 1259 4147 
z
M 628 4666 
L 1925 4666 
Q 3281 4666 3915 4102 
Q 4550 3538 4550 2338 
Q 4550 1131 3912 565 
Q 3275 0 1925 0 
L 628 0 
L 628 4666 
z
" transform="scale(0.015625)"/>
       </defs>
       <use xlink:href="#DejaVuSans-44"/>
       <use xlink:href="#DejaVuSans-65" x="77.001953"/>
       <use xlink:href="#DejaVuSans-63" x="138.525391"/>
      </g>
     </g>
    </g>
    <g id="xtick_12">
     <g id="line2d_12">
      <path d="M 527.408078 368.3955 
L 527.408078 35.7555 
" clip-path="url(#p08905e265e)" style="fill: none; stroke: #ffffff; stroke-linecap: round"/>
     </g>
     <g id="text_11">
      <!-- Jan -->
      <g style="fill: #262626" transform="translate(518.929484 386.253781) scale(0.11 -0.11)">
       <use xlink:href="#DejaVuSans-4a"/>
       <use xlink:href="#DejaVuSans-61" x="29.492188"/>
       <use xlink:href="#DejaVuSans-6e" x="90.771484"/>
      </g>
      <!-- 2023 -->
      <g style="fill: #262626" transform="translate(513.410578 398.571375) scale(0.11 -0.11)">
       <defs>
        <path id="DejaVuSans-32" d="M 1228 531 
L 3431 531 
L 3431 0 
L 469 0 
L 469 531 
Q 828 903 1448 1529 
Q 2069 2156 2228 2338 
Q 2531 2678 2651 2914 
Q 2772 3150 2772 3378 
Q 2772 3750 2511 3984 
Q 2250 4219 1831 4219 
Q 1534 4219 1204 4116 
Q 875 4013 500 3803 
L 500 4441 
Q 881 4594 1212 4672 
Q 1544 4750 1819 4750 
Q 2544 4750 2975 4387 
Q 3406 4025 3406 3419 
Q 3406 3131 3298 2873 
Q 3191 2616 2906 2266 
Q 2828 2175 2409 1742 
Q 1991 1309 1228 531 
z
" transform="scale(0.015625)"/>
        <path id="DejaVuSans-30" d="M 2034 4250 
Q 1547 4250 1301 3770 
Q 1056 3291 1056 2328 
Q 1056 1369 1301 889 
Q 1547 409 2034 409 
Q 2525 409 2770 889 
Q 3016 1369 3016 2328 
Q 3016 3291 2770 3770 
Q 2525 4250 2034 4250 
z
M 2034 4750 
Q 2819 4750 3233 4129 
Q 3647 3509 3647 2328 
Q 3647 1150 3233 529 
Q 2819 -91 2034 -91 
Q 1250 -91 836 529 
Q 422 1150 422 2328 
Q 422 3509 836 4129 
Q 1250 4750 2034 4750 
z
" transform="scale(0.015625)"/>
        <path id="DejaVuSans-33" d="M 2597 2516 
Q 3050 2419 3304 2112 
Q 3559 1806 3559 1356 
Q 3559 666 3084 287 
Q 2609 -91 1734 -91 
Q 1441 -91 1130 -33 
Q 819 25 488 141 
L 488 750 
Q 750 597 1062 519 
Q 1375 441 1716 441 
Q 2309 441 2620 675 
Q 2931 909 2931 1356 
Q 2931 1769 2642 2001 
Q 2353 2234 1838 2234 
L 1294 2234 
L 1294 2753 
L 1863 2753 
Q 2328 2753 2575 2939 
Q 2822 3125 2822 3475 
Q 2822 3834 2567 4026 
Q 2313 4219 1838 4219 
Q 1578 4219 1281 4162 
Q 984 4106 628 3988 
L 628 4550 
Q 988 4650 1302 4700 
Q 1616 4750 1894 4750 
Q 2613 4750 3031 4423 
Q 3450 4097 3450 3541 
Q 3450 3153 3228 2886 
Q 3006 2619 2597 2516 
z
" transform="scale(0.015625)"/>
       </defs>
       <use xlink:href="#DejaVuSans-32"/>
       <use xlink:href="#DejaVuSans-30" x="63.623047"/>
       <use xlink:href="#DejaVuSans-32" x="127.246094"/>
       <use xlink:href="#DejaVuSans-33" x="190.869141"/>
      </g>
     </g>
    </g>
    <g id="xtick_13">
     <g id="line2d_13">
      <path d="M 572.572569 368.3955 
L 572.572569 35.7555 
" clip-path="url(#p08905e265e)" style="fill: none; stroke: #ffffff; stroke-linecap: round"/>
     </g>
     <g id="text_12">
      <!-- Feb -->
      <g style="fill: #262626" transform="translate(562.83585 386.253781) scale(0.11 -0.11)">
       <defs>
        <path id="DejaVuSans-46" d="M 628 4666 
L 3309 4666 
L 3309 4134 
L 1259 4134 
L 1259 2759 
L 3109 2759 
L 3109 2228 
L 1259 2228 
L 1259 0 
L 628 0 
L 628 4666 
z
" transform="scale(0.015625)"/>
        <path id="DejaVuSans-62" d="M 3116 1747 
Q 3116 2381 2855 2742 
Q 2594 3103 2138 3103 
Q 1681 3103 1420 2742 
Q 1159 2381 1159 1747 
Q 1159 1113 1420 752 
Q 1681 391 2138 391 
Q 2594 391 2855 752 
Q 3116 1113 3116 1747 
z
M 1159 2969 
Q 1341 3281 1617 3432 
Q 1894 3584 2278 3584 
Q 2916 3584 3314 3078 
Q 3713 2572 3713 1747 
Q 3713 922 3314 415 
Q 2916 -91 2278 -91 
Q 1894 -91 1617 61 
Q 1341 213 1159 525 
L 1159 0 
L 581 0 
L 581 4863 
L 1159 4863 
L 1159 2969 
z
" transform="scale(0.015625)"/>
       </defs>
       <use xlink:href="#DejaVuSans-46"/>
       <use xlink:href="#DejaVuSans-65" x="52.019531"/>
       <use xlink:href="#DejaVuSans-62" x="113.542969"/>
      </g>
     </g>
    </g>
    <g id="xtick_14">
     <g id="line2d_14">
      <path d="M 613.366302 368.3955 
L 613.366302 35.7555 
" clip-path="url(#p08905e265e)" style="fill: none; stroke: #ffffff; stroke-linecap: round"/>
     </g>
     <g id="text_13">
      <!-- Mar -->
      <g style="fill: #262626" transform="translate(602.989349 386.253781) scale(0.11 -0.11)">
       <use xlink:href="#DejaVuSans-4d"/>
       <use xlink:href="#DejaVuSans-61" x="86.279297"/>
       <use xlink:href="#DejaVuSans-72" x="147.558594"/>
      </g>
     </g>
    </g>
    <g id="xtick_15">
     <g id="line2d_15">
      <path d="M 632.30625 368.3955 
L 632.30625 35.7555 
" clip-path="url(#p08905e265e)" style="fill: none; stroke: #ffffff; stroke-linecap: round"/>
     </g>
    </g>
    <g id="xtick_16"/>
    <g id="xtick_17"/>
    <g id="xtick_18"/>
    <g id="xtick_19"/>
    <g id="xtick_20"/>
    <g id="xtick_21"/>
    <g id="xtick_22"/>
    <g id="xtick_23"/>
    <g id="xtick_24"/>
    <g id="xtick_25"/>
    <g id="xtick_26"/>
    <g id="xtick_27"/>
    <g id="xtick_28"/>
    <g id="xtick_29"/>
    <g id="xtick_30"/>
    <g id="xtick_31"/>
    <g id="xtick_32"/>
    <g id="xtick_33"/>
    <g id="xtick_34"/>
    <g id="xtick_35"/>
    <g id="xtick_36"/>
    <g id="xtick_37"/>
    <g id="xtick_38"/>
    <g id="xtick_39"/>
    <g id="xtick_40"/>
    <g id="xtick_41"/>
    <g id="xtick_42"/>
    <g id="xtick_43"/>
    <g id="xtick_44"/>
    <g id="xtick_45"/>
    <g id="xtick_46"/>
    <g id="xtick_47"/>
    <g id="xtick_48"/>
    <g id="xtick_49"/>
    <g id="xtick_50"/>
    <g id="xtick_51"/>
    <g id="xtick_52"/>
    <g id="xtick_53"/>
    <g id="xtick_54"/>
    <g id="xtick_55"/>
    <g id="xtick_56"/>
    <g id="xtick_57"/>
    <g id="xtick_58"/>
    <g id="xtick_59"/>
    <g id="xtick_60"/>
    <g id="xtick_61"/>
    <g id="xtick_62"/>
    <g id="xtick_63"/>
    <g id="xtick_64"/>
    <g id="xtick_65"/>
    <g id="xtick_66"/>
    <g id="xtick_67"/>
    <g id="xtick_68"/>
    <g id="xtick_69"/>
   </g>
   <g id="matplotlib.axis_2">
    <g id="ytick_1">
     <g id="line2d_16">
      <path d="M 74.30625 345.16762 
L 632.30625 345.16762 
" clip-path="url(#p08905e265e)" style="fill: none; stroke: #ffffff; stroke-linecap: round"/>
     </g>
     <g id="text_14">
      <!-- 60000 -->
      <g style="fill: #262626" transform="translate(29.8125 349.346761) scale(0.11 -0.11)">
       <defs>
        <path id="DejaVuSans-36" d="M 2113 2584 
Q 1688 2584 1439 2293 
Q 1191 2003 1191 1497 
Q 1191 994 1439 701 
Q 1688 409 2113 409 
Q 2538 409 2786 701 
Q 3034 994 3034 1497 
Q 3034 2003 2786 2293 
Q 2538 2584 2113 2584 
z
M 3366 4563 
L 3366 3988 
Q 3128 4100 2886 4159 
Q 2644 4219 2406 4219 
Q 1781 4219 1451 3797 
Q 1122 3375 1075 2522 
Q 1259 2794 1537 2939 
Q 1816 3084 2150 3084 
Q 2853 3084 3261 2657 
Q 3669 2231 3669 1497 
Q 3669 778 3244 343 
Q 2819 -91 2113 -91 
Q 1303 -91 875 529 
Q 447 1150 447 2328 
Q 447 3434 972 4092 
Q 1497 4750 2381 4750 
Q 2619 4750 2861 4703 
Q 3103 4656 3366 4563 
z
" transform="scale(0.015625)"/>
       </defs>
       <use xlink:href="#DejaVuSans-36"/>
       <use xlink:href="#DejaVuSans-30" x="63.623047"/>
       <use xlink:href="#DejaVuSans-30" x="127.246094"/>
       <use xlink:href="#DejaVuSans-30" x="190.869141"/>
       <use xlink:href="#DejaVuSans-30" x="254.492188"/>
      </g>
     </g>
    </g>
    <g id="ytick_2">
     <g id="line2d_17">
      <path d="M 74.30625 284.904676 
L 632.30625 284.904676 
" clip-path="url(#p08905e265e)" style="fill: none; stroke: #ffffff; stroke-linecap: round"/>
     </g>
     <g id="text_15">
      <!-- 80000 -->
      <g style="fill: #262626" transform="translate(29.8125 289.083817) scale(0.11 -0.11)">
       <defs>
        <path id="DejaVuSans-38" d="M 2034 2216 
Q 1584 2216 1326 1975 
Q 1069 1734 1069 1313 
Q 1069 891 1326 650 
Q 1584 409 2034 409 
Q 2484 409 2743 651 
Q 3003 894 3003 1313 
Q 3003 1734 2745 1975 
Q 2488 2216 2034 2216 
z
M 1403 2484 
Q 997 2584 770 2862 
Q 544 3141 544 3541 
Q 544 4100 942 4425 
Q 1341 4750 2034 4750 
Q 2731 4750 3128 4425 
Q 3525 4100 3525 3541 
Q 3525 3141 3298 2862 
Q 3072 2584 2669 2484 
Q 3125 2378 3379 2068 
Q 3634 1759 3634 1313 
Q 3634 634 3220 271 
Q 2806 -91 2034 -91 
Q 1263 -91 848 271 
Q 434 634 434 1313 
Q 434 1759 690 2068 
Q 947 2378 1403 2484 
z
M 1172 3481 
Q 1172 3119 1398 2916 
Q 1625 2713 2034 2713 
Q 2441 2713 2670 2916 
Q 2900 3119 2900 3481 
Q 2900 3844 2670 4047 
Q 2441 4250 2034 4250 
Q 1625 4250 1398 4047 
Q 1172 3844 1172 3481 
z
" transform="scale(0.015625)"/>
       </defs>
       <use xlink:href="#DejaVuSans-38"/>
       <use xlink:href="#DejaVuSans-30" x="63.623047"/>
       <use xlink:href="#DejaVuSans-30" x="127.246094"/>
       <use xlink:href="#DejaVuSans-30" x="190.869141"/>
       <use xlink:href="#DejaVuSans-30" x="254.492188"/>
      </g>
     </g>
    </g>
    <g id="ytick_3">
     <g id="line2d_18">
      <path d="M 74.30625 224.641732 
L 632.30625 224.641732 
" clip-path="url(#p08905e265e)" style="fill: none; stroke: #ffffff; stroke-linecap: round"/>
     </g>
     <g id="text_16">
      <!-- 100000 -->
      <g style="fill: #262626" transform="translate(22.81375 228.820873) scale(0.11 -0.11)">
       <defs>
        <path id="DejaVuSans-31" d="M 794 531 
L 1825 531 
L 1825 4091 
L 703 3866 
L 703 4441 
L 1819 4666 
L 2450 4666 
L 2450 531 
L 3481 531 
L 3481 0 
L 794 0 
L 794 531 
z
" transform="scale(0.015625)"/>
       </defs>
       <use xlink:href="#DejaVuSans-31"/>
       <use xlink:href="#DejaVuSans-30" x="63.623047"/>
       <use xlink:href="#DejaVuSans-30" x="127.246094"/>
       <use xlink:href="#DejaVuSans-30" x="190.869141"/>
       <use xlink:href="#DejaVuSans-30" x="254.492188"/>
       <use xlink:href="#DejaVuSans-30" x="318.115234"/>
      </g>
     </g>
    </g>
    <g id="ytick_4">
     <g id="line2d_19">
      <path d="M 74.30625 164.378788 
L 632.30625 164.378788 
" clip-path="url(#p08905e265e)" style="fill: none; stroke: #ffffff; stroke-linecap: round"/>
     </g>
     <g id="text_17">
      <!-- 120000 -->
      <g style="fill: #262626" transform="translate(22.81375 168.557929) scale(0.11 -0.11)">
       <use xlink:href="#DejaVuSans-31"/>
       <use xlink:href="#DejaVuSans-32" x="63.623047"/>
       <use xlink:href="#DejaVuSans-30" x="127.246094"/>
       <use xlink:href="#DejaVuSans-30" x="190.869141"/>
       <use xlink:href="#DejaVuSans-30" x="254.492188"/>
       <use xlink:href="#DejaVuSans-30" x="318.115234"/>
      </g>
     </g>
    </g>
    <g id="ytick_5">
     <g id="line2d_20">
      <path d="M 74.30625 104.115844 
L 632.30625 104.115844 
" clip-path="url(#p08905e265e)" style="fill: none; stroke: #ffffff; stroke-linecap: round"/>
     </g>
     <g id="text_18">
      <!-- 140000 -->
      <g style="fill: #262626" transform="translate(22.81375 108.294985) scale(0.11 -0.11)">
       <defs>
        <path id="DejaVuSans-34" d="M 2419 4116 
L 825 1625 
L 2419 1625 
L 2419 4116 
z
M 2253 4666 
L 3047 4666 
L 3047 1625 
L 3713 1625 
L 3713 1100 
L 3047 1100 
L 3047 0 
L 2419 0 
L 2419 1100 
L 313 1100 
L 313 1709 
L 2253 4666 
z
" transform="scale(0.015625)"/>
       </defs>
       <use xlink:href="#DejaVuSans-31"/>
       <use xlink:href="#DejaVuSans-34" x="63.623047"/>
       <use xlink:href="#DejaVuSans-30" x="127.246094"/>
       <use xlink:href="#DejaVuSans-30" x="190.869141"/>
       <use xlink:href="#DejaVuSans-30" x="254.492188"/>
       <use xlink:href="#DejaVuSans-30" x="318.115234"/>
      </g>
     </g>
    </g>
    <g id="ytick_6">
     <g id="line2d_21">
      <path d="M 74.30625 43.852901 
L 632.30625 43.852901 
" clip-path="url(#p08905e265e)" style="fill: none; stroke: #ffffff; stroke-linecap: round"/>
     </g>
     <g id="text_19">
      <!-- 160000 -->
      <g style="fill: #262626" transform="translate(22.81375 48.032041) scale(0.11 -0.11)">
       <use xlink:href="#DejaVuSans-31"/>
       <use xlink:href="#DejaVuSans-36" x="63.623047"/>
       <use xlink:href="#DejaVuSans-30" x="127.246094"/>
       <use xlink:href="#DejaVuSans-30" x="190.869141"/>
       <use xlink:href="#DejaVuSans-30" x="254.492188"/>
       <use xlink:href="#DejaVuSans-30" x="318.115234"/>
      </g>
     </g>
    </g>
    <g id="text_20">
     <!-- Total territory control in km² -->
     <g style="fill: #262626" transform="translate(16.318125 286.283625) rotate(-90) scale(0.12 -0.12)">
      <defs>
       <path id="DejaVuSans-54" d="M -19 4666 
L 3928 4666 
L 3928 4134 
L 2272 4134 
L 2272 0 
L 1638 0 
L 1638 4134 
L -19 4134 
L -19 4666 
z
" transform="scale(0.015625)"/>
       <path id="DejaVuSans-20" transform="scale(0.015625)"/>
       <path id="DejaVuSans-69" d="M 603 3500 
L 1178 3500 
L 1178 0 
L 603 0 
L 603 3500 
z
M 603 4863 
L 1178 4863 
L 1178 4134 
L 603 4134 
L 603 4863 
z
" transform="scale(0.015625)"/>
       <path id="DejaVuSans-6b" d="M 581 4863 
L 1159 4863 
L 1159 1991 
L 2875 3500 
L 3609 3500 
L 1753 1863 
L 3688 0 
L 2938 0 
L 1159 1709 
L 1159 0 
L 581 0 
L 581 4863 
z
" transform="scale(0.015625)"/>
       <path id="DejaVuSans-6d" d="M 3328 2828 
Q 3544 3216 3844 3400 
Q 4144 3584 4550 3584 
Q 5097 3584 5394 3201 
Q 5691 2819 5691 2113 
L 5691 0 
L 5113 0 
L 5113 2094 
Q 5113 2597 4934 2840 
Q 4756 3084 4391 3084 
Q 3944 3084 3684 2787 
Q 3425 2491 3425 1978 
L 3425 0 
L 2847 0 
L 2847 2094 
Q 2847 2600 2669 2842 
Q 2491 3084 2119 3084 
Q 1678 3084 1418 2786 
Q 1159 2488 1159 1978 
L 1159 0 
L 581 0 
L 581 3500 
L 1159 3500 
L 1159 2956 
Q 1356 3278 1631 3431 
Q 1906 3584 2284 3584 
Q 2666 3584 2933 3390 
Q 3200 3197 3328 2828 
z
" transform="scale(0.015625)"/>
       <path id="DejaVuSans-b2" d="M 838 2444 
L 2163 2444 
L 2163 2088 
L 294 2088 
L 294 2431 
Q 400 2528 597 2703 
Q 1672 3656 1672 3950 
Q 1672 4156 1509 4282 
Q 1347 4409 1081 4409 
Q 919 4409 728 4354 
Q 538 4300 313 4191 
L 313 4575 
Q 553 4663 761 4706 
Q 969 4750 1147 4750 
Q 1600 4750 1872 4544 
Q 2144 4338 2144 4000 
Q 2144 3566 1109 2678 
Q 934 2528 838 2444 
z
" transform="scale(0.015625)"/>
      </defs>
      <use xlink:href="#DejaVuSans-54"/>
      <use xlink:href="#DejaVuSans-6f" x="44.083984"/>
      <use xlink:href="#DejaVuSans-74" x="105.265625"/>
      <use xlink:href="#DejaVuSans-61" x="144.474609"/>
      <use xlink:href="#DejaVuSans-6c" x="205.753906"/>
      <use xlink:href="#DejaVuSans-20" x="233.537109"/>
      <use xlink:href="#DejaVuSans-74" x="265.324219"/>
      <use xlink:href="#DejaVuSans-65" x="304.533203"/>
      <use xlink:href="#DejaVuSans-72" x="366.056641"/>
      <use xlink:href="#DejaVuSans-72" x="405.419922"/>
      <use xlink:href="#DejaVuSans-69" x="446.533203"/>
      <use xlink:href="#DejaVuSans-74" x="474.316406"/>
      <use xlink:href="#DejaVuSans-6f" x="513.525391"/>
      <use xlink:href="#DejaVuSans-72" x="574.707031"/>
      <use xlink:href="#DejaVuSans-79" x="615.820312"/>
      <use xlink:href="#DejaVuSans-20" x="675"/>
      <use xlink:href="#DejaVuSans-63" x="706.787109"/>
      <use xlink:href="#DejaVuSans-6f" x="761.767578"/>
      <use xlink:href="#DejaVuSans-6e" x="822.949219"/>
      <use xlink:href="#DejaVuSans-74" x="886.328125"/>
      <use xlink:href="#DejaVuSans-72" x="925.537109"/>
      <use xlink:href="#DejaVuSans-6f" x="964.400391"/>
      <use xlink:href="#DejaVuSans-6c" x="1025.582031"/>
      <use xlink:href="#DejaVuSans-20" x="1053.365234"/>
      <use xlink:href="#DejaVuSans-69" x="1085.152344"/>
      <use xlink:href="#DejaVuSans-6e" x="1112.935547"/>
      <use xlink:href="#DejaVuSans-20" x="1176.314453"/>
      <use xlink:href="#DejaVuSans-6b" x="1208.101562"/>
      <use xlink:href="#DejaVuSans-6d" x="1266.011719"/>
      <use xlink:href="#DejaVuSans-b2" x="1363.423828"/>
     </g>
    </g>
   </g>
   <g id="line2d_22">
    <path d="M 74.30625 314.44257 
L 75.763169 308.751314 
L 77.220088 283.288707 
L 78.677007 271.318721 
L 80.133926 269.939764 
L 81.590845 269.939764 
L 83.047764 264.303224 
L 84.504683 250.119814 
L 85.961602 250.119814 
L 87.418522 235.666605 
L 88.875441 225.049714 
L 90.33236 223.184716 
L 93.246198 217.382566 
L 94.703117 213.741358 
L 96.160036 214.081473 
L 97.616955 213.129619 
L 99.073874 213.463018 
L 100.530793 191.854586 
L 101.987712 188.363186 
L 103.444631 187.98025 
L 104.90155 168.274636 
L 106.358469 100.763254 
L 107.815388 100.763254 
L 109.272307 102.136303 
L 110.729227 102.410858 
L 113.643065 102.438772 
L 115.099984 104.734856 
L 116.556903 72.272155 
L 118.013822 68.003883 
L 119.470741 71.220975 
L 120.92766 63.507931 
L 123.841498 63.517031 
L 125.298417 64.103085 
L 126.755336 68.465782 
L 128.212255 69.176049 
L 129.669174 111.618874 
L 131.126093 138.761777 
L 132.583012 155.238041 
L 134.039931 154.221137 
L 136.95377 154.25106 
L 138.410689 153.648798 
L 139.867608 154.214954 
L 142.781446 154.208175 
L 144.238365 154.520934 
L 145.695284 157.792983 
L 148.609122 157.792983 
L 150.066041 156.995745 
L 151.52296 156.631476 
L 152.979879 156.969519 
L 155.893717 156.866564 
L 157.350636 155.729285 
L 158.807555 155.729285 
L 160.264475 154.780985 
L 161.721394 155.871553 
L 163.178313 156.422399 
L 164.635232 155.964369 
L 166.092151 155.665977 
L 170.462908 155.923488 
L 171.919827 155.923488 
L 173.376746 156.354997 
L 176.290584 156.396531 
L 177.747503 156.760714 
L 179.204422 156.760714 
L 180.661341 156.225799 
L 182.11826 156.61949 
L 185.032099 156.695985 
L 186.489018 156.415013 
L 187.945937 155.929304 
L 196.687451 155.94269 
L 198.14437 155.518925 
L 201.058208 155.419669 
L 202.515127 155.049489 
L 203.972046 154.447541 
L 205.428965 154.345243 
L 206.885884 153.68413 
L 208.342804 153.544742 
L 212.713561 153.620443 
L 217.084318 153.796156 
L 218.541237 153.681258 
L 224.368913 153.703808 
L 225.825832 154.044 
L 228.73967 154.044 
L 230.196589 153.848568 
L 233.110428 153.737622 
L 234.567347 153.435695 
L 241.851942 153.433905 
L 243.308861 153.616275 
L 244.76578 153.354001 
L 246.222699 153.354001 
L 247.679618 152.808892 
L 249.136537 153.304356 
L 250.593456 153.304356 
L 252.050375 152.965811 
L 254.964213 152.855758 
L 257.878052 152.855758 
L 259.334971 152.711051 
L 262.248809 152.214001 
L 273.904161 152.267932 
L 276.817999 152.378379 
L 279.731837 152.378379 
L 281.188757 152.184563 
L 292.844109 152.12592 
L 297.214866 152.009207 
L 305.956381 151.99959 
L 307.4133 151.739896 
L 308.870219 151.652157 
L 310.327138 151.833932 
L 314.697895 151.833932 
L 316.154814 151.956193 
L 319.068652 151.844861 
L 333.637843 151.844861 
L 335.094762 150.123355 
L 336.551681 150.123355 
L 338.0086 149.893678 
L 340.922438 149.893678 
L 342.379357 149.577932 
L 349.663952 149.565755 
L 351.120871 150.126799 
L 354.03471 150.156568 
L 356.948548 150.716037 
L 358.405467 151.379774 
L 359.862386 155.0552 
L 361.319305 155.0552 
L 364.233143 176.344115 
L 367.146981 176.344115 
L 368.6039 176.480176 
L 374.431576 176.555093 
L 375.888495 177.148147 
L 377.345414 177.365727 
L 378.802334 177.365727 
L 381.716172 177.746052 
L 383.173091 177.746052 
L 389.000767 178.643038 
L 390.457686 178.701437 
L 391.914605 179.694474 
L 393.371524 179.694474 
L 394.828443 182.248811 
L 396.285362 186.845066 
L 397.742281 189.772792 
L 399.1992 190.265809 
L 403.569958 190.206599 
L 405.026877 190.725924 
L 407.940715 190.76667 
L 409.397634 190.883488 
L 415.22531 190.958551 
L 416.682229 189.993314 
L 418.139148 189.920081 
L 419.596067 189.476036 
L 428.337582 189.501743 
L 431.25142 189.594156 
L 439.992934 189.649203 
L 441.449853 189.903864 
L 450.191367 189.856551 
L 451.648287 193.204891 
L 453.105206 202.462891 
L 454.562125 201.193328 
L 457.475963 201.098475 
L 476.415911 201.038579 
L 479.329749 200.962643 
L 486.614344 201.277082 
L 509.925049 201.277082 
L 511.381968 201.419969 
L 521.580401 201.41293 
L 523.03732 201.574095 
L 525.951159 201.574095 
L 527.408078 201.8566 
L 541.977268 201.793431 
L 547.804945 201.663641 
L 553.632621 201.657309 
L 555.08954 201.466004 
L 559.460297 201.466004 
L 560.917216 201.600871 
L 569.65873 201.519 
L 581.314083 201.519 
L 582.771002 201.372705 
L 584.227921 200.91835 
L 587.141759 200.91835 
L 588.598678 200.397223 
L 608.995545 200.303252 
L 620.650898 200.173538 
L 626.478574 200.152052 
L 626.478574 200.152052 
" clip-path="url(#p08905e265e)" style="fill: none; stroke: #4c72b0; stroke-width: 1.5; stroke-linecap: round"/>
   </g>
   <g id="line2d_23">
    <path d="M 74.30625 353.2755 
L 75.763169 304.155788 
L 77.220088 279.440226 
L 78.677007 267.383394 
L 80.133926 267.383394 
L 81.590845 263.422544 
L 83.047764 261.44632 
L 84.504683 246.289872 
L 85.961602 246.331884 
L 87.418522 232.770256 
L 91.789279 232.770256 
L 93.246198 212.847881 
L 94.703117 209.631931 
L 96.160036 208.7799 
L 100.530793 208.7799 
L 101.987712 182.412199 
L 103.444631 186.992964 
L 112.186146 186.992964 
L 113.643065 94.843272 
L 115.099984 96.782236 
L 116.556903 100.10915 
L 118.013822 56.740004 
L 122.384579 56.740004 
L 123.841498 50.8755 
L 126.755336 50.8755 
L 128.212255 54.823214 
L 131.126093 54.823214 
L 132.583012 51.966034 
L 134.039931 146.316268 
L 138.410689 146.316268 
L 139.867608 144.449396 
L 142.781446 144.449396 
L 144.238365 145.284757 
L 148.609122 145.284651 
L 150.066041 148.104816 
L 152.979879 148.104816 
L 154.436798 147.509319 
L 158.807555 147.504196 
L 160.264475 145.968581 
L 161.721394 145.968581 
L 163.178313 145.030327 
L 167.54907 145.030327 
L 169.005989 145.99603 
L 170.462908 145.99603 
L 171.919827 147.01589 
L 177.747503 146.979712 
L 179.204422 147.373845 
L 185.032099 147.295347 
L 186.489018 147.53651 
L 189.402856 147.53651 
L 190.859775 146.950543 
L 198.14437 146.877801 
L 199.601289 146.238825 
L 208.342804 146.238825 
L 209.799723 144.646815 
L 215.627399 144.646815 
L 217.084318 144.372198 
L 221.455075 144.372198 
L 222.911994 144.783348 
L 230.196589 144.805898 
L 231.653508 144.354471 
L 236.024266 144.354471 
L 237.481185 144.504114 
L 246.222699 144.504114 
L 247.679618 144.00901 
L 252.050375 144.00901 
L 253.507294 143.499026 
L 254.964213 143.499026 
L 256.421133 143.957654 
L 259.334971 143.957654 
L 260.79189 143.812051 
L 265.162647 143.812051 
L 266.619566 143.100573 
L 268.076485 143.100573 
L 269.533404 143.371817 
L 291.38719 143.288449 
L 294.301028 143.229805 
L 311.784057 143.229805 
L 313.240976 142.476976 
L 317.611733 142.476976 
L 319.068652 142.798078 
L 320.525571 142.798078 
L 321.98249 142.949978 
L 336.551681 142.949978 
L 338.0086 140.778021 
L 346.750114 140.683211 
L 352.57779 140.653294 
L 355.491629 140.671123 
L 356.948548 141.261817 
L 358.405467 141.261817 
L 359.862386 141.537366 
L 362.776224 141.537366 
L 364.233143 142.450467 
L 375.888495 142.450467 
L 377.345414 167.59993 
L 383.173091 167.59993 
L 384.63001 168.405612 
L 390.457686 168.405612 
L 391.914605 169.175151 
L 394.828443 169.175151 
L 396.285362 170.994451 
L 400.656119 170.994451 
L 402.113039 178.091487 
L 403.569958 178.091487 
L 405.026877 181.512237 
L 406.483796 181.512237 
L 407.940715 182.031562 
L 423.966824 182.072308 
L 425.423743 182.190885 
L 450.191367 182.204686 
L 451.648287 182.519761 
L 456.019044 182.519761 
L 457.475963 180.705405 
L 458.932882 180.705405 
L 460.389801 193.920148 
L 485.157425 193.860262 
L 486.614344 193.750734 
L 488.071263 194.098871 
L 517.209644 194.098215 
L 518.666563 194.241757 
L 531.778835 194.201864 
L 536.149592 194.6785 
L 539.06343 194.6785 
L 540.520349 194.463832 
L 553.632621 194.463832 
L 555.08954 194.322784 
L 560.917216 194.322784 
L 562.374135 194.203942 
L 571.115649 194.203942 
L 572.572569 194.340832 
L 582.771002 194.340832 
L 584.227921 193.74034 
L 588.598678 193.74034 
L 590.055597 193.083493 
L 632.30625 192.974473 
L 632.30625 192.974473 
" clip-path="url(#p08905e265e)" style="fill: none; stroke: #dd8452; stroke-width: 1.5; stroke-linecap: round"/>
   </g>
   <g id="patch_3">
    <path d="M 74.30625 368.3955 
L 74.30625 35.7555 
" style="fill: none; stroke: #ffffff; stroke-width: 1.25; stroke-linejoin: miter; stroke-linecap: square"/>
   </g>
   <g id="patch_4">
    <path d="M 632.30625 368.3955 
L 632.30625 35.7555 
" style="fill: none; stroke: #ffffff; stroke-width: 1.25; stroke-linejoin: miter; stroke-linecap: square"/>
   </g>
   <g id="patch_5">
    <path d="M 74.30625 368.3955 
L 632.30625 368.3955 
" style="fill: none; stroke: #ffffff; stroke-width: 1.25; stroke-linejoin: miter; stroke-linecap: square"/>
   </g>
   <g id="patch_6">
    <path d="M 74.30625 35.7555 
L 632.30625 35.7555 
" style="fill: none; stroke: #ffffff; stroke-width: 1.25; stroke-linejoin: miter; stroke-linecap: square"/>
   </g>
   <g id="text_21">
    <!-- Comparison of assessed Russian territory control, liveuamap vs NZZ. -->
    <g style="fill: #262626" transform="translate(145.911562 16.318125) scale(0.12 -0.12)">
     <defs>
      <path id="DejaVuSans-43" d="M 4122 4306 
L 4122 3641 
Q 3803 3938 3442 4084 
Q 3081 4231 2675 4231 
Q 1875 4231 1450 3742 
Q 1025 3253 1025 2328 
Q 1025 1406 1450 917 
Q 1875 428 2675 428 
Q 3081 428 3442 575 
Q 3803 722 4122 1019 
L 4122 359 
Q 3791 134 3420 21 
Q 3050 -91 2638 -91 
Q 1578 -91 968 557 
Q 359 1206 359 2328 
Q 359 3453 968 4101 
Q 1578 4750 2638 4750 
Q 3056 4750 3426 4639 
Q 3797 4528 4122 4306 
z
" transform="scale(0.015625)"/>
      <path id="DejaVuSans-73" d="M 2834 3397 
L 2834 2853 
Q 2591 2978 2328 3040 
Q 2066 3103 1784 3103 
Q 1356 3103 1142 2972 
Q 928 2841 928 2578 
Q 928 2378 1081 2264 
Q 1234 2150 1697 2047 
L 1894 2003 
Q 2506 1872 2764 1633 
Q 3022 1394 3022 966 
Q 3022 478 2636 193 
Q 2250 -91 1575 -91 
Q 1294 -91 989 -36 
Q 684 19 347 128 
L 347 722 
Q 666 556 975 473 
Q 1284 391 1588 391 
Q 1994 391 2212 530 
Q 2431 669 2431 922 
Q 2431 1156 2273 1281 
Q 2116 1406 1581 1522 
L 1381 1569 
Q 847 1681 609 1914 
Q 372 2147 372 2553 
Q 372 3047 722 3315 
Q 1072 3584 1716 3584 
Q 2034 3584 2315 3537 
Q 2597 3491 2834 3397 
z
" transform="scale(0.015625)"/>
      <path id="DejaVuSans-66" d="M 2375 4863 
L 2375 4384 
L 1825 4384 
Q 1516 4384 1395 4259 
Q 1275 4134 1275 3809 
L 1275 3500 
L 2222 3500 
L 2222 3053 
L 1275 3053 
L 1275 0 
L 697 0 
L 697 3053 
L 147 3053 
L 147 3500 
L 697 3500 
L 697 3744 
Q 697 4328 969 4595 
Q 1241 4863 1831 4863 
L 2375 4863 
z
" transform="scale(0.015625)"/>
      <path id="DejaVuSans-64" d="M 2906 2969 
L 2906 4863 
L 3481 4863 
L 3481 0 
L 2906 0 
L 2906 525 
Q 2725 213 2448 61 
Q 2172 -91 1784 -91 
Q 1150 -91 751 415 
Q 353 922 353 1747 
Q 353 2572 751 3078 
Q 1150 3584 1784 3584 
Q 2172 3584 2448 3432 
Q 2725 3281 2906 2969 
z
M 947 1747 
Q 947 1113 1208 752 
Q 1469 391 1925 391 
Q 2381 391 2643 752 
Q 2906 1113 2906 1747 
Q 2906 2381 2643 2742 
Q 2381 3103 1925 3103 
Q 1469 3103 1208 2742 
Q 947 2381 947 1747 
z
" transform="scale(0.015625)"/>
      <path id="DejaVuSans-52" d="M 2841 2188 
Q 3044 2119 3236 1894 
Q 3428 1669 3622 1275 
L 4263 0 
L 3584 0 
L 2988 1197 
Q 2756 1666 2539 1819 
Q 2322 1972 1947 1972 
L 1259 1972 
L 1259 0 
L 628 0 
L 628 4666 
L 2053 4666 
Q 2853 4666 3247 4331 
Q 3641 3997 3641 3322 
Q 3641 2881 3436 2590 
Q 3231 2300 2841 2188 
z
M 1259 4147 
L 1259 2491 
L 2053 2491 
Q 2509 2491 2742 2702 
Q 2975 2913 2975 3322 
Q 2975 3731 2742 3939 
Q 2509 4147 2053 4147 
L 1259 4147 
z
" transform="scale(0.015625)"/>
      <path id="DejaVuSans-2c" d="M 750 794 
L 1409 794 
L 1409 256 
L 897 -744 
L 494 -744 
L 750 256 
L 750 794 
z
" transform="scale(0.015625)"/>
      <path id="DejaVuSans-5a" d="M 359 4666 
L 4025 4666 
L 4025 4184 
L 1075 531 
L 4097 531 
L 4097 0 
L 288 0 
L 288 481 
L 3238 4134 
L 359 4134 
L 359 4666 
z
" transform="scale(0.015625)"/>
      <path id="DejaVuSans-2e" d="M 684 794 
L 1344 794 
L 1344 0 
L 684 0 
L 684 794 
z
" transform="scale(0.015625)"/>
     </defs>
     <use xlink:href="#DejaVuSans-43"/>
     <use xlink:href="#DejaVuSans-6f" x="69.824219"/>
     <use xlink:href="#DejaVuSans-6d" x="131.005859"/>
     <use xlink:href="#DejaVuSans-70" x="228.417969"/>
     <use xlink:href="#DejaVuSans-61" x="291.894531"/>
     <use xlink:href="#DejaVuSans-72" x="353.173828"/>
     <use xlink:href="#DejaVuSans-69" x="394.287109"/>
     <use xlink:href="#DejaVuSans-73" x="422.070312"/>
     <use xlink:href="#DejaVuSans-6f" x="474.169922"/>
     <use xlink:href="#DejaVuSans-6e" x="535.351562"/>
     <use xlink:href="#DejaVuSans-20" x="598.730469"/>
     <use xlink:href="#DejaVuSans-6f" x="630.517578"/>
     <use xlink:href="#DejaVuSans-66" x="691.699219"/>
     <use xlink:href="#DejaVuSans-20" x="726.904297"/>
     <use xlink:href="#DejaVuSans-61" x="758.691406"/>
     <use xlink:href="#DejaVuSans-73" x="819.970703"/>
     <use xlink:href="#DejaVuSans-73" x="872.070312"/>
     <use xlink:href="#DejaVuSans-65" x="924.169922"/>
     <use xlink:href="#DejaVuSans-73" x="985.693359"/>
     <use xlink:href="#DejaVuSans-73" x="1037.792969"/>
     <use xlink:href="#DejaVuSans-65" x="1089.892578"/>
     <use xlink:href="#DejaVuSans-64" x="1151.416016"/>
     <use xlink:href="#DejaVuSans-20" x="1214.892578"/>
     <use xlink:href="#DejaVuSans-52" x="1246.679688"/>
     <use xlink:href="#DejaVuSans-75" x="1311.662109"/>
     <use xlink:href="#DejaVuSans-73" x="1375.041016"/>
     <use xlink:href="#DejaVuSans-73" x="1427.140625"/>
     <use xlink:href="#DejaVuSans-69" x="1479.240234"/>
     <use xlink:href="#DejaVuSans-61" x="1507.023438"/>
     <use xlink:href="#DejaVuSans-6e" x="1568.302734"/>
     <use xlink:href="#DejaVuSans-20" x="1631.681641"/>
     <use xlink:href="#DejaVuSans-74" x="1663.46875"/>
     <use xlink:href="#DejaVuSans-65" x="1702.677734"/>
     <use xlink:href="#DejaVuSans-72" x="1764.201172"/>
     <use xlink:href="#DejaVuSans-72" x="1803.564453"/>
     <use xlink:href="#DejaVuSans-69" x="1844.677734"/>
     <use xlink:href="#DejaVuSans-74" x="1872.460938"/>
     <use xlink:href="#DejaVuSans-6f" x="1911.669922"/>
     <use xlink:href="#DejaVuSans-72" x="1972.851562"/>
     <use xlink:href="#DejaVuSans-79" x="2013.964844"/>
     <use xlink:href="#DejaVuSans-20" x="2073.144531"/>
     <use xlink:href="#DejaVuSans-63" x="2104.931641"/>
     <use xlink:href="#DejaVuSans-6f" x="2159.912109"/>
     <use xlink:href="#DejaVuSans-6e" x="2221.09375"/>
     <use xlink:href="#DejaVuSans-74" x="2284.472656"/>
     <use xlink:href="#DejaVuSans-72" x="2323.681641"/>
     <use xlink:href="#DejaVuSans-6f" x="2362.544922"/>
     <use xlink:href="#DejaVuSans-6c" x="2423.726562"/>
     <use xlink:href="#DejaVuSans-2c" x="2451.509766"/>
     <use xlink:href="#DejaVuSans-20" x="2483.296875"/>
     <use xlink:href="#DejaVuSans-6c" x="2515.083984"/>
     <use xlink:href="#DejaVuSans-69" x="2542.867188"/>
     <use xlink:href="#DejaVuSans-76" x="2570.650391"/>
     <use xlink:href="#DejaVuSans-65" x="2629.830078"/>
     <use xlink:href="#DejaVuSans-75" x="2691.353516"/>
     <use xlink:href="#DejaVuSans-61" x="2754.732422"/>
     <use xlink:href="#DejaVuSans-6d" x="2816.011719"/>
     <use xlink:href="#DejaVuSans-61" x="2913.423828"/>
     <use xlink:href="#DejaVuSans-70" x="2974.703125"/>
     <use xlink:href="#DejaVuSans-20" x="3038.179688"/>
     <use xlink:href="#DejaVuSans-76" x="3069.966797"/>
     <use xlink:href="#DejaVuSans-73" x="3129.146484"/>
     <use xlink:href="#DejaVuSans-20" x="3181.246094"/>
     <use xlink:href="#DejaVuSans-4e" x="3213.033203"/>
     <use xlink:href="#DejaVuSans-5a" x="3287.837891"/>
     <use xlink:href="#DejaVuSans-5a" x="3356.34375"/>
     <use xlink:href="#DejaVuSans-2e" x="3424.849609"/>
    </g>
    <!-- NZZ data adjusted for Crimea -->
    <g style="fill: #262626" transform="translate(263.734687 29.7555) scale(0.12 -0.12)">
     <defs>
      <path id="DejaVuSans-6a" d="M 603 3500 
L 1178 3500 
L 1178 -63 
Q 1178 -731 923 -1031 
Q 669 -1331 103 -1331 
L -116 -1331 
L -116 -844 
L 38 -844 
Q 366 -844 484 -692 
Q 603 -541 603 -63 
L 603 3500 
z
M 603 4863 
L 1178 4863 
L 1178 4134 
L 603 4134 
L 603 4863 
z
" transform="scale(0.015625)"/>
     </defs>
     <use xlink:href="#DejaVuSans-4e"/>
     <use xlink:href="#DejaVuSans-5a" x="74.804688"/>
     <use xlink:href="#DejaVuSans-5a" x="143.310547"/>
     <use xlink:href="#DejaVuSans-20" x="211.816406"/>
     <use xlink:href="#DejaVuSans-64" x="243.603516"/>
     <use xlink:href="#DejaVuSans-61" x="307.080078"/>
     <use xlink:href="#DejaVuSans-74" x="368.359375"/>
     <use xlink:href="#DejaVuSans-61" x="407.568359"/>
     <use xlink:href="#DejaVuSans-20" x="468.847656"/>
     <use xlink:href="#DejaVuSans-61" x="500.634766"/>
     <use xlink:href="#DejaVuSans-64" x="561.914062"/>
     <use xlink:href="#DejaVuSans-6a" x="625.390625"/>
     <use xlink:href="#DejaVuSans-75" x="653.173828"/>
     <use xlink:href="#DejaVuSans-73" x="716.552734"/>
     <use xlink:href="#DejaVuSans-74" x="768.652344"/>
     <use xlink:href="#DejaVuSans-65" x="807.861328"/>
     <use xlink:href="#DejaVuSans-64" x="869.384766"/>
     <use xlink:href="#DejaVuSans-20" x="932.861328"/>
     <use xlink:href="#DejaVuSans-66" x="964.648438"/>
     <use xlink:href="#DejaVuSans-6f" x="999.853516"/>
     <use xlink:href="#DejaVuSans-72" x="1061.035156"/>
     <use xlink:href="#DejaVuSans-20" x="1102.148438"/>
     <use xlink:href="#DejaVuSans-43" x="1133.935547"/>
     <use xlink:href="#DejaVuSans-72" x="1203.759766"/>
     <use xlink:href="#DejaVuSans-69" x="1244.873047"/>
     <use xlink:href="#DejaVuSans-6d" x="1272.65625"/>
     <use xlink:href="#DejaVuSans-65" x="1370.068359"/>
     <use xlink:href="#DejaVuSans-61" x="1431.591797"/>
    </g>
   </g>
   <g id="legend_1">
    <g id="patch_7">
     <path d="M 531.864219 76.847375 
L 624.60625 76.847375 
Q 626.80625 76.847375 626.80625 74.647375 
L 626.80625 43.4555 
Q 626.80625 41.2555 624.60625 41.2555 
L 531.864219 41.2555 
Q 529.664219 41.2555 529.664219 43.4555 
L 529.664219 74.647375 
Q 529.664219 76.847375 531.864219 76.847375 
z
" style="fill: #eaeaf2; opacity: 0.8; stroke: #cccccc; stroke-linejoin: miter"/>
    </g>
    <g id="line2d_24">
     <path d="M 534.064219 50.163781 
L 545.064219 50.163781 
L 556.064219 50.163781 
" style="fill: none; stroke: #4c72b0; stroke-width: 1.5; stroke-linecap: round"/>
    </g>
    <g id="text_22">
     <!-- liveuamap -->
     <g style="fill: #262626" transform="translate(564.864219 54.013781) scale(0.11 -0.11)">
      <use xlink:href="#DejaVuSans-6c"/>
      <use xlink:href="#DejaVuSans-69" x="27.783203"/>
      <use xlink:href="#DejaVuSans-76" x="55.566406"/>
      <use xlink:href="#DejaVuSans-65" x="114.746094"/>
      <use xlink:href="#DejaVuSans-75" x="176.269531"/>
      <use xlink:href="#DejaVuSans-61" x="239.648438"/>
      <use xlink:href="#DejaVuSans-6d" x="300.927734"/>
      <use xlink:href="#DejaVuSans-61" x="398.339844"/>
      <use xlink:href="#DejaVuSans-70" x="459.619141"/>
     </g>
    </g>
    <g id="line2d_25">
     <path d="M 534.064219 66.309719 
L 545.064219 66.309719 
L 556.064219 66.309719 
" style="fill: none; stroke: #dd8452; stroke-width: 1.5; stroke-linecap: round"/>
    </g>
    <g id="text_23">
     <!-- NZZ -->
     <g style="fill: #262626" transform="translate(564.864219 70.159719) scale(0.11 -0.11)">
      <use xlink:href="#DejaVuSans-4e"/>
      <use xlink:href="#DejaVuSans-5a" x="74.804688"/>
      <use xlink:href="#DejaVuSans-5a" x="143.310547"/>
     </g>
    </g>
   </g>
  </g>
 </g>
 <defs>
  <clipPath id="p08905e265e">
   <rect x="74.30625" y="35.7555" width="558" height="332.64"/>
  </clipPath>
 </defs>
</svg>
