<?xml version="1.0" encoding="utf-8" standalone="no"?>
<!DOCTYPE svg PUBLIC "-//W3C//DTD SVG 1.1//EN"
  "http://www.w3.org/Graphics/SVG/1.1/DTD/svg11.dtd">
<svg xmlns:xlink="http://www.w3.org/1999/xlink" width="623.8925pt" height="354.795406pt" viewBox="0 0 623.8925 354.795406" xmlns="http://www.w3.org/2000/svg" version="1.1">
 <metadata>
  <rdf:RDF xmlns:dc="http://purl.org/dc/elements/1.1/" xmlns:cc="http://creativecommons.org/ns#" xmlns:rdf="http://www.w3.org/1999/02/22-rdf-syntax-ns#">
   <cc:Work>
    <dc:type rdf:resource="http://purl.org/dc/dcmitype/StillImage"/>
    <dc:date>2023-03-26T21:24:29.520018</dc:date>
    <dc:format>image/svg+xml</dc:format>
    <dc:creator>
     <cc:Agent>
      <dc:title>Matplotlib v3.6.2, https://matplotlib.org/</dc:title>
     </cc:Agent>
    </dc:creator>
   </cc:Work>
  </rdf:RDF>
 </metadata>
 <defs>
  <style type="text/css">*{stroke-linejoin: round; stroke-linecap: butt}</style>
 </defs>
 <g id="figure_1">
  <g id="patch_1">
   <path d="M 0 354.795406 
L 623.8925 354.795406 
L 623.8925 0 
L 0 0 
z
" style="fill: #ffffff"/>
  </g>
  <g id="axes_1">
   <g id="patch_2">
    <path d="M 58.6925 299.518125 
L 616.6925 299.518125 
L 616.6925 22.318125 
L 58.6925 22.318125 
z
" style="fill: #eaeaf2"/>
   </g>
   <g id="matplotlib.axis_1">
    <g id="xtick_1">
     <g id="line2d_1">
      <path d="M 58.6925 299.518125 
L 58.6925 22.318125 
" clip-path="url(#p0c73c229af)" style="fill: none; stroke: #ffffff; stroke-linecap: round"/>
     </g>
    </g>
    <g id="xtick_2">
     <g id="line2d_2">
      <path d="M 66.053978 299.518125 
L 66.053978 22.318125 
" clip-path="url(#p0c73c229af)" style="fill: none; stroke: #ffffff; stroke-linecap: round"/>
     </g>
     <g id="text_1">
      <!-- Mar -->
      <g style="fill: #262626" transform="translate(55.677024 317.376406) scale(0.11 -0.11)">
       <defs>
        <path id="DejaVuSans-4d" d="M 628 4666 
L 1569 4666 
L 2759 1491 
L 3956 4666 
L 4897 4666 
L 4897 0 
L 4281 0 
L 4281 4097 
L 3078 897 
L 2444 897 
L 1241 4097 
L 1241 0 
L 628 0 
L 628 4666 
z
" transform="scale(0.015625)"/>
        <path id="DejaVuSans-61" d="M 2194 1759 
Q 1497 1759 1228 1600 
Q 959 1441 959 1056 
Q 959 750 1161 570 
Q 1363 391 1709 391 
Q 2188 391 2477 730 
Q 2766 1069 2766 1631 
L 2766 1759 
L 2194 1759 
z
M 3341 1997 
L 3341 0 
L 2766 0 
L 2766 531 
Q 2569 213 2275 61 
Q 1981 -91 1556 -91 
Q 1019 -91 701 211 
Q 384 513 384 1019 
Q 384 1609 779 1909 
Q 1175 2209 1959 2209 
L 2766 2209 
L 2766 2266 
Q 2766 2663 2505 2880 
Q 2244 3097 1772 3097 
Q 1472 3097 1187 3025 
Q 903 2953 641 2809 
L 641 3341 
Q 956 3463 1253 3523 
Q 1550 3584 1831 3584 
Q 2591 3584 2966 3190 
Q 3341 2797 3341 1997 
z
" transform="scale(0.015625)"/>
        <path id="DejaVuSans-72" d="M 2631 2963 
Q 2534 3019 2420 3045 
Q 2306 3072 2169 3072 
Q 1681 3072 1420 2755 
Q 1159 2438 1159 1844 
L 1159 0 
L 581 0 
L 581 3500 
L 1159 3500 
L 1159 2956 
Q 1341 3275 1631 3429 
Q 1922 3584 2338 3584 
Q 2397 3584 2469 3576 
Q 2541 3569 2628 3553 
L 2631 2963 
z
" transform="scale(0.015625)"/>
       </defs>
       <use xlink:href="#DejaVuSans-4d"/>
       <use xlink:href="#DejaVuSans-61" x="86.279297"/>
       <use xlink:href="#DejaVuSans-72" x="147.558594"/>
      </g>
     </g>
    </g>
    <g id="xtick_3">
     <g id="line2d_3">
      <path d="M 111.695139 299.518125 
L 111.695139 22.318125 
" clip-path="url(#p0c73c229af)" style="fill: none; stroke: #ffffff; stroke-linecap: round"/>
     </g>
     <g id="text_2">
      <!-- Apr -->
      <g style="fill: #262626" transform="translate(102.180139 317.376406) scale(0.11 -0.11)">
       <defs>
        <path id="DejaVuSans-41" d="M 2188 4044 
L 1331 1722 
L 3047 1722 
L 2188 4044 
z
M 1831 4666 
L 2547 4666 
L 4325 0 
L 3669 0 
L 3244 1197 
L 1141 1197 
L 716 0 
L 50 0 
L 1831 4666 
z
" transform="scale(0.015625)"/>
        <path id="DejaVuSans-70" d="M 1159 525 
L 1159 -1331 
L 581 -1331 
L 581 3500 
L 1159 3500 
L 1159 2969 
Q 1341 3281 1617 3432 
Q 1894 3584 2278 3584 
Q 2916 3584 3314 3078 
Q 3713 2572 3713 1747 
Q 3713 922 3314 415 
Q 2916 -91 2278 -91 
Q 1894 -91 1617 61 
Q 1341 213 1159 525 
z
M 3116 1747 
Q 3116 2381 2855 2742 
Q 2594 3103 2138 3103 
Q 1681 3103 1420 2742 
Q 1159 2381 1159 1747 
Q 1159 1113 1420 752 
Q 1681 391 2138 391 
Q 2594 391 2855 752 
Q 3116 1113 3116 1747 
z
" transform="scale(0.015625)"/>
       </defs>
       <use xlink:href="#DejaVuSans-41"/>
       <use xlink:href="#DejaVuSans-70" x="68.408203"/>
       <use xlink:href="#DejaVuSans-72" x="131.884766"/>
      </g>
     </g>
    </g>
    <g id="xtick_4">
     <g id="line2d_4">
      <path d="M 155.864004 299.518125 
L 155.864004 22.318125 
" clip-path="url(#p0c73c229af)" style="fill: none; stroke: #ffffff; stroke-linecap: round"/>
     </g>
     <g id="text_3">
      <!-- May -->
      <g style="fill: #262626" transform="translate(144.492754 317.376406) scale(0.11 -0.11)">
       <defs>
        <path id="DejaVuSans-79" d="M 2059 -325 
Q 1816 -950 1584 -1140 
Q 1353 -1331 966 -1331 
L 506 -1331 
L 506 -850 
L 844 -850 
Q 1081 -850 1212 -737 
Q 1344 -625 1503 -206 
L 1606 56 
L 191 3500 
L 800 3500 
L 1894 763 
L 2988 3500 
L 3597 3500 
L 2059 -325 
z
" transform="scale(0.015625)"/>
       </defs>
       <use xlink:href="#DejaVuSans-4d"/>
       <use xlink:href="#DejaVuSans-61" x="86.279297"/>
       <use xlink:href="#DejaVuSans-79" x="147.558594"/>
      </g>
     </g>
    </g>
    <g id="xtick_5">
     <g id="line2d_5">
      <path d="M 201.505165 299.518125 
L 201.505165 22.318125 
" clip-path="url(#p0c73c229af)" style="fill: none; stroke: #ffffff; stroke-linecap: round"/>
     </g>
     <g id="text_4">
      <!-- Jun -->
      <g style="fill: #262626" transform="translate(192.911415 317.376406) scale(0.11 -0.11)">
       <defs>
        <path id="DejaVuSans-4a" d="M 628 4666 
L 1259 4666 
L 1259 325 
Q 1259 -519 939 -900 
Q 619 -1281 -91 -1281 
L -331 -1281 
L -331 -750 
L -134 -750 
Q 284 -750 456 -515 
Q 628 -281 628 325 
L 628 4666 
z
" transform="scale(0.015625)"/>
        <path id="DejaVuSans-75" d="M 544 1381 
L 544 3500 
L 1119 3500 
L 1119 1403 
Q 1119 906 1312 657 
Q 1506 409 1894 409 
Q 2359 409 2629 706 
Q 2900 1003 2900 1516 
L 2900 3500 
L 3475 3500 
L 3475 0 
L 2900 0 
L 2900 538 
Q 2691 219 2414 64 
Q 2138 -91 1772 -91 
Q 1169 -91 856 284 
Q 544 659 544 1381 
z
M 1991 3584 
L 1991 3584 
z
" transform="scale(0.015625)"/>
        <path id="DejaVuSans-6e" d="M 3513 2113 
L 3513 0 
L 2938 0 
L 2938 2094 
Q 2938 2591 2744 2837 
Q 2550 3084 2163 3084 
Q 1697 3084 1428 2787 
Q 1159 2491 1159 1978 
L 1159 0 
L 581 0 
L 581 3500 
L 1159 3500 
L 1159 2956 
Q 1366 3272 1645 3428 
Q 1925 3584 2291 3584 
Q 2894 3584 3203 3211 
Q 3513 2838 3513 2113 
z
" transform="scale(0.015625)"/>
       </defs>
       <use xlink:href="#DejaVuSans-4a"/>
       <use xlink:href="#DejaVuSans-75" x="29.492188"/>
       <use xlink:href="#DejaVuSans-6e" x="92.871094"/>
      </g>
     </g>
    </g>
    <g id="xtick_6">
     <g id="line2d_6">
      <path d="M 245.67403 299.518125 
L 245.67403 22.318125 
" clip-path="url(#p0c73c229af)" style="fill: none; stroke: #ffffff; stroke-linecap: round"/>
     </g>
     <g id="text_5">
      <!-- Jul -->
      <g style="fill: #262626" transform="translate(239.037937 317.376406) scale(0.11 -0.11)">
       <defs>
        <path id="DejaVuSans-6c" d="M 603 4863 
L 1178 4863 
L 1178 0 
L 603 0 
L 603 4863 
z
" transform="scale(0.015625)"/>
       </defs>
       <use xlink:href="#DejaVuSans-4a"/>
       <use xlink:href="#DejaVuSans-75" x="29.492188"/>
       <use xlink:href="#DejaVuSans-6c" x="92.871094"/>
      </g>
     </g>
    </g>
    <g id="xtick_7">
     <g id="line2d_7">
      <path d="M 291.315191 299.518125 
L 291.315191 22.318125 
" clip-path="url(#p0c73c229af)" style="fill: none; stroke: #ffffff; stroke-linecap: round"/>
     </g>
     <g id="text_6">
      <!-- Aug -->
      <g style="fill: #262626" transform="translate(280.575582 317.376406) scale(0.11 -0.11)">
       <defs>
        <path id="DejaVuSans-67" d="M 2906 1791 
Q 2906 2416 2648 2759 
Q 2391 3103 1925 3103 
Q 1463 3103 1205 2759 
Q 947 2416 947 1791 
Q 947 1169 1205 825 
Q 1463 481 1925 481 
Q 2391 481 2648 825 
Q 2906 1169 2906 1791 
z
M 3481 434 
Q 3481 -459 3084 -895 
Q 2688 -1331 1869 -1331 
Q 1566 -1331 1297 -1286 
Q 1028 -1241 775 -1147 
L 775 -588 
Q 1028 -725 1275 -790 
Q 1522 -856 1778 -856 
Q 2344 -856 2625 -561 
Q 2906 -266 2906 331 
L 2906 616 
Q 2728 306 2450 153 
Q 2172 0 1784 0 
Q 1141 0 747 490 
Q 353 981 353 1791 
Q 353 2603 747 3093 
Q 1141 3584 1784 3584 
Q 2172 3584 2450 3431 
Q 2728 3278 2906 2969 
L 2906 3500 
L 3481 3500 
L 3481 434 
z
" transform="scale(0.015625)"/>
       </defs>
       <use xlink:href="#DejaVuSans-41"/>
       <use xlink:href="#DejaVuSans-75" x="68.408203"/>
       <use xlink:href="#DejaVuSans-67" x="131.787109"/>
      </g>
     </g>
    </g>
    <g id="xtick_8">
     <g id="line2d_8">
      <path d="M 336.956352 299.518125 
L 336.956352 22.318125 
" clip-path="url(#p0c73c229af)" style="fill: none; stroke: #ffffff; stroke-linecap: round"/>
     </g>
     <g id="text_7">
      <!-- Sep -->
      <g style="fill: #262626" transform="translate(326.588852 317.376406) scale(0.11 -0.11)">
       <defs>
        <path id="DejaVuSans-53" d="M 3425 4513 
L 3425 3897 
Q 3066 4069 2747 4153 
Q 2428 4238 2131 4238 
Q 1616 4238 1336 4038 
Q 1056 3838 1056 3469 
Q 1056 3159 1242 3001 
Q 1428 2844 1947 2747 
L 2328 2669 
Q 3034 2534 3370 2195 
Q 3706 1856 3706 1288 
Q 3706 609 3251 259 
Q 2797 -91 1919 -91 
Q 1588 -91 1214 -16 
Q 841 59 441 206 
L 441 856 
Q 825 641 1194 531 
Q 1563 422 1919 422 
Q 2459 422 2753 634 
Q 3047 847 3047 1241 
Q 3047 1584 2836 1778 
Q 2625 1972 2144 2069 
L 1759 2144 
Q 1053 2284 737 2584 
Q 422 2884 422 3419 
Q 422 4038 858 4394 
Q 1294 4750 2059 4750 
Q 2388 4750 2728 4690 
Q 3069 4631 3425 4513 
z
" transform="scale(0.015625)"/>
        <path id="DejaVuSans-65" d="M 3597 1894 
L 3597 1613 
L 953 1613 
Q 991 1019 1311 708 
Q 1631 397 2203 397 
Q 2534 397 2845 478 
Q 3156 559 3463 722 
L 3463 178 
Q 3153 47 2828 -22 
Q 2503 -91 2169 -91 
Q 1331 -91 842 396 
Q 353 884 353 1716 
Q 353 2575 817 3079 
Q 1281 3584 2069 3584 
Q 2775 3584 3186 3129 
Q 3597 2675 3597 1894 
z
M 3022 2063 
Q 3016 2534 2758 2815 
Q 2500 3097 2075 3097 
Q 1594 3097 1305 2825 
Q 1016 2553 972 2059 
L 3022 2063 
z
" transform="scale(0.015625)"/>
       </defs>
       <use xlink:href="#DejaVuSans-53"/>
       <use xlink:href="#DejaVuSans-65" x="63.476562"/>
       <use xlink:href="#DejaVuSans-70" x="125"/>
      </g>
     </g>
    </g>
    <g id="xtick_9">
     <g id="line2d_9">
      <path d="M 381.125218 299.518125 
L 381.125218 22.318125 
" clip-path="url(#p0c73c229af)" style="fill: none; stroke: #ffffff; stroke-linecap: round"/>
     </g>
     <g id="text_8">
      <!-- Oct -->
      <g style="fill: #262626" transform="translate(371.615374 317.376406) scale(0.11 -0.11)">
       <defs>
        <path id="DejaVuSans-4f" d="M 2522 4238 
Q 1834 4238 1429 3725 
Q 1025 3213 1025 2328 
Q 1025 1447 1429 934 
Q 1834 422 2522 422 
Q 3209 422 3611 934 
Q 4013 1447 4013 2328 
Q 4013 3213 3611 3725 
Q 3209 4238 2522 4238 
z
M 2522 4750 
Q 3503 4750 4090 4092 
Q 4678 3434 4678 2328 
Q 4678 1225 4090 567 
Q 3503 -91 2522 -91 
Q 1538 -91 948 565 
Q 359 1222 359 2328 
Q 359 3434 948 4092 
Q 1538 4750 2522 4750 
z
" transform="scale(0.015625)"/>
        <path id="DejaVuSans-63" d="M 3122 3366 
L 3122 2828 
Q 2878 2963 2633 3030 
Q 2388 3097 2138 3097 
Q 1578 3097 1268 2742 
Q 959 2388 959 1747 
Q 959 1106 1268 751 
Q 1578 397 2138 397 
Q 2388 397 2633 464 
Q 2878 531 3122 666 
L 3122 134 
Q 2881 22 2623 -34 
Q 2366 -91 2075 -91 
Q 1284 -91 818 406 
Q 353 903 353 1747 
Q 353 2603 823 3093 
Q 1294 3584 2113 3584 
Q 2378 3584 2631 3529 
Q 2884 3475 3122 3366 
z
" transform="scale(0.015625)"/>
        <path id="DejaVuSans-74" d="M 1172 4494 
L 1172 3500 
L 2356 3500 
L 2356 3053 
L 1172 3053 
L 1172 1153 
Q 1172 725 1289 603 
Q 1406 481 1766 481 
L 2356 481 
L 2356 0 
L 1766 0 
Q 1100 0 847 248 
Q 594 497 594 1153 
L 594 3053 
L 172 3053 
L 172 3500 
L 594 3500 
L 594 4494 
L 1172 4494 
z
" transform="scale(0.015625)"/>
       </defs>
       <use xlink:href="#DejaVuSans-4f"/>
       <use xlink:href="#DejaVuSans-63" x="78.710938"/>
       <use xlink:href="#DejaVuSans-74" x="133.691406"/>
      </g>
     </g>
    </g>
    <g id="xtick_10">
     <g id="line2d_10">
      <path d="M 426.766379 299.518125 
L 426.766379 22.318125 
" clip-path="url(#p0c73c229af)" style="fill: none; stroke: #ffffff; stroke-linecap: round"/>
     </g>
     <g id="text_9">
      <!-- Nov -->
      <g style="fill: #262626" transform="translate(416.031066 317.376406) scale(0.11 -0.11)">
       <defs>
        <path id="DejaVuSans-4e" d="M 628 4666 
L 1478 4666 
L 3547 763 
L 3547 4666 
L 4159 4666 
L 4159 0 
L 3309 0 
L 1241 3903 
L 1241 0 
L 628 0 
L 628 4666 
z
" transform="scale(0.015625)"/>
        <path id="DejaVuSans-6f" d="M 1959 3097 
Q 1497 3097 1228 2736 
Q 959 2375 959 1747 
Q 959 1119 1226 758 
Q 1494 397 1959 397 
Q 2419 397 2687 759 
Q 2956 1122 2956 1747 
Q 2956 2369 2687 2733 
Q 2419 3097 1959 3097 
z
M 1959 3584 
Q 2709 3584 3137 3096 
Q 3566 2609 3566 1747 
Q 3566 888 3137 398 
Q 2709 -91 1959 -91 
Q 1206 -91 779 398 
Q 353 888 353 1747 
Q 353 2609 779 3096 
Q 1206 3584 1959 3584 
z
" transform="scale(0.015625)"/>
        <path id="DejaVuSans-76" d="M 191 3500 
L 800 3500 
L 1894 563 
L 2988 3500 
L 3597 3500 
L 2284 0 
L 1503 0 
L 191 3500 
z
" transform="scale(0.015625)"/>
       </defs>
       <use xlink:href="#DejaVuSans-4e"/>
       <use xlink:href="#DejaVuSans-6f" x="74.804688"/>
       <use xlink:href="#DejaVuSans-76" x="135.986328"/>
      </g>
     </g>
    </g>
    <g id="xtick_11">
     <g id="line2d_11">
      <path d="M 470.935244 299.518125 
L 470.935244 22.318125 
" clip-path="url(#p0c73c229af)" style="fill: none; stroke: #ffffff; stroke-linecap: round"/>
     </g>
     <g id="text_10">
      <!-- Dec -->
      <g style="fill: #262626" transform="translate(460.291885 317.376406) scale(0.11 -0.11)">
       <defs>
        <path id="DejaVuSans-44" d="M 1259 4147 
L 1259 519 
L 2022 519 
Q 2988 519 3436 956 
Q 3884 1394 3884 2338 
Q 3884 3275 3436 3711 
Q 2988 4147 2022 4147 
L 1259 4147 
z
M 628 4666 
L 1925 4666 
Q 3281 4666 3915 4102 
Q 4550 3538 4550 2338 
Q 4550 1131 3912 565 
Q 3275 0 1925 0 
L 628 0 
L 628 4666 
z
" transform="scale(0.015625)"/>
       </defs>
       <use xlink:href="#DejaVuSans-44"/>
       <use xlink:href="#DejaVuSans-65" x="77.001953"/>
       <use xlink:href="#DejaVuSans-63" x="138.525391"/>
      </g>
     </g>
    </g>
    <g id="xtick_12">
     <g id="line2d_12">
      <path d="M 516.576405 299.518125 
L 516.576405 22.318125 
" clip-path="url(#p0c73c229af)" style="fill: none; stroke: #ffffff; stroke-linecap: round"/>
     </g>
     <g id="text_11">
      <!-- Jan -->
      <g style="fill: #262626" transform="translate(508.097811 317.376406) scale(0.11 -0.11)">
       <use xlink:href="#DejaVuSans-4a"/>
       <use xlink:href="#DejaVuSans-61" x="29.492188"/>
       <use xlink:href="#DejaVuSans-6e" x="90.771484"/>
      </g>
      <!-- 2023 -->
      <g style="fill: #262626" transform="translate(502.578905 329.694) scale(0.11 -0.11)">
       <defs>
        <path id="DejaVuSans-32" d="M 1228 531 
L 3431 531 
L 3431 0 
L 469 0 
L 469 531 
Q 828 903 1448 1529 
Q 2069 2156 2228 2338 
Q 2531 2678 2651 2914 
Q 2772 3150 2772 3378 
Q 2772 3750 2511 3984 
Q 2250 4219 1831 4219 
Q 1534 4219 1204 4116 
Q 875 4013 500 3803 
L 500 4441 
Q 881 4594 1212 4672 
Q 1544 4750 1819 4750 
Q 2544 4750 2975 4387 
Q 3406 4025 3406 3419 
Q 3406 3131 3298 2873 
Q 3191 2616 2906 2266 
Q 2828 2175 2409 1742 
Q 1991 1309 1228 531 
z
" transform="scale(0.015625)"/>
        <path id="DejaVuSans-30" d="M 2034 4250 
Q 1547 4250 1301 3770 
Q 1056 3291 1056 2328 
Q 1056 1369 1301 889 
Q 1547 409 2034 409 
Q 2525 409 2770 889 
Q 3016 1369 3016 2328 
Q 3016 3291 2770 3770 
Q 2525 4250 2034 4250 
z
M 2034 4750 
Q 2819 4750 3233 4129 
Q 3647 3509 3647 2328 
Q 3647 1150 3233 529 
Q 2819 -91 2034 -91 
Q 1250 -91 836 529 
Q 422 1150 422 2328 
Q 422 3509 836 4129 
Q 1250 4750 2034 4750 
z
" transform="scale(0.015625)"/>
        <path id="DejaVuSans-33" d="M 2597 2516 
Q 3050 2419 3304 2112 
Q 3559 1806 3559 1356 
Q 3559 666 3084 287 
Q 2609 -91 1734 -91 
Q 1441 -91 1130 -33 
Q 819 25 488 141 
L 488 750 
Q 750 597 1062 519 
Q 1375 441 1716 441 
Q 2309 441 2620 675 
Q 2931 909 2931 1356 
Q 2931 1769 2642 2001 
Q 2353 2234 1838 2234 
L 1294 2234 
L 1294 2753 
L 1863 2753 
Q 2328 2753 2575 2939 
Q 2822 3125 2822 3475 
Q 2822 3834 2567 4026 
Q 2313 4219 1838 4219 
Q 1578 4219 1281 4162 
Q 984 4106 628 3988 
L 628 4550 
Q 988 4650 1302 4700 
Q 1616 4750 1894 4750 
Q 2613 4750 3031 4423 
Q 3450 4097 3450 3541 
Q 3450 3153 3228 2886 
Q 3006 2619 2597 2516 
z
" transform="scale(0.015625)"/>
       </defs>
       <use xlink:href="#DejaVuSans-32"/>
       <use xlink:href="#DejaVuSans-30" x="63.623047"/>
       <use xlink:href="#DejaVuSans-32" x="127.246094"/>
       <use xlink:href="#DejaVuSans-33" x="190.869141"/>
      </g>
     </g>
    </g>
    <g id="xtick_13">
     <g id="line2d_13">
      <path d="M 562.217566 299.518125 
L 562.217566 22.318125 
" clip-path="url(#p0c73c229af)" style="fill: none; stroke: #ffffff; stroke-linecap: round"/>
     </g>
     <g id="text_12">
      <!-- Feb -->
      <g style="fill: #262626" transform="translate(552.480847 317.376406) scale(0.11 -0.11)">
       <defs>
        <path id="DejaVuSans-46" d="M 628 4666 
L 3309 4666 
L 3309 4134 
L 1259 4134 
L 1259 2759 
L 3109 2759 
L 3109 2228 
L 1259 2228 
L 1259 0 
L 628 0 
L 628 4666 
z
" transform="scale(0.015625)"/>
        <path id="DejaVuSans-62" d="M 3116 1747 
Q 3116 2381 2855 2742 
Q 2594 3103 2138 3103 
Q 1681 3103 1420 2742 
Q 1159 2381 1159 1747 
Q 1159 1113 1420 752 
Q 1681 391 2138 391 
Q 2594 391 2855 752 
Q 3116 1113 3116 1747 
z
M 1159 2969 
Q 1341 3281 1617 3432 
Q 1894 3584 2278 3584 
Q 2916 3584 3314 3078 
Q 3713 2572 3713 1747 
Q 3713 922 3314 415 
Q 2916 -91 2278 -91 
Q 1894 -91 1617 61 
Q 1341 213 1159 525 
L 1159 0 
L 581 0 
L 581 4863 
L 1159 4863 
L 1159 2969 
z
" transform="scale(0.015625)"/>
       </defs>
       <use xlink:href="#DejaVuSans-46"/>
       <use xlink:href="#DejaVuSans-65" x="52.019531"/>
       <use xlink:href="#DejaVuSans-62" x="113.542969"/>
      </g>
     </g>
    </g>
    <g id="xtick_14">
     <g id="line2d_14">
      <path d="M 603.44184 299.518125 
L 603.44184 22.318125 
" clip-path="url(#p0c73c229af)" style="fill: none; stroke: #ffffff; stroke-linecap: round"/>
     </g>
     <g id="text_13">
      <!-- Mar -->
      <g style="fill: #262626" transform="translate(593.064887 317.376406) scale(0.11 -0.11)">
       <use xlink:href="#DejaVuSans-4d"/>
       <use xlink:href="#DejaVuSans-61" x="86.279297"/>
       <use xlink:href="#DejaVuSans-72" x="147.558594"/>
      </g>
     </g>
    </g>
    <g id="xtick_15">
     <g id="line2d_15">
      <path d="M 616.6925 299.518125 
L 616.6925 22.318125 
" clip-path="url(#p0c73c229af)" style="fill: none; stroke: #ffffff; stroke-linecap: round"/>
     </g>
    </g>
    <g id="xtick_16"/>
    <g id="xtick_17"/>
    <g id="xtick_18"/>
    <g id="xtick_19"/>
    <g id="xtick_20"/>
    <g id="xtick_21"/>
    <g id="xtick_22"/>
    <g id="xtick_23"/>
    <g id="xtick_24"/>
    <g id="xtick_25"/>
    <g id="xtick_26"/>
    <g id="xtick_27"/>
    <g id="xtick_28"/>
    <g id="xtick_29"/>
    <g id="xtick_30"/>
    <g id="xtick_31"/>
    <g id="xtick_32"/>
    <g id="xtick_33"/>
    <g id="xtick_34"/>
    <g id="xtick_35"/>
    <g id="xtick_36"/>
    <g id="xtick_37"/>
    <g id="xtick_38"/>
    <g id="xtick_39"/>
    <g id="xtick_40"/>
    <g id="xtick_41"/>
    <g id="xtick_42"/>
    <g id="xtick_43"/>
    <g id="xtick_44"/>
    <g id="xtick_45"/>
    <g id="xtick_46"/>
    <g id="xtick_47"/>
    <g id="xtick_48"/>
    <g id="xtick_49"/>
    <g id="xtick_50"/>
    <g id="xtick_51"/>
    <g id="xtick_52"/>
    <g id="xtick_53"/>
    <g id="xtick_54"/>
    <g id="xtick_55"/>
    <g id="xtick_56"/>
    <g id="xtick_57"/>
    <g id="xtick_58"/>
    <g id="xtick_59"/>
    <g id="xtick_60"/>
    <g id="xtick_61"/>
    <g id="xtick_62"/>
    <g id="xtick_63"/>
    <g id="xtick_64"/>
    <g id="xtick_65"/>
    <g id="xtick_66"/>
    <g id="xtick_67"/>
    <g id="xtick_68"/>
    <g id="text_14">
     <!-- date -->
     <g style="fill: #262626" transform="translate(324.1625 345.099781) scale(0.12 -0.12)">
      <defs>
       <path id="DejaVuSans-64" d="M 2906 2969 
L 2906 4863 
L 3481 4863 
L 3481 0 
L 2906 0 
L 2906 525 
Q 2725 213 2448 61 
Q 2172 -91 1784 -91 
Q 1150 -91 751 415 
Q 353 922 353 1747 
Q 353 2572 751 3078 
Q 1150 3584 1784 3584 
Q 2172 3584 2448 3432 
Q 2725 3281 2906 2969 
z
M 947 1747 
Q 947 1113 1208 752 
Q 1469 391 1925 391 
Q 2381 391 2643 752 
Q 2906 1113 2906 1747 
Q 2906 2381 2643 2742 
Q 2381 3103 1925 3103 
Q 1469 3103 1208 2742 
Q 947 2381 947 1747 
z
" transform="scale(0.015625)"/>
      </defs>
      <use xlink:href="#DejaVuSans-64"/>
      <use xlink:href="#DejaVuSans-61" x="63.476562"/>
      <use xlink:href="#DejaVuSans-74" x="124.755859"/>
      <use xlink:href="#DejaVuSans-65" x="163.964844"/>
     </g>
    </g>
   </g>
   <g id="matplotlib.axis_2">
    <g id="ytick_1">
     <g id="line2d_16">
      <path d="M 58.6925 257.90508 
L 616.6925 257.90508 
" clip-path="url(#p0c73c229af)" style="fill: none; stroke: #ffffff; stroke-linecap: round"/>
     </g>
     <g id="text_15">
      <!-- 80000 -->
      <g style="fill: #262626" transform="translate(14.19875 262.084221) scale(0.11 -0.11)">
       <defs>
        <path id="DejaVuSans-38" d="M 2034 2216 
Q 1584 2216 1326 1975 
Q 1069 1734 1069 1313 
Q 1069 891 1326 650 
Q 1584 409 2034 409 
Q 2484 409 2743 651 
Q 3003 894 3003 1313 
Q 3003 1734 2745 1975 
Q 2488 2216 2034 2216 
z
M 1403 2484 
Q 997 2584 770 2862 
Q 544 3141 544 3541 
Q 544 4100 942 4425 
Q 1341 4750 2034 4750 
Q 2731 4750 3128 4425 
Q 3525 4100 3525 3541 
Q 3525 3141 3298 2862 
Q 3072 2584 2669 2484 
Q 3125 2378 3379 2068 
Q 3634 1759 3634 1313 
Q 3634 634 3220 271 
Q 2806 -91 2034 -91 
Q 1263 -91 848 271 
Q 434 634 434 1313 
Q 434 1759 690 2068 
Q 947 2378 1403 2484 
z
M 1172 3481 
Q 1172 3119 1398 2916 
Q 1625 2713 2034 2713 
Q 2441 2713 2670 2916 
Q 2900 3119 2900 3481 
Q 2900 3844 2670 4047 
Q 2441 4250 2034 4250 
Q 1625 4250 1398 4047 
Q 1172 3844 1172 3481 
z
" transform="scale(0.015625)"/>
       </defs>
       <use xlink:href="#DejaVuSans-38"/>
       <use xlink:href="#DejaVuSans-30" x="63.623047"/>
       <use xlink:href="#DejaVuSans-30" x="127.246094"/>
       <use xlink:href="#DejaVuSans-30" x="190.869141"/>
       <use xlink:href="#DejaVuSans-30" x="254.492188"/>
      </g>
     </g>
    </g>
    <g id="ytick_2">
     <g id="line2d_17">
      <path d="M 58.6925 198.712929 
L 616.6925 198.712929 
" clip-path="url(#p0c73c229af)" style="fill: none; stroke: #ffffff; stroke-linecap: round"/>
     </g>
     <g id="text_16">
      <!-- 100000 -->
      <g style="fill: #262626" transform="translate(7.2 202.89207) scale(0.11 -0.11)">
       <defs>
        <path id="DejaVuSans-31" d="M 794 531 
L 1825 531 
L 1825 4091 
L 703 3866 
L 703 4441 
L 1819 4666 
L 2450 4666 
L 2450 531 
L 3481 531 
L 3481 0 
L 794 0 
L 794 531 
z
" transform="scale(0.015625)"/>
       </defs>
       <use xlink:href="#DejaVuSans-31"/>
       <use xlink:href="#DejaVuSans-30" x="63.623047"/>
       <use xlink:href="#DejaVuSans-30" x="127.246094"/>
       <use xlink:href="#DejaVuSans-30" x="190.869141"/>
       <use xlink:href="#DejaVuSans-30" x="254.492188"/>
       <use xlink:href="#DejaVuSans-30" x="318.115234"/>
      </g>
     </g>
    </g>
    <g id="ytick_3">
     <g id="line2d_18">
      <path d="M 58.6925 139.520778 
L 616.6925 139.520778 
" clip-path="url(#p0c73c229af)" style="fill: none; stroke: #ffffff; stroke-linecap: round"/>
     </g>
     <g id="text_17">
      <!-- 120000 -->
      <g style="fill: #262626" transform="translate(7.2 143.699919) scale(0.11 -0.11)">
       <use xlink:href="#DejaVuSans-31"/>
       <use xlink:href="#DejaVuSans-32" x="63.623047"/>
       <use xlink:href="#DejaVuSans-30" x="127.246094"/>
       <use xlink:href="#DejaVuSans-30" x="190.869141"/>
       <use xlink:href="#DejaVuSans-30" x="254.492188"/>
       <use xlink:href="#DejaVuSans-30" x="318.115234"/>
      </g>
     </g>
    </g>
    <g id="ytick_4">
     <g id="line2d_19">
      <path d="M 58.6925 80.328627 
L 616.6925 80.328627 
" clip-path="url(#p0c73c229af)" style="fill: none; stroke: #ffffff; stroke-linecap: round"/>
     </g>
     <g id="text_18">
      <!-- 140000 -->
      <g style="fill: #262626" transform="translate(7.2 84.507767) scale(0.11 -0.11)">
       <defs>
        <path id="DejaVuSans-34" d="M 2419 4116 
L 825 1625 
L 2419 1625 
L 2419 4116 
z
M 2253 4666 
L 3047 4666 
L 3047 1625 
L 3713 1625 
L 3713 1100 
L 3047 1100 
L 3047 0 
L 2419 0 
L 2419 1100 
L 313 1100 
L 313 1709 
L 2253 4666 
z
" transform="scale(0.015625)"/>
       </defs>
       <use xlink:href="#DejaVuSans-31"/>
       <use xlink:href="#DejaVuSans-34" x="63.623047"/>
       <use xlink:href="#DejaVuSans-30" x="127.246094"/>
       <use xlink:href="#DejaVuSans-30" x="190.869141"/>
       <use xlink:href="#DejaVuSans-30" x="254.492188"/>
       <use xlink:href="#DejaVuSans-30" x="318.115234"/>
      </g>
     </g>
    </g>
   </g>
   <g id="line2d_20">
    <path d="M 58.6925 286.918125 
L 60.164796 281.327995 
L 61.637091 256.317825 
L 63.109387 244.560529 
L 64.581682 243.206075 
L 66.053978 243.206075 
L 67.526273 237.669688 
L 68.998569 223.738299 
L 70.470864 223.738299 
L 71.94316 209.541905 
L 73.415455 199.113661 
L 74.887751 197.281802 
L 77.832342 191.582748 
L 79.304637 188.00624 
L 80.776933 188.340311 
L 82.249228 187.405371 
L 83.721524 187.732846 
L 85.193819 166.508367 
L 86.666115 163.079004 
L 88.13841 162.702873 
L 89.610706 143.347402 
L 91.083001 77.035608 
L 92.555297 77.035608 
L 94.027592 78.38426 
L 95.499888 78.653936 
L 98.444479 78.681354 
L 99.916774 80.936639 
L 101.38907 49.050757 
L 102.861365 44.858327 
L 104.333661 48.018255 
L 105.805956 40.442263 
L 108.750547 40.4512 
L 110.222843 41.026841 
L 111.695139 45.312019 
L 113.167434 46.009665 
L 114.63973 87.698337 
L 116.112025 114.358947 
L 117.584321 130.542449 
L 119.056616 129.543615 
L 122.001207 129.573006 
L 123.473503 128.981445 
L 124.945798 129.537541 
L 127.890389 129.530883 
L 129.362685 129.838084 
L 130.83498 133.051993 
L 133.779571 133.051993 
L 135.251867 132.268921 
L 136.724162 131.911125 
L 138.196458 132.243162 
L 141.141049 132.142036 
L 142.613344 131.024965 
L 144.08564 131.024965 
L 145.557935 130.093515 
L 147.030231 131.164705 
L 148.502526 131.705763 
L 149.974822 131.255871 
L 151.447117 130.962781 
L 155.864004 131.215717 
L 157.336299 131.215717 
L 158.808595 131.639558 
L 161.753186 131.680355 
L 163.225482 132.038066 
L 164.697777 132.038066 
L 166.170073 131.512656 
L 167.642368 131.899352 
L 170.586959 131.974488 
L 172.059255 131.698508 
L 173.53155 131.221429 
L 182.365323 131.234578 
L 183.837619 130.818342 
L 186.78221 130.72085 
L 188.254505 130.357248 
L 189.726801 129.765995 
L 191.199096 129.665515 
L 192.671392 129.01615 
L 194.143687 128.879239 
L 198.560574 128.953594 
L 202.97746 129.126185 
L 204.449756 129.013328 
L 210.338938 129.035478 
L 211.811234 129.369625 
L 214.755825 129.369625 
L 216.22812 129.177665 
L 219.172711 129.068691 
L 220.645007 128.772128 
L 228.006484 128.770371 
L 229.47878 128.9495 
L 230.951075 128.691887 
L 232.423371 128.691887 
L 233.895666 128.156464 
L 235.367962 128.643124 
L 236.840257 128.643124 
L 238.312553 128.310594 
L 241.257144 128.202496 
L 244.201735 128.202496 
L 245.67403 128.060361 
L 248.618621 127.572143 
L 260.396985 127.625115 
L 263.341577 127.7336 
L 266.286168 127.7336 
L 267.758463 127.543228 
L 279.536827 127.485627 
L 283.953714 127.370988 
L 292.787487 127.361541 
L 294.259782 127.106461 
L 295.732078 127.020282 
L 297.204373 127.198827 
L 301.62126 127.198827 
L 303.093555 127.318915 
L 306.038146 127.209562 
L 320.761102 127.209562 
L 322.233397 125.518644 
L 323.705693 125.518644 
L 325.177988 125.293049 
L 328.122579 125.293049 
L 329.594875 124.982914 
L 336.956352 124.970952 
L 338.428648 125.522027 
L 341.373239 125.551267 
L 344.31783 126.100795 
L 345.790125 126.752738 
L 347.262421 130.362857 
L 348.734716 130.362857 
L 351.679307 151.273497 
L 354.623898 151.273497 
L 356.096194 151.40714 
L 361.985376 151.480726 
L 363.457672 152.063242 
L 364.929967 152.276956 
L 366.402263 152.276956 
L 369.346854 152.650523 
L 370.819149 152.650523 
L 376.708331 153.531571 
L 378.180627 153.588932 
L 379.652922 154.564324 
L 381.125218 154.564324 
L 382.597513 157.073273 
L 384.069809 161.58786 
L 385.542104 164.463564 
L 387.0144 164.947821 
L 391.431286 164.889663 
L 392.903582 165.39976 
L 395.848173 165.439782 
L 397.320468 165.554524 
L 403.20965 165.628253 
L 404.681946 164.680168 
L 406.154241 164.608236 
L 407.626537 164.17208 
L 416.46031 164.197331 
L 419.404901 164.288102 
L 428.238674 164.342171 
L 429.71097 164.592306 
L 438.544743 164.545834 
L 440.017038 167.834679 
L 441.489334 176.928176 
L 442.961629 175.681172 
L 445.90622 175.588005 
L 465.046062 175.529173 
L 467.990653 175.454586 
L 475.352131 175.763438 
L 498.908859 175.763438 
L 500.381154 175.903785 
L 510.687223 175.896872 
L 512.159518 176.055173 
L 515.104109 176.055173 
L 516.576405 176.332658 
L 531.29936 176.270611 
L 537.188542 176.143128 
L 543.077724 176.136909 
L 544.55002 175.949002 
L 548.966906 175.949002 
L 550.439202 176.081473 
L 559.272975 176.001057 
L 571.051339 176.001057 
L 572.523635 175.857361 
L 573.99593 175.41108 
L 576.940521 175.41108 
L 578.412817 174.899212 
L 599.024954 174.806912 
L 612.275613 174.679502 
L 616.6925 174.658398 
L 616.6925 174.658398 
" clip-path="url(#p0c73c229af)" style="fill: none; stroke: #4c72b0; stroke-width: 1.5; stroke-linecap: round"/>
   </g>
   <g id="line2d_21">
    <path d="M 58.6925 280.609532 
L 60.164796 274.749154 
L 61.637091 249.731917 
L 63.109387 237.951317 
L 64.581682 236.61831 
L 66.053978 236.61831 
L 67.526273 231.08192 
L 68.998569 217.060839 
L 70.470864 217.060839 
L 71.94316 202.854574 
L 73.415455 192.412161 
L 74.887751 190.580312 
L 77.832342 184.874071 
L 79.304637 181.208745 
L 80.776933 181.542795 
L 82.249228 180.610046 
L 83.721524 181.568366 
L 85.193819 160.306546 
L 86.666115 156.873194 
L 88.13841 156.493979 
L 89.610706 136.890131 
L 91.083001 73.657168 
L 92.555297 73.657168 
L 94.027592 73.812903 
L 95.499888 74.082553 
L 98.444479 74.109988 
L 99.916774 76.362753 
L 101.38907 43.497258 
L 102.861365 39.299883 
L 104.333661 42.492205 
L 105.805956 34.918125 
L 108.750547 34.927063 
L 110.222843 35.699195 
L 111.695139 39.66649 
L 113.167434 41.805339 
L 114.63973 82.248879 
L 116.112025 105.446431 
L 117.584321 121.765441 
L 119.056616 120.766603 
L 122.001207 120.79173 
L 123.473503 120.200608 
L 124.945798 120.759382 
L 127.890389 120.752131 
L 129.362685 121.059338 
L 130.83498 124.273235 
L 133.779571 124.273235 
L 135.251867 123.487222 
L 136.724162 123.129435 
L 138.196458 123.578793 
L 141.141049 123.477663 
L 142.613344 122.360589 
L 144.08564 122.360589 
L 145.557935 121.428845 
L 147.030231 122.497766 
L 148.502526 123.038812 
L 149.974822 122.588952 
L 151.447117 122.29817 
L 155.864004 122.551099 
L 157.336299 122.551099 
L 158.808595 122.974944 
L 161.753186 123.014662 
L 163.225482 123.37236 
L 164.697777 123.37236 
L 166.170073 122.84697 
L 167.642368 123.209108 
L 170.586959 123.284253 
L 172.059255 123.008358 
L 173.53155 122.531299 
L 180.893028 122.615855 
L 182.365323 122.280265 
L 183.837619 122.128526 
L 186.78221 122.023933 
L 188.254505 121.660612 
L 189.726801 121.071176 
L 191.199096 120.970698 
L 192.671392 120.322188 
L 194.143687 120.185277 
L 198.560574 120.25977 
L 202.97746 120.432345 
L 204.449756 120.319495 
L 210.338938 120.341633 
L 211.811234 120.675802 
L 214.755825 120.675802 
L 216.22812 120.483842 
L 219.172711 120.374899 
L 220.645007 120.078524 
L 228.006484 120.077222 
L 229.47878 120.256337 
L 230.951075 119.998763 
L 232.423371 119.998763 
L 233.895666 119.463251 
L 235.367962 119.949899 
L 236.840257 119.949899 
L 238.312553 119.617388 
L 241.257144 119.509303 
L 244.201735 119.509303 
L 245.67403 119.366265 
L 248.618621 118.880179 
L 260.396985 118.933156 
L 263.341577 119.041655 
L 266.286168 119.041655 
L 267.758463 118.851264 
L 279.536827 118.79367 
L 283.953714 118.679399 
L 292.787487 118.670076 
L 294.259782 118.415373 
L 295.732078 118.329426 
L 297.204373 118.507979 
L 301.62126 118.507979 
L 303.093555 118.62805 
L 306.038146 118.51887 
L 320.761102 118.51887 
L 322.233397 116.828135 
L 323.705693 116.828135 
L 325.177988 116.602524 
L 328.122579 116.602524 
L 329.594875 116.292387 
L 336.956352 116.280519 
L 338.428648 116.831598 
L 341.373239 116.86072 
L 344.31783 117.410231 
L 345.790125 118.029884 
L 347.262421 121.672302 
L 348.734716 121.672302 
L 351.679307 142.817455 
L 354.623898 142.817455 
L 356.096194 142.951081 
L 361.985376 143.024687 
L 363.457672 143.607197 
L 364.929967 143.82094 
L 366.402263 143.82094 
L 369.346854 144.193229 
L 370.819149 144.193229 
L 372.291445 144.606301 
L 373.76374 144.705063 
L 375.236036 144.998893 
L 378.180627 145.13246 
L 379.652922 146.106793 
L 381.125218 146.106793 
L 382.597513 148.615741 
L 384.069809 153.15054 
L 385.542104 156.026243 
L 387.0144 156.510524 
L 391.431286 156.452367 
L 392.903582 156.962456 
L 395.848173 157.002499 
L 397.320468 157.117243 
L 416.46031 157.144264 
L 419.404901 157.235035 
L 428.238674 157.289107 
L 429.71097 157.539224 
L 438.544743 157.492758 
L 440.017038 160.78985 
L 441.489334 169.919913 
L 442.961629 168.734058 
L 445.90622 168.641304 
L 465.046062 168.582496 
L 467.990653 168.507973 
L 475.352131 168.816809 
L 498.908859 168.816809 
L 500.381154 168.957183 
L 510.687223 168.950376 
L 512.159518 169.108655 
L 515.104109 169.108655 
L 516.576405 169.386148 
L 531.29936 169.323967 
L 537.188542 169.196704 
L 543.077724 169.190489 
L 544.55002 169.002583 
L 548.966906 169.002583 
L 550.439202 169.135055 
L 559.272975 169.054643 
L 571.051339 169.054643 
L 572.523635 168.911102 
L 573.99593 168.464822 
L 575.468226 168.464822 
L 575.468226 168.464822 
" clip-path="url(#p0c73c229af)" style="fill: none; stroke: #dd8452; stroke-width: 1.5; stroke-linecap: round"/>
   </g>
   <g id="patch_3">
    <path d="M 58.6925 299.518125 
L 58.6925 22.318125 
" style="fill: none; stroke: #ffffff; stroke-width: 1.25; stroke-linejoin: miter; stroke-linecap: square"/>
   </g>
   <g id="patch_4">
    <path d="M 616.6925 299.518125 
L 616.6925 22.318125 
" style="fill: none; stroke: #ffffff; stroke-width: 1.25; stroke-linejoin: miter; stroke-linecap: square"/>
   </g>
   <g id="patch_5">
    <path d="M 58.6925 299.518125 
L 616.6925 299.518125 
" style="fill: none; stroke: #ffffff; stroke-width: 1.25; stroke-linejoin: miter; stroke-linecap: square"/>
   </g>
   <g id="patch_6">
    <path d="M 58.6925 22.318125 
L 616.6925 22.318125 
" style="fill: none; stroke: #ffffff; stroke-width: 1.25; stroke-linejoin: miter; stroke-linecap: square"/>
   </g>
   <g id="text_19">
    <!-- Comparison of assessed Russian territory control, liveuamap vs Novaya Gazeta -->
    <g style="fill: #262626" transform="translate(99.194375 16.318125) scale(0.12 -0.12)">
     <defs>
      <path id="DejaVuSans-43" d="M 4122 4306 
L 4122 3641 
Q 3803 3938 3442 4084 
Q 3081 4231 2675 4231 
Q 1875 4231 1450 3742 
Q 1025 3253 1025 2328 
Q 1025 1406 1450 917 
Q 1875 428 2675 428 
Q 3081 428 3442 575 
Q 3803 722 4122 1019 
L 4122 359 
Q 3791 134 3420 21 
Q 3050 -91 2638 -91 
Q 1578 -91 968 557 
Q 359 1206 359 2328 
Q 359 3453 968 4101 
Q 1578 4750 2638 4750 
Q 3056 4750 3426 4639 
Q 3797 4528 4122 4306 
z
" transform="scale(0.015625)"/>
      <path id="DejaVuSans-6d" d="M 3328 2828 
Q 3544 3216 3844 3400 
Q 4144 3584 4550 3584 
Q 5097 3584 5394 3201 
Q 5691 2819 5691 2113 
L 5691 0 
L 5113 0 
L 5113 2094 
Q 5113 2597 4934 2840 
Q 4756 3084 4391 3084 
Q 3944 3084 3684 2787 
Q 3425 2491 3425 1978 
L 3425 0 
L 2847 0 
L 2847 2094 
Q 2847 2600 2669 2842 
Q 2491 3084 2119 3084 
Q 1678 3084 1418 2786 
Q 1159 2488 1159 1978 
L 1159 0 
L 581 0 
L 581 3500 
L 1159 3500 
L 1159 2956 
Q 1356 3278 1631 3431 
Q 1906 3584 2284 3584 
Q 2666 3584 2933 3390 
Q 3200 3197 3328 2828 
z
" transform="scale(0.015625)"/>
      <path id="DejaVuSans-69" d="M 603 3500 
L 1178 3500 
L 1178 0 
L 603 0 
L 603 3500 
z
M 603 4863 
L 1178 4863 
L 1178 4134 
L 603 4134 
L 603 4863 
z
" transform="scale(0.015625)"/>
      <path id="DejaVuSans-73" d="M 2834 3397 
L 2834 2853 
Q 2591 2978 2328 3040 
Q 2066 3103 1784 3103 
Q 1356 3103 1142 2972 
Q 928 2841 928 2578 
Q 928 2378 1081 2264 
Q 1234 2150 1697 2047 
L 1894 2003 
Q 2506 1872 2764 1633 
Q 3022 1394 3022 966 
Q 3022 478 2636 193 
Q 2250 -91 1575 -91 
Q 1294 -91 989 -36 
Q 684 19 347 128 
L 347 722 
Q 666 556 975 473 
Q 1284 391 1588 391 
Q 1994 391 2212 530 
Q 2431 669 2431 922 
Q 2431 1156 2273 1281 
Q 2116 1406 1581 1522 
L 1381 1569 
Q 847 1681 609 1914 
Q 372 2147 372 2553 
Q 372 3047 722 3315 
Q 1072 3584 1716 3584 
Q 2034 3584 2315 3537 
Q 2597 3491 2834 3397 
z
" transform="scale(0.015625)"/>
      <path id="DejaVuSans-20" transform="scale(0.015625)"/>
      <path id="DejaVuSans-66" d="M 2375 4863 
L 2375 4384 
L 1825 4384 
Q 1516 4384 1395 4259 
Q 1275 4134 1275 3809 
L 1275 3500 
L 2222 3500 
L 2222 3053 
L 1275 3053 
L 1275 0 
L 697 0 
L 697 3053 
L 147 3053 
L 147 3500 
L 697 3500 
L 697 3744 
Q 697 4328 969 4595 
Q 1241 4863 1831 4863 
L 2375 4863 
z
" transform="scale(0.015625)"/>
      <path id="DejaVuSans-52" d="M 2841 2188 
Q 3044 2119 3236 1894 
Q 3428 1669 3622 1275 
L 4263 0 
L 3584 0 
L 2988 1197 
Q 2756 1666 2539 1819 
Q 2322 1972 1947 1972 
L 1259 1972 
L 1259 0 
L 628 0 
L 628 4666 
L 2053 4666 
Q 2853 4666 3247 4331 
Q 3641 3997 3641 3322 
Q 3641 2881 3436 2590 
Q 3231 2300 2841 2188 
z
M 1259 4147 
L 1259 2491 
L 2053 2491 
Q 2509 2491 2742 2702 
Q 2975 2913 2975 3322 
Q 2975 3731 2742 3939 
Q 2509 4147 2053 4147 
L 1259 4147 
z
" transform="scale(0.015625)"/>
      <path id="DejaVuSans-2c" d="M 750 794 
L 1409 794 
L 1409 256 
L 897 -744 
L 494 -744 
L 750 256 
L 750 794 
z
" transform="scale(0.015625)"/>
      <path id="DejaVuSans-47" d="M 3809 666 
L 3809 1919 
L 2778 1919 
L 2778 2438 
L 4434 2438 
L 4434 434 
Q 4069 175 3628 42 
Q 3188 -91 2688 -91 
Q 1594 -91 976 548 
Q 359 1188 359 2328 
Q 359 3472 976 4111 
Q 1594 4750 2688 4750 
Q 3144 4750 3555 4637 
Q 3966 4525 4313 4306 
L 4313 3634 
Q 3963 3931 3569 4081 
Q 3175 4231 2741 4231 
Q 1884 4231 1454 3753 
Q 1025 3275 1025 2328 
Q 1025 1384 1454 906 
Q 1884 428 2741 428 
Q 3075 428 3337 486 
Q 3600 544 3809 666 
z
" transform="scale(0.015625)"/>
      <path id="DejaVuSans-7a" d="M 353 3500 
L 3084 3500 
L 3084 2975 
L 922 459 
L 3084 459 
L 3084 0 
L 275 0 
L 275 525 
L 2438 3041 
L 353 3041 
L 353 3500 
z
" transform="scale(0.015625)"/>
     </defs>
     <use xlink:href="#DejaVuSans-43"/>
     <use xlink:href="#DejaVuSans-6f" x="69.824219"/>
     <use xlink:href="#DejaVuSans-6d" x="131.005859"/>
     <use xlink:href="#DejaVuSans-70" x="228.417969"/>
     <use xlink:href="#DejaVuSans-61" x="291.894531"/>
     <use xlink:href="#DejaVuSans-72" x="353.173828"/>
     <use xlink:href="#DejaVuSans-69" x="394.287109"/>
     <use xlink:href="#DejaVuSans-73" x="422.070312"/>
     <use xlink:href="#DejaVuSans-6f" x="474.169922"/>
     <use xlink:href="#DejaVuSans-6e" x="535.351562"/>
     <use xlink:href="#DejaVuSans-20" x="598.730469"/>
     <use xlink:href="#DejaVuSans-6f" x="630.517578"/>
     <use xlink:href="#DejaVuSans-66" x="691.699219"/>
     <use xlink:href="#DejaVuSans-20" x="726.904297"/>
     <use xlink:href="#DejaVuSans-61" x="758.691406"/>
     <use xlink:href="#DejaVuSans-73" x="819.970703"/>
     <use xlink:href="#DejaVuSans-73" x="872.070312"/>
     <use xlink:href="#DejaVuSans-65" x="924.169922"/>
     <use xlink:href="#DejaVuSans-73" x="985.693359"/>
     <use xlink:href="#DejaVuSans-73" x="1037.792969"/>
     <use xlink:href="#DejaVuSans-65" x="1089.892578"/>
     <use xlink:href="#DejaVuSans-64" x="1151.416016"/>
     <use xlink:href="#DejaVuSans-20" x="1214.892578"/>
     <use xlink:href="#DejaVuSans-52" x="1246.679688"/>
     <use xlink:href="#DejaVuSans-75" x="1311.662109"/>
     <use xlink:href="#DejaVuSans-73" x="1375.041016"/>
     <use xlink:href="#DejaVuSans-73" x="1427.140625"/>
     <use xlink:href="#DejaVuSans-69" x="1479.240234"/>
     <use xlink:href="#DejaVuSans-61" x="1507.023438"/>
     <use xlink:href="#DejaVuSans-6e" x="1568.302734"/>
     <use xlink:href="#DejaVuSans-20" x="1631.681641"/>
     <use xlink:href="#DejaVuSans-74" x="1663.46875"/>
     <use xlink:href="#DejaVuSans-65" x="1702.677734"/>
     <use xlink:href="#DejaVuSans-72" x="1764.201172"/>
     <use xlink:href="#DejaVuSans-72" x="1803.564453"/>
     <use xlink:href="#DejaVuSans-69" x="1844.677734"/>
     <use xlink:href="#DejaVuSans-74" x="1872.460938"/>
     <use xlink:href="#DejaVuSans-6f" x="1911.669922"/>
     <use xlink:href="#DejaVuSans-72" x="1972.851562"/>
     <use xlink:href="#DejaVuSans-79" x="2013.964844"/>
     <use xlink:href="#DejaVuSans-20" x="2073.144531"/>
     <use xlink:href="#DejaVuSans-63" x="2104.931641"/>
     <use xlink:href="#DejaVuSans-6f" x="2159.912109"/>
     <use xlink:href="#DejaVuSans-6e" x="2221.09375"/>
     <use xlink:href="#DejaVuSans-74" x="2284.472656"/>
     <use xlink:href="#DejaVuSans-72" x="2323.681641"/>
     <use xlink:href="#DejaVuSans-6f" x="2362.544922"/>
     <use xlink:href="#DejaVuSans-6c" x="2423.726562"/>
     <use xlink:href="#DejaVuSans-2c" x="2451.509766"/>
     <use xlink:href="#DejaVuSans-20" x="2483.296875"/>
     <use xlink:href="#DejaVuSans-6c" x="2515.083984"/>
     <use xlink:href="#DejaVuSans-69" x="2542.867188"/>
     <use xlink:href="#DejaVuSans-76" x="2570.650391"/>
     <use xlink:href="#DejaVuSans-65" x="2629.830078"/>
     <use xlink:href="#DejaVuSans-75" x="2691.353516"/>
     <use xlink:href="#DejaVuSans-61" x="2754.732422"/>
     <use xlink:href="#DejaVuSans-6d" x="2816.011719"/>
     <use xlink:href="#DejaVuSans-61" x="2913.423828"/>
     <use xlink:href="#DejaVuSans-70" x="2974.703125"/>
     <use xlink:href="#DejaVuSans-20" x="3038.179688"/>
     <use xlink:href="#DejaVuSans-76" x="3069.966797"/>
     <use xlink:href="#DejaVuSans-73" x="3129.146484"/>
     <use xlink:href="#DejaVuSans-20" x="3181.246094"/>
     <use xlink:href="#DejaVuSans-4e" x="3213.033203"/>
     <use xlink:href="#DejaVuSans-6f" x="3287.837891"/>
     <use xlink:href="#DejaVuSans-76" x="3349.019531"/>
     <use xlink:href="#DejaVuSans-61" x="3408.199219"/>
     <use xlink:href="#DejaVuSans-79" x="3469.478516"/>
     <use xlink:href="#DejaVuSans-61" x="3528.658203"/>
     <use xlink:href="#DejaVuSans-20" x="3589.9375"/>
     <use xlink:href="#DejaVuSans-47" x="3621.724609"/>
     <use xlink:href="#DejaVuSans-61" x="3699.214844"/>
     <use xlink:href="#DejaVuSans-7a" x="3760.494141"/>
     <use xlink:href="#DejaVuSans-65" x="3812.984375"/>
     <use xlink:href="#DejaVuSans-74" x="3874.507812"/>
     <use xlink:href="#DejaVuSans-61" x="3913.716797"/>
    </g>
   </g>
   <g id="legend_1">
    <g id="patch_7">
     <path d="M 489.974219 63.41 
L 608.9925 63.41 
Q 611.1925 63.41 611.1925 61.21 
L 611.1925 30.018125 
Q 611.1925 27.818125 608.9925 27.818125 
L 489.974219 27.818125 
Q 487.774219 27.818125 487.774219 30.018125 
L 487.774219 61.21 
Q 487.774219 63.41 489.974219 63.41 
z
" style="fill: #eaeaf2; opacity: 0.8; stroke: #cccccc; stroke-linejoin: miter"/>
    </g>
    <g id="line2d_22">
     <path d="M 492.174219 36.726406 
L 503.174219 36.726406 
L 514.174219 36.726406 
" style="fill: none; stroke: #4c72b0; stroke-width: 1.5; stroke-linecap: round"/>
    </g>
    <g id="text_20">
     <!-- liveuamap -->
     <g style="fill: #262626" transform="translate(522.974219 40.576406) scale(0.11 -0.11)">
      <use xlink:href="#DejaVuSans-6c"/>
      <use xlink:href="#DejaVuSans-69" x="27.783203"/>
      <use xlink:href="#DejaVuSans-76" x="55.566406"/>
      <use xlink:href="#DejaVuSans-65" x="114.746094"/>
      <use xlink:href="#DejaVuSans-75" x="176.269531"/>
      <use xlink:href="#DejaVuSans-61" x="239.648438"/>
      <use xlink:href="#DejaVuSans-6d" x="300.927734"/>
      <use xlink:href="#DejaVuSans-61" x="398.339844"/>
      <use xlink:href="#DejaVuSans-70" x="459.619141"/>
     </g>
    </g>
    <g id="line2d_23">
     <path d="M 492.174219 52.872344 
L 503.174219 52.872344 
L 514.174219 52.872344 
" style="fill: none; stroke: #dd8452; stroke-width: 1.5; stroke-linecap: round"/>
    </g>
    <g id="text_21">
     <!-- Novaya Gazeta -->
     <g style="fill: #262626" transform="translate(522.974219 56.722344) scale(0.11 -0.11)">
      <use xlink:href="#DejaVuSans-4e"/>
      <use xlink:href="#DejaVuSans-6f" x="74.804688"/>
      <use xlink:href="#DejaVuSans-76" x="135.986328"/>
      <use xlink:href="#DejaVuSans-61" x="195.166016"/>
      <use xlink:href="#DejaVuSans-79" x="256.445312"/>
      <use xlink:href="#DejaVuSans-61" x="315.625"/>
      <use xlink:href="#DejaVuSans-20" x="376.904297"/>
      <use xlink:href="#DejaVuSans-47" x="408.691406"/>
      <use xlink:href="#DejaVuSans-61" x="486.181641"/>
      <use xlink:href="#DejaVuSans-7a" x="547.460938"/>
      <use xlink:href="#DejaVuSans-65" x="599.951172"/>
      <use xlink:href="#DejaVuSans-74" x="661.474609"/>
      <use xlink:href="#DejaVuSans-61" x="700.683594"/>
     </g>
    </g>
   </g>
  </g>
 </g>
 <defs>
  <clipPath id="p0c73c229af">
   <rect x="58.6925" y="22.318125" width="558" height="277.2"/>
  </clipPath>
 </defs>
</svg>
