<?xml version="1.0" encoding="utf-8" standalone="no"?>
<!DOCTYPE svg PUBLIC "-//W3C//DTD SVG 1.1//EN"
  "http://www.w3.org/Graphics/SVG/1.1/DTD/svg11.dtd">
<svg xmlns:xlink="http://www.w3.org/1999/xlink" width="588.01375pt" height="311.745938pt" viewBox="0 0 588.01375 311.745938" xmlns="http://www.w3.org/2000/svg" version="1.1">
 <metadata>
  <rdf:RDF xmlns:dc="http://purl.org/dc/elements/1.1/" xmlns:cc="http://creativecommons.org/ns#" xmlns:rdf="http://www.w3.org/1999/02/22-rdf-syntax-ns#">
   <cc:Work>
    <dc:type rdf:resource="http://purl.org/dc/dcmitype/StillImage"/>
    <dc:date>2023-03-15T22:04:35.535632</dc:date>
    <dc:format>image/svg+xml</dc:format>
    <dc:creator>
     <cc:Agent>
      <dc:title>Matplotlib v3.6.2, https://matplotlib.org/</dc:title>
     </cc:Agent>
    </dc:creator>
   </cc:Work>
  </rdf:RDF>
 </metadata>
 <defs>
  <style type="text/css">*{stroke-linejoin: round; stroke-linecap: butt}</style>
 </defs>
 <g id="figure_1">
  <g id="patch_1">
   <path d="M 0 311.745938 
L 588.01375 311.745938 
L 588.01375 0 
L 0 0 
z
" style="fill: #ffffff"/>
  </g>
  <g id="axes_1">
   <g id="patch_2">
    <path d="M 22.81375 284.4 
L 580.81375 284.4 
L 580.81375 7.2 
L 22.81375 7.2 
z
" style="fill: #eaeaf2"/>
   </g>
   <g id="matplotlib.axis_1">
    <g id="xtick_1">
     <g id="line2d_1">
      <path d="M 75.17026 284.4 
L 75.17026 7.2 
" clip-path="url(#p245c46e86b)" style="fill: none; stroke: #ffffff; stroke-linecap: round"/>
     </g>
     <g id="text_1">
      <!-- −2000 -->
      <g style="fill: #262626" transform="translate(56.563932 302.258281) scale(0.11 -0.11)">
       <defs>
        <path id="DejaVuSans-2212" d="M 678 2272 
L 4684 2272 
L 4684 1741 
L 678 1741 
L 678 2272 
z
" transform="scale(0.015625)"/>
        <path id="DejaVuSans-32" d="M 1228 531 
L 3431 531 
L 3431 0 
L 469 0 
L 469 531 
Q 828 903 1448 1529 
Q 2069 2156 2228 2338 
Q 2531 2678 2651 2914 
Q 2772 3150 2772 3378 
Q 2772 3750 2511 3984 
Q 2250 4219 1831 4219 
Q 1534 4219 1204 4116 
Q 875 4013 500 3803 
L 500 4441 
Q 881 4594 1212 4672 
Q 1544 4750 1819 4750 
Q 2544 4750 2975 4387 
Q 3406 4025 3406 3419 
Q 3406 3131 3298 2873 
Q 3191 2616 2906 2266 
Q 2828 2175 2409 1742 
Q 1991 1309 1228 531 
z
" transform="scale(0.015625)"/>
        <path id="DejaVuSans-30" d="M 2034 4250 
Q 1547 4250 1301 3770 
Q 1056 3291 1056 2328 
Q 1056 1369 1301 889 
Q 1547 409 2034 409 
Q 2525 409 2770 889 
Q 3016 1369 3016 2328 
Q 3016 3291 2770 3770 
Q 2525 4250 2034 4250 
z
M 2034 4750 
Q 2819 4750 3233 4129 
Q 3647 3509 3647 2328 
Q 3647 1150 3233 529 
Q 2819 -91 2034 -91 
Q 1250 -91 836 529 
Q 422 1150 422 2328 
Q 422 3509 836 4129 
Q 1250 4750 2034 4750 
z
" transform="scale(0.015625)"/>
       </defs>
       <use xlink:href="#DejaVuSans-2212"/>
       <use xlink:href="#DejaVuSans-32" x="83.789062"/>
       <use xlink:href="#DejaVuSans-30" x="147.412109"/>
       <use xlink:href="#DejaVuSans-30" x="211.035156"/>
       <use xlink:href="#DejaVuSans-30" x="274.658203"/>
      </g>
     </g>
    </g>
    <g id="xtick_2">
     <g id="line2d_2">
      <path d="M 179.011689 284.4 
L 179.011689 7.2 
" clip-path="url(#p245c46e86b)" style="fill: none; stroke: #ffffff; stroke-linecap: round"/>
     </g>
     <g id="text_2">
      <!-- −1000 -->
      <g style="fill: #262626" transform="translate(160.405361 302.258281) scale(0.11 -0.11)">
       <defs>
        <path id="DejaVuSans-31" d="M 794 531 
L 1825 531 
L 1825 4091 
L 703 3866 
L 703 4441 
L 1819 4666 
L 2450 4666 
L 2450 531 
L 3481 531 
L 3481 0 
L 794 0 
L 794 531 
z
" transform="scale(0.015625)"/>
       </defs>
       <use xlink:href="#DejaVuSans-2212"/>
       <use xlink:href="#DejaVuSans-31" x="83.789062"/>
       <use xlink:href="#DejaVuSans-30" x="147.412109"/>
       <use xlink:href="#DejaVuSans-30" x="211.035156"/>
       <use xlink:href="#DejaVuSans-30" x="274.658203"/>
      </g>
     </g>
    </g>
    <g id="xtick_3">
     <g id="line2d_3">
      <path d="M 282.853119 284.4 
L 282.853119 7.2 
" clip-path="url(#p245c46e86b)" style="fill: none; stroke: #ffffff; stroke-linecap: round"/>
     </g>
     <g id="text_3">
      <!-- 0 -->
      <g style="fill: #262626" transform="translate(279.353744 302.258281) scale(0.11 -0.11)">
       <use xlink:href="#DejaVuSans-30"/>
      </g>
     </g>
    </g>
    <g id="xtick_4">
     <g id="line2d_4">
      <path d="M 386.694548 284.4 
L 386.694548 7.2 
" clip-path="url(#p245c46e86b)" style="fill: none; stroke: #ffffff; stroke-linecap: round"/>
     </g>
     <g id="text_4">
      <!-- 1000 -->
      <g style="fill: #262626" transform="translate(372.697048 302.258281) scale(0.11 -0.11)">
       <use xlink:href="#DejaVuSans-31"/>
       <use xlink:href="#DejaVuSans-30" x="63.623047"/>
       <use xlink:href="#DejaVuSans-30" x="127.246094"/>
       <use xlink:href="#DejaVuSans-30" x="190.869141"/>
      </g>
     </g>
    </g>
    <g id="xtick_5">
     <g id="line2d_5">
      <path d="M 490.535978 284.4 
L 490.535978 7.2 
" clip-path="url(#p245c46e86b)" style="fill: none; stroke: #ffffff; stroke-linecap: round"/>
     </g>
     <g id="text_5">
      <!-- 2000 -->
      <g style="fill: #262626" transform="translate(476.538478 302.258281) scale(0.11 -0.11)">
       <use xlink:href="#DejaVuSans-32"/>
       <use xlink:href="#DejaVuSans-30" x="63.623047"/>
       <use xlink:href="#DejaVuSans-30" x="127.246094"/>
       <use xlink:href="#DejaVuSans-30" x="190.869141"/>
      </g>
     </g>
    </g>
   </g>
   <g id="matplotlib.axis_2">
    <g id="text_6">
     <!-- date -->
     <g style="fill: #262626" transform="translate(16.318125 159.33) rotate(-90) scale(0.12 -0.12)">
      <defs>
       <path id="DejaVuSans-64" d="M 2906 2969 
L 2906 4863 
L 3481 4863 
L 3481 0 
L 2906 0 
L 2906 525 
Q 2725 213 2448 61 
Q 2172 -91 1784 -91 
Q 1150 -91 751 415 
Q 353 922 353 1747 
Q 353 2572 751 3078 
Q 1150 3584 1784 3584 
Q 2172 3584 2448 3432 
Q 2725 3281 2906 2969 
z
M 947 1747 
Q 947 1113 1208 752 
Q 1469 391 1925 391 
Q 2381 391 2643 752 
Q 2906 1113 2906 1747 
Q 2906 2381 2643 2742 
Q 2381 3103 1925 3103 
Q 1469 3103 1208 2742 
Q 947 2381 947 1747 
z
" transform="scale(0.015625)"/>
       <path id="DejaVuSans-61" d="M 2194 1759 
Q 1497 1759 1228 1600 
Q 959 1441 959 1056 
Q 959 750 1161 570 
Q 1363 391 1709 391 
Q 2188 391 2477 730 
Q 2766 1069 2766 1631 
L 2766 1759 
L 2194 1759 
z
M 3341 1997 
L 3341 0 
L 2766 0 
L 2766 531 
Q 2569 213 2275 61 
Q 1981 -91 1556 -91 
Q 1019 -91 701 211 
Q 384 513 384 1019 
Q 384 1609 779 1909 
Q 1175 2209 1959 2209 
L 2766 2209 
L 2766 2266 
Q 2766 2663 2505 2880 
Q 2244 3097 1772 3097 
Q 1472 3097 1187 3025 
Q 903 2953 641 2809 
L 641 3341 
Q 956 3463 1253 3523 
Q 1550 3584 1831 3584 
Q 2591 3584 2966 3190 
Q 3341 2797 3341 1997 
z
" transform="scale(0.015625)"/>
       <path id="DejaVuSans-74" d="M 1172 4494 
L 1172 3500 
L 2356 3500 
L 2356 3053 
L 1172 3053 
L 1172 1153 
Q 1172 725 1289 603 
Q 1406 481 1766 481 
L 2356 481 
L 2356 0 
L 1766 0 
Q 1100 0 847 248 
Q 594 497 594 1153 
L 594 3053 
L 172 3053 
L 172 3500 
L 594 3500 
L 594 4494 
L 1172 4494 
z
" transform="scale(0.015625)"/>
       <path id="DejaVuSans-65" d="M 3597 1894 
L 3597 1613 
L 953 1613 
Q 991 1019 1311 708 
Q 1631 397 2203 397 
Q 2534 397 2845 478 
Q 3156 559 3463 722 
L 3463 178 
Q 3153 47 2828 -22 
Q 2503 -91 2169 -91 
Q 1331 -91 842 396 
Q 353 884 353 1716 
Q 353 2575 817 3079 
Q 1281 3584 2069 3584 
Q 2775 3584 3186 3129 
Q 3597 2675 3597 1894 
z
M 3022 2063 
Q 3016 2534 2758 2815 
Q 2500 3097 2075 3097 
Q 1594 3097 1305 2825 
Q 1016 2553 972 2059 
L 3022 2063 
z
" transform="scale(0.015625)"/>
      </defs>
      <use xlink:href="#DejaVuSans-64"/>
      <use xlink:href="#DejaVuSans-61" x="63.476562"/>
      <use xlink:href="#DejaVuSans-74" x="124.755859"/>
      <use xlink:href="#DejaVuSans-65" x="163.964844"/>
     </g>
    </g>
   </g>
   <g id="patch_3">
    <path d="M 282.853119 8.46 
L 555.450114 8.46 
L 555.450114 10.98 
L 282.853119 10.98 
z
" clip-path="url(#p245c46e86b)" style="fill: #4c72b0; stroke: #ffffff; stroke-linejoin: miter"/>
   </g>
   <g id="patch_4">
    <path d="M 282.853119 13.5 
L 465.796917 13.5 
L 465.796917 16.02 
L 282.853119 16.02 
z
" clip-path="url(#p245c46e86b)" style="fill: #4c72b0; stroke: #ffffff; stroke-linejoin: miter"/>
   </g>
   <g id="patch_5">
    <path d="M 282.853119 18.54 
L 299.25488 18.54 
L 299.25488 21.06 
L 282.853119 21.06 
z
" clip-path="url(#p245c46e86b)" style="fill: #4c72b0; stroke: #ffffff; stroke-linejoin: miter"/>
   </g>
   <g id="patch_6">
    <path d="M 282.853119 23.58 
L 282.853119 23.58 
L 282.853119 26.1 
L 282.853119 26.1 
z
" clip-path="url(#p245c46e86b)" style="fill: #4c72b0; stroke: #ffffff; stroke-linejoin: miter"/>
   </g>
   <g id="patch_7">
    <path d="M 282.853119 28.62 
L 383.749881 28.62 
L 383.749881 31.14 
L 282.853119 31.14 
z
" clip-path="url(#p245c46e86b)" style="fill: #4c72b0; stroke: #ffffff; stroke-linejoin: miter"/>
   </g>
   <g id="patch_8">
    <path d="M 282.853119 33.66 
L 48.177386 33.66 
L 48.177386 36.18 
L 282.853119 36.18 
z
" clip-path="url(#p245c46e86b)" style="fill: #4c72b0; stroke: #ffffff; stroke-linejoin: miter"/>
   </g>
   <g id="patch_9">
    <path d="M 282.853119 38.7 
L 282.853119 38.7 
L 282.853119 41.22 
L 282.853119 41.22 
z
" clip-path="url(#p245c46e86b)" style="fill: #4c72b0; stroke: #ffffff; stroke-linejoin: miter"/>
   </g>
   <g id="patch_10">
    <path d="M 282.853119 43.74 
L 282.853119 43.74 
L 282.853119 46.26 
L 282.853119 46.26 
z
" clip-path="url(#p245c46e86b)" style="fill: #4c72b0; stroke: #ffffff; stroke-linejoin: miter"/>
   </g>
   <g id="patch_11">
    <path d="M 282.853119 48.78 
L 289.528694 48.78 
L 289.528694 51.3 
L 282.853119 51.3 
z
" clip-path="url(#p245c46e86b)" style="fill: #4c72b0; stroke: #ffffff; stroke-linejoin: miter"/>
   </g>
   <g id="patch_12">
    <path d="M 282.853119 53.82 
L 280.941092 53.82 
L 280.941092 56.34 
L 282.853119 56.34 
z
" clip-path="url(#p245c46e86b)" style="fill: #4c72b0; stroke: #ffffff; stroke-linejoin: miter"/>
   </g>
   <g id="patch_13">
    <path d="M 282.853119 58.86 
L 281.535005 58.86 
L 281.535005 61.38 
L 282.853119 61.38 
z
" clip-path="url(#p245c46e86b)" style="fill: #4c72b0; stroke: #ffffff; stroke-linejoin: miter"/>
   </g>
   <g id="patch_14">
    <path d="M 282.853119 63.9 
L 283.539081 63.9 
L 283.539081 66.42 
L 282.853119 66.42 
z
" clip-path="url(#p245c46e86b)" style="fill: #4c72b0; stroke: #ffffff; stroke-linejoin: miter"/>
   </g>
   <g id="patch_15">
    <path d="M 282.853119 68.94 
L 289.231836 68.94 
L 289.231836 71.46 
L 282.853119 71.46 
z
" clip-path="url(#p245c46e86b)" style="fill: #4c72b0; stroke: #ffffff; stroke-linejoin: miter"/>
   </g>
   <g id="patch_16">
    <path d="M 282.853119 73.98 
L 283.093505 73.98 
L 283.093505 76.5 
L 282.853119 76.5 
z
" clip-path="url(#p245c46e86b)" style="fill: #4c72b0; stroke: #ffffff; stroke-linejoin: miter"/>
   </g>
   <g id="patch_17">
    <path d="M 282.853119 79.02 
L 282.853119 79.02 
L 282.853119 81.54 
L 282.853119 81.54 
z
" clip-path="url(#p245c46e86b)" style="fill: #4c72b0; stroke: #ffffff; stroke-linejoin: miter"/>
   </g>
   <g id="patch_18">
    <path d="M 282.853119 84.06 
L 284.476741 84.06 
L 284.476741 86.58 
L 282.853119 86.58 
z
" clip-path="url(#p245c46e86b)" style="fill: #4c72b0; stroke: #ffffff; stroke-linejoin: miter"/>
   </g>
   <g id="patch_19">
    <path d="M 282.853119 89.1 
L 282.28787 89.1 
L 282.28787 91.62 
L 282.853119 91.62 
z
" clip-path="url(#p245c46e86b)" style="fill: #4c72b0; stroke: #ffffff; stroke-linejoin: miter"/>
   </g>
   <g id="patch_20">
    <path d="M 282.853119 94.14 
L 283.402827 94.14 
L 283.402827 96.66 
L 282.853119 96.66 
z
" clip-path="url(#p245c46e86b)" style="fill: #4c72b0; stroke: #ffffff; stroke-linejoin: miter"/>
   </g>
   <g id="patch_21">
    <path d="M 282.853119 99.18 
L 285.346615 99.18 
L 285.346615 101.7 
L 282.853119 101.7 
z
" clip-path="url(#p245c46e86b)" style="fill: #4c72b0; stroke: #ffffff; stroke-linejoin: miter"/>
   </g>
   <g id="patch_22">
    <path d="M 282.853119 104.22 
L 282.853119 104.22 
L 282.853119 106.74 
L 282.853119 106.74 
z
" clip-path="url(#p245c46e86b)" style="fill: #4c72b0; stroke: #ffffff; stroke-linejoin: miter"/>
   </g>
   <g id="patch_23">
    <path d="M 282.853119 109.26 
L 282.853119 109.26 
L 282.853119 111.78 
L 282.853119 111.78 
z
" clip-path="url(#p245c46e86b)" style="fill: #4c72b0; stroke: #ffffff; stroke-linejoin: miter"/>
   </g>
   <g id="patch_24">
    <path d="M 282.853119 114.3 
L 283.748858 114.3 
L 283.748858 116.82 
L 282.853119 116.82 
z
" clip-path="url(#p245c46e86b)" style="fill: #4c72b0; stroke: #ffffff; stroke-linejoin: miter"/>
   </g>
   <g id="patch_25">
    <path d="M 282.853119 119.34 
L 282.853119 119.34 
L 282.853119 121.86 
L 282.853119 121.86 
z
" clip-path="url(#p245c46e86b)" style="fill: #4c72b0; stroke: #ffffff; stroke-linejoin: miter"/>
   </g>
   <g id="patch_26">
    <path d="M 282.853119 124.38 
L 282.853119 124.38 
L 282.853119 126.9 
L 282.853119 126.9 
z
" clip-path="url(#p245c46e86b)" style="fill: #4c72b0; stroke: #ffffff; stroke-linejoin: miter"/>
   </g>
   <g id="patch_27">
    <path d="M 282.853119 129.42 
L 282.853119 129.42 
L 282.853119 131.94 
L 282.853119 131.94 
z
" clip-path="url(#p245c46e86b)" style="fill: #4c72b0; stroke: #ffffff; stroke-linejoin: miter"/>
   </g>
   <g id="patch_28">
    <path d="M 282.853119 134.46 
L 282.853119 134.46 
L 282.853119 136.98 
L 282.853119 136.98 
z
" clip-path="url(#p245c46e86b)" style="fill: #4c72b0; stroke: #ffffff; stroke-linejoin: miter"/>
   </g>
   <g id="patch_29">
    <path d="M 282.853119 139.5 
L 282.853119 139.5 
L 282.853119 142.02 
L 282.853119 142.02 
z
" clip-path="url(#p245c46e86b)" style="fill: #4c72b0; stroke: #ffffff; stroke-linejoin: miter"/>
   </g>
   <g id="patch_30">
    <path d="M 282.853119 144.54 
L 277.52845 144.54 
L 277.52845 147.06 
L 282.853119 147.06 
z
" clip-path="url(#p245c46e86b)" style="fill: #4c72b0; stroke: #ffffff; stroke-linejoin: miter"/>
   </g>
   <g id="patch_31">
    <path d="M 282.853119 149.58 
L 280.508599 149.58 
L 280.508599 152.1 
L 282.853119 152.1 
z
" clip-path="url(#p245c46e86b)" style="fill: #4c72b0; stroke: #ffffff; stroke-linejoin: miter"/>
   </g>
   <g id="patch_32">
    <path d="M 282.853119 154.62 
L 282.853119 154.62 
L 282.853119 157.14 
L 282.853119 157.14 
z
" clip-path="url(#p245c46e86b)" style="fill: #4c72b0; stroke: #ffffff; stroke-linejoin: miter"/>
   </g>
   <g id="patch_33">
    <path d="M 282.853119 159.66 
L 278.878742 159.66 
L 278.878742 162.18 
L 282.853119 162.18 
z
" clip-path="url(#p245c46e86b)" style="fill: #4c72b0; stroke: #ffffff; stroke-linejoin: miter"/>
   </g>
   <g id="patch_34">
    <path d="M 282.853119 164.7 
L 252.481482 164.7 
L 252.481482 167.22 
L 282.853119 167.22 
z
" clip-path="url(#p245c46e86b)" style="fill: #4c72b0; stroke: #ffffff; stroke-linejoin: miter"/>
   </g>
   <g id="patch_35">
    <path d="M 282.853119 169.74 
L 280.840192 169.74 
L 280.840192 172.26 
L 282.853119 172.26 
z
" clip-path="url(#p245c46e86b)" style="fill: #4c72b0; stroke: #ffffff; stroke-linejoin: miter"/>
   </g>
   <g id="patch_36">
    <path d="M 282.853119 174.78 
L 282.853119 174.78 
L 282.853119 177.3 
L 282.853119 177.3 
z
" clip-path="url(#p245c46e86b)" style="fill: #4c72b0; stroke: #ffffff; stroke-linejoin: miter"/>
   </g>
   <g id="patch_37">
    <path d="M 282.853119 179.82 
L 282.853119 179.82 
L 282.853119 182.34 
L 282.853119 182.34 
z
" clip-path="url(#p245c46e86b)" style="fill: #4c72b0; stroke: #ffffff; stroke-linejoin: miter"/>
   </g>
   <g id="patch_38">
    <path d="M 282.853119 184.86 
L 282.853119 184.86 
L 282.853119 187.38 
L 282.853119 187.38 
z
" clip-path="url(#p245c46e86b)" style="fill: #4c72b0; stroke: #ffffff; stroke-linejoin: miter"/>
   </g>
   <g id="patch_39">
    <path d="M 282.853119 189.9 
L 282.853119 189.9 
L 282.853119 192.42 
L 282.853119 192.42 
z
" clip-path="url(#p245c46e86b)" style="fill: #4c72b0; stroke: #ffffff; stroke-linejoin: miter"/>
   </g>
   <g id="patch_40">
    <path d="M 282.853119 194.94 
L 282.853119 194.94 
L 282.853119 197.46 
L 282.853119 197.46 
z
" clip-path="url(#p245c46e86b)" style="fill: #4c72b0; stroke: #ffffff; stroke-linejoin: miter"/>
   </g>
   <g id="patch_41">
    <path d="M 282.853119 199.98 
L 282.853119 199.98 
L 282.853119 202.5 
L 282.853119 202.5 
z
" clip-path="url(#p245c46e86b)" style="fill: #4c72b0; stroke: #ffffff; stroke-linejoin: miter"/>
   </g>
   <g id="patch_42">
    <path d="M 282.853119 205.02 
L 282.853119 205.02 
L 282.853119 207.54 
L 282.853119 207.54 
z
" clip-path="url(#p245c46e86b)" style="fill: #4c72b0; stroke: #ffffff; stroke-linejoin: miter"/>
   </g>
   <g id="patch_43">
    <path d="M 282.853119 210.06 
L 282.853119 210.06 
L 282.853119 212.58 
L 282.853119 212.58 
z
" clip-path="url(#p245c46e86b)" style="fill: #4c72b0; stroke: #ffffff; stroke-linejoin: miter"/>
   </g>
   <g id="patch_44">
    <path d="M 282.853119 215.1 
L 282.853119 215.1 
L 282.853119 217.62 
L 282.853119 217.62 
z
" clip-path="url(#p245c46e86b)" style="fill: #4c72b0; stroke: #ffffff; stroke-linejoin: miter"/>
   </g>
   <g id="patch_45">
    <path d="M 282.853119 220.14 
L 282.853119 220.14 
L 282.853119 222.66 
L 282.853119 222.66 
z
" clip-path="url(#p245c46e86b)" style="fill: #4c72b0; stroke: #ffffff; stroke-linejoin: miter"/>
   </g>
   <g id="patch_46">
    <path d="M 282.853119 225.18 
L 282.853119 225.18 
L 282.853119 227.7 
L 282.853119 227.7 
z
" clip-path="url(#p245c46e86b)" style="fill: #4c72b0; stroke: #ffffff; stroke-linejoin: miter"/>
   </g>
   <g id="patch_47">
    <path d="M 282.853119 230.22 
L 282.853119 230.22 
L 282.853119 232.74 
L 282.853119 232.74 
z
" clip-path="url(#p245c46e86b)" style="fill: #4c72b0; stroke: #ffffff; stroke-linejoin: miter"/>
   </g>
   <g id="patch_48">
    <path d="M 282.853119 235.26 
L 282.853119 235.26 
L 282.853119 237.78 
L 282.853119 237.78 
z
" clip-path="url(#p245c46e86b)" style="fill: #4c72b0; stroke: #ffffff; stroke-linejoin: miter"/>
   </g>
   <g id="patch_49">
    <path d="M 282.853119 240.3 
L 282.96222 240.3 
L 282.96222 242.82 
L 282.853119 242.82 
z
" clip-path="url(#p245c46e86b)" style="fill: #4c72b0; stroke: #ffffff; stroke-linejoin: miter"/>
   </g>
   <g id="patch_50">
    <path d="M 282.853119 245.34 
L 282.853119 245.34 
L 282.853119 247.86 
L 282.853119 247.86 
z
" clip-path="url(#p245c46e86b)" style="fill: #4c72b0; stroke: #ffffff; stroke-linejoin: miter"/>
   </g>
   <g id="patch_51">
    <path d="M 282.853119 250.38 
L 282.853119 250.38 
L 282.853119 252.9 
L 282.853119 252.9 
z
" clip-path="url(#p245c46e86b)" style="fill: #4c72b0; stroke: #ffffff; stroke-linejoin: miter"/>
   </g>
   <g id="patch_52">
    <path d="M 282.853119 255.42 
L 282.853119 255.42 
L 282.853119 257.94 
L 282.853119 257.94 
z
" clip-path="url(#p245c46e86b)" style="fill: #4c72b0; stroke: #ffffff; stroke-linejoin: miter"/>
   </g>
   <g id="patch_53">
    <path d="M 282.853119 260.46 
L 283.382293 260.46 
L 283.382293 262.98 
L 282.853119 262.98 
z
" clip-path="url(#p245c46e86b)" style="fill: #4c72b0; stroke: #ffffff; stroke-linejoin: miter"/>
   </g>
   <g id="patch_54">
    <path d="M 282.853119 265.5 
L 282.853119 265.5 
L 282.853119 268.02 
L 282.853119 268.02 
z
" clip-path="url(#p245c46e86b)" style="fill: #4c72b0; stroke: #ffffff; stroke-linejoin: miter"/>
   </g>
   <g id="patch_55">
    <path d="M 282.853119 270.54 
L 283.093535 270.54 
L 283.093535 273.06 
L 282.853119 273.06 
z
" clip-path="url(#p245c46e86b)" style="fill: #4c72b0; stroke: #ffffff; stroke-linejoin: miter"/>
   </g>
   <g id="patch_56">
    <path d="M 282.853119 275.58 
L 283.127102 275.58 
L 283.127102 278.1 
L 282.853119 278.1 
z
" clip-path="url(#p245c46e86b)" style="fill: #4c72b0; stroke: #ffffff; stroke-linejoin: miter"/>
   </g>
   <g id="patch_57">
    <path d="M 282.853119 280.62 
L 282.853119 280.62 
L 282.853119 283.14 
L 282.853119 283.14 
z
" clip-path="url(#p245c46e86b)" style="fill: #4c72b0; stroke: #ffffff; stroke-linejoin: miter"/>
   </g>
   <g id="patch_58">
    <path d="M 22.81375 284.4 
L 22.81375 7.2 
" style="fill: none; stroke: #ffffff; stroke-width: 1.25; stroke-linejoin: miter; stroke-linecap: square"/>
   </g>
   <g id="patch_59">
    <path d="M 580.81375 284.4 
L 580.81375 7.2 
" style="fill: none; stroke: #ffffff; stroke-width: 1.25; stroke-linejoin: miter; stroke-linecap: square"/>
   </g>
   <g id="patch_60">
    <path d="M 22.81375 284.4 
L 580.81375 284.4 
" style="fill: none; stroke: #ffffff; stroke-width: 1.25; stroke-linejoin: miter; stroke-linecap: square"/>
   </g>
   <g id="patch_61">
    <path d="M 22.81375 7.2 
L 580.81375 7.2 
" style="fill: none; stroke: #ffffff; stroke-width: 1.25; stroke-linejoin: miter; stroke-linecap: square"/>
   </g>
  </g>
 </g>
 <defs>
  <clipPath id="p245c46e86b">
   <rect x="22.81375" y="7.2" width="558" height="277.2"/>
  </clipPath>
 </defs>
</svg>
